G04 #@! TF.GenerationSoftware,KiCad,Pcbnew,(5.1.5)-3*
G04 #@! TF.CreationDate,2020-11-19T15:19:38-03:00*
G04 #@! TF.ProjectId,MainBoard_a,4d61696e-426f-4617-9264-5f612e6b6963,1*
G04 #@! TF.SameCoordinates,Original*
G04 #@! TF.FileFunction,Copper,L2,Bot*
G04 #@! TF.FilePolarity,Positive*
%FSLAX46Y46*%
G04 Gerber Fmt 4.6, Leading zero omitted, Abs format (unit mm)*
G04 Created by KiCad (PCBNEW (5.1.5)-3) date 2020-11-19 15:19:38*
%MOMM*%
%LPD*%
G04 APERTURE LIST*
%ADD10C,0.010000*%
%ADD11C,1.800000*%
%ADD12R,2.195000X2.195000*%
%ADD13C,0.100000*%
%ADD14R,2.000000X2.000000*%
%ADD15O,2.000000X2.000000*%
%ADD16R,1.700000X1.700000*%
%ADD17R,0.900000X0.800000*%
%ADD18C,2.000000*%
%ADD19C,1.000000*%
%ADD20C,0.600000*%
%ADD21C,0.750000*%
%ADD22C,0.254000*%
G04 APERTURE END LIST*
D10*
G36*
X63781076Y-56864506D02*
G01*
X63732245Y-56865944D01*
X63696702Y-56869571D01*
X63668392Y-56876390D01*
X63641258Y-56887408D01*
X63609245Y-56903631D01*
X63607950Y-56904311D01*
X63514109Y-56964015D01*
X63431138Y-57037137D01*
X63362550Y-57119425D01*
X63311863Y-57206627D01*
X63282592Y-57294488D01*
X63281728Y-57298957D01*
X63267508Y-57375425D01*
X62713829Y-57381363D01*
X62160150Y-57387300D01*
X62058550Y-57421588D01*
X61878120Y-57494739D01*
X61713253Y-57586741D01*
X61565046Y-57696602D01*
X61434596Y-57823332D01*
X61323000Y-57965939D01*
X61231355Y-58123433D01*
X61196066Y-58200927D01*
X61180374Y-58238650D01*
X61167056Y-58272349D01*
X61155897Y-58304426D01*
X61146682Y-58337285D01*
X61139199Y-58373330D01*
X61133233Y-58414963D01*
X61128570Y-58464589D01*
X61124995Y-58524611D01*
X61122296Y-58597432D01*
X61120257Y-58685456D01*
X61118666Y-58791087D01*
X61117307Y-58916727D01*
X61115967Y-59064780D01*
X61115621Y-59104283D01*
X61114234Y-59277998D01*
X61113492Y-59428647D01*
X61113639Y-59558560D01*
X61114917Y-59670066D01*
X61117567Y-59765495D01*
X61121832Y-59847178D01*
X61127955Y-59917444D01*
X61136177Y-59978624D01*
X61146740Y-60033048D01*
X61159888Y-60083045D01*
X61175862Y-60130946D01*
X61194904Y-60179081D01*
X61217257Y-60229780D01*
X61237059Y-60272419D01*
X61286975Y-60378589D01*
X61224631Y-60501019D01*
X61193467Y-60565264D01*
X61172222Y-60618793D01*
X61157415Y-60672464D01*
X61145560Y-60737137D01*
X61142575Y-60756800D01*
X61134353Y-60829703D01*
X61129231Y-60912200D01*
X61127110Y-60998999D01*
X61127888Y-61084807D01*
X61131464Y-61164333D01*
X61137737Y-61232285D01*
X61146606Y-61283370D01*
X61153020Y-61303465D01*
X61174903Y-61338481D01*
X61209749Y-61378393D01*
X61250689Y-61416766D01*
X61290857Y-61447162D01*
X61323384Y-61463144D01*
X61346141Y-61465458D01*
X61388850Y-61466846D01*
X61446075Y-61467232D01*
X61512383Y-61466545D01*
X61537039Y-61466030D01*
X61721743Y-61461650D01*
X61721437Y-61633100D01*
X61722130Y-61700043D01*
X61724243Y-61760885D01*
X61727464Y-61809525D01*
X61731478Y-61839862D01*
X61732185Y-61842650D01*
X61737119Y-61870536D01*
X61735164Y-61902237D01*
X61725148Y-61942420D01*
X61705900Y-61995752D01*
X61676248Y-62066901D01*
X61675413Y-62068833D01*
X61637705Y-62175373D01*
X61622078Y-62269938D01*
X61628548Y-62353138D01*
X61657133Y-62425583D01*
X61686440Y-62465902D01*
X61722490Y-62497946D01*
X61768544Y-62521159D01*
X61828348Y-62536509D01*
X61905649Y-62544966D01*
X62001823Y-62547500D01*
X62150036Y-62547500D01*
X62158103Y-62652112D01*
X62171632Y-62743962D01*
X62197560Y-62816519D01*
X62237669Y-62873563D01*
X62279393Y-62909333D01*
X62333747Y-62947550D01*
X62843849Y-62949084D01*
X62968557Y-62949168D01*
X63096667Y-62948727D01*
X63223325Y-62947814D01*
X63343676Y-62946481D01*
X63452868Y-62944782D01*
X63546046Y-62942770D01*
X63614300Y-62940656D01*
X63697502Y-62936984D01*
X63776031Y-62932619D01*
X63844861Y-62927909D01*
X63898968Y-62923203D01*
X63933326Y-62918849D01*
X63935930Y-62918358D01*
X64003409Y-62892472D01*
X64058652Y-62845611D01*
X64100138Y-62779827D01*
X64126349Y-62697172D01*
X64133060Y-62652088D01*
X64141350Y-62570004D01*
X64218975Y-62541934D01*
X64256953Y-62524537D01*
X63864241Y-62524537D01*
X63863775Y-62565558D01*
X63856837Y-62609983D01*
X63844763Y-62647666D01*
X63834974Y-62663541D01*
X63804651Y-62680952D01*
X63762713Y-62687023D01*
X63720536Y-62681218D01*
X63697306Y-62670053D01*
X63683165Y-62647736D01*
X63672156Y-62609151D01*
X63665607Y-62563366D01*
X63664849Y-62519449D01*
X63670599Y-62487989D01*
X63673808Y-62484000D01*
X63582550Y-62484000D01*
X63581544Y-62495702D01*
X63576950Y-62496700D01*
X63567335Y-62507690D01*
X63563500Y-62533027D01*
X63561650Y-62575565D01*
X63556873Y-62617714D01*
X63550327Y-62653028D01*
X63543175Y-62675059D01*
X63537346Y-62678390D01*
X63531326Y-62661046D01*
X63525743Y-62626552D01*
X63524961Y-62618130D01*
X63409242Y-62618130D01*
X63406664Y-62656684D01*
X63401512Y-62678258D01*
X63394483Y-62680157D01*
X63386276Y-62659688D01*
X63385208Y-62655450D01*
X63378574Y-62616375D01*
X63374575Y-62571458D01*
X63374384Y-62566550D01*
X63372762Y-62515750D01*
X63336254Y-62579250D01*
X63302386Y-62631722D01*
X63271661Y-62667041D01*
X63246484Y-62682804D01*
X63234101Y-62681344D01*
X63227325Y-62665121D01*
X63222927Y-62631545D01*
X63220951Y-62588515D01*
X63220994Y-62584541D01*
X63144400Y-62584541D01*
X63133854Y-62599550D01*
X63110142Y-62605723D01*
X63095737Y-62603643D01*
X63071501Y-62598604D01*
X63066412Y-62598300D01*
X63059797Y-62590458D01*
X63061850Y-62585600D01*
X63077752Y-62576797D01*
X63104062Y-62573238D01*
X63129785Y-62575064D01*
X63143929Y-62582416D01*
X63144400Y-62584541D01*
X63220994Y-62584541D01*
X63221444Y-62543930D01*
X63224450Y-62505690D01*
X63230015Y-62481695D01*
X63232928Y-62477880D01*
X63244695Y-62482434D01*
X63254019Y-62511645D01*
X63260716Y-62564870D01*
X63261665Y-62577490D01*
X63265050Y-62626531D01*
X63316063Y-62552090D01*
X63350497Y-62505529D01*
X63375335Y-62482008D01*
X63392137Y-62481753D01*
X63402463Y-62504984D01*
X63407872Y-62551925D01*
X63408549Y-62565289D01*
X63409242Y-62618130D01*
X63524961Y-62618130D01*
X63522529Y-62591950D01*
X63518176Y-62546993D01*
X63512138Y-62510054D01*
X63507400Y-62493525D01*
X63504416Y-62477940D01*
X63518631Y-62471947D01*
X63535992Y-62471300D01*
X63030100Y-62471300D01*
X63030100Y-62559161D01*
X63028166Y-62622104D01*
X63022542Y-62663261D01*
X63013497Y-62681401D01*
X63003991Y-62678528D01*
X62995494Y-62659355D01*
X62989803Y-62630050D01*
X62982061Y-62601716D01*
X62961535Y-62589401D01*
X62947550Y-62586915D01*
X62922660Y-62583014D01*
X62921443Y-62579374D01*
X62939999Y-62573926D01*
X62970086Y-62559161D01*
X62826900Y-62559161D01*
X62825833Y-62606486D01*
X62823038Y-62645384D01*
X62819220Y-62667038D01*
X62807259Y-62680747D01*
X62795022Y-62673905D01*
X62788843Y-62650487D01*
X62788800Y-62647951D01*
X62781285Y-62621544D01*
X62761718Y-62614354D01*
X62734567Y-62626308D01*
X62710661Y-62649275D01*
X62688240Y-62673853D01*
X62673117Y-62686214D01*
X62670292Y-62686404D01*
X62669582Y-62672068D01*
X62671977Y-62639101D01*
X62676969Y-62594019D01*
X62678329Y-62583396D01*
X62681791Y-62561000D01*
X62599402Y-62561000D01*
X62596822Y-62604630D01*
X62575175Y-62645061D01*
X62541150Y-62672534D01*
X62512658Y-62682300D01*
X62479303Y-62686317D01*
X62450108Y-62684498D01*
X62434094Y-62676755D01*
X62433200Y-62673591D01*
X62443779Y-62664253D01*
X62461775Y-62663259D01*
X62509590Y-62658424D01*
X62545718Y-62635135D01*
X62565687Y-62598170D01*
X62565149Y-62552787D01*
X62544872Y-62517972D01*
X62505543Y-62499740D01*
X62472135Y-62496700D01*
X62445025Y-62493094D01*
X62433218Y-62484379D01*
X62433200Y-62484000D01*
X62443947Y-62474254D01*
X62470713Y-62471706D01*
X62505292Y-62475932D01*
X62539474Y-62486505D01*
X62546592Y-62489880D01*
X62582722Y-62520605D01*
X62599402Y-62561000D01*
X62681791Y-62561000D01*
X62686573Y-62530066D01*
X62697371Y-62497126D01*
X62715437Y-62479656D01*
X62745485Y-62472738D01*
X62785625Y-62471473D01*
X62826900Y-62471300D01*
X62826900Y-62559161D01*
X62970086Y-62559161D01*
X62974761Y-62556867D01*
X62988028Y-62531789D01*
X62978013Y-62502751D01*
X62973623Y-62497443D01*
X62958771Y-62479374D01*
X62962442Y-62472438D01*
X62987985Y-62471300D01*
X63030100Y-62471300D01*
X63535992Y-62471300D01*
X63565825Y-62475082D01*
X63582550Y-62484000D01*
X63673808Y-62484000D01*
X63680838Y-62475263D01*
X63691136Y-62483565D01*
X63699257Y-62508628D01*
X63702966Y-62546184D01*
X63703006Y-62549848D01*
X63708934Y-62608215D01*
X63725720Y-62645846D01*
X63752716Y-62661435D01*
X63758481Y-62661800D01*
X63785911Y-62656842D01*
X63803968Y-62638977D01*
X63815487Y-62603717D01*
X63821711Y-62561652D01*
X63828587Y-62513704D01*
X63836408Y-62489038D01*
X63846327Y-62485536D01*
X63856898Y-62497067D01*
X63864241Y-62524537D01*
X64256953Y-62524537D01*
X64334134Y-62489182D01*
X64437966Y-62419655D01*
X64527546Y-62336438D01*
X64599947Y-62242618D01*
X64652245Y-62141279D01*
X64677256Y-62058725D01*
X64683868Y-62013973D01*
X64689205Y-61952785D01*
X64692621Y-61884117D01*
X64693245Y-61849000D01*
X64408050Y-61849000D01*
X64407352Y-61916447D01*
X64404632Y-61965235D01*
X64398955Y-62002080D01*
X64389385Y-62033700D01*
X64378849Y-62058550D01*
X64326358Y-62144424D01*
X64256295Y-62211962D01*
X64168646Y-62261175D01*
X64128650Y-62275734D01*
X64083794Y-62284681D01*
X64021865Y-62290197D01*
X63950973Y-62292198D01*
X63879224Y-62290596D01*
X63814726Y-62285306D01*
X63778686Y-62279460D01*
X63722392Y-62262481D01*
X63687338Y-62237914D01*
X63669573Y-62201412D01*
X63665100Y-62154549D01*
X63667209Y-62116881D01*
X63672581Y-62090912D01*
X63676420Y-62084803D01*
X63693495Y-62085658D01*
X63725104Y-62095393D01*
X63749445Y-62105345D01*
X63793659Y-62121226D01*
X63843352Y-62130158D01*
X63907614Y-62133658D01*
X63920044Y-62133816D01*
X63974390Y-62133616D01*
X64010911Y-62130740D01*
X64037161Y-62123466D01*
X64060699Y-62110072D01*
X64077153Y-62098008D01*
X64131417Y-62041084D01*
X64167215Y-61968322D01*
X64174980Y-61927280D01*
X63549433Y-61927280D01*
X63545279Y-62029177D01*
X63536584Y-62079140D01*
X63520850Y-62128930D01*
X63493626Y-62173468D01*
X63464838Y-62206934D01*
X63398176Y-62261969D01*
X63324889Y-62293196D01*
X63247565Y-62300209D01*
X63168787Y-62282606D01*
X63122499Y-62260409D01*
X63090173Y-62242329D01*
X63072331Y-62236463D01*
X63061509Y-62242240D01*
X63052769Y-62255054D01*
X63041669Y-62267939D01*
X63024278Y-62275687D01*
X62994725Y-62279545D01*
X62947143Y-62280762D01*
X62931635Y-62280800D01*
X62826580Y-62280800D01*
X62674500Y-62280800D01*
X62421282Y-62280800D01*
X62414150Y-61969650D01*
X62368658Y-61965835D01*
X62333018Y-61969712D01*
X62298689Y-61989033D01*
X62263561Y-62026024D01*
X62225527Y-62082911D01*
X62182476Y-62161920D01*
X62181966Y-62162921D01*
X62122050Y-62280683D01*
X62004575Y-62280741D01*
X61953480Y-62279982D01*
X61913618Y-62277897D01*
X61890579Y-62274856D01*
X61887100Y-62272969D01*
X61893175Y-62254869D01*
X61909569Y-62219962D01*
X61933534Y-62173220D01*
X61962325Y-62119618D01*
X61993194Y-62064129D01*
X62023396Y-62011728D01*
X62050183Y-61967389D01*
X62070809Y-61936085D01*
X62078630Y-61926119D01*
X62116176Y-61885011D01*
X62059190Y-61821628D01*
X62016734Y-61765729D01*
X61994426Y-61710898D01*
X61989301Y-61647863D01*
X61992092Y-61611805D01*
X62006935Y-61551618D01*
X62038538Y-61504583D01*
X62090650Y-61465726D01*
X62110011Y-61455340D01*
X62132958Y-61444404D01*
X62155175Y-61436215D01*
X62180857Y-61430287D01*
X62214205Y-61426135D01*
X62259415Y-61423274D01*
X62320688Y-61421218D01*
X62402221Y-61419483D01*
X62423675Y-61419089D01*
X62674500Y-61414549D01*
X62674500Y-62280800D01*
X62826580Y-62280800D01*
X62833250Y-61372750D01*
X63049150Y-61372750D01*
X63052700Y-61533958D01*
X63056249Y-61695167D01*
X63135250Y-61657793D01*
X63216352Y-61628439D01*
X63290007Y-61621709D01*
X63359971Y-61637432D01*
X63381133Y-61646662D01*
X63449251Y-61693058D01*
X63500572Y-61756864D01*
X63534248Y-61835723D01*
X63549433Y-61927280D01*
X64174980Y-61927280D01*
X64183475Y-61882390D01*
X64183795Y-61832225D01*
X64172065Y-61746557D01*
X64145280Y-61677979D01*
X64101262Y-61621688D01*
X64079659Y-61602598D01*
X64020736Y-61570654D01*
X63948619Y-61557379D01*
X63867675Y-61563094D01*
X63798450Y-61581934D01*
X63742505Y-61601279D01*
X63705794Y-61610505D01*
X63684017Y-61609039D01*
X63672869Y-61596307D01*
X63668049Y-61571736D01*
X63667392Y-61564460D01*
X63666888Y-61512390D01*
X63677209Y-61473770D01*
X63701460Y-61446027D01*
X63742744Y-61426591D01*
X63804164Y-61412891D01*
X63859286Y-61405509D01*
X63983780Y-61400590D01*
X64095343Y-61415106D01*
X64192671Y-61448479D01*
X64274461Y-61500126D01*
X64339408Y-61569467D01*
X64378037Y-61636566D01*
X64391560Y-61669820D01*
X64400355Y-61702437D01*
X64405388Y-61741255D01*
X64407625Y-61793110D01*
X64408050Y-61849000D01*
X64693245Y-61849000D01*
X64693536Y-61832681D01*
X64692804Y-61761563D01*
X64689574Y-61707373D01*
X64682727Y-61661675D01*
X64671145Y-61616036D01*
X64660260Y-61581530D01*
X64645970Y-61534190D01*
X64637039Y-61496241D01*
X64634829Y-61473862D01*
X64635898Y-61470848D01*
X64650965Y-61467515D01*
X64687223Y-61463866D01*
X64740471Y-61460193D01*
X64806508Y-61456791D01*
X64875813Y-61454123D01*
X64952141Y-61450946D01*
X65021652Y-61446773D01*
X65079547Y-61441991D01*
X65121031Y-61436989D01*
X65140065Y-61432748D01*
X65197336Y-61397692D01*
X65247001Y-61346575D01*
X65280727Y-61288215D01*
X65283287Y-61281206D01*
X65291389Y-61242887D01*
X65297526Y-61184885D01*
X65301628Y-61112841D01*
X65303625Y-61032403D01*
X65303448Y-60949212D01*
X65301026Y-60868915D01*
X65296291Y-60797155D01*
X65289923Y-60744100D01*
X65277657Y-60692865D01*
X65255805Y-60626477D01*
X65226860Y-60552127D01*
X65209032Y-60510915D01*
X65141428Y-60360280D01*
X65185764Y-60250565D01*
X65210421Y-60184710D01*
X65236104Y-60108321D01*
X65258093Y-60035605D01*
X65262317Y-60020200D01*
X65270167Y-59990175D01*
X65276659Y-59962533D01*
X65281951Y-59934502D01*
X65284522Y-59915646D01*
X65011300Y-59915646D01*
X64961197Y-60036033D01*
X64898632Y-60172071D01*
X64834355Y-60283776D01*
X64800054Y-60332445D01*
X64768106Y-60374331D01*
X64840600Y-60459786D01*
X64901685Y-60541457D01*
X64947812Y-60626743D01*
X64980355Y-60720138D01*
X65000688Y-60826140D01*
X65010186Y-60949243D01*
X65011300Y-61018267D01*
X65011300Y-61163200D01*
X64379630Y-61163200D01*
X64373185Y-61033025D01*
X64369629Y-60976091D01*
X64365222Y-60927235D01*
X64360626Y-60892980D01*
X64357839Y-60881606D01*
X64341625Y-60861189D01*
X64319384Y-60849511D01*
X64302138Y-60852129D01*
X64298981Y-60866854D01*
X64295582Y-60901751D01*
X64292349Y-60951602D01*
X64289690Y-61011178D01*
X64284270Y-61163200D01*
X63627000Y-61163200D01*
X63627000Y-61076216D01*
X63625411Y-60988841D01*
X63620913Y-60912925D01*
X63613908Y-60851766D01*
X63604800Y-60808663D01*
X63593991Y-60786916D01*
X63591453Y-60785335D01*
X63571818Y-60783643D01*
X63557266Y-60797224D01*
X63547224Y-60828317D01*
X63541122Y-60879161D01*
X63538386Y-60951995D01*
X63538100Y-60994177D01*
X63538100Y-61163200D01*
X62890400Y-61163200D01*
X62890400Y-60994177D01*
X62889081Y-60910604D01*
X62884720Y-60850002D01*
X62876715Y-60810062D01*
X62864461Y-60788472D01*
X62847356Y-60782921D01*
X62835976Y-60785746D01*
X62820365Y-60804200D01*
X62808668Y-60846349D01*
X62800819Y-60912623D01*
X62796750Y-61003453D01*
X62796220Y-61039367D01*
X62795150Y-61163184D01*
X62468484Y-61163192D01*
X62141817Y-61163200D01*
X62138284Y-60988575D01*
X62134750Y-60813950D01*
X62099825Y-60864523D01*
X62073082Y-60915810D01*
X62064801Y-60970460D01*
X62064790Y-60972473D01*
X62063058Y-61021252D01*
X62058828Y-61076481D01*
X62056671Y-61096525D01*
X62048663Y-61163200D01*
X61387920Y-61163200D01*
X61396000Y-61021973D01*
X61413679Y-60862211D01*
X61447689Y-60720655D01*
X61498567Y-60595617D01*
X61566852Y-60485410D01*
X61567529Y-60484506D01*
X61594292Y-60448297D01*
X61615347Y-60418947D01*
X61624853Y-60404819D01*
X61622559Y-60387645D01*
X61608312Y-60353803D01*
X61584189Y-60307803D01*
X61564988Y-60274830D01*
X61529679Y-60213066D01*
X61494158Y-60145606D01*
X61464199Y-60083599D01*
X61454578Y-60061661D01*
X61439473Y-60024448D01*
X61428311Y-59992103D01*
X61420258Y-59959402D01*
X61414478Y-59921116D01*
X61410137Y-59872019D01*
X61406401Y-59806886D01*
X61403334Y-59740800D01*
X61400100Y-59652395D01*
X61397504Y-59549291D01*
X61395542Y-59435302D01*
X61394211Y-59314246D01*
X61393510Y-59189938D01*
X61393435Y-59066196D01*
X61393984Y-58946835D01*
X61395155Y-58835673D01*
X61396944Y-58736525D01*
X61399350Y-58653209D01*
X61402369Y-58589539D01*
X61404128Y-58566050D01*
X61425859Y-58439277D01*
X61466696Y-58310103D01*
X61523278Y-58187977D01*
X61560527Y-58126281D01*
X61606406Y-58066730D01*
X61667705Y-58000299D01*
X61737969Y-57933015D01*
X61810741Y-57870903D01*
X61879563Y-57819989D01*
X61907744Y-57802209D01*
X61954094Y-57775613D01*
X61997706Y-57752610D01*
X62040817Y-57732892D01*
X62085663Y-57716152D01*
X62134481Y-57702082D01*
X62189508Y-57690375D01*
X62252983Y-57680724D01*
X62327140Y-57672822D01*
X62414218Y-57666360D01*
X62516453Y-57661031D01*
X62636083Y-57656529D01*
X62775345Y-57652546D01*
X62936475Y-57648774D01*
X63040454Y-57646570D01*
X63156123Y-57644060D01*
X63263763Y-57641504D01*
X63360758Y-57638980D01*
X63444493Y-57636566D01*
X63512351Y-57634341D01*
X63561718Y-57632383D01*
X63589977Y-57630770D01*
X63595777Y-57629956D01*
X63594440Y-57616293D01*
X63585613Y-57586263D01*
X63574669Y-57555643D01*
X63554121Y-57469632D01*
X63556951Y-57385572D01*
X63581909Y-57307346D01*
X63627745Y-57238839D01*
X63693209Y-57183933D01*
X63694576Y-57183083D01*
X63771346Y-57149046D01*
X63849921Y-57137965D01*
X63926497Y-57148026D01*
X63997270Y-57177411D01*
X64058438Y-57224306D01*
X64106196Y-57286894D01*
X64136742Y-57363360D01*
X64143274Y-57397317D01*
X64144599Y-57445125D01*
X64134874Y-57500437D01*
X64122164Y-57544125D01*
X64106329Y-57600540D01*
X64102179Y-57635210D01*
X64106107Y-57646886D01*
X64123949Y-57656017D01*
X64159477Y-57668497D01*
X64205641Y-57681899D01*
X64214991Y-57684339D01*
X64298385Y-57708217D01*
X64370036Y-57735353D01*
X64439503Y-57770049D01*
X64516344Y-57816612D01*
X64533439Y-57827727D01*
X64659434Y-57923867D01*
X64769747Y-58035681D01*
X64861348Y-58159603D01*
X64931206Y-58292065D01*
X64934505Y-58299882D01*
X64950428Y-58340183D01*
X64964009Y-58380221D01*
X64975431Y-58422331D01*
X64984876Y-58468846D01*
X64992528Y-58522099D01*
X64998569Y-58584423D01*
X65003181Y-58658153D01*
X65006549Y-58745622D01*
X65008855Y-58849162D01*
X65010281Y-58971108D01*
X65011010Y-59113793D01*
X65011226Y-59278948D01*
X65011300Y-59915646D01*
X65284522Y-59915646D01*
X65286204Y-59903314D01*
X65289575Y-59866197D01*
X65292225Y-59820381D01*
X65294312Y-59763096D01*
X65295995Y-59691571D01*
X65297435Y-59603037D01*
X65298789Y-59494723D01*
X65300218Y-59363859D01*
X65300261Y-59359800D01*
X65301674Y-59166140D01*
X65301487Y-58996078D01*
X65299617Y-58847857D01*
X65295982Y-58719720D01*
X65290499Y-58609911D01*
X65283086Y-58516673D01*
X65273661Y-58438249D01*
X65262141Y-58372882D01*
X65252001Y-58331100D01*
X65195560Y-58173011D01*
X65117042Y-58021552D01*
X65019131Y-57879849D01*
X64904512Y-57751028D01*
X64775869Y-57638212D01*
X64635887Y-57544528D01*
X64530353Y-57491014D01*
X64485239Y-57470580D01*
X64458111Y-57455087D01*
X64443717Y-57439228D01*
X64436801Y-57417696D01*
X64433121Y-57392818D01*
X64404812Y-57264059D01*
X64356114Y-57149651D01*
X64287711Y-57050565D01*
X64200286Y-56967770D01*
X64094523Y-56902238D01*
X64084200Y-56897255D01*
X64053053Y-56883497D01*
X64024397Y-56874184D01*
X63992148Y-56868462D01*
X63950219Y-56865474D01*
X63892526Y-56864367D01*
X63849250Y-56864250D01*
X63781076Y-56864506D01*
G37*
X63781076Y-56864506D02*
X63732245Y-56865944D01*
X63696702Y-56869571D01*
X63668392Y-56876390D01*
X63641258Y-56887408D01*
X63609245Y-56903631D01*
X63607950Y-56904311D01*
X63514109Y-56964015D01*
X63431138Y-57037137D01*
X63362550Y-57119425D01*
X63311863Y-57206627D01*
X63282592Y-57294488D01*
X63281728Y-57298957D01*
X63267508Y-57375425D01*
X62713829Y-57381363D01*
X62160150Y-57387300D01*
X62058550Y-57421588D01*
X61878120Y-57494739D01*
X61713253Y-57586741D01*
X61565046Y-57696602D01*
X61434596Y-57823332D01*
X61323000Y-57965939D01*
X61231355Y-58123433D01*
X61196066Y-58200927D01*
X61180374Y-58238650D01*
X61167056Y-58272349D01*
X61155897Y-58304426D01*
X61146682Y-58337285D01*
X61139199Y-58373330D01*
X61133233Y-58414963D01*
X61128570Y-58464589D01*
X61124995Y-58524611D01*
X61122296Y-58597432D01*
X61120257Y-58685456D01*
X61118666Y-58791087D01*
X61117307Y-58916727D01*
X61115967Y-59064780D01*
X61115621Y-59104283D01*
X61114234Y-59277998D01*
X61113492Y-59428647D01*
X61113639Y-59558560D01*
X61114917Y-59670066D01*
X61117567Y-59765495D01*
X61121832Y-59847178D01*
X61127955Y-59917444D01*
X61136177Y-59978624D01*
X61146740Y-60033048D01*
X61159888Y-60083045D01*
X61175862Y-60130946D01*
X61194904Y-60179081D01*
X61217257Y-60229780D01*
X61237059Y-60272419D01*
X61286975Y-60378589D01*
X61224631Y-60501019D01*
X61193467Y-60565264D01*
X61172222Y-60618793D01*
X61157415Y-60672464D01*
X61145560Y-60737137D01*
X61142575Y-60756800D01*
X61134353Y-60829703D01*
X61129231Y-60912200D01*
X61127110Y-60998999D01*
X61127888Y-61084807D01*
X61131464Y-61164333D01*
X61137737Y-61232285D01*
X61146606Y-61283370D01*
X61153020Y-61303465D01*
X61174903Y-61338481D01*
X61209749Y-61378393D01*
X61250689Y-61416766D01*
X61290857Y-61447162D01*
X61323384Y-61463144D01*
X61346141Y-61465458D01*
X61388850Y-61466846D01*
X61446075Y-61467232D01*
X61512383Y-61466545D01*
X61537039Y-61466030D01*
X61721743Y-61461650D01*
X61721437Y-61633100D01*
X61722130Y-61700043D01*
X61724243Y-61760885D01*
X61727464Y-61809525D01*
X61731478Y-61839862D01*
X61732185Y-61842650D01*
X61737119Y-61870536D01*
X61735164Y-61902237D01*
X61725148Y-61942420D01*
X61705900Y-61995752D01*
X61676248Y-62066901D01*
X61675413Y-62068833D01*
X61637705Y-62175373D01*
X61622078Y-62269938D01*
X61628548Y-62353138D01*
X61657133Y-62425583D01*
X61686440Y-62465902D01*
X61722490Y-62497946D01*
X61768544Y-62521159D01*
X61828348Y-62536509D01*
X61905649Y-62544966D01*
X62001823Y-62547500D01*
X62150036Y-62547500D01*
X62158103Y-62652112D01*
X62171632Y-62743962D01*
X62197560Y-62816519D01*
X62237669Y-62873563D01*
X62279393Y-62909333D01*
X62333747Y-62947550D01*
X62843849Y-62949084D01*
X62968557Y-62949168D01*
X63096667Y-62948727D01*
X63223325Y-62947814D01*
X63343676Y-62946481D01*
X63452868Y-62944782D01*
X63546046Y-62942770D01*
X63614300Y-62940656D01*
X63697502Y-62936984D01*
X63776031Y-62932619D01*
X63844861Y-62927909D01*
X63898968Y-62923203D01*
X63933326Y-62918849D01*
X63935930Y-62918358D01*
X64003409Y-62892472D01*
X64058652Y-62845611D01*
X64100138Y-62779827D01*
X64126349Y-62697172D01*
X64133060Y-62652088D01*
X64141350Y-62570004D01*
X64218975Y-62541934D01*
X64256953Y-62524537D01*
X63864241Y-62524537D01*
X63863775Y-62565558D01*
X63856837Y-62609983D01*
X63844763Y-62647666D01*
X63834974Y-62663541D01*
X63804651Y-62680952D01*
X63762713Y-62687023D01*
X63720536Y-62681218D01*
X63697306Y-62670053D01*
X63683165Y-62647736D01*
X63672156Y-62609151D01*
X63665607Y-62563366D01*
X63664849Y-62519449D01*
X63670599Y-62487989D01*
X63673808Y-62484000D01*
X63582550Y-62484000D01*
X63581544Y-62495702D01*
X63576950Y-62496700D01*
X63567335Y-62507690D01*
X63563500Y-62533027D01*
X63561650Y-62575565D01*
X63556873Y-62617714D01*
X63550327Y-62653028D01*
X63543175Y-62675059D01*
X63537346Y-62678390D01*
X63531326Y-62661046D01*
X63525743Y-62626552D01*
X63524961Y-62618130D01*
X63409242Y-62618130D01*
X63406664Y-62656684D01*
X63401512Y-62678258D01*
X63394483Y-62680157D01*
X63386276Y-62659688D01*
X63385208Y-62655450D01*
X63378574Y-62616375D01*
X63374575Y-62571458D01*
X63374384Y-62566550D01*
X63372762Y-62515750D01*
X63336254Y-62579250D01*
X63302386Y-62631722D01*
X63271661Y-62667041D01*
X63246484Y-62682804D01*
X63234101Y-62681344D01*
X63227325Y-62665121D01*
X63222927Y-62631545D01*
X63220951Y-62588515D01*
X63220994Y-62584541D01*
X63144400Y-62584541D01*
X63133854Y-62599550D01*
X63110142Y-62605723D01*
X63095737Y-62603643D01*
X63071501Y-62598604D01*
X63066412Y-62598300D01*
X63059797Y-62590458D01*
X63061850Y-62585600D01*
X63077752Y-62576797D01*
X63104062Y-62573238D01*
X63129785Y-62575064D01*
X63143929Y-62582416D01*
X63144400Y-62584541D01*
X63220994Y-62584541D01*
X63221444Y-62543930D01*
X63224450Y-62505690D01*
X63230015Y-62481695D01*
X63232928Y-62477880D01*
X63244695Y-62482434D01*
X63254019Y-62511645D01*
X63260716Y-62564870D01*
X63261665Y-62577490D01*
X63265050Y-62626531D01*
X63316063Y-62552090D01*
X63350497Y-62505529D01*
X63375335Y-62482008D01*
X63392137Y-62481753D01*
X63402463Y-62504984D01*
X63407872Y-62551925D01*
X63408549Y-62565289D01*
X63409242Y-62618130D01*
X63524961Y-62618130D01*
X63522529Y-62591950D01*
X63518176Y-62546993D01*
X63512138Y-62510054D01*
X63507400Y-62493525D01*
X63504416Y-62477940D01*
X63518631Y-62471947D01*
X63535992Y-62471300D01*
X63030100Y-62471300D01*
X63030100Y-62559161D01*
X63028166Y-62622104D01*
X63022542Y-62663261D01*
X63013497Y-62681401D01*
X63003991Y-62678528D01*
X62995494Y-62659355D01*
X62989803Y-62630050D01*
X62982061Y-62601716D01*
X62961535Y-62589401D01*
X62947550Y-62586915D01*
X62922660Y-62583014D01*
X62921443Y-62579374D01*
X62939999Y-62573926D01*
X62970086Y-62559161D01*
X62826900Y-62559161D01*
X62825833Y-62606486D01*
X62823038Y-62645384D01*
X62819220Y-62667038D01*
X62807259Y-62680747D01*
X62795022Y-62673905D01*
X62788843Y-62650487D01*
X62788800Y-62647951D01*
X62781285Y-62621544D01*
X62761718Y-62614354D01*
X62734567Y-62626308D01*
X62710661Y-62649275D01*
X62688240Y-62673853D01*
X62673117Y-62686214D01*
X62670292Y-62686404D01*
X62669582Y-62672068D01*
X62671977Y-62639101D01*
X62676969Y-62594019D01*
X62678329Y-62583396D01*
X62681791Y-62561000D01*
X62599402Y-62561000D01*
X62596822Y-62604630D01*
X62575175Y-62645061D01*
X62541150Y-62672534D01*
X62512658Y-62682300D01*
X62479303Y-62686317D01*
X62450108Y-62684498D01*
X62434094Y-62676755D01*
X62433200Y-62673591D01*
X62443779Y-62664253D01*
X62461775Y-62663259D01*
X62509590Y-62658424D01*
X62545718Y-62635135D01*
X62565687Y-62598170D01*
X62565149Y-62552787D01*
X62544872Y-62517972D01*
X62505543Y-62499740D01*
X62472135Y-62496700D01*
X62445025Y-62493094D01*
X62433218Y-62484379D01*
X62433200Y-62484000D01*
X62443947Y-62474254D01*
X62470713Y-62471706D01*
X62505292Y-62475932D01*
X62539474Y-62486505D01*
X62546592Y-62489880D01*
X62582722Y-62520605D01*
X62599402Y-62561000D01*
X62681791Y-62561000D01*
X62686573Y-62530066D01*
X62697371Y-62497126D01*
X62715437Y-62479656D01*
X62745485Y-62472738D01*
X62785625Y-62471473D01*
X62826900Y-62471300D01*
X62826900Y-62559161D01*
X62970086Y-62559161D01*
X62974761Y-62556867D01*
X62988028Y-62531789D01*
X62978013Y-62502751D01*
X62973623Y-62497443D01*
X62958771Y-62479374D01*
X62962442Y-62472438D01*
X62987985Y-62471300D01*
X63030100Y-62471300D01*
X63535992Y-62471300D01*
X63565825Y-62475082D01*
X63582550Y-62484000D01*
X63673808Y-62484000D01*
X63680838Y-62475263D01*
X63691136Y-62483565D01*
X63699257Y-62508628D01*
X63702966Y-62546184D01*
X63703006Y-62549848D01*
X63708934Y-62608215D01*
X63725720Y-62645846D01*
X63752716Y-62661435D01*
X63758481Y-62661800D01*
X63785911Y-62656842D01*
X63803968Y-62638977D01*
X63815487Y-62603717D01*
X63821711Y-62561652D01*
X63828587Y-62513704D01*
X63836408Y-62489038D01*
X63846327Y-62485536D01*
X63856898Y-62497067D01*
X63864241Y-62524537D01*
X64256953Y-62524537D01*
X64334134Y-62489182D01*
X64437966Y-62419655D01*
X64527546Y-62336438D01*
X64599947Y-62242618D01*
X64652245Y-62141279D01*
X64677256Y-62058725D01*
X64683868Y-62013973D01*
X64689205Y-61952785D01*
X64692621Y-61884117D01*
X64693245Y-61849000D01*
X64408050Y-61849000D01*
X64407352Y-61916447D01*
X64404632Y-61965235D01*
X64398955Y-62002080D01*
X64389385Y-62033700D01*
X64378849Y-62058550D01*
X64326358Y-62144424D01*
X64256295Y-62211962D01*
X64168646Y-62261175D01*
X64128650Y-62275734D01*
X64083794Y-62284681D01*
X64021865Y-62290197D01*
X63950973Y-62292198D01*
X63879224Y-62290596D01*
X63814726Y-62285306D01*
X63778686Y-62279460D01*
X63722392Y-62262481D01*
X63687338Y-62237914D01*
X63669573Y-62201412D01*
X63665100Y-62154549D01*
X63667209Y-62116881D01*
X63672581Y-62090912D01*
X63676420Y-62084803D01*
X63693495Y-62085658D01*
X63725104Y-62095393D01*
X63749445Y-62105345D01*
X63793659Y-62121226D01*
X63843352Y-62130158D01*
X63907614Y-62133658D01*
X63920044Y-62133816D01*
X63974390Y-62133616D01*
X64010911Y-62130740D01*
X64037161Y-62123466D01*
X64060699Y-62110072D01*
X64077153Y-62098008D01*
X64131417Y-62041084D01*
X64167215Y-61968322D01*
X64174980Y-61927280D01*
X63549433Y-61927280D01*
X63545279Y-62029177D01*
X63536584Y-62079140D01*
X63520850Y-62128930D01*
X63493626Y-62173468D01*
X63464838Y-62206934D01*
X63398176Y-62261969D01*
X63324889Y-62293196D01*
X63247565Y-62300209D01*
X63168787Y-62282606D01*
X63122499Y-62260409D01*
X63090173Y-62242329D01*
X63072331Y-62236463D01*
X63061509Y-62242240D01*
X63052769Y-62255054D01*
X63041669Y-62267939D01*
X63024278Y-62275687D01*
X62994725Y-62279545D01*
X62947143Y-62280762D01*
X62931635Y-62280800D01*
X62826580Y-62280800D01*
X62674500Y-62280800D01*
X62421282Y-62280800D01*
X62414150Y-61969650D01*
X62368658Y-61965835D01*
X62333018Y-61969712D01*
X62298689Y-61989033D01*
X62263561Y-62026024D01*
X62225527Y-62082911D01*
X62182476Y-62161920D01*
X62181966Y-62162921D01*
X62122050Y-62280683D01*
X62004575Y-62280741D01*
X61953480Y-62279982D01*
X61913618Y-62277897D01*
X61890579Y-62274856D01*
X61887100Y-62272969D01*
X61893175Y-62254869D01*
X61909569Y-62219962D01*
X61933534Y-62173220D01*
X61962325Y-62119618D01*
X61993194Y-62064129D01*
X62023396Y-62011728D01*
X62050183Y-61967389D01*
X62070809Y-61936085D01*
X62078630Y-61926119D01*
X62116176Y-61885011D01*
X62059190Y-61821628D01*
X62016734Y-61765729D01*
X61994426Y-61710898D01*
X61989301Y-61647863D01*
X61992092Y-61611805D01*
X62006935Y-61551618D01*
X62038538Y-61504583D01*
X62090650Y-61465726D01*
X62110011Y-61455340D01*
X62132958Y-61444404D01*
X62155175Y-61436215D01*
X62180857Y-61430287D01*
X62214205Y-61426135D01*
X62259415Y-61423274D01*
X62320688Y-61421218D01*
X62402221Y-61419483D01*
X62423675Y-61419089D01*
X62674500Y-61414549D01*
X62674500Y-62280800D01*
X62826580Y-62280800D01*
X62833250Y-61372750D01*
X63049150Y-61372750D01*
X63052700Y-61533958D01*
X63056249Y-61695167D01*
X63135250Y-61657793D01*
X63216352Y-61628439D01*
X63290007Y-61621709D01*
X63359971Y-61637432D01*
X63381133Y-61646662D01*
X63449251Y-61693058D01*
X63500572Y-61756864D01*
X63534248Y-61835723D01*
X63549433Y-61927280D01*
X64174980Y-61927280D01*
X64183475Y-61882390D01*
X64183795Y-61832225D01*
X64172065Y-61746557D01*
X64145280Y-61677979D01*
X64101262Y-61621688D01*
X64079659Y-61602598D01*
X64020736Y-61570654D01*
X63948619Y-61557379D01*
X63867675Y-61563094D01*
X63798450Y-61581934D01*
X63742505Y-61601279D01*
X63705794Y-61610505D01*
X63684017Y-61609039D01*
X63672869Y-61596307D01*
X63668049Y-61571736D01*
X63667392Y-61564460D01*
X63666888Y-61512390D01*
X63677209Y-61473770D01*
X63701460Y-61446027D01*
X63742744Y-61426591D01*
X63804164Y-61412891D01*
X63859286Y-61405509D01*
X63983780Y-61400590D01*
X64095343Y-61415106D01*
X64192671Y-61448479D01*
X64274461Y-61500126D01*
X64339408Y-61569467D01*
X64378037Y-61636566D01*
X64391560Y-61669820D01*
X64400355Y-61702437D01*
X64405388Y-61741255D01*
X64407625Y-61793110D01*
X64408050Y-61849000D01*
X64693245Y-61849000D01*
X64693536Y-61832681D01*
X64692804Y-61761563D01*
X64689574Y-61707373D01*
X64682727Y-61661675D01*
X64671145Y-61616036D01*
X64660260Y-61581530D01*
X64645970Y-61534190D01*
X64637039Y-61496241D01*
X64634829Y-61473862D01*
X64635898Y-61470848D01*
X64650965Y-61467515D01*
X64687223Y-61463866D01*
X64740471Y-61460193D01*
X64806508Y-61456791D01*
X64875813Y-61454123D01*
X64952141Y-61450946D01*
X65021652Y-61446773D01*
X65079547Y-61441991D01*
X65121031Y-61436989D01*
X65140065Y-61432748D01*
X65197336Y-61397692D01*
X65247001Y-61346575D01*
X65280727Y-61288215D01*
X65283287Y-61281206D01*
X65291389Y-61242887D01*
X65297526Y-61184885D01*
X65301628Y-61112841D01*
X65303625Y-61032403D01*
X65303448Y-60949212D01*
X65301026Y-60868915D01*
X65296291Y-60797155D01*
X65289923Y-60744100D01*
X65277657Y-60692865D01*
X65255805Y-60626477D01*
X65226860Y-60552127D01*
X65209032Y-60510915D01*
X65141428Y-60360280D01*
X65185764Y-60250565D01*
X65210421Y-60184710D01*
X65236104Y-60108321D01*
X65258093Y-60035605D01*
X65262317Y-60020200D01*
X65270167Y-59990175D01*
X65276659Y-59962533D01*
X65281951Y-59934502D01*
X65284522Y-59915646D01*
X65011300Y-59915646D01*
X64961197Y-60036033D01*
X64898632Y-60172071D01*
X64834355Y-60283776D01*
X64800054Y-60332445D01*
X64768106Y-60374331D01*
X64840600Y-60459786D01*
X64901685Y-60541457D01*
X64947812Y-60626743D01*
X64980355Y-60720138D01*
X65000688Y-60826140D01*
X65010186Y-60949243D01*
X65011300Y-61018267D01*
X65011300Y-61163200D01*
X64379630Y-61163200D01*
X64373185Y-61033025D01*
X64369629Y-60976091D01*
X64365222Y-60927235D01*
X64360626Y-60892980D01*
X64357839Y-60881606D01*
X64341625Y-60861189D01*
X64319384Y-60849511D01*
X64302138Y-60852129D01*
X64298981Y-60866854D01*
X64295582Y-60901751D01*
X64292349Y-60951602D01*
X64289690Y-61011178D01*
X64284270Y-61163200D01*
X63627000Y-61163200D01*
X63627000Y-61076216D01*
X63625411Y-60988841D01*
X63620913Y-60912925D01*
X63613908Y-60851766D01*
X63604800Y-60808663D01*
X63593991Y-60786916D01*
X63591453Y-60785335D01*
X63571818Y-60783643D01*
X63557266Y-60797224D01*
X63547224Y-60828317D01*
X63541122Y-60879161D01*
X63538386Y-60951995D01*
X63538100Y-60994177D01*
X63538100Y-61163200D01*
X62890400Y-61163200D01*
X62890400Y-60994177D01*
X62889081Y-60910604D01*
X62884720Y-60850002D01*
X62876715Y-60810062D01*
X62864461Y-60788472D01*
X62847356Y-60782921D01*
X62835976Y-60785746D01*
X62820365Y-60804200D01*
X62808668Y-60846349D01*
X62800819Y-60912623D01*
X62796750Y-61003453D01*
X62796220Y-61039367D01*
X62795150Y-61163184D01*
X62468484Y-61163192D01*
X62141817Y-61163200D01*
X62138284Y-60988575D01*
X62134750Y-60813950D01*
X62099825Y-60864523D01*
X62073082Y-60915810D01*
X62064801Y-60970460D01*
X62064790Y-60972473D01*
X62063058Y-61021252D01*
X62058828Y-61076481D01*
X62056671Y-61096525D01*
X62048663Y-61163200D01*
X61387920Y-61163200D01*
X61396000Y-61021973D01*
X61413679Y-60862211D01*
X61447689Y-60720655D01*
X61498567Y-60595617D01*
X61566852Y-60485410D01*
X61567529Y-60484506D01*
X61594292Y-60448297D01*
X61615347Y-60418947D01*
X61624853Y-60404819D01*
X61622559Y-60387645D01*
X61608312Y-60353803D01*
X61584189Y-60307803D01*
X61564988Y-60274830D01*
X61529679Y-60213066D01*
X61494158Y-60145606D01*
X61464199Y-60083599D01*
X61454578Y-60061661D01*
X61439473Y-60024448D01*
X61428311Y-59992103D01*
X61420258Y-59959402D01*
X61414478Y-59921116D01*
X61410137Y-59872019D01*
X61406401Y-59806886D01*
X61403334Y-59740800D01*
X61400100Y-59652395D01*
X61397504Y-59549291D01*
X61395542Y-59435302D01*
X61394211Y-59314246D01*
X61393510Y-59189938D01*
X61393435Y-59066196D01*
X61393984Y-58946835D01*
X61395155Y-58835673D01*
X61396944Y-58736525D01*
X61399350Y-58653209D01*
X61402369Y-58589539D01*
X61404128Y-58566050D01*
X61425859Y-58439277D01*
X61466696Y-58310103D01*
X61523278Y-58187977D01*
X61560527Y-58126281D01*
X61606406Y-58066730D01*
X61667705Y-58000299D01*
X61737969Y-57933015D01*
X61810741Y-57870903D01*
X61879563Y-57819989D01*
X61907744Y-57802209D01*
X61954094Y-57775613D01*
X61997706Y-57752610D01*
X62040817Y-57732892D01*
X62085663Y-57716152D01*
X62134481Y-57702082D01*
X62189508Y-57690375D01*
X62252983Y-57680724D01*
X62327140Y-57672822D01*
X62414218Y-57666360D01*
X62516453Y-57661031D01*
X62636083Y-57656529D01*
X62775345Y-57652546D01*
X62936475Y-57648774D01*
X63040454Y-57646570D01*
X63156123Y-57644060D01*
X63263763Y-57641504D01*
X63360758Y-57638980D01*
X63444493Y-57636566D01*
X63512351Y-57634341D01*
X63561718Y-57632383D01*
X63589977Y-57630770D01*
X63595777Y-57629956D01*
X63594440Y-57616293D01*
X63585613Y-57586263D01*
X63574669Y-57555643D01*
X63554121Y-57469632D01*
X63556951Y-57385572D01*
X63581909Y-57307346D01*
X63627745Y-57238839D01*
X63693209Y-57183933D01*
X63694576Y-57183083D01*
X63771346Y-57149046D01*
X63849921Y-57137965D01*
X63926497Y-57148026D01*
X63997270Y-57177411D01*
X64058438Y-57224306D01*
X64106196Y-57286894D01*
X64136742Y-57363360D01*
X64143274Y-57397317D01*
X64144599Y-57445125D01*
X64134874Y-57500437D01*
X64122164Y-57544125D01*
X64106329Y-57600540D01*
X64102179Y-57635210D01*
X64106107Y-57646886D01*
X64123949Y-57656017D01*
X64159477Y-57668497D01*
X64205641Y-57681899D01*
X64214991Y-57684339D01*
X64298385Y-57708217D01*
X64370036Y-57735353D01*
X64439503Y-57770049D01*
X64516344Y-57816612D01*
X64533439Y-57827727D01*
X64659434Y-57923867D01*
X64769747Y-58035681D01*
X64861348Y-58159603D01*
X64931206Y-58292065D01*
X64934505Y-58299882D01*
X64950428Y-58340183D01*
X64964009Y-58380221D01*
X64975431Y-58422331D01*
X64984876Y-58468846D01*
X64992528Y-58522099D01*
X64998569Y-58584423D01*
X65003181Y-58658153D01*
X65006549Y-58745622D01*
X65008855Y-58849162D01*
X65010281Y-58971108D01*
X65011010Y-59113793D01*
X65011226Y-59278948D01*
X65011300Y-59915646D01*
X65284522Y-59915646D01*
X65286204Y-59903314D01*
X65289575Y-59866197D01*
X65292225Y-59820381D01*
X65294312Y-59763096D01*
X65295995Y-59691571D01*
X65297435Y-59603037D01*
X65298789Y-59494723D01*
X65300218Y-59363859D01*
X65300261Y-59359800D01*
X65301674Y-59166140D01*
X65301487Y-58996078D01*
X65299617Y-58847857D01*
X65295982Y-58719720D01*
X65290499Y-58609911D01*
X65283086Y-58516673D01*
X65273661Y-58438249D01*
X65262141Y-58372882D01*
X65252001Y-58331100D01*
X65195560Y-58173011D01*
X65117042Y-58021552D01*
X65019131Y-57879849D01*
X64904512Y-57751028D01*
X64775869Y-57638212D01*
X64635887Y-57544528D01*
X64530353Y-57491014D01*
X64485239Y-57470580D01*
X64458111Y-57455087D01*
X64443717Y-57439228D01*
X64436801Y-57417696D01*
X64433121Y-57392818D01*
X64404812Y-57264059D01*
X64356114Y-57149651D01*
X64287711Y-57050565D01*
X64200286Y-56967770D01*
X64094523Y-56902238D01*
X64084200Y-56897255D01*
X64053053Y-56883497D01*
X64024397Y-56874184D01*
X63992148Y-56868462D01*
X63950219Y-56865474D01*
X63892526Y-56864367D01*
X63849250Y-56864250D01*
X63781076Y-56864506D01*
G36*
X62736719Y-62507221D02*
G01*
X62722353Y-62532264D01*
X62726127Y-62562048D01*
X62727008Y-62563702D01*
X62747903Y-62582958D01*
X62772269Y-62582845D01*
X62780334Y-62577133D01*
X62786538Y-62559369D01*
X62788800Y-62532683D01*
X62784200Y-62505672D01*
X62767625Y-62496830D01*
X62763847Y-62496700D01*
X62736719Y-62507221D01*
G37*
X62736719Y-62507221D02*
X62722353Y-62532264D01*
X62726127Y-62562048D01*
X62727008Y-62563702D01*
X62747903Y-62582958D01*
X62772269Y-62582845D01*
X62780334Y-62577133D01*
X62786538Y-62559369D01*
X62788800Y-62532683D01*
X62784200Y-62505672D01*
X62767625Y-62496830D01*
X62763847Y-62496700D01*
X62736719Y-62507221D01*
G36*
X63143981Y-61768122D02*
G01*
X63107912Y-61794530D01*
X63080100Y-61840499D01*
X63060416Y-61906637D01*
X63056754Y-61976934D01*
X63068114Y-62044394D01*
X63093498Y-62102025D01*
X63122211Y-62135502D01*
X63160126Y-62160224D01*
X63194131Y-62163275D01*
X63231169Y-62144468D01*
X63246753Y-62132167D01*
X63278025Y-62099121D01*
X63302199Y-62062220D01*
X63304877Y-62056375D01*
X63319548Y-61998894D01*
X63319703Y-61937996D01*
X63307306Y-61878844D01*
X63284323Y-61826601D01*
X63252716Y-61786432D01*
X63214452Y-61763500D01*
X63192152Y-61760100D01*
X63143981Y-61768122D01*
G37*
X63143981Y-61768122D02*
X63107912Y-61794530D01*
X63080100Y-61840499D01*
X63060416Y-61906637D01*
X63056754Y-61976934D01*
X63068114Y-62044394D01*
X63093498Y-62102025D01*
X63122211Y-62135502D01*
X63160126Y-62160224D01*
X63194131Y-62163275D01*
X63231169Y-62144468D01*
X63246753Y-62132167D01*
X63278025Y-62099121D01*
X63302199Y-62062220D01*
X63304877Y-62056375D01*
X63319548Y-61998894D01*
X63319703Y-61937996D01*
X63307306Y-61878844D01*
X63284323Y-61826601D01*
X63252716Y-61786432D01*
X63214452Y-61763500D01*
X63192152Y-61760100D01*
X63143981Y-61768122D01*
G36*
X62347275Y-61576503D02*
G01*
X62289674Y-61583912D01*
X62250953Y-61606574D01*
X62228117Y-61646823D01*
X62221678Y-61674545D01*
X62219570Y-61707619D01*
X62229456Y-61732909D01*
X62252857Y-61759510D01*
X62283983Y-61785240D01*
X62316600Y-61796316D01*
X62350072Y-61798200D01*
X62392284Y-61794415D01*
X62413774Y-61783654D01*
X62415146Y-61781136D01*
X62417864Y-61760681D01*
X62418918Y-61722700D01*
X62418113Y-61675024D01*
X62417922Y-61670011D01*
X62414150Y-61575950D01*
X62347275Y-61576503D01*
G37*
X62347275Y-61576503D02*
X62289674Y-61583912D01*
X62250953Y-61606574D01*
X62228117Y-61646823D01*
X62221678Y-61674545D01*
X62219570Y-61707619D01*
X62229456Y-61732909D01*
X62252857Y-61759510D01*
X62283983Y-61785240D01*
X62316600Y-61796316D01*
X62350072Y-61798200D01*
X62392284Y-61794415D01*
X62413774Y-61783654D01*
X62415146Y-61781136D01*
X62417864Y-61760681D01*
X62418918Y-61722700D01*
X62418113Y-61675024D01*
X62417922Y-61670011D01*
X62414150Y-61575950D01*
X62347275Y-61576503D01*
G36*
X63329855Y-58294767D02*
G01*
X63154338Y-58295884D01*
X63103419Y-58296280D01*
X62920958Y-58297980D01*
X62761388Y-58299972D01*
X62625089Y-58302244D01*
X62512437Y-58304788D01*
X62423810Y-58307594D01*
X62359588Y-58310653D01*
X62320147Y-58313955D01*
X62308168Y-58316165D01*
X62253511Y-58343760D01*
X62195160Y-58390044D01*
X62138766Y-58450087D01*
X62108381Y-58490431D01*
X62058550Y-58562777D01*
X62058550Y-59186713D01*
X62058582Y-59328852D01*
X62058734Y-59447881D01*
X62059098Y-59546091D01*
X62059762Y-59625771D01*
X62060816Y-59689212D01*
X62062348Y-59738705D01*
X62064449Y-59776539D01*
X62067208Y-59805004D01*
X62070713Y-59826391D01*
X62075055Y-59842991D01*
X62080323Y-59857092D01*
X62085117Y-59867800D01*
X62131687Y-59948216D01*
X62188648Y-60008206D01*
X62259310Y-60050018D01*
X62346981Y-60075897D01*
X62403744Y-60084164D01*
X62438585Y-60086398D01*
X62495826Y-60088334D01*
X62572468Y-60089972D01*
X62665514Y-60091312D01*
X62771964Y-60092352D01*
X62888821Y-60093092D01*
X63013086Y-60093531D01*
X63141761Y-60093670D01*
X63271848Y-60093506D01*
X63400347Y-60093040D01*
X63524262Y-60092270D01*
X63640592Y-60091197D01*
X63746341Y-60089819D01*
X63838510Y-60088137D01*
X63914099Y-60086148D01*
X63957200Y-60084498D01*
X64032028Y-60079672D01*
X64091854Y-60073033D01*
X64132678Y-60065099D01*
X64146358Y-60059950D01*
X64197673Y-60022947D01*
X64250761Y-59971790D01*
X64297034Y-59915515D01*
X64322474Y-59874659D01*
X64331489Y-59856505D01*
X64338772Y-59838985D01*
X64344605Y-59819123D01*
X64349267Y-59793940D01*
X64353039Y-59760460D01*
X64356202Y-59715703D01*
X64359036Y-59656693D01*
X64361822Y-59580452D01*
X64364840Y-59484001D01*
X64367386Y-59397900D01*
X64371269Y-59224481D01*
X64372338Y-59069889D01*
X64084200Y-59069889D01*
X64082733Y-59113981D01*
X64075389Y-59144244D01*
X64057754Y-59171909D01*
X64033120Y-59199883D01*
X63981694Y-59249160D01*
X63933422Y-59278760D01*
X63880752Y-59292039D01*
X63823850Y-59292836D01*
X63772454Y-59286335D01*
X63723104Y-59274309D01*
X63699250Y-59265207D01*
X63642673Y-59225650D01*
X63606387Y-59171103D01*
X63590126Y-59101100D01*
X63589229Y-59077427D01*
X63149024Y-59077427D01*
X63137908Y-59165765D01*
X63127417Y-59203215D01*
X63087950Y-59281799D01*
X63028058Y-59353201D01*
X62952549Y-59413138D01*
X62866235Y-59457323D01*
X62827798Y-59470187D01*
X62757673Y-59481619D01*
X62677353Y-59481769D01*
X62598048Y-59471376D01*
X62530970Y-59451178D01*
X62529462Y-59450517D01*
X62440650Y-59399952D01*
X62371077Y-59334456D01*
X62317539Y-59250995D01*
X62316378Y-59248650D01*
X62295141Y-59202753D01*
X62282621Y-59165190D01*
X62276629Y-59125729D01*
X62274974Y-59074134D01*
X62274993Y-59055307D01*
X62285926Y-58943317D01*
X62317296Y-58846283D01*
X62368614Y-58764797D01*
X62439394Y-58699455D01*
X62529149Y-58650851D01*
X62631135Y-58620803D01*
X62714128Y-58615123D01*
X62803881Y-58627809D01*
X62891421Y-58657286D01*
X62920496Y-58671613D01*
X62983310Y-58715582D01*
X63043397Y-58775143D01*
X63093579Y-58842118D01*
X63125591Y-58905306D01*
X63144896Y-58986827D01*
X63149024Y-59077427D01*
X63589229Y-59077427D01*
X63589109Y-59074276D01*
X63597970Y-58996587D01*
X63625102Y-58935309D01*
X63672041Y-58887748D01*
X63707788Y-58865978D01*
X63782456Y-58840810D01*
X63859692Y-58838148D01*
X63934129Y-58856751D01*
X64000403Y-58895375D01*
X64047516Y-58944669D01*
X64069898Y-58980598D01*
X64080929Y-59015742D01*
X64084166Y-59062251D01*
X64084200Y-59069889D01*
X64372338Y-59069889D01*
X64372363Y-59066288D01*
X64370730Y-58924958D01*
X64366431Y-58802126D01*
X64359525Y-58699428D01*
X64350074Y-58618501D01*
X64338138Y-58560980D01*
X64336164Y-58554555D01*
X64314450Y-58511365D01*
X64277900Y-58461343D01*
X64232904Y-58411615D01*
X64185848Y-58369303D01*
X64146717Y-58343298D01*
X64122887Y-58332748D01*
X64094527Y-58323677D01*
X64059785Y-58316000D01*
X64016808Y-58309634D01*
X63963745Y-58304495D01*
X63898743Y-58300501D01*
X63819952Y-58297566D01*
X63725520Y-58295610D01*
X63613594Y-58294546D01*
X63482323Y-58294293D01*
X63329855Y-58294767D01*
G37*
X63329855Y-58294767D02*
X63154338Y-58295884D01*
X63103419Y-58296280D01*
X62920958Y-58297980D01*
X62761388Y-58299972D01*
X62625089Y-58302244D01*
X62512437Y-58304788D01*
X62423810Y-58307594D01*
X62359588Y-58310653D01*
X62320147Y-58313955D01*
X62308168Y-58316165D01*
X62253511Y-58343760D01*
X62195160Y-58390044D01*
X62138766Y-58450087D01*
X62108381Y-58490431D01*
X62058550Y-58562777D01*
X62058550Y-59186713D01*
X62058582Y-59328852D01*
X62058734Y-59447881D01*
X62059098Y-59546091D01*
X62059762Y-59625771D01*
X62060816Y-59689212D01*
X62062348Y-59738705D01*
X62064449Y-59776539D01*
X62067208Y-59805004D01*
X62070713Y-59826391D01*
X62075055Y-59842991D01*
X62080323Y-59857092D01*
X62085117Y-59867800D01*
X62131687Y-59948216D01*
X62188648Y-60008206D01*
X62259310Y-60050018D01*
X62346981Y-60075897D01*
X62403744Y-60084164D01*
X62438585Y-60086398D01*
X62495826Y-60088334D01*
X62572468Y-60089972D01*
X62665514Y-60091312D01*
X62771964Y-60092352D01*
X62888821Y-60093092D01*
X63013086Y-60093531D01*
X63141761Y-60093670D01*
X63271848Y-60093506D01*
X63400347Y-60093040D01*
X63524262Y-60092270D01*
X63640592Y-60091197D01*
X63746341Y-60089819D01*
X63838510Y-60088137D01*
X63914099Y-60086148D01*
X63957200Y-60084498D01*
X64032028Y-60079672D01*
X64091854Y-60073033D01*
X64132678Y-60065099D01*
X64146358Y-60059950D01*
X64197673Y-60022947D01*
X64250761Y-59971790D01*
X64297034Y-59915515D01*
X64322474Y-59874659D01*
X64331489Y-59856505D01*
X64338772Y-59838985D01*
X64344605Y-59819123D01*
X64349267Y-59793940D01*
X64353039Y-59760460D01*
X64356202Y-59715703D01*
X64359036Y-59656693D01*
X64361822Y-59580452D01*
X64364840Y-59484001D01*
X64367386Y-59397900D01*
X64371269Y-59224481D01*
X64372338Y-59069889D01*
X64084200Y-59069889D01*
X64082733Y-59113981D01*
X64075389Y-59144244D01*
X64057754Y-59171909D01*
X64033120Y-59199883D01*
X63981694Y-59249160D01*
X63933422Y-59278760D01*
X63880752Y-59292039D01*
X63823850Y-59292836D01*
X63772454Y-59286335D01*
X63723104Y-59274309D01*
X63699250Y-59265207D01*
X63642673Y-59225650D01*
X63606387Y-59171103D01*
X63590126Y-59101100D01*
X63589229Y-59077427D01*
X63149024Y-59077427D01*
X63137908Y-59165765D01*
X63127417Y-59203215D01*
X63087950Y-59281799D01*
X63028058Y-59353201D01*
X62952549Y-59413138D01*
X62866235Y-59457323D01*
X62827798Y-59470187D01*
X62757673Y-59481619D01*
X62677353Y-59481769D01*
X62598048Y-59471376D01*
X62530970Y-59451178D01*
X62529462Y-59450517D01*
X62440650Y-59399952D01*
X62371077Y-59334456D01*
X62317539Y-59250995D01*
X62316378Y-59248650D01*
X62295141Y-59202753D01*
X62282621Y-59165190D01*
X62276629Y-59125729D01*
X62274974Y-59074134D01*
X62274993Y-59055307D01*
X62285926Y-58943317D01*
X62317296Y-58846283D01*
X62368614Y-58764797D01*
X62439394Y-58699455D01*
X62529149Y-58650851D01*
X62631135Y-58620803D01*
X62714128Y-58615123D01*
X62803881Y-58627809D01*
X62891421Y-58657286D01*
X62920496Y-58671613D01*
X62983310Y-58715582D01*
X63043397Y-58775143D01*
X63093579Y-58842118D01*
X63125591Y-58905306D01*
X63144896Y-58986827D01*
X63149024Y-59077427D01*
X63589229Y-59077427D01*
X63589109Y-59074276D01*
X63597970Y-58996587D01*
X63625102Y-58935309D01*
X63672041Y-58887748D01*
X63707788Y-58865978D01*
X63782456Y-58840810D01*
X63859692Y-58838148D01*
X63934129Y-58856751D01*
X64000403Y-58895375D01*
X64047516Y-58944669D01*
X64069898Y-58980598D01*
X64080929Y-59015742D01*
X64084166Y-59062251D01*
X64084200Y-59069889D01*
X64372338Y-59069889D01*
X64372363Y-59066288D01*
X64370730Y-58924958D01*
X64366431Y-58802126D01*
X64359525Y-58699428D01*
X64350074Y-58618501D01*
X64338138Y-58560980D01*
X64336164Y-58554555D01*
X64314450Y-58511365D01*
X64277900Y-58461343D01*
X64232904Y-58411615D01*
X64185848Y-58369303D01*
X64146717Y-58343298D01*
X64122887Y-58332748D01*
X64094527Y-58323677D01*
X64059785Y-58316000D01*
X64016808Y-58309634D01*
X63963745Y-58304495D01*
X63898743Y-58300501D01*
X63819952Y-58297566D01*
X63725520Y-58295610D01*
X63613594Y-58294546D01*
X63482323Y-58294293D01*
X63329855Y-58294767D01*
G36*
X63820133Y-57393177D02*
G01*
X63799487Y-57418152D01*
X63793876Y-57448390D01*
X63805381Y-57474549D01*
X63827998Y-57487426D01*
X63860327Y-57492899D01*
X63889193Y-57489562D01*
X63897934Y-57484433D01*
X63906340Y-57462542D01*
X63906339Y-57430661D01*
X63899296Y-57400288D01*
X63886574Y-57382923D01*
X63885864Y-57382622D01*
X63850648Y-57379367D01*
X63820133Y-57393177D01*
G37*
X63820133Y-57393177D02*
X63799487Y-57418152D01*
X63793876Y-57448390D01*
X63805381Y-57474549D01*
X63827998Y-57487426D01*
X63860327Y-57492899D01*
X63889193Y-57489562D01*
X63897934Y-57484433D01*
X63906340Y-57462542D01*
X63906339Y-57430661D01*
X63899296Y-57400288D01*
X63886574Y-57382923D01*
X63885864Y-57382622D01*
X63850648Y-57379367D01*
X63820133Y-57393177D01*
G36*
X62662978Y-58948257D02*
G01*
X62622910Y-58972547D01*
X62595106Y-59009512D01*
X62585600Y-59053097D01*
X62596640Y-59100801D01*
X62627712Y-59135316D01*
X62675748Y-59154007D01*
X62706250Y-59156600D01*
X62750898Y-59152391D01*
X62782540Y-59137122D01*
X62795728Y-59125427D01*
X62822013Y-59083057D01*
X62825906Y-59035334D01*
X62807408Y-58988899D01*
X62795757Y-58974304D01*
X62755501Y-58946848D01*
X62709208Y-58938928D01*
X62662978Y-58948257D01*
G37*
X62662978Y-58948257D02*
X62622910Y-58972547D01*
X62595106Y-59009512D01*
X62585600Y-59053097D01*
X62596640Y-59100801D01*
X62627712Y-59135316D01*
X62675748Y-59154007D01*
X62706250Y-59156600D01*
X62750898Y-59152391D01*
X62782540Y-59137122D01*
X62795728Y-59125427D01*
X62822013Y-59083057D01*
X62825906Y-59035334D01*
X62807408Y-58988899D01*
X62795757Y-58974304D01*
X62755501Y-58946848D01*
X62709208Y-58938928D01*
X62662978Y-58948257D01*
G36*
X69713685Y-57297145D02*
G01*
X69695200Y-57417702D01*
X69663216Y-57533942D01*
X69618323Y-57645033D01*
X69561111Y-57750143D01*
X69492171Y-57848442D01*
X69412094Y-57939099D01*
X69321468Y-58021282D01*
X69220885Y-58094161D01*
X69110935Y-58156904D01*
X69098820Y-58162895D01*
X69067775Y-58177158D01*
X69032118Y-58192170D01*
X68994937Y-58206787D01*
X68959323Y-58219865D01*
X68928365Y-58230263D01*
X68905151Y-58236835D01*
X68894324Y-58238572D01*
X68892446Y-58236311D01*
X68890820Y-58228936D01*
X68889429Y-58215562D01*
X68888257Y-58195301D01*
X68887288Y-58167267D01*
X68886506Y-58130572D01*
X68885893Y-58084331D01*
X68885434Y-58027656D01*
X68885112Y-57959661D01*
X68884911Y-57879459D01*
X68884814Y-57786164D01*
X68884800Y-57723315D01*
X68884800Y-57208058D01*
X68275200Y-57208058D01*
X68275200Y-57723315D01*
X68275167Y-57823696D01*
X68275056Y-57910502D01*
X68274847Y-57984671D01*
X68274523Y-58047143D01*
X68274064Y-58098855D01*
X68273452Y-58140747D01*
X68272667Y-58173758D01*
X68271692Y-58198825D01*
X68270506Y-58216889D01*
X68269092Y-58228887D01*
X68267431Y-58235759D01*
X68265504Y-58238443D01*
X68264892Y-58238572D01*
X68250124Y-58235785D01*
X68225148Y-58228186D01*
X68192996Y-58216915D01*
X68156698Y-58203114D01*
X68119283Y-58187922D01*
X68083782Y-58172481D01*
X68061114Y-58161853D01*
X67951807Y-58100927D01*
X67851142Y-58029472D01*
X67759851Y-57948441D01*
X67678667Y-57858785D01*
X67608322Y-57761455D01*
X67549549Y-57657404D01*
X67503080Y-57547583D01*
X67469648Y-57432943D01*
X67458953Y-57379464D01*
X67453866Y-57346945D01*
X67449991Y-57316674D01*
X67447962Y-57293806D01*
X67447805Y-57288750D01*
X67446447Y-57262434D01*
X67443285Y-57235624D01*
X67443227Y-57235272D01*
X67438729Y-57208058D01*
X67123993Y-57208058D01*
X67046377Y-57208124D01*
X66982120Y-57208348D01*
X66930066Y-57208765D01*
X66889062Y-57209411D01*
X66857951Y-57210323D01*
X66835578Y-57211537D01*
X66820789Y-57213088D01*
X66812429Y-57215012D01*
X66809343Y-57217347D01*
X66809257Y-57217889D01*
X66809801Y-57228537D01*
X66811288Y-57250570D01*
X66813498Y-57280905D01*
X66816214Y-57316460D01*
X66816593Y-57321304D01*
X66835597Y-57475071D01*
X66868073Y-57623440D01*
X66914012Y-57766390D01*
X66973401Y-57903898D01*
X67046233Y-58035941D01*
X67132495Y-58162497D01*
X67232178Y-58283544D01*
X67280840Y-58335624D01*
X67385942Y-58435833D01*
X67496802Y-58525235D01*
X67615579Y-58605342D01*
X67744429Y-58677666D01*
X67823842Y-58716282D01*
X67877538Y-58739129D01*
X67940914Y-58762950D01*
X68009353Y-58786233D01*
X68078236Y-58807466D01*
X68142943Y-58825135D01*
X68188114Y-58835587D01*
X68226187Y-58843968D01*
X68251813Y-58850964D01*
X68266915Y-58857235D01*
X68273417Y-58863439D01*
X68273917Y-58865024D01*
X68273582Y-58867062D01*
X68271177Y-58868861D01*
X68265858Y-58870434D01*
X68256777Y-58871797D01*
X68243090Y-58872966D01*
X68223950Y-58873954D01*
X68198512Y-58874776D01*
X68165928Y-58875449D01*
X68125355Y-58875985D01*
X68075944Y-58876401D01*
X68016851Y-58876712D01*
X67947230Y-58876931D01*
X67866234Y-58877075D01*
X67773018Y-58877158D01*
X67666736Y-58877194D01*
X67582675Y-58877200D01*
X66889085Y-58877200D01*
X66889085Y-59465029D01*
X67515014Y-59465429D01*
X68140942Y-59465830D01*
X68072000Y-59486051D01*
X67925899Y-59535644D01*
X67784194Y-59597102D01*
X67648507Y-59669459D01*
X67520462Y-59751749D01*
X67401684Y-59843002D01*
X67293795Y-59942254D01*
X67276821Y-59959678D01*
X67176790Y-60073728D01*
X67087371Y-60195691D01*
X67009524Y-60323988D01*
X66944212Y-60457042D01*
X66894075Y-60588148D01*
X66864890Y-60685478D01*
X66842854Y-60780370D01*
X66827074Y-60877677D01*
X66816657Y-60982256D01*
X66813998Y-61023500D01*
X66810629Y-61083372D01*
X67439584Y-61083372D01*
X67443961Y-61041643D01*
X67447325Y-61009019D01*
X67450829Y-60974186D01*
X67452226Y-60960000D01*
X67463093Y-60890004D01*
X67481978Y-60813639D01*
X67507377Y-60735493D01*
X67537788Y-60660154D01*
X67571709Y-60592208D01*
X67574104Y-60587973D01*
X67641030Y-60484921D01*
X67719804Y-60388754D01*
X67808766Y-60301045D01*
X67906256Y-60223369D01*
X68010614Y-60157299D01*
X68050547Y-60136155D01*
X68076680Y-60123880D01*
X68109172Y-60109874D01*
X68145035Y-60095277D01*
X68181281Y-60081231D01*
X68214921Y-60068876D01*
X68242969Y-60059353D01*
X68262436Y-60053805D01*
X68268645Y-60052858D01*
X68269824Y-60059965D01*
X68270916Y-60080689D01*
X68271909Y-60114133D01*
X68272794Y-60159398D01*
X68273557Y-60215588D01*
X68274189Y-60281806D01*
X68274678Y-60357153D01*
X68275012Y-60440732D01*
X68275181Y-60531647D01*
X68275200Y-60575372D01*
X68275200Y-61097886D01*
X68884800Y-61097886D01*
X68884800Y-60575372D01*
X68884889Y-60481405D01*
X68885149Y-60394364D01*
X68885568Y-60315145D01*
X68886136Y-60244645D01*
X68886841Y-60183764D01*
X68887672Y-60133397D01*
X68888617Y-60094442D01*
X68889665Y-60067796D01*
X68890806Y-60054357D01*
X68891354Y-60052858D01*
X68905723Y-60055692D01*
X68930412Y-60063443D01*
X68962548Y-60074980D01*
X68999258Y-60089172D01*
X69037667Y-60104889D01*
X69074903Y-60121001D01*
X69108090Y-60136376D01*
X69124285Y-60144478D01*
X69233808Y-60209069D01*
X69333664Y-60283685D01*
X69423302Y-60367508D01*
X69502170Y-60459721D01*
X69569716Y-60559507D01*
X69625386Y-60666047D01*
X69668628Y-60778524D01*
X69698891Y-60896122D01*
X69715622Y-61018022D01*
X69715767Y-61019872D01*
X69720674Y-61083372D01*
X70350742Y-61083372D01*
X70350742Y-61051975D01*
X70350027Y-61031451D01*
X70348097Y-61001168D01*
X70345278Y-60965796D01*
X70343028Y-60941304D01*
X70321261Y-60791209D01*
X70285832Y-60645059D01*
X70237230Y-60503563D01*
X70175940Y-60367425D01*
X70102452Y-60237352D01*
X70017251Y-60114052D01*
X69920824Y-59998229D01*
X69813660Y-59890592D01*
X69696245Y-59791845D01*
X69569066Y-59702696D01*
X69435649Y-59625439D01*
X69319243Y-59569552D01*
X69200027Y-59521881D01*
X69104338Y-59490596D01*
X69019057Y-59465712D01*
X69644985Y-59465370D01*
X70270914Y-59465029D01*
X70270914Y-58877200D01*
X69577325Y-58877200D01*
X69461321Y-58877189D01*
X69358983Y-58877144D01*
X69269463Y-58877051D01*
X69191913Y-58876895D01*
X69125484Y-58876659D01*
X69069329Y-58876329D01*
X69022598Y-58875889D01*
X68984444Y-58875324D01*
X68954019Y-58874619D01*
X68930474Y-58873759D01*
X68912962Y-58872727D01*
X68900633Y-58871509D01*
X68892640Y-58870090D01*
X68888135Y-58868453D01*
X68886268Y-58866585D01*
X68886139Y-58864719D01*
X68895023Y-58854388D01*
X68917487Y-58847056D01*
X68921143Y-58846359D01*
X69074021Y-58811588D01*
X69222910Y-58763437D01*
X69366823Y-58702547D01*
X69504770Y-58629563D01*
X69635762Y-58545128D01*
X69758811Y-58449884D01*
X69872929Y-58344475D01*
X69977127Y-58229545D01*
X70070416Y-58105736D01*
X70079059Y-58092964D01*
X70156604Y-57964259D01*
X70221680Y-57828622D01*
X70273931Y-57687119D01*
X70313000Y-57540815D01*
X70338531Y-57390776D01*
X70347824Y-57289700D01*
X70352807Y-57208058D01*
X69722081Y-57208058D01*
X69713685Y-57297145D01*
G37*
X69713685Y-57297145D02*
X69695200Y-57417702D01*
X69663216Y-57533942D01*
X69618323Y-57645033D01*
X69561111Y-57750143D01*
X69492171Y-57848442D01*
X69412094Y-57939099D01*
X69321468Y-58021282D01*
X69220885Y-58094161D01*
X69110935Y-58156904D01*
X69098820Y-58162895D01*
X69067775Y-58177158D01*
X69032118Y-58192170D01*
X68994937Y-58206787D01*
X68959323Y-58219865D01*
X68928365Y-58230263D01*
X68905151Y-58236835D01*
X68894324Y-58238572D01*
X68892446Y-58236311D01*
X68890820Y-58228936D01*
X68889429Y-58215562D01*
X68888257Y-58195301D01*
X68887288Y-58167267D01*
X68886506Y-58130572D01*
X68885893Y-58084331D01*
X68885434Y-58027656D01*
X68885112Y-57959661D01*
X68884911Y-57879459D01*
X68884814Y-57786164D01*
X68884800Y-57723315D01*
X68884800Y-57208058D01*
X68275200Y-57208058D01*
X68275200Y-57723315D01*
X68275167Y-57823696D01*
X68275056Y-57910502D01*
X68274847Y-57984671D01*
X68274523Y-58047143D01*
X68274064Y-58098855D01*
X68273452Y-58140747D01*
X68272667Y-58173758D01*
X68271692Y-58198825D01*
X68270506Y-58216889D01*
X68269092Y-58228887D01*
X68267431Y-58235759D01*
X68265504Y-58238443D01*
X68264892Y-58238572D01*
X68250124Y-58235785D01*
X68225148Y-58228186D01*
X68192996Y-58216915D01*
X68156698Y-58203114D01*
X68119283Y-58187922D01*
X68083782Y-58172481D01*
X68061114Y-58161853D01*
X67951807Y-58100927D01*
X67851142Y-58029472D01*
X67759851Y-57948441D01*
X67678667Y-57858785D01*
X67608322Y-57761455D01*
X67549549Y-57657404D01*
X67503080Y-57547583D01*
X67469648Y-57432943D01*
X67458953Y-57379464D01*
X67453866Y-57346945D01*
X67449991Y-57316674D01*
X67447962Y-57293806D01*
X67447805Y-57288750D01*
X67446447Y-57262434D01*
X67443285Y-57235624D01*
X67443227Y-57235272D01*
X67438729Y-57208058D01*
X67123993Y-57208058D01*
X67046377Y-57208124D01*
X66982120Y-57208348D01*
X66930066Y-57208765D01*
X66889062Y-57209411D01*
X66857951Y-57210323D01*
X66835578Y-57211537D01*
X66820789Y-57213088D01*
X66812429Y-57215012D01*
X66809343Y-57217347D01*
X66809257Y-57217889D01*
X66809801Y-57228537D01*
X66811288Y-57250570D01*
X66813498Y-57280905D01*
X66816214Y-57316460D01*
X66816593Y-57321304D01*
X66835597Y-57475071D01*
X66868073Y-57623440D01*
X66914012Y-57766390D01*
X66973401Y-57903898D01*
X67046233Y-58035941D01*
X67132495Y-58162497D01*
X67232178Y-58283544D01*
X67280840Y-58335624D01*
X67385942Y-58435833D01*
X67496802Y-58525235D01*
X67615579Y-58605342D01*
X67744429Y-58677666D01*
X67823842Y-58716282D01*
X67877538Y-58739129D01*
X67940914Y-58762950D01*
X68009353Y-58786233D01*
X68078236Y-58807466D01*
X68142943Y-58825135D01*
X68188114Y-58835587D01*
X68226187Y-58843968D01*
X68251813Y-58850964D01*
X68266915Y-58857235D01*
X68273417Y-58863439D01*
X68273917Y-58865024D01*
X68273582Y-58867062D01*
X68271177Y-58868861D01*
X68265858Y-58870434D01*
X68256777Y-58871797D01*
X68243090Y-58872966D01*
X68223950Y-58873954D01*
X68198512Y-58874776D01*
X68165928Y-58875449D01*
X68125355Y-58875985D01*
X68075944Y-58876401D01*
X68016851Y-58876712D01*
X67947230Y-58876931D01*
X67866234Y-58877075D01*
X67773018Y-58877158D01*
X67666736Y-58877194D01*
X67582675Y-58877200D01*
X66889085Y-58877200D01*
X66889085Y-59465029D01*
X67515014Y-59465429D01*
X68140942Y-59465830D01*
X68072000Y-59486051D01*
X67925899Y-59535644D01*
X67784194Y-59597102D01*
X67648507Y-59669459D01*
X67520462Y-59751749D01*
X67401684Y-59843002D01*
X67293795Y-59942254D01*
X67276821Y-59959678D01*
X67176790Y-60073728D01*
X67087371Y-60195691D01*
X67009524Y-60323988D01*
X66944212Y-60457042D01*
X66894075Y-60588148D01*
X66864890Y-60685478D01*
X66842854Y-60780370D01*
X66827074Y-60877677D01*
X66816657Y-60982256D01*
X66813998Y-61023500D01*
X66810629Y-61083372D01*
X67439584Y-61083372D01*
X67443961Y-61041643D01*
X67447325Y-61009019D01*
X67450829Y-60974186D01*
X67452226Y-60960000D01*
X67463093Y-60890004D01*
X67481978Y-60813639D01*
X67507377Y-60735493D01*
X67537788Y-60660154D01*
X67571709Y-60592208D01*
X67574104Y-60587973D01*
X67641030Y-60484921D01*
X67719804Y-60388754D01*
X67808766Y-60301045D01*
X67906256Y-60223369D01*
X68010614Y-60157299D01*
X68050547Y-60136155D01*
X68076680Y-60123880D01*
X68109172Y-60109874D01*
X68145035Y-60095277D01*
X68181281Y-60081231D01*
X68214921Y-60068876D01*
X68242969Y-60059353D01*
X68262436Y-60053805D01*
X68268645Y-60052858D01*
X68269824Y-60059965D01*
X68270916Y-60080689D01*
X68271909Y-60114133D01*
X68272794Y-60159398D01*
X68273557Y-60215588D01*
X68274189Y-60281806D01*
X68274678Y-60357153D01*
X68275012Y-60440732D01*
X68275181Y-60531647D01*
X68275200Y-60575372D01*
X68275200Y-61097886D01*
X68884800Y-61097886D01*
X68884800Y-60575372D01*
X68884889Y-60481405D01*
X68885149Y-60394364D01*
X68885568Y-60315145D01*
X68886136Y-60244645D01*
X68886841Y-60183764D01*
X68887672Y-60133397D01*
X68888617Y-60094442D01*
X68889665Y-60067796D01*
X68890806Y-60054357D01*
X68891354Y-60052858D01*
X68905723Y-60055692D01*
X68930412Y-60063443D01*
X68962548Y-60074980D01*
X68999258Y-60089172D01*
X69037667Y-60104889D01*
X69074903Y-60121001D01*
X69108090Y-60136376D01*
X69124285Y-60144478D01*
X69233808Y-60209069D01*
X69333664Y-60283685D01*
X69423302Y-60367508D01*
X69502170Y-60459721D01*
X69569716Y-60559507D01*
X69625386Y-60666047D01*
X69668628Y-60778524D01*
X69698891Y-60896122D01*
X69715622Y-61018022D01*
X69715767Y-61019872D01*
X69720674Y-61083372D01*
X70350742Y-61083372D01*
X70350742Y-61051975D01*
X70350027Y-61031451D01*
X70348097Y-61001168D01*
X70345278Y-60965796D01*
X70343028Y-60941304D01*
X70321261Y-60791209D01*
X70285832Y-60645059D01*
X70237230Y-60503563D01*
X70175940Y-60367425D01*
X70102452Y-60237352D01*
X70017251Y-60114052D01*
X69920824Y-59998229D01*
X69813660Y-59890592D01*
X69696245Y-59791845D01*
X69569066Y-59702696D01*
X69435649Y-59625439D01*
X69319243Y-59569552D01*
X69200027Y-59521881D01*
X69104338Y-59490596D01*
X69019057Y-59465712D01*
X69644985Y-59465370D01*
X70270914Y-59465029D01*
X70270914Y-58877200D01*
X69577325Y-58877200D01*
X69461321Y-58877189D01*
X69358983Y-58877144D01*
X69269463Y-58877051D01*
X69191913Y-58876895D01*
X69125484Y-58876659D01*
X69069329Y-58876329D01*
X69022598Y-58875889D01*
X68984444Y-58875324D01*
X68954019Y-58874619D01*
X68930474Y-58873759D01*
X68912962Y-58872727D01*
X68900633Y-58871509D01*
X68892640Y-58870090D01*
X68888135Y-58868453D01*
X68886268Y-58866585D01*
X68886139Y-58864719D01*
X68895023Y-58854388D01*
X68917487Y-58847056D01*
X68921143Y-58846359D01*
X69074021Y-58811588D01*
X69222910Y-58763437D01*
X69366823Y-58702547D01*
X69504770Y-58629563D01*
X69635762Y-58545128D01*
X69758811Y-58449884D01*
X69872929Y-58344475D01*
X69977127Y-58229545D01*
X70070416Y-58105736D01*
X70079059Y-58092964D01*
X70156604Y-57964259D01*
X70221680Y-57828622D01*
X70273931Y-57687119D01*
X70313000Y-57540815D01*
X70338531Y-57390776D01*
X70347824Y-57289700D01*
X70352807Y-57208058D01*
X69722081Y-57208058D01*
X69713685Y-57297145D01*
G36*
X66809257Y-62143209D02*
G01*
X66959126Y-62141248D01*
X67108995Y-62139286D01*
X67356454Y-61796598D01*
X67603914Y-61453911D01*
X67605799Y-61798413D01*
X67607683Y-62142915D01*
X67890571Y-62142915D01*
X67890571Y-61126915D01*
X67524085Y-61127077D01*
X67310000Y-61415321D01*
X67095914Y-61703564D01*
X67094016Y-61415239D01*
X67092119Y-61126915D01*
X66809257Y-61126915D01*
X66809257Y-62143209D01*
G37*
X66809257Y-62143209D02*
X66959126Y-62141248D01*
X67108995Y-62139286D01*
X67356454Y-61796598D01*
X67603914Y-61453911D01*
X67605799Y-61798413D01*
X67607683Y-62142915D01*
X67890571Y-62142915D01*
X67890571Y-61126915D01*
X67524085Y-61127077D01*
X67310000Y-61415321D01*
X67095914Y-61703564D01*
X67094016Y-61415239D01*
X67092119Y-61126915D01*
X66809257Y-61126915D01*
X66809257Y-62143209D01*
G36*
X68072000Y-61322858D02*
G01*
X68442114Y-61322858D01*
X68442114Y-62142915D01*
X68746914Y-62142915D01*
X68746914Y-61322858D01*
X69117028Y-61322858D01*
X69117028Y-61126915D01*
X68072000Y-61126915D01*
X68072000Y-61322858D01*
G37*
X68072000Y-61322858D02*
X68442114Y-61322858D01*
X68442114Y-62142915D01*
X68746914Y-62142915D01*
X68746914Y-61322858D01*
X69117028Y-61322858D01*
X69117028Y-61126915D01*
X68072000Y-61126915D01*
X68072000Y-61322858D01*
G36*
X70038685Y-61466683D02*
G01*
X70038643Y-61552507D01*
X70038414Y-61625110D01*
X70037844Y-61685785D01*
X70036778Y-61735825D01*
X70035062Y-61776524D01*
X70032543Y-61809176D01*
X70029066Y-61835072D01*
X70024477Y-61855506D01*
X70018622Y-61871772D01*
X70011346Y-61885163D01*
X70002496Y-61896973D01*
X69991918Y-61908493D01*
X69985212Y-61915270D01*
X69952760Y-61940544D01*
X69913386Y-61957404D01*
X69864935Y-61966538D01*
X69817342Y-61968743D01*
X69759896Y-61965384D01*
X69713284Y-61954849D01*
X69675358Y-61936456D01*
X69649506Y-61915302D01*
X69630696Y-61893022D01*
X69615425Y-61868872D01*
X69609860Y-61856234D01*
X69607463Y-61845326D01*
X69605396Y-61827504D01*
X69603627Y-61801749D01*
X69602124Y-61767041D01*
X69600855Y-61722360D01*
X69599786Y-61666687D01*
X69598887Y-61599002D01*
X69598124Y-61518285D01*
X69597813Y-61477072D01*
X69595349Y-61126915D01*
X69291200Y-61126915D01*
X69291200Y-61480990D01*
X69291265Y-61564998D01*
X69291486Y-61635783D01*
X69291898Y-61694636D01*
X69292538Y-61742846D01*
X69293441Y-61781705D01*
X69294644Y-61812502D01*
X69296183Y-61836528D01*
X69298094Y-61855075D01*
X69300414Y-61869432D01*
X69302312Y-61877727D01*
X69326590Y-61944314D01*
X69362425Y-62002173D01*
X69409751Y-62051268D01*
X69468501Y-62091562D01*
X69538608Y-62123021D01*
X69620006Y-62145607D01*
X69712628Y-62159286D01*
X69816408Y-62164020D01*
X69831666Y-62163968D01*
X69872288Y-62162747D01*
X69915046Y-62160064D01*
X69953371Y-62156385D01*
X69969742Y-62154175D01*
X70055423Y-62135776D01*
X70130878Y-62109134D01*
X70195505Y-62074593D01*
X70248703Y-62032502D01*
X70289869Y-61983207D01*
X70302184Y-61962748D01*
X70311101Y-61945911D01*
X70318633Y-61929952D01*
X70324899Y-61913523D01*
X70330013Y-61895274D01*
X70334093Y-61873856D01*
X70337255Y-61847919D01*
X70339616Y-61816115D01*
X70341292Y-61777095D01*
X70342400Y-61729509D01*
X70343056Y-61672008D01*
X70343377Y-61603244D01*
X70343479Y-61521866D01*
X70343485Y-61484618D01*
X70343485Y-61126915D01*
X70038685Y-61126915D01*
X70038685Y-61466683D01*
G37*
X70038685Y-61466683D02*
X70038643Y-61552507D01*
X70038414Y-61625110D01*
X70037844Y-61685785D01*
X70036778Y-61735825D01*
X70035062Y-61776524D01*
X70032543Y-61809176D01*
X70029066Y-61835072D01*
X70024477Y-61855506D01*
X70018622Y-61871772D01*
X70011346Y-61885163D01*
X70002496Y-61896973D01*
X69991918Y-61908493D01*
X69985212Y-61915270D01*
X69952760Y-61940544D01*
X69913386Y-61957404D01*
X69864935Y-61966538D01*
X69817342Y-61968743D01*
X69759896Y-61965384D01*
X69713284Y-61954849D01*
X69675358Y-61936456D01*
X69649506Y-61915302D01*
X69630696Y-61893022D01*
X69615425Y-61868872D01*
X69609860Y-61856234D01*
X69607463Y-61845326D01*
X69605396Y-61827504D01*
X69603627Y-61801749D01*
X69602124Y-61767041D01*
X69600855Y-61722360D01*
X69599786Y-61666687D01*
X69598887Y-61599002D01*
X69598124Y-61518285D01*
X69597813Y-61477072D01*
X69595349Y-61126915D01*
X69291200Y-61126915D01*
X69291200Y-61480990D01*
X69291265Y-61564998D01*
X69291486Y-61635783D01*
X69291898Y-61694636D01*
X69292538Y-61742846D01*
X69293441Y-61781705D01*
X69294644Y-61812502D01*
X69296183Y-61836528D01*
X69298094Y-61855075D01*
X69300414Y-61869432D01*
X69302312Y-61877727D01*
X69326590Y-61944314D01*
X69362425Y-62002173D01*
X69409751Y-62051268D01*
X69468501Y-62091562D01*
X69538608Y-62123021D01*
X69620006Y-62145607D01*
X69712628Y-62159286D01*
X69816408Y-62164020D01*
X69831666Y-62163968D01*
X69872288Y-62162747D01*
X69915046Y-62160064D01*
X69953371Y-62156385D01*
X69969742Y-62154175D01*
X70055423Y-62135776D01*
X70130878Y-62109134D01*
X70195505Y-62074593D01*
X70248703Y-62032502D01*
X70289869Y-61983207D01*
X70302184Y-61962748D01*
X70311101Y-61945911D01*
X70318633Y-61929952D01*
X70324899Y-61913523D01*
X70330013Y-61895274D01*
X70334093Y-61873856D01*
X70337255Y-61847919D01*
X70339616Y-61816115D01*
X70341292Y-61777095D01*
X70342400Y-61729509D01*
X70343056Y-61672008D01*
X70343377Y-61603244D01*
X70343479Y-61521866D01*
X70343485Y-61484618D01*
X70343485Y-61126915D01*
X70038685Y-61126915D01*
X70038685Y-61466683D01*
D11*
X76200000Y-63500000D03*
X76200000Y-74295000D03*
X60960000Y-85725000D03*
X60960000Y-81915000D03*
X63500000Y-76835000D03*
X74295000Y-67945000D03*
X73660000Y-76835000D03*
D12*
X61705000Y-55135000D03*
X69105000Y-55135000D03*
X69105000Y-47735000D03*
G04 #@! TA.AperFunction,SMDPad,CuDef*
D13*
G36*
X58812691Y-51596053D02*
G01*
X58833926Y-51599203D01*
X58854750Y-51604419D01*
X58874962Y-51611651D01*
X58894368Y-51620830D01*
X58912781Y-51631866D01*
X58930024Y-51644654D01*
X58945930Y-51659070D01*
X58960346Y-51674976D01*
X58973134Y-51692219D01*
X58984170Y-51710632D01*
X58993349Y-51730038D01*
X59000581Y-51750250D01*
X59005797Y-51771074D01*
X59008947Y-51792309D01*
X59010000Y-51813750D01*
X59010000Y-52326250D01*
X59008947Y-52347691D01*
X59005797Y-52368926D01*
X59000581Y-52389750D01*
X58993349Y-52409962D01*
X58984170Y-52429368D01*
X58973134Y-52447781D01*
X58960346Y-52465024D01*
X58945930Y-52480930D01*
X58930024Y-52495346D01*
X58912781Y-52508134D01*
X58894368Y-52519170D01*
X58874962Y-52528349D01*
X58854750Y-52535581D01*
X58833926Y-52540797D01*
X58812691Y-52543947D01*
X58791250Y-52545000D01*
X58353750Y-52545000D01*
X58332309Y-52543947D01*
X58311074Y-52540797D01*
X58290250Y-52535581D01*
X58270038Y-52528349D01*
X58250632Y-52519170D01*
X58232219Y-52508134D01*
X58214976Y-52495346D01*
X58199070Y-52480930D01*
X58184654Y-52465024D01*
X58171866Y-52447781D01*
X58160830Y-52429368D01*
X58151651Y-52409962D01*
X58144419Y-52389750D01*
X58139203Y-52368926D01*
X58136053Y-52347691D01*
X58135000Y-52326250D01*
X58135000Y-51813750D01*
X58136053Y-51792309D01*
X58139203Y-51771074D01*
X58144419Y-51750250D01*
X58151651Y-51730038D01*
X58160830Y-51710632D01*
X58171866Y-51692219D01*
X58184654Y-51674976D01*
X58199070Y-51659070D01*
X58214976Y-51644654D01*
X58232219Y-51631866D01*
X58250632Y-51620830D01*
X58270038Y-51611651D01*
X58290250Y-51604419D01*
X58311074Y-51599203D01*
X58332309Y-51596053D01*
X58353750Y-51595000D01*
X58791250Y-51595000D01*
X58812691Y-51596053D01*
G37*
G04 #@! TD.AperFunction*
G04 #@! TA.AperFunction,SMDPad,CuDef*
G36*
X57237691Y-51596053D02*
G01*
X57258926Y-51599203D01*
X57279750Y-51604419D01*
X57299962Y-51611651D01*
X57319368Y-51620830D01*
X57337781Y-51631866D01*
X57355024Y-51644654D01*
X57370930Y-51659070D01*
X57385346Y-51674976D01*
X57398134Y-51692219D01*
X57409170Y-51710632D01*
X57418349Y-51730038D01*
X57425581Y-51750250D01*
X57430797Y-51771074D01*
X57433947Y-51792309D01*
X57435000Y-51813750D01*
X57435000Y-52326250D01*
X57433947Y-52347691D01*
X57430797Y-52368926D01*
X57425581Y-52389750D01*
X57418349Y-52409962D01*
X57409170Y-52429368D01*
X57398134Y-52447781D01*
X57385346Y-52465024D01*
X57370930Y-52480930D01*
X57355024Y-52495346D01*
X57337781Y-52508134D01*
X57319368Y-52519170D01*
X57299962Y-52528349D01*
X57279750Y-52535581D01*
X57258926Y-52540797D01*
X57237691Y-52543947D01*
X57216250Y-52545000D01*
X56778750Y-52545000D01*
X56757309Y-52543947D01*
X56736074Y-52540797D01*
X56715250Y-52535581D01*
X56695038Y-52528349D01*
X56675632Y-52519170D01*
X56657219Y-52508134D01*
X56639976Y-52495346D01*
X56624070Y-52480930D01*
X56609654Y-52465024D01*
X56596866Y-52447781D01*
X56585830Y-52429368D01*
X56576651Y-52409962D01*
X56569419Y-52389750D01*
X56564203Y-52368926D01*
X56561053Y-52347691D01*
X56560000Y-52326250D01*
X56560000Y-51813750D01*
X56561053Y-51792309D01*
X56564203Y-51771074D01*
X56569419Y-51750250D01*
X56576651Y-51730038D01*
X56585830Y-51710632D01*
X56596866Y-51692219D01*
X56609654Y-51674976D01*
X56624070Y-51659070D01*
X56639976Y-51644654D01*
X56657219Y-51631866D01*
X56675632Y-51620830D01*
X56695038Y-51611651D01*
X56715250Y-51604419D01*
X56736074Y-51599203D01*
X56757309Y-51596053D01*
X56778750Y-51595000D01*
X57216250Y-51595000D01*
X57237691Y-51596053D01*
G37*
G04 #@! TD.AperFunction*
D14*
X49530000Y-62865000D03*
D15*
X49530000Y-65405000D03*
X49530000Y-67945000D03*
X49530000Y-70485000D03*
X73025000Y-48260000D03*
D14*
X75565000Y-48260000D03*
D15*
X53340000Y-58420000D03*
X53340000Y-60960000D03*
X53340000Y-63500000D03*
X53340000Y-66040000D03*
X53340000Y-68580000D03*
X53340000Y-71120000D03*
X53340000Y-73660000D03*
D14*
X53340000Y-76200000D03*
D16*
X88900000Y-67310000D03*
D15*
X88900000Y-64770000D03*
D14*
X85090000Y-58420000D03*
D15*
X85090000Y-60960000D03*
X85090000Y-63500000D03*
X85090000Y-66040000D03*
X85090000Y-68580000D03*
X85090000Y-71120000D03*
X85090000Y-73660000D03*
X85090000Y-76200000D03*
D14*
X64135000Y-83820000D03*
D15*
X66675000Y-83820000D03*
X69215000Y-83820000D03*
X71755000Y-83820000D03*
X74295000Y-83820000D03*
D17*
X75930000Y-53660000D03*
X75930000Y-55560000D03*
X73930000Y-54610000D03*
G04 #@! TA.AperFunction,SMDPad,CuDef*
D13*
G36*
X74572691Y-59101053D02*
G01*
X74593926Y-59104203D01*
X74614750Y-59109419D01*
X74634962Y-59116651D01*
X74654368Y-59125830D01*
X74672781Y-59136866D01*
X74690024Y-59149654D01*
X74705930Y-59164070D01*
X74720346Y-59179976D01*
X74733134Y-59197219D01*
X74744170Y-59215632D01*
X74753349Y-59235038D01*
X74760581Y-59255250D01*
X74765797Y-59276074D01*
X74768947Y-59297309D01*
X74770000Y-59318750D01*
X74770000Y-59756250D01*
X74768947Y-59777691D01*
X74765797Y-59798926D01*
X74760581Y-59819750D01*
X74753349Y-59839962D01*
X74744170Y-59859368D01*
X74733134Y-59877781D01*
X74720346Y-59895024D01*
X74705930Y-59910930D01*
X74690024Y-59925346D01*
X74672781Y-59938134D01*
X74654368Y-59949170D01*
X74634962Y-59958349D01*
X74614750Y-59965581D01*
X74593926Y-59970797D01*
X74572691Y-59973947D01*
X74551250Y-59975000D01*
X74038750Y-59975000D01*
X74017309Y-59973947D01*
X73996074Y-59970797D01*
X73975250Y-59965581D01*
X73955038Y-59958349D01*
X73935632Y-59949170D01*
X73917219Y-59938134D01*
X73899976Y-59925346D01*
X73884070Y-59910930D01*
X73869654Y-59895024D01*
X73856866Y-59877781D01*
X73845830Y-59859368D01*
X73836651Y-59839962D01*
X73829419Y-59819750D01*
X73824203Y-59798926D01*
X73821053Y-59777691D01*
X73820000Y-59756250D01*
X73820000Y-59318750D01*
X73821053Y-59297309D01*
X73824203Y-59276074D01*
X73829419Y-59255250D01*
X73836651Y-59235038D01*
X73845830Y-59215632D01*
X73856866Y-59197219D01*
X73869654Y-59179976D01*
X73884070Y-59164070D01*
X73899976Y-59149654D01*
X73917219Y-59136866D01*
X73935632Y-59125830D01*
X73955038Y-59116651D01*
X73975250Y-59109419D01*
X73996074Y-59104203D01*
X74017309Y-59101053D01*
X74038750Y-59100000D01*
X74551250Y-59100000D01*
X74572691Y-59101053D01*
G37*
G04 #@! TD.AperFunction*
G04 #@! TA.AperFunction,SMDPad,CuDef*
G36*
X74572691Y-60676053D02*
G01*
X74593926Y-60679203D01*
X74614750Y-60684419D01*
X74634962Y-60691651D01*
X74654368Y-60700830D01*
X74672781Y-60711866D01*
X74690024Y-60724654D01*
X74705930Y-60739070D01*
X74720346Y-60754976D01*
X74733134Y-60772219D01*
X74744170Y-60790632D01*
X74753349Y-60810038D01*
X74760581Y-60830250D01*
X74765797Y-60851074D01*
X74768947Y-60872309D01*
X74770000Y-60893750D01*
X74770000Y-61331250D01*
X74768947Y-61352691D01*
X74765797Y-61373926D01*
X74760581Y-61394750D01*
X74753349Y-61414962D01*
X74744170Y-61434368D01*
X74733134Y-61452781D01*
X74720346Y-61470024D01*
X74705930Y-61485930D01*
X74690024Y-61500346D01*
X74672781Y-61513134D01*
X74654368Y-61524170D01*
X74634962Y-61533349D01*
X74614750Y-61540581D01*
X74593926Y-61545797D01*
X74572691Y-61548947D01*
X74551250Y-61550000D01*
X74038750Y-61550000D01*
X74017309Y-61548947D01*
X73996074Y-61545797D01*
X73975250Y-61540581D01*
X73955038Y-61533349D01*
X73935632Y-61524170D01*
X73917219Y-61513134D01*
X73899976Y-61500346D01*
X73884070Y-61485930D01*
X73869654Y-61470024D01*
X73856866Y-61452781D01*
X73845830Y-61434368D01*
X73836651Y-61414962D01*
X73829419Y-61394750D01*
X73824203Y-61373926D01*
X73821053Y-61352691D01*
X73820000Y-61331250D01*
X73820000Y-60893750D01*
X73821053Y-60872309D01*
X73824203Y-60851074D01*
X73829419Y-60830250D01*
X73836651Y-60810038D01*
X73845830Y-60790632D01*
X73856866Y-60772219D01*
X73869654Y-60754976D01*
X73884070Y-60739070D01*
X73899976Y-60724654D01*
X73917219Y-60711866D01*
X73935632Y-60700830D01*
X73955038Y-60691651D01*
X73975250Y-60684419D01*
X73996074Y-60679203D01*
X74017309Y-60676053D01*
X74038750Y-60675000D01*
X74551250Y-60675000D01*
X74572691Y-60676053D01*
G37*
G04 #@! TD.AperFunction*
G04 #@! TA.AperFunction,SMDPad,CuDef*
G36*
X76477691Y-60676053D02*
G01*
X76498926Y-60679203D01*
X76519750Y-60684419D01*
X76539962Y-60691651D01*
X76559368Y-60700830D01*
X76577781Y-60711866D01*
X76595024Y-60724654D01*
X76610930Y-60739070D01*
X76625346Y-60754976D01*
X76638134Y-60772219D01*
X76649170Y-60790632D01*
X76658349Y-60810038D01*
X76665581Y-60830250D01*
X76670797Y-60851074D01*
X76673947Y-60872309D01*
X76675000Y-60893750D01*
X76675000Y-61331250D01*
X76673947Y-61352691D01*
X76670797Y-61373926D01*
X76665581Y-61394750D01*
X76658349Y-61414962D01*
X76649170Y-61434368D01*
X76638134Y-61452781D01*
X76625346Y-61470024D01*
X76610930Y-61485930D01*
X76595024Y-61500346D01*
X76577781Y-61513134D01*
X76559368Y-61524170D01*
X76539962Y-61533349D01*
X76519750Y-61540581D01*
X76498926Y-61545797D01*
X76477691Y-61548947D01*
X76456250Y-61550000D01*
X75943750Y-61550000D01*
X75922309Y-61548947D01*
X75901074Y-61545797D01*
X75880250Y-61540581D01*
X75860038Y-61533349D01*
X75840632Y-61524170D01*
X75822219Y-61513134D01*
X75804976Y-61500346D01*
X75789070Y-61485930D01*
X75774654Y-61470024D01*
X75761866Y-61452781D01*
X75750830Y-61434368D01*
X75741651Y-61414962D01*
X75734419Y-61394750D01*
X75729203Y-61373926D01*
X75726053Y-61352691D01*
X75725000Y-61331250D01*
X75725000Y-60893750D01*
X75726053Y-60872309D01*
X75729203Y-60851074D01*
X75734419Y-60830250D01*
X75741651Y-60810038D01*
X75750830Y-60790632D01*
X75761866Y-60772219D01*
X75774654Y-60754976D01*
X75789070Y-60739070D01*
X75804976Y-60724654D01*
X75822219Y-60711866D01*
X75840632Y-60700830D01*
X75860038Y-60691651D01*
X75880250Y-60684419D01*
X75901074Y-60679203D01*
X75922309Y-60676053D01*
X75943750Y-60675000D01*
X76456250Y-60675000D01*
X76477691Y-60676053D01*
G37*
G04 #@! TD.AperFunction*
G04 #@! TA.AperFunction,SMDPad,CuDef*
G36*
X76477691Y-59101053D02*
G01*
X76498926Y-59104203D01*
X76519750Y-59109419D01*
X76539962Y-59116651D01*
X76559368Y-59125830D01*
X76577781Y-59136866D01*
X76595024Y-59149654D01*
X76610930Y-59164070D01*
X76625346Y-59179976D01*
X76638134Y-59197219D01*
X76649170Y-59215632D01*
X76658349Y-59235038D01*
X76665581Y-59255250D01*
X76670797Y-59276074D01*
X76673947Y-59297309D01*
X76675000Y-59318750D01*
X76675000Y-59756250D01*
X76673947Y-59777691D01*
X76670797Y-59798926D01*
X76665581Y-59819750D01*
X76658349Y-59839962D01*
X76649170Y-59859368D01*
X76638134Y-59877781D01*
X76625346Y-59895024D01*
X76610930Y-59910930D01*
X76595024Y-59925346D01*
X76577781Y-59938134D01*
X76559368Y-59949170D01*
X76539962Y-59958349D01*
X76519750Y-59965581D01*
X76498926Y-59970797D01*
X76477691Y-59973947D01*
X76456250Y-59975000D01*
X75943750Y-59975000D01*
X75922309Y-59973947D01*
X75901074Y-59970797D01*
X75880250Y-59965581D01*
X75860038Y-59958349D01*
X75840632Y-59949170D01*
X75822219Y-59938134D01*
X75804976Y-59925346D01*
X75789070Y-59910930D01*
X75774654Y-59895024D01*
X75761866Y-59877781D01*
X75750830Y-59859368D01*
X75741651Y-59839962D01*
X75734419Y-59819750D01*
X75729203Y-59798926D01*
X75726053Y-59777691D01*
X75725000Y-59756250D01*
X75725000Y-59318750D01*
X75726053Y-59297309D01*
X75729203Y-59276074D01*
X75734419Y-59255250D01*
X75741651Y-59235038D01*
X75750830Y-59215632D01*
X75761866Y-59197219D01*
X75774654Y-59179976D01*
X75789070Y-59164070D01*
X75804976Y-59149654D01*
X75822219Y-59136866D01*
X75840632Y-59125830D01*
X75860038Y-59116651D01*
X75880250Y-59109419D01*
X75901074Y-59104203D01*
X75922309Y-59101053D01*
X75943750Y-59100000D01*
X76456250Y-59100000D01*
X76477691Y-59101053D01*
G37*
G04 #@! TD.AperFunction*
G04 #@! TA.AperFunction,SMDPad,CuDef*
G36*
X58812691Y-49056053D02*
G01*
X58833926Y-49059203D01*
X58854750Y-49064419D01*
X58874962Y-49071651D01*
X58894368Y-49080830D01*
X58912781Y-49091866D01*
X58930024Y-49104654D01*
X58945930Y-49119070D01*
X58960346Y-49134976D01*
X58973134Y-49152219D01*
X58984170Y-49170632D01*
X58993349Y-49190038D01*
X59000581Y-49210250D01*
X59005797Y-49231074D01*
X59008947Y-49252309D01*
X59010000Y-49273750D01*
X59010000Y-49786250D01*
X59008947Y-49807691D01*
X59005797Y-49828926D01*
X59000581Y-49849750D01*
X58993349Y-49869962D01*
X58984170Y-49889368D01*
X58973134Y-49907781D01*
X58960346Y-49925024D01*
X58945930Y-49940930D01*
X58930024Y-49955346D01*
X58912781Y-49968134D01*
X58894368Y-49979170D01*
X58874962Y-49988349D01*
X58854750Y-49995581D01*
X58833926Y-50000797D01*
X58812691Y-50003947D01*
X58791250Y-50005000D01*
X58353750Y-50005000D01*
X58332309Y-50003947D01*
X58311074Y-50000797D01*
X58290250Y-49995581D01*
X58270038Y-49988349D01*
X58250632Y-49979170D01*
X58232219Y-49968134D01*
X58214976Y-49955346D01*
X58199070Y-49940930D01*
X58184654Y-49925024D01*
X58171866Y-49907781D01*
X58160830Y-49889368D01*
X58151651Y-49869962D01*
X58144419Y-49849750D01*
X58139203Y-49828926D01*
X58136053Y-49807691D01*
X58135000Y-49786250D01*
X58135000Y-49273750D01*
X58136053Y-49252309D01*
X58139203Y-49231074D01*
X58144419Y-49210250D01*
X58151651Y-49190038D01*
X58160830Y-49170632D01*
X58171866Y-49152219D01*
X58184654Y-49134976D01*
X58199070Y-49119070D01*
X58214976Y-49104654D01*
X58232219Y-49091866D01*
X58250632Y-49080830D01*
X58270038Y-49071651D01*
X58290250Y-49064419D01*
X58311074Y-49059203D01*
X58332309Y-49056053D01*
X58353750Y-49055000D01*
X58791250Y-49055000D01*
X58812691Y-49056053D01*
G37*
G04 #@! TD.AperFunction*
G04 #@! TA.AperFunction,SMDPad,CuDef*
G36*
X57237691Y-49056053D02*
G01*
X57258926Y-49059203D01*
X57279750Y-49064419D01*
X57299962Y-49071651D01*
X57319368Y-49080830D01*
X57337781Y-49091866D01*
X57355024Y-49104654D01*
X57370930Y-49119070D01*
X57385346Y-49134976D01*
X57398134Y-49152219D01*
X57409170Y-49170632D01*
X57418349Y-49190038D01*
X57425581Y-49210250D01*
X57430797Y-49231074D01*
X57433947Y-49252309D01*
X57435000Y-49273750D01*
X57435000Y-49786250D01*
X57433947Y-49807691D01*
X57430797Y-49828926D01*
X57425581Y-49849750D01*
X57418349Y-49869962D01*
X57409170Y-49889368D01*
X57398134Y-49907781D01*
X57385346Y-49925024D01*
X57370930Y-49940930D01*
X57355024Y-49955346D01*
X57337781Y-49968134D01*
X57319368Y-49979170D01*
X57299962Y-49988349D01*
X57279750Y-49995581D01*
X57258926Y-50000797D01*
X57237691Y-50003947D01*
X57216250Y-50005000D01*
X56778750Y-50005000D01*
X56757309Y-50003947D01*
X56736074Y-50000797D01*
X56715250Y-49995581D01*
X56695038Y-49988349D01*
X56675632Y-49979170D01*
X56657219Y-49968134D01*
X56639976Y-49955346D01*
X56624070Y-49940930D01*
X56609654Y-49925024D01*
X56596866Y-49907781D01*
X56585830Y-49889368D01*
X56576651Y-49869962D01*
X56569419Y-49849750D01*
X56564203Y-49828926D01*
X56561053Y-49807691D01*
X56560000Y-49786250D01*
X56560000Y-49273750D01*
X56561053Y-49252309D01*
X56564203Y-49231074D01*
X56569419Y-49210250D01*
X56576651Y-49190038D01*
X56585830Y-49170632D01*
X56596866Y-49152219D01*
X56609654Y-49134976D01*
X56624070Y-49119070D01*
X56639976Y-49104654D01*
X56657219Y-49091866D01*
X56675632Y-49080830D01*
X56695038Y-49071651D01*
X56715250Y-49064419D01*
X56736074Y-49059203D01*
X56757309Y-49056053D01*
X56778750Y-49055000D01*
X57216250Y-49055000D01*
X57237691Y-49056053D01*
G37*
G04 #@! TD.AperFunction*
G04 #@! TA.AperFunction,SMDPad,CuDef*
G36*
X77862691Y-77631053D02*
G01*
X77883926Y-77634203D01*
X77904750Y-77639419D01*
X77924962Y-77646651D01*
X77944368Y-77655830D01*
X77962781Y-77666866D01*
X77980024Y-77679654D01*
X77995930Y-77694070D01*
X78010346Y-77709976D01*
X78023134Y-77727219D01*
X78034170Y-77745632D01*
X78043349Y-77765038D01*
X78050581Y-77785250D01*
X78055797Y-77806074D01*
X78058947Y-77827309D01*
X78060000Y-77848750D01*
X78060000Y-78361250D01*
X78058947Y-78382691D01*
X78055797Y-78403926D01*
X78050581Y-78424750D01*
X78043349Y-78444962D01*
X78034170Y-78464368D01*
X78023134Y-78482781D01*
X78010346Y-78500024D01*
X77995930Y-78515930D01*
X77980024Y-78530346D01*
X77962781Y-78543134D01*
X77944368Y-78554170D01*
X77924962Y-78563349D01*
X77904750Y-78570581D01*
X77883926Y-78575797D01*
X77862691Y-78578947D01*
X77841250Y-78580000D01*
X77403750Y-78580000D01*
X77382309Y-78578947D01*
X77361074Y-78575797D01*
X77340250Y-78570581D01*
X77320038Y-78563349D01*
X77300632Y-78554170D01*
X77282219Y-78543134D01*
X77264976Y-78530346D01*
X77249070Y-78515930D01*
X77234654Y-78500024D01*
X77221866Y-78482781D01*
X77210830Y-78464368D01*
X77201651Y-78444962D01*
X77194419Y-78424750D01*
X77189203Y-78403926D01*
X77186053Y-78382691D01*
X77185000Y-78361250D01*
X77185000Y-77848750D01*
X77186053Y-77827309D01*
X77189203Y-77806074D01*
X77194419Y-77785250D01*
X77201651Y-77765038D01*
X77210830Y-77745632D01*
X77221866Y-77727219D01*
X77234654Y-77709976D01*
X77249070Y-77694070D01*
X77264976Y-77679654D01*
X77282219Y-77666866D01*
X77300632Y-77655830D01*
X77320038Y-77646651D01*
X77340250Y-77639419D01*
X77361074Y-77634203D01*
X77382309Y-77631053D01*
X77403750Y-77630000D01*
X77841250Y-77630000D01*
X77862691Y-77631053D01*
G37*
G04 #@! TD.AperFunction*
G04 #@! TA.AperFunction,SMDPad,CuDef*
G36*
X76287691Y-77631053D02*
G01*
X76308926Y-77634203D01*
X76329750Y-77639419D01*
X76349962Y-77646651D01*
X76369368Y-77655830D01*
X76387781Y-77666866D01*
X76405024Y-77679654D01*
X76420930Y-77694070D01*
X76435346Y-77709976D01*
X76448134Y-77727219D01*
X76459170Y-77745632D01*
X76468349Y-77765038D01*
X76475581Y-77785250D01*
X76480797Y-77806074D01*
X76483947Y-77827309D01*
X76485000Y-77848750D01*
X76485000Y-78361250D01*
X76483947Y-78382691D01*
X76480797Y-78403926D01*
X76475581Y-78424750D01*
X76468349Y-78444962D01*
X76459170Y-78464368D01*
X76448134Y-78482781D01*
X76435346Y-78500024D01*
X76420930Y-78515930D01*
X76405024Y-78530346D01*
X76387781Y-78543134D01*
X76369368Y-78554170D01*
X76349962Y-78563349D01*
X76329750Y-78570581D01*
X76308926Y-78575797D01*
X76287691Y-78578947D01*
X76266250Y-78580000D01*
X75828750Y-78580000D01*
X75807309Y-78578947D01*
X75786074Y-78575797D01*
X75765250Y-78570581D01*
X75745038Y-78563349D01*
X75725632Y-78554170D01*
X75707219Y-78543134D01*
X75689976Y-78530346D01*
X75674070Y-78515930D01*
X75659654Y-78500024D01*
X75646866Y-78482781D01*
X75635830Y-78464368D01*
X75626651Y-78444962D01*
X75619419Y-78424750D01*
X75614203Y-78403926D01*
X75611053Y-78382691D01*
X75610000Y-78361250D01*
X75610000Y-77848750D01*
X75611053Y-77827309D01*
X75614203Y-77806074D01*
X75619419Y-77785250D01*
X75626651Y-77765038D01*
X75635830Y-77745632D01*
X75646866Y-77727219D01*
X75659654Y-77709976D01*
X75674070Y-77694070D01*
X75689976Y-77679654D01*
X75707219Y-77666866D01*
X75725632Y-77655830D01*
X75745038Y-77646651D01*
X75765250Y-77639419D01*
X75786074Y-77634203D01*
X75807309Y-77631053D01*
X75828750Y-77630000D01*
X76266250Y-77630000D01*
X76287691Y-77631053D01*
G37*
G04 #@! TD.AperFunction*
G04 #@! TA.AperFunction,SMDPad,CuDef*
G36*
X76287691Y-79536053D02*
G01*
X76308926Y-79539203D01*
X76329750Y-79544419D01*
X76349962Y-79551651D01*
X76369368Y-79560830D01*
X76387781Y-79571866D01*
X76405024Y-79584654D01*
X76420930Y-79599070D01*
X76435346Y-79614976D01*
X76448134Y-79632219D01*
X76459170Y-79650632D01*
X76468349Y-79670038D01*
X76475581Y-79690250D01*
X76480797Y-79711074D01*
X76483947Y-79732309D01*
X76485000Y-79753750D01*
X76485000Y-80266250D01*
X76483947Y-80287691D01*
X76480797Y-80308926D01*
X76475581Y-80329750D01*
X76468349Y-80349962D01*
X76459170Y-80369368D01*
X76448134Y-80387781D01*
X76435346Y-80405024D01*
X76420930Y-80420930D01*
X76405024Y-80435346D01*
X76387781Y-80448134D01*
X76369368Y-80459170D01*
X76349962Y-80468349D01*
X76329750Y-80475581D01*
X76308926Y-80480797D01*
X76287691Y-80483947D01*
X76266250Y-80485000D01*
X75828750Y-80485000D01*
X75807309Y-80483947D01*
X75786074Y-80480797D01*
X75765250Y-80475581D01*
X75745038Y-80468349D01*
X75725632Y-80459170D01*
X75707219Y-80448134D01*
X75689976Y-80435346D01*
X75674070Y-80420930D01*
X75659654Y-80405024D01*
X75646866Y-80387781D01*
X75635830Y-80369368D01*
X75626651Y-80349962D01*
X75619419Y-80329750D01*
X75614203Y-80308926D01*
X75611053Y-80287691D01*
X75610000Y-80266250D01*
X75610000Y-79753750D01*
X75611053Y-79732309D01*
X75614203Y-79711074D01*
X75619419Y-79690250D01*
X75626651Y-79670038D01*
X75635830Y-79650632D01*
X75646866Y-79632219D01*
X75659654Y-79614976D01*
X75674070Y-79599070D01*
X75689976Y-79584654D01*
X75707219Y-79571866D01*
X75725632Y-79560830D01*
X75745038Y-79551651D01*
X75765250Y-79544419D01*
X75786074Y-79539203D01*
X75807309Y-79536053D01*
X75828750Y-79535000D01*
X76266250Y-79535000D01*
X76287691Y-79536053D01*
G37*
G04 #@! TD.AperFunction*
G04 #@! TA.AperFunction,SMDPad,CuDef*
G36*
X77862691Y-79536053D02*
G01*
X77883926Y-79539203D01*
X77904750Y-79544419D01*
X77924962Y-79551651D01*
X77944368Y-79560830D01*
X77962781Y-79571866D01*
X77980024Y-79584654D01*
X77995930Y-79599070D01*
X78010346Y-79614976D01*
X78023134Y-79632219D01*
X78034170Y-79650632D01*
X78043349Y-79670038D01*
X78050581Y-79690250D01*
X78055797Y-79711074D01*
X78058947Y-79732309D01*
X78060000Y-79753750D01*
X78060000Y-80266250D01*
X78058947Y-80287691D01*
X78055797Y-80308926D01*
X78050581Y-80329750D01*
X78043349Y-80349962D01*
X78034170Y-80369368D01*
X78023134Y-80387781D01*
X78010346Y-80405024D01*
X77995930Y-80420930D01*
X77980024Y-80435346D01*
X77962781Y-80448134D01*
X77944368Y-80459170D01*
X77924962Y-80468349D01*
X77904750Y-80475581D01*
X77883926Y-80480797D01*
X77862691Y-80483947D01*
X77841250Y-80485000D01*
X77403750Y-80485000D01*
X77382309Y-80483947D01*
X77361074Y-80480797D01*
X77340250Y-80475581D01*
X77320038Y-80468349D01*
X77300632Y-80459170D01*
X77282219Y-80448134D01*
X77264976Y-80435346D01*
X77249070Y-80420930D01*
X77234654Y-80405024D01*
X77221866Y-80387781D01*
X77210830Y-80369368D01*
X77201651Y-80349962D01*
X77194419Y-80329750D01*
X77189203Y-80308926D01*
X77186053Y-80287691D01*
X77185000Y-80266250D01*
X77185000Y-79753750D01*
X77186053Y-79732309D01*
X77189203Y-79711074D01*
X77194419Y-79690250D01*
X77201651Y-79670038D01*
X77210830Y-79650632D01*
X77221866Y-79632219D01*
X77234654Y-79614976D01*
X77249070Y-79599070D01*
X77264976Y-79584654D01*
X77282219Y-79571866D01*
X77300632Y-79560830D01*
X77320038Y-79551651D01*
X77340250Y-79544419D01*
X77361074Y-79539203D01*
X77382309Y-79536053D01*
X77403750Y-79535000D01*
X77841250Y-79535000D01*
X77862691Y-79536053D01*
G37*
G04 #@! TD.AperFunction*
D18*
X80645000Y-58420000D03*
X57785000Y-58420000D03*
X80645000Y-60960000D03*
X57785000Y-60960000D03*
X80645000Y-63500000D03*
X57785000Y-63500000D03*
X80645000Y-66040000D03*
X57785000Y-66040000D03*
X80645000Y-68580000D03*
X57785000Y-68580000D03*
X80645000Y-71120000D03*
X57785000Y-71120000D03*
X80645000Y-73660000D03*
X57785000Y-73660000D03*
X80645000Y-76200000D03*
X57785000Y-76200000D03*
G04 #@! TA.AperFunction,SMDPad,CuDef*
D13*
G36*
X71894703Y-65740722D02*
G01*
X71909264Y-65742882D01*
X71923543Y-65746459D01*
X71937403Y-65751418D01*
X71950710Y-65757712D01*
X71963336Y-65765280D01*
X71975159Y-65774048D01*
X71986066Y-65783934D01*
X71995952Y-65794841D01*
X72004720Y-65806664D01*
X72012288Y-65819290D01*
X72018582Y-65832597D01*
X72023541Y-65846457D01*
X72027118Y-65860736D01*
X72029278Y-65875297D01*
X72030000Y-65890000D01*
X72030000Y-66190000D01*
X72029278Y-66204703D01*
X72027118Y-66219264D01*
X72023541Y-66233543D01*
X72018582Y-66247403D01*
X72012288Y-66260710D01*
X72004720Y-66273336D01*
X71995952Y-66285159D01*
X71986066Y-66296066D01*
X71975159Y-66305952D01*
X71963336Y-66314720D01*
X71950710Y-66322288D01*
X71937403Y-66328582D01*
X71923543Y-66333541D01*
X71909264Y-66337118D01*
X71894703Y-66339278D01*
X71880000Y-66340000D01*
X70230000Y-66340000D01*
X70215297Y-66339278D01*
X70200736Y-66337118D01*
X70186457Y-66333541D01*
X70172597Y-66328582D01*
X70159290Y-66322288D01*
X70146664Y-66314720D01*
X70134841Y-66305952D01*
X70123934Y-66296066D01*
X70114048Y-66285159D01*
X70105280Y-66273336D01*
X70097712Y-66260710D01*
X70091418Y-66247403D01*
X70086459Y-66233543D01*
X70082882Y-66219264D01*
X70080722Y-66204703D01*
X70080000Y-66190000D01*
X70080000Y-65890000D01*
X70080722Y-65875297D01*
X70082882Y-65860736D01*
X70086459Y-65846457D01*
X70091418Y-65832597D01*
X70097712Y-65819290D01*
X70105280Y-65806664D01*
X70114048Y-65794841D01*
X70123934Y-65783934D01*
X70134841Y-65774048D01*
X70146664Y-65765280D01*
X70159290Y-65757712D01*
X70172597Y-65751418D01*
X70186457Y-65746459D01*
X70200736Y-65742882D01*
X70215297Y-65740722D01*
X70230000Y-65740000D01*
X71880000Y-65740000D01*
X71894703Y-65740722D01*
G37*
G04 #@! TD.AperFunction*
G04 #@! TA.AperFunction,SMDPad,CuDef*
G36*
X71894703Y-67010722D02*
G01*
X71909264Y-67012882D01*
X71923543Y-67016459D01*
X71937403Y-67021418D01*
X71950710Y-67027712D01*
X71963336Y-67035280D01*
X71975159Y-67044048D01*
X71986066Y-67053934D01*
X71995952Y-67064841D01*
X72004720Y-67076664D01*
X72012288Y-67089290D01*
X72018582Y-67102597D01*
X72023541Y-67116457D01*
X72027118Y-67130736D01*
X72029278Y-67145297D01*
X72030000Y-67160000D01*
X72030000Y-67460000D01*
X72029278Y-67474703D01*
X72027118Y-67489264D01*
X72023541Y-67503543D01*
X72018582Y-67517403D01*
X72012288Y-67530710D01*
X72004720Y-67543336D01*
X71995952Y-67555159D01*
X71986066Y-67566066D01*
X71975159Y-67575952D01*
X71963336Y-67584720D01*
X71950710Y-67592288D01*
X71937403Y-67598582D01*
X71923543Y-67603541D01*
X71909264Y-67607118D01*
X71894703Y-67609278D01*
X71880000Y-67610000D01*
X70230000Y-67610000D01*
X70215297Y-67609278D01*
X70200736Y-67607118D01*
X70186457Y-67603541D01*
X70172597Y-67598582D01*
X70159290Y-67592288D01*
X70146664Y-67584720D01*
X70134841Y-67575952D01*
X70123934Y-67566066D01*
X70114048Y-67555159D01*
X70105280Y-67543336D01*
X70097712Y-67530710D01*
X70091418Y-67517403D01*
X70086459Y-67503543D01*
X70082882Y-67489264D01*
X70080722Y-67474703D01*
X70080000Y-67460000D01*
X70080000Y-67160000D01*
X70080722Y-67145297D01*
X70082882Y-67130736D01*
X70086459Y-67116457D01*
X70091418Y-67102597D01*
X70097712Y-67089290D01*
X70105280Y-67076664D01*
X70114048Y-67064841D01*
X70123934Y-67053934D01*
X70134841Y-67044048D01*
X70146664Y-67035280D01*
X70159290Y-67027712D01*
X70172597Y-67021418D01*
X70186457Y-67016459D01*
X70200736Y-67012882D01*
X70215297Y-67010722D01*
X70230000Y-67010000D01*
X71880000Y-67010000D01*
X71894703Y-67010722D01*
G37*
G04 #@! TD.AperFunction*
G04 #@! TA.AperFunction,SMDPad,CuDef*
G36*
X71894703Y-68280722D02*
G01*
X71909264Y-68282882D01*
X71923543Y-68286459D01*
X71937403Y-68291418D01*
X71950710Y-68297712D01*
X71963336Y-68305280D01*
X71975159Y-68314048D01*
X71986066Y-68323934D01*
X71995952Y-68334841D01*
X72004720Y-68346664D01*
X72012288Y-68359290D01*
X72018582Y-68372597D01*
X72023541Y-68386457D01*
X72027118Y-68400736D01*
X72029278Y-68415297D01*
X72030000Y-68430000D01*
X72030000Y-68730000D01*
X72029278Y-68744703D01*
X72027118Y-68759264D01*
X72023541Y-68773543D01*
X72018582Y-68787403D01*
X72012288Y-68800710D01*
X72004720Y-68813336D01*
X71995952Y-68825159D01*
X71986066Y-68836066D01*
X71975159Y-68845952D01*
X71963336Y-68854720D01*
X71950710Y-68862288D01*
X71937403Y-68868582D01*
X71923543Y-68873541D01*
X71909264Y-68877118D01*
X71894703Y-68879278D01*
X71880000Y-68880000D01*
X70230000Y-68880000D01*
X70215297Y-68879278D01*
X70200736Y-68877118D01*
X70186457Y-68873541D01*
X70172597Y-68868582D01*
X70159290Y-68862288D01*
X70146664Y-68854720D01*
X70134841Y-68845952D01*
X70123934Y-68836066D01*
X70114048Y-68825159D01*
X70105280Y-68813336D01*
X70097712Y-68800710D01*
X70091418Y-68787403D01*
X70086459Y-68773543D01*
X70082882Y-68759264D01*
X70080722Y-68744703D01*
X70080000Y-68730000D01*
X70080000Y-68430000D01*
X70080722Y-68415297D01*
X70082882Y-68400736D01*
X70086459Y-68386457D01*
X70091418Y-68372597D01*
X70097712Y-68359290D01*
X70105280Y-68346664D01*
X70114048Y-68334841D01*
X70123934Y-68323934D01*
X70134841Y-68314048D01*
X70146664Y-68305280D01*
X70159290Y-68297712D01*
X70172597Y-68291418D01*
X70186457Y-68286459D01*
X70200736Y-68282882D01*
X70215297Y-68280722D01*
X70230000Y-68280000D01*
X71880000Y-68280000D01*
X71894703Y-68280722D01*
G37*
G04 #@! TD.AperFunction*
G04 #@! TA.AperFunction,SMDPad,CuDef*
G36*
X71894703Y-69550722D02*
G01*
X71909264Y-69552882D01*
X71923543Y-69556459D01*
X71937403Y-69561418D01*
X71950710Y-69567712D01*
X71963336Y-69575280D01*
X71975159Y-69584048D01*
X71986066Y-69593934D01*
X71995952Y-69604841D01*
X72004720Y-69616664D01*
X72012288Y-69629290D01*
X72018582Y-69642597D01*
X72023541Y-69656457D01*
X72027118Y-69670736D01*
X72029278Y-69685297D01*
X72030000Y-69700000D01*
X72030000Y-70000000D01*
X72029278Y-70014703D01*
X72027118Y-70029264D01*
X72023541Y-70043543D01*
X72018582Y-70057403D01*
X72012288Y-70070710D01*
X72004720Y-70083336D01*
X71995952Y-70095159D01*
X71986066Y-70106066D01*
X71975159Y-70115952D01*
X71963336Y-70124720D01*
X71950710Y-70132288D01*
X71937403Y-70138582D01*
X71923543Y-70143541D01*
X71909264Y-70147118D01*
X71894703Y-70149278D01*
X71880000Y-70150000D01*
X70230000Y-70150000D01*
X70215297Y-70149278D01*
X70200736Y-70147118D01*
X70186457Y-70143541D01*
X70172597Y-70138582D01*
X70159290Y-70132288D01*
X70146664Y-70124720D01*
X70134841Y-70115952D01*
X70123934Y-70106066D01*
X70114048Y-70095159D01*
X70105280Y-70083336D01*
X70097712Y-70070710D01*
X70091418Y-70057403D01*
X70086459Y-70043543D01*
X70082882Y-70029264D01*
X70080722Y-70014703D01*
X70080000Y-70000000D01*
X70080000Y-69700000D01*
X70080722Y-69685297D01*
X70082882Y-69670736D01*
X70086459Y-69656457D01*
X70091418Y-69642597D01*
X70097712Y-69629290D01*
X70105280Y-69616664D01*
X70114048Y-69604841D01*
X70123934Y-69593934D01*
X70134841Y-69584048D01*
X70146664Y-69575280D01*
X70159290Y-69567712D01*
X70172597Y-69561418D01*
X70186457Y-69556459D01*
X70200736Y-69552882D01*
X70215297Y-69550722D01*
X70230000Y-69550000D01*
X71880000Y-69550000D01*
X71894703Y-69550722D01*
G37*
G04 #@! TD.AperFunction*
G04 #@! TA.AperFunction,SMDPad,CuDef*
G36*
X71894703Y-70820722D02*
G01*
X71909264Y-70822882D01*
X71923543Y-70826459D01*
X71937403Y-70831418D01*
X71950710Y-70837712D01*
X71963336Y-70845280D01*
X71975159Y-70854048D01*
X71986066Y-70863934D01*
X71995952Y-70874841D01*
X72004720Y-70886664D01*
X72012288Y-70899290D01*
X72018582Y-70912597D01*
X72023541Y-70926457D01*
X72027118Y-70940736D01*
X72029278Y-70955297D01*
X72030000Y-70970000D01*
X72030000Y-71270000D01*
X72029278Y-71284703D01*
X72027118Y-71299264D01*
X72023541Y-71313543D01*
X72018582Y-71327403D01*
X72012288Y-71340710D01*
X72004720Y-71353336D01*
X71995952Y-71365159D01*
X71986066Y-71376066D01*
X71975159Y-71385952D01*
X71963336Y-71394720D01*
X71950710Y-71402288D01*
X71937403Y-71408582D01*
X71923543Y-71413541D01*
X71909264Y-71417118D01*
X71894703Y-71419278D01*
X71880000Y-71420000D01*
X70230000Y-71420000D01*
X70215297Y-71419278D01*
X70200736Y-71417118D01*
X70186457Y-71413541D01*
X70172597Y-71408582D01*
X70159290Y-71402288D01*
X70146664Y-71394720D01*
X70134841Y-71385952D01*
X70123934Y-71376066D01*
X70114048Y-71365159D01*
X70105280Y-71353336D01*
X70097712Y-71340710D01*
X70091418Y-71327403D01*
X70086459Y-71313543D01*
X70082882Y-71299264D01*
X70080722Y-71284703D01*
X70080000Y-71270000D01*
X70080000Y-70970000D01*
X70080722Y-70955297D01*
X70082882Y-70940736D01*
X70086459Y-70926457D01*
X70091418Y-70912597D01*
X70097712Y-70899290D01*
X70105280Y-70886664D01*
X70114048Y-70874841D01*
X70123934Y-70863934D01*
X70134841Y-70854048D01*
X70146664Y-70845280D01*
X70159290Y-70837712D01*
X70172597Y-70831418D01*
X70186457Y-70826459D01*
X70200736Y-70822882D01*
X70215297Y-70820722D01*
X70230000Y-70820000D01*
X71880000Y-70820000D01*
X71894703Y-70820722D01*
G37*
G04 #@! TD.AperFunction*
G04 #@! TA.AperFunction,SMDPad,CuDef*
G36*
X71894703Y-72090722D02*
G01*
X71909264Y-72092882D01*
X71923543Y-72096459D01*
X71937403Y-72101418D01*
X71950710Y-72107712D01*
X71963336Y-72115280D01*
X71975159Y-72124048D01*
X71986066Y-72133934D01*
X71995952Y-72144841D01*
X72004720Y-72156664D01*
X72012288Y-72169290D01*
X72018582Y-72182597D01*
X72023541Y-72196457D01*
X72027118Y-72210736D01*
X72029278Y-72225297D01*
X72030000Y-72240000D01*
X72030000Y-72540000D01*
X72029278Y-72554703D01*
X72027118Y-72569264D01*
X72023541Y-72583543D01*
X72018582Y-72597403D01*
X72012288Y-72610710D01*
X72004720Y-72623336D01*
X71995952Y-72635159D01*
X71986066Y-72646066D01*
X71975159Y-72655952D01*
X71963336Y-72664720D01*
X71950710Y-72672288D01*
X71937403Y-72678582D01*
X71923543Y-72683541D01*
X71909264Y-72687118D01*
X71894703Y-72689278D01*
X71880000Y-72690000D01*
X70230000Y-72690000D01*
X70215297Y-72689278D01*
X70200736Y-72687118D01*
X70186457Y-72683541D01*
X70172597Y-72678582D01*
X70159290Y-72672288D01*
X70146664Y-72664720D01*
X70134841Y-72655952D01*
X70123934Y-72646066D01*
X70114048Y-72635159D01*
X70105280Y-72623336D01*
X70097712Y-72610710D01*
X70091418Y-72597403D01*
X70086459Y-72583543D01*
X70082882Y-72569264D01*
X70080722Y-72554703D01*
X70080000Y-72540000D01*
X70080000Y-72240000D01*
X70080722Y-72225297D01*
X70082882Y-72210736D01*
X70086459Y-72196457D01*
X70091418Y-72182597D01*
X70097712Y-72169290D01*
X70105280Y-72156664D01*
X70114048Y-72144841D01*
X70123934Y-72133934D01*
X70134841Y-72124048D01*
X70146664Y-72115280D01*
X70159290Y-72107712D01*
X70172597Y-72101418D01*
X70186457Y-72096459D01*
X70200736Y-72092882D01*
X70215297Y-72090722D01*
X70230000Y-72090000D01*
X71880000Y-72090000D01*
X71894703Y-72090722D01*
G37*
G04 #@! TD.AperFunction*
G04 #@! TA.AperFunction,SMDPad,CuDef*
G36*
X71894703Y-73360722D02*
G01*
X71909264Y-73362882D01*
X71923543Y-73366459D01*
X71937403Y-73371418D01*
X71950710Y-73377712D01*
X71963336Y-73385280D01*
X71975159Y-73394048D01*
X71986066Y-73403934D01*
X71995952Y-73414841D01*
X72004720Y-73426664D01*
X72012288Y-73439290D01*
X72018582Y-73452597D01*
X72023541Y-73466457D01*
X72027118Y-73480736D01*
X72029278Y-73495297D01*
X72030000Y-73510000D01*
X72030000Y-73810000D01*
X72029278Y-73824703D01*
X72027118Y-73839264D01*
X72023541Y-73853543D01*
X72018582Y-73867403D01*
X72012288Y-73880710D01*
X72004720Y-73893336D01*
X71995952Y-73905159D01*
X71986066Y-73916066D01*
X71975159Y-73925952D01*
X71963336Y-73934720D01*
X71950710Y-73942288D01*
X71937403Y-73948582D01*
X71923543Y-73953541D01*
X71909264Y-73957118D01*
X71894703Y-73959278D01*
X71880000Y-73960000D01*
X70230000Y-73960000D01*
X70215297Y-73959278D01*
X70200736Y-73957118D01*
X70186457Y-73953541D01*
X70172597Y-73948582D01*
X70159290Y-73942288D01*
X70146664Y-73934720D01*
X70134841Y-73925952D01*
X70123934Y-73916066D01*
X70114048Y-73905159D01*
X70105280Y-73893336D01*
X70097712Y-73880710D01*
X70091418Y-73867403D01*
X70086459Y-73853543D01*
X70082882Y-73839264D01*
X70080722Y-73824703D01*
X70080000Y-73810000D01*
X70080000Y-73510000D01*
X70080722Y-73495297D01*
X70082882Y-73480736D01*
X70086459Y-73466457D01*
X70091418Y-73452597D01*
X70097712Y-73439290D01*
X70105280Y-73426664D01*
X70114048Y-73414841D01*
X70123934Y-73403934D01*
X70134841Y-73394048D01*
X70146664Y-73385280D01*
X70159290Y-73377712D01*
X70172597Y-73371418D01*
X70186457Y-73366459D01*
X70200736Y-73362882D01*
X70215297Y-73360722D01*
X70230000Y-73360000D01*
X71880000Y-73360000D01*
X71894703Y-73360722D01*
G37*
G04 #@! TD.AperFunction*
G04 #@! TA.AperFunction,SMDPad,CuDef*
G36*
X66944703Y-73360722D02*
G01*
X66959264Y-73362882D01*
X66973543Y-73366459D01*
X66987403Y-73371418D01*
X67000710Y-73377712D01*
X67013336Y-73385280D01*
X67025159Y-73394048D01*
X67036066Y-73403934D01*
X67045952Y-73414841D01*
X67054720Y-73426664D01*
X67062288Y-73439290D01*
X67068582Y-73452597D01*
X67073541Y-73466457D01*
X67077118Y-73480736D01*
X67079278Y-73495297D01*
X67080000Y-73510000D01*
X67080000Y-73810000D01*
X67079278Y-73824703D01*
X67077118Y-73839264D01*
X67073541Y-73853543D01*
X67068582Y-73867403D01*
X67062288Y-73880710D01*
X67054720Y-73893336D01*
X67045952Y-73905159D01*
X67036066Y-73916066D01*
X67025159Y-73925952D01*
X67013336Y-73934720D01*
X67000710Y-73942288D01*
X66987403Y-73948582D01*
X66973543Y-73953541D01*
X66959264Y-73957118D01*
X66944703Y-73959278D01*
X66930000Y-73960000D01*
X65280000Y-73960000D01*
X65265297Y-73959278D01*
X65250736Y-73957118D01*
X65236457Y-73953541D01*
X65222597Y-73948582D01*
X65209290Y-73942288D01*
X65196664Y-73934720D01*
X65184841Y-73925952D01*
X65173934Y-73916066D01*
X65164048Y-73905159D01*
X65155280Y-73893336D01*
X65147712Y-73880710D01*
X65141418Y-73867403D01*
X65136459Y-73853543D01*
X65132882Y-73839264D01*
X65130722Y-73824703D01*
X65130000Y-73810000D01*
X65130000Y-73510000D01*
X65130722Y-73495297D01*
X65132882Y-73480736D01*
X65136459Y-73466457D01*
X65141418Y-73452597D01*
X65147712Y-73439290D01*
X65155280Y-73426664D01*
X65164048Y-73414841D01*
X65173934Y-73403934D01*
X65184841Y-73394048D01*
X65196664Y-73385280D01*
X65209290Y-73377712D01*
X65222597Y-73371418D01*
X65236457Y-73366459D01*
X65250736Y-73362882D01*
X65265297Y-73360722D01*
X65280000Y-73360000D01*
X66930000Y-73360000D01*
X66944703Y-73360722D01*
G37*
G04 #@! TD.AperFunction*
G04 #@! TA.AperFunction,SMDPad,CuDef*
G36*
X66944703Y-72090722D02*
G01*
X66959264Y-72092882D01*
X66973543Y-72096459D01*
X66987403Y-72101418D01*
X67000710Y-72107712D01*
X67013336Y-72115280D01*
X67025159Y-72124048D01*
X67036066Y-72133934D01*
X67045952Y-72144841D01*
X67054720Y-72156664D01*
X67062288Y-72169290D01*
X67068582Y-72182597D01*
X67073541Y-72196457D01*
X67077118Y-72210736D01*
X67079278Y-72225297D01*
X67080000Y-72240000D01*
X67080000Y-72540000D01*
X67079278Y-72554703D01*
X67077118Y-72569264D01*
X67073541Y-72583543D01*
X67068582Y-72597403D01*
X67062288Y-72610710D01*
X67054720Y-72623336D01*
X67045952Y-72635159D01*
X67036066Y-72646066D01*
X67025159Y-72655952D01*
X67013336Y-72664720D01*
X67000710Y-72672288D01*
X66987403Y-72678582D01*
X66973543Y-72683541D01*
X66959264Y-72687118D01*
X66944703Y-72689278D01*
X66930000Y-72690000D01*
X65280000Y-72690000D01*
X65265297Y-72689278D01*
X65250736Y-72687118D01*
X65236457Y-72683541D01*
X65222597Y-72678582D01*
X65209290Y-72672288D01*
X65196664Y-72664720D01*
X65184841Y-72655952D01*
X65173934Y-72646066D01*
X65164048Y-72635159D01*
X65155280Y-72623336D01*
X65147712Y-72610710D01*
X65141418Y-72597403D01*
X65136459Y-72583543D01*
X65132882Y-72569264D01*
X65130722Y-72554703D01*
X65130000Y-72540000D01*
X65130000Y-72240000D01*
X65130722Y-72225297D01*
X65132882Y-72210736D01*
X65136459Y-72196457D01*
X65141418Y-72182597D01*
X65147712Y-72169290D01*
X65155280Y-72156664D01*
X65164048Y-72144841D01*
X65173934Y-72133934D01*
X65184841Y-72124048D01*
X65196664Y-72115280D01*
X65209290Y-72107712D01*
X65222597Y-72101418D01*
X65236457Y-72096459D01*
X65250736Y-72092882D01*
X65265297Y-72090722D01*
X65280000Y-72090000D01*
X66930000Y-72090000D01*
X66944703Y-72090722D01*
G37*
G04 #@! TD.AperFunction*
G04 #@! TA.AperFunction,SMDPad,CuDef*
G36*
X66944703Y-70820722D02*
G01*
X66959264Y-70822882D01*
X66973543Y-70826459D01*
X66987403Y-70831418D01*
X67000710Y-70837712D01*
X67013336Y-70845280D01*
X67025159Y-70854048D01*
X67036066Y-70863934D01*
X67045952Y-70874841D01*
X67054720Y-70886664D01*
X67062288Y-70899290D01*
X67068582Y-70912597D01*
X67073541Y-70926457D01*
X67077118Y-70940736D01*
X67079278Y-70955297D01*
X67080000Y-70970000D01*
X67080000Y-71270000D01*
X67079278Y-71284703D01*
X67077118Y-71299264D01*
X67073541Y-71313543D01*
X67068582Y-71327403D01*
X67062288Y-71340710D01*
X67054720Y-71353336D01*
X67045952Y-71365159D01*
X67036066Y-71376066D01*
X67025159Y-71385952D01*
X67013336Y-71394720D01*
X67000710Y-71402288D01*
X66987403Y-71408582D01*
X66973543Y-71413541D01*
X66959264Y-71417118D01*
X66944703Y-71419278D01*
X66930000Y-71420000D01*
X65280000Y-71420000D01*
X65265297Y-71419278D01*
X65250736Y-71417118D01*
X65236457Y-71413541D01*
X65222597Y-71408582D01*
X65209290Y-71402288D01*
X65196664Y-71394720D01*
X65184841Y-71385952D01*
X65173934Y-71376066D01*
X65164048Y-71365159D01*
X65155280Y-71353336D01*
X65147712Y-71340710D01*
X65141418Y-71327403D01*
X65136459Y-71313543D01*
X65132882Y-71299264D01*
X65130722Y-71284703D01*
X65130000Y-71270000D01*
X65130000Y-70970000D01*
X65130722Y-70955297D01*
X65132882Y-70940736D01*
X65136459Y-70926457D01*
X65141418Y-70912597D01*
X65147712Y-70899290D01*
X65155280Y-70886664D01*
X65164048Y-70874841D01*
X65173934Y-70863934D01*
X65184841Y-70854048D01*
X65196664Y-70845280D01*
X65209290Y-70837712D01*
X65222597Y-70831418D01*
X65236457Y-70826459D01*
X65250736Y-70822882D01*
X65265297Y-70820722D01*
X65280000Y-70820000D01*
X66930000Y-70820000D01*
X66944703Y-70820722D01*
G37*
G04 #@! TD.AperFunction*
G04 #@! TA.AperFunction,SMDPad,CuDef*
G36*
X66944703Y-69550722D02*
G01*
X66959264Y-69552882D01*
X66973543Y-69556459D01*
X66987403Y-69561418D01*
X67000710Y-69567712D01*
X67013336Y-69575280D01*
X67025159Y-69584048D01*
X67036066Y-69593934D01*
X67045952Y-69604841D01*
X67054720Y-69616664D01*
X67062288Y-69629290D01*
X67068582Y-69642597D01*
X67073541Y-69656457D01*
X67077118Y-69670736D01*
X67079278Y-69685297D01*
X67080000Y-69700000D01*
X67080000Y-70000000D01*
X67079278Y-70014703D01*
X67077118Y-70029264D01*
X67073541Y-70043543D01*
X67068582Y-70057403D01*
X67062288Y-70070710D01*
X67054720Y-70083336D01*
X67045952Y-70095159D01*
X67036066Y-70106066D01*
X67025159Y-70115952D01*
X67013336Y-70124720D01*
X67000710Y-70132288D01*
X66987403Y-70138582D01*
X66973543Y-70143541D01*
X66959264Y-70147118D01*
X66944703Y-70149278D01*
X66930000Y-70150000D01*
X65280000Y-70150000D01*
X65265297Y-70149278D01*
X65250736Y-70147118D01*
X65236457Y-70143541D01*
X65222597Y-70138582D01*
X65209290Y-70132288D01*
X65196664Y-70124720D01*
X65184841Y-70115952D01*
X65173934Y-70106066D01*
X65164048Y-70095159D01*
X65155280Y-70083336D01*
X65147712Y-70070710D01*
X65141418Y-70057403D01*
X65136459Y-70043543D01*
X65132882Y-70029264D01*
X65130722Y-70014703D01*
X65130000Y-70000000D01*
X65130000Y-69700000D01*
X65130722Y-69685297D01*
X65132882Y-69670736D01*
X65136459Y-69656457D01*
X65141418Y-69642597D01*
X65147712Y-69629290D01*
X65155280Y-69616664D01*
X65164048Y-69604841D01*
X65173934Y-69593934D01*
X65184841Y-69584048D01*
X65196664Y-69575280D01*
X65209290Y-69567712D01*
X65222597Y-69561418D01*
X65236457Y-69556459D01*
X65250736Y-69552882D01*
X65265297Y-69550722D01*
X65280000Y-69550000D01*
X66930000Y-69550000D01*
X66944703Y-69550722D01*
G37*
G04 #@! TD.AperFunction*
G04 #@! TA.AperFunction,SMDPad,CuDef*
G36*
X66944703Y-68280722D02*
G01*
X66959264Y-68282882D01*
X66973543Y-68286459D01*
X66987403Y-68291418D01*
X67000710Y-68297712D01*
X67013336Y-68305280D01*
X67025159Y-68314048D01*
X67036066Y-68323934D01*
X67045952Y-68334841D01*
X67054720Y-68346664D01*
X67062288Y-68359290D01*
X67068582Y-68372597D01*
X67073541Y-68386457D01*
X67077118Y-68400736D01*
X67079278Y-68415297D01*
X67080000Y-68430000D01*
X67080000Y-68730000D01*
X67079278Y-68744703D01*
X67077118Y-68759264D01*
X67073541Y-68773543D01*
X67068582Y-68787403D01*
X67062288Y-68800710D01*
X67054720Y-68813336D01*
X67045952Y-68825159D01*
X67036066Y-68836066D01*
X67025159Y-68845952D01*
X67013336Y-68854720D01*
X67000710Y-68862288D01*
X66987403Y-68868582D01*
X66973543Y-68873541D01*
X66959264Y-68877118D01*
X66944703Y-68879278D01*
X66930000Y-68880000D01*
X65280000Y-68880000D01*
X65265297Y-68879278D01*
X65250736Y-68877118D01*
X65236457Y-68873541D01*
X65222597Y-68868582D01*
X65209290Y-68862288D01*
X65196664Y-68854720D01*
X65184841Y-68845952D01*
X65173934Y-68836066D01*
X65164048Y-68825159D01*
X65155280Y-68813336D01*
X65147712Y-68800710D01*
X65141418Y-68787403D01*
X65136459Y-68773543D01*
X65132882Y-68759264D01*
X65130722Y-68744703D01*
X65130000Y-68730000D01*
X65130000Y-68430000D01*
X65130722Y-68415297D01*
X65132882Y-68400736D01*
X65136459Y-68386457D01*
X65141418Y-68372597D01*
X65147712Y-68359290D01*
X65155280Y-68346664D01*
X65164048Y-68334841D01*
X65173934Y-68323934D01*
X65184841Y-68314048D01*
X65196664Y-68305280D01*
X65209290Y-68297712D01*
X65222597Y-68291418D01*
X65236457Y-68286459D01*
X65250736Y-68282882D01*
X65265297Y-68280722D01*
X65280000Y-68280000D01*
X66930000Y-68280000D01*
X66944703Y-68280722D01*
G37*
G04 #@! TD.AperFunction*
G04 #@! TA.AperFunction,SMDPad,CuDef*
G36*
X66944703Y-67010722D02*
G01*
X66959264Y-67012882D01*
X66973543Y-67016459D01*
X66987403Y-67021418D01*
X67000710Y-67027712D01*
X67013336Y-67035280D01*
X67025159Y-67044048D01*
X67036066Y-67053934D01*
X67045952Y-67064841D01*
X67054720Y-67076664D01*
X67062288Y-67089290D01*
X67068582Y-67102597D01*
X67073541Y-67116457D01*
X67077118Y-67130736D01*
X67079278Y-67145297D01*
X67080000Y-67160000D01*
X67080000Y-67460000D01*
X67079278Y-67474703D01*
X67077118Y-67489264D01*
X67073541Y-67503543D01*
X67068582Y-67517403D01*
X67062288Y-67530710D01*
X67054720Y-67543336D01*
X67045952Y-67555159D01*
X67036066Y-67566066D01*
X67025159Y-67575952D01*
X67013336Y-67584720D01*
X67000710Y-67592288D01*
X66987403Y-67598582D01*
X66973543Y-67603541D01*
X66959264Y-67607118D01*
X66944703Y-67609278D01*
X66930000Y-67610000D01*
X65280000Y-67610000D01*
X65265297Y-67609278D01*
X65250736Y-67607118D01*
X65236457Y-67603541D01*
X65222597Y-67598582D01*
X65209290Y-67592288D01*
X65196664Y-67584720D01*
X65184841Y-67575952D01*
X65173934Y-67566066D01*
X65164048Y-67555159D01*
X65155280Y-67543336D01*
X65147712Y-67530710D01*
X65141418Y-67517403D01*
X65136459Y-67503543D01*
X65132882Y-67489264D01*
X65130722Y-67474703D01*
X65130000Y-67460000D01*
X65130000Y-67160000D01*
X65130722Y-67145297D01*
X65132882Y-67130736D01*
X65136459Y-67116457D01*
X65141418Y-67102597D01*
X65147712Y-67089290D01*
X65155280Y-67076664D01*
X65164048Y-67064841D01*
X65173934Y-67053934D01*
X65184841Y-67044048D01*
X65196664Y-67035280D01*
X65209290Y-67027712D01*
X65222597Y-67021418D01*
X65236457Y-67016459D01*
X65250736Y-67012882D01*
X65265297Y-67010722D01*
X65280000Y-67010000D01*
X66930000Y-67010000D01*
X66944703Y-67010722D01*
G37*
G04 #@! TD.AperFunction*
G04 #@! TA.AperFunction,SMDPad,CuDef*
G36*
X66944703Y-65740722D02*
G01*
X66959264Y-65742882D01*
X66973543Y-65746459D01*
X66987403Y-65751418D01*
X67000710Y-65757712D01*
X67013336Y-65765280D01*
X67025159Y-65774048D01*
X67036066Y-65783934D01*
X67045952Y-65794841D01*
X67054720Y-65806664D01*
X67062288Y-65819290D01*
X67068582Y-65832597D01*
X67073541Y-65846457D01*
X67077118Y-65860736D01*
X67079278Y-65875297D01*
X67080000Y-65890000D01*
X67080000Y-66190000D01*
X67079278Y-66204703D01*
X67077118Y-66219264D01*
X67073541Y-66233543D01*
X67068582Y-66247403D01*
X67062288Y-66260710D01*
X67054720Y-66273336D01*
X67045952Y-66285159D01*
X67036066Y-66296066D01*
X67025159Y-66305952D01*
X67013336Y-66314720D01*
X67000710Y-66322288D01*
X66987403Y-66328582D01*
X66973543Y-66333541D01*
X66959264Y-66337118D01*
X66944703Y-66339278D01*
X66930000Y-66340000D01*
X65280000Y-66340000D01*
X65265297Y-66339278D01*
X65250736Y-66337118D01*
X65236457Y-66333541D01*
X65222597Y-66328582D01*
X65209290Y-66322288D01*
X65196664Y-66314720D01*
X65184841Y-66305952D01*
X65173934Y-66296066D01*
X65164048Y-66285159D01*
X65155280Y-66273336D01*
X65147712Y-66260710D01*
X65141418Y-66247403D01*
X65136459Y-66233543D01*
X65132882Y-66219264D01*
X65130722Y-66204703D01*
X65130000Y-66190000D01*
X65130000Y-65890000D01*
X65130722Y-65875297D01*
X65132882Y-65860736D01*
X65136459Y-65846457D01*
X65141418Y-65832597D01*
X65147712Y-65819290D01*
X65155280Y-65806664D01*
X65164048Y-65794841D01*
X65173934Y-65783934D01*
X65184841Y-65774048D01*
X65196664Y-65765280D01*
X65209290Y-65757712D01*
X65222597Y-65751418D01*
X65236457Y-65746459D01*
X65250736Y-65742882D01*
X65265297Y-65740722D01*
X65280000Y-65740000D01*
X66930000Y-65740000D01*
X66944703Y-65740722D01*
G37*
G04 #@! TD.AperFunction*
D14*
X83820000Y-53975000D03*
D15*
X81280000Y-53975000D03*
D11*
X63500000Y-67945000D03*
D19*
X75565000Y-48260000D02*
X75565000Y-49530000D01*
X75565000Y-49530000D02*
X80010000Y-53975000D01*
X80010000Y-53975000D02*
X81280000Y-53975000D01*
X80010000Y-53975000D02*
X80010000Y-57785000D01*
X80010000Y-57785000D02*
X80645000Y-58420000D01*
X80645000Y-58420000D02*
X85090000Y-58420000D01*
D20*
X49530000Y-62865000D02*
X48895000Y-62865000D01*
X56515000Y-83820000D02*
X64135000Y-83820000D01*
X50165000Y-77470000D02*
X55245000Y-82550000D01*
X55245000Y-82550000D02*
X56515000Y-83820000D01*
X50165000Y-73660000D02*
X50165000Y-77470000D01*
X47625000Y-71120000D02*
X50165000Y-73660000D01*
X47625000Y-64135000D02*
X47625000Y-71120000D01*
X48895000Y-62865000D02*
X47625000Y-64135000D01*
X66105000Y-66040000D02*
X62230000Y-66040000D01*
X55562500Y-82867500D02*
X55245000Y-82550000D01*
X60960000Y-77470000D02*
X55562500Y-82867500D01*
X60960000Y-67310000D02*
X60960000Y-77470000D01*
X62230000Y-66040000D02*
X60960000Y-67310000D01*
X49530000Y-62865000D02*
X49530000Y-57785000D01*
X55880000Y-49530000D02*
X56997500Y-49530000D01*
X54610000Y-50800000D02*
X55880000Y-49530000D01*
X54610000Y-52705000D02*
X54610000Y-50800000D01*
X49530000Y-57785000D02*
X54610000Y-52705000D01*
X56997500Y-49530000D02*
X56997500Y-48412500D01*
X75565000Y-46990000D02*
X75565000Y-48260000D01*
X73660000Y-45085000D02*
X75565000Y-46990000D01*
X65405000Y-45085000D02*
X73660000Y-45085000D01*
X64770000Y-45720000D02*
X65405000Y-45085000D01*
X62865000Y-47625000D02*
X64770000Y-45720000D01*
X57785000Y-47625000D02*
X62865000Y-47625000D01*
X56997500Y-48412500D02*
X57785000Y-47625000D01*
D19*
X53340000Y-60960000D02*
X57785000Y-60960000D01*
X49530000Y-65405000D02*
X50165000Y-65405000D01*
X52705000Y-60960000D02*
X53340000Y-60960000D01*
X51435000Y-62230000D02*
X52705000Y-60960000D01*
X51435000Y-64135000D02*
X51435000Y-62230000D01*
X50165000Y-65405000D02*
X51435000Y-64135000D01*
D21*
X75930000Y-55560000D02*
X75930000Y-56785000D01*
X74295000Y-58420000D02*
X74295000Y-59537500D01*
X75930000Y-56785000D02*
X74295000Y-58420000D01*
D19*
X88900000Y-67310000D02*
X88900000Y-73025000D01*
X80645000Y-83820000D02*
X74295000Y-83820000D01*
X87630000Y-76835000D02*
X80645000Y-83820000D01*
X87630000Y-74295000D02*
X87630000Y-76835000D01*
X88900000Y-73025000D02*
X87630000Y-74295000D01*
D20*
X76047500Y-80010000D02*
X75565000Y-80010000D01*
X74295000Y-81280000D02*
X74295000Y-83820000D01*
X75565000Y-80010000D02*
X74295000Y-81280000D01*
X74295000Y-81280000D02*
X73660000Y-81280000D01*
X71055000Y-78675000D02*
X71055000Y-73660000D01*
X73660000Y-81280000D02*
X71055000Y-78675000D01*
X71055000Y-73660000D02*
X75565000Y-73660000D01*
X75565000Y-73660000D02*
X76200000Y-74295000D01*
D19*
X57785000Y-60960000D02*
X58420000Y-60960000D01*
X58420000Y-60960000D02*
X61595000Y-64135000D01*
X61595000Y-64135000D02*
X67945000Y-64135000D01*
X67945000Y-64135000D02*
X68580000Y-63500000D01*
X68580000Y-63500000D02*
X71120000Y-63500000D01*
X71120000Y-63500000D02*
X76200000Y-63500000D01*
D20*
X74295000Y-59537500D02*
X73812500Y-59537500D01*
X73025000Y-61595000D02*
X71120000Y-63500000D01*
X73025000Y-60325000D02*
X73025000Y-61595000D01*
X73812500Y-59537500D02*
X73025000Y-60325000D01*
D21*
X73930000Y-54610000D02*
X71755000Y-54610000D01*
X71230000Y-55135000D02*
X69105000Y-55135000D01*
X71755000Y-54610000D02*
X71230000Y-55135000D01*
D20*
X58572500Y-52070000D02*
X65405000Y-52070000D01*
X68470000Y-55135000D02*
X69105000Y-55135000D01*
X65405000Y-52070000D02*
X68470000Y-55135000D01*
D19*
X53340000Y-71120000D02*
X57785000Y-71120000D01*
X49530000Y-67945000D02*
X50165000Y-67945000D01*
X50165000Y-67945000D02*
X53340000Y-71120000D01*
X53340000Y-68580000D02*
X57785000Y-68580000D01*
D20*
X49530000Y-70485000D02*
X51435000Y-72390000D01*
X59690000Y-70485000D02*
X57785000Y-68580000D01*
X59690000Y-76835000D02*
X59690000Y-70485000D01*
X58420000Y-78105000D02*
X59690000Y-76835000D01*
X52070000Y-78105000D02*
X58420000Y-78105000D01*
X51435000Y-77470000D02*
X52070000Y-78105000D01*
X51435000Y-72390000D02*
X51435000Y-77470000D01*
D19*
X80645000Y-60960000D02*
X85090000Y-60960000D01*
D21*
X74295000Y-61112500D02*
X76200000Y-61112500D01*
X76200000Y-61112500D02*
X76682500Y-61595000D01*
X76682500Y-61595000D02*
X80010000Y-61595000D01*
X80010000Y-61595000D02*
X80645000Y-60960000D01*
D19*
X80645000Y-73660000D02*
X85090000Y-73660000D01*
D20*
X77622500Y-78105000D02*
X77622500Y-80010000D01*
X80645000Y-73660000D02*
X79375000Y-73660000D01*
X77622500Y-75412500D02*
X77622500Y-78105000D01*
X79375000Y-73660000D02*
X77622500Y-75412500D01*
D19*
X80645000Y-68580000D02*
X85090000Y-68580000D01*
D20*
X71055000Y-71120000D02*
X73660000Y-71120000D01*
X76200000Y-68580000D02*
X80645000Y-68580000D01*
X73660000Y-71120000D02*
X76200000Y-68580000D01*
D19*
X80645000Y-66040000D02*
X85090000Y-66040000D01*
D20*
X66105000Y-67310000D02*
X67310000Y-67310000D01*
X76200000Y-66040000D02*
X80645000Y-66040000D01*
X74930000Y-64770000D02*
X76200000Y-66040000D01*
X69850000Y-64770000D02*
X74930000Y-64770000D01*
X67310000Y-67310000D02*
X69850000Y-64770000D01*
D19*
X80645000Y-71120000D02*
X85090000Y-71120000D01*
D20*
X71055000Y-72390000D02*
X74930000Y-72390000D01*
X76200000Y-71120000D02*
X80645000Y-71120000D01*
X74930000Y-72390000D02*
X76200000Y-71120000D01*
D19*
X53340000Y-58420000D02*
X57785000Y-58420000D01*
X73025000Y-48260000D02*
X69630000Y-48260000D01*
X69630000Y-48260000D02*
X69105000Y-47735000D01*
D20*
X56997500Y-52070000D02*
X56997500Y-51587500D01*
X58420000Y-49682500D02*
X58572500Y-49530000D01*
X58420000Y-50165000D02*
X58420000Y-49682500D01*
X56997500Y-51587500D02*
X58420000Y-50165000D01*
D19*
X53340000Y-76200000D02*
X57785000Y-76200000D01*
X53340000Y-73660000D02*
X57785000Y-73660000D01*
X53340000Y-66040000D02*
X57785000Y-66040000D01*
X53340000Y-63500000D02*
X57785000Y-63500000D01*
X80645000Y-76200000D02*
X85090000Y-76200000D01*
X80645000Y-63500000D02*
X85090000Y-63500000D01*
D20*
X66675000Y-83820000D02*
X66675000Y-80645000D01*
X69850000Y-66040000D02*
X71055000Y-66040000D01*
X67945000Y-67945000D02*
X69850000Y-66040000D01*
X67945000Y-79375000D02*
X67945000Y-67945000D01*
X66675000Y-80645000D02*
X67945000Y-79375000D01*
X69215000Y-83820000D02*
X69215000Y-70485000D01*
X69850000Y-69850000D02*
X71055000Y-69850000D01*
X69215000Y-70485000D02*
X69850000Y-69850000D01*
X66105000Y-73660000D02*
X66105000Y-78675000D01*
X62865000Y-80010000D02*
X60960000Y-81915000D01*
X64770000Y-80010000D02*
X62865000Y-80010000D01*
X66105000Y-78675000D02*
X64770000Y-80010000D01*
X60960000Y-85725000D02*
X62230000Y-85725000D01*
X62230000Y-85725000D02*
X63500000Y-86995000D01*
X63500000Y-86995000D02*
X69850000Y-86995000D01*
X69850000Y-86995000D02*
X71755000Y-85090000D01*
X71755000Y-85090000D02*
X71755000Y-83820000D01*
D21*
X75930000Y-53660000D02*
X77155000Y-53660000D01*
X77470000Y-58267500D02*
X76200000Y-59537500D01*
X77470000Y-53975000D02*
X77470000Y-58267500D01*
X77155000Y-53660000D02*
X77470000Y-53975000D01*
D20*
X71055000Y-67310000D02*
X71055000Y-68580000D01*
X71055000Y-67310000D02*
X73660000Y-67310000D01*
X73660000Y-67310000D02*
X74295000Y-67945000D01*
X63500000Y-67945000D02*
X63500000Y-71120000D01*
X64770000Y-72390000D02*
X66105000Y-72390000D01*
X63500000Y-71120000D02*
X64770000Y-72390000D01*
X76047500Y-78105000D02*
X74930000Y-78105000D01*
X74930000Y-78105000D02*
X73660000Y-76835000D01*
X63500000Y-71120000D02*
X63500000Y-76835000D01*
D19*
X83820000Y-53975000D02*
X85090000Y-53975000D01*
X87630000Y-63500000D02*
X88900000Y-64770000D01*
X87630000Y-56515000D02*
X87630000Y-63500000D01*
X85090000Y-53975000D02*
X87630000Y-56515000D01*
D22*
G36*
X86973000Y-64861082D02*
G01*
X86973000Y-64959793D01*
X87047053Y-65332085D01*
X87192315Y-65682777D01*
X87403201Y-65998391D01*
X87516277Y-66111467D01*
X87460498Y-66215820D01*
X87424188Y-66335518D01*
X87411928Y-66460000D01*
X87415000Y-67024250D01*
X87573750Y-67183000D01*
X88773000Y-67183000D01*
X88773000Y-67163000D01*
X89027000Y-67163000D01*
X89027000Y-67183000D01*
X90226250Y-67183000D01*
X90385000Y-67024250D01*
X90388072Y-66460000D01*
X90375812Y-66335518D01*
X90339502Y-66215820D01*
X90283723Y-66111467D01*
X90396799Y-65998391D01*
X90419143Y-65964951D01*
X90419143Y-67300243D01*
X90385568Y-67700076D01*
X90385000Y-67595750D01*
X90226250Y-67437000D01*
X89027000Y-67437000D01*
X89027000Y-68636250D01*
X89185750Y-68795000D01*
X89750000Y-68798072D01*
X89874482Y-68785812D01*
X89994180Y-68749502D01*
X90104494Y-68690537D01*
X90201185Y-68611185D01*
X90280537Y-68514494D01*
X90324009Y-68433166D01*
X90268482Y-69094414D01*
X89968217Y-70869686D01*
X89520455Y-72613606D01*
X88928335Y-74313942D01*
X88196011Y-75958767D01*
X87328621Y-77536545D01*
X86332247Y-79036207D01*
X85213880Y-80447236D01*
X83981362Y-81759734D01*
X82643341Y-82964494D01*
X81209200Y-84053066D01*
X79689000Y-85017814D01*
X78093403Y-85851972D01*
X76433602Y-86549688D01*
X74721238Y-87106069D01*
X72968324Y-87517211D01*
X71187153Y-87780232D01*
X70774015Y-87806224D01*
X72580006Y-86000234D01*
X72626817Y-85961817D01*
X72780149Y-85774983D01*
X72894084Y-85561824D01*
X72917550Y-85484467D01*
X72964246Y-85330534D01*
X72964345Y-85329525D01*
X72983391Y-85316799D01*
X73238945Y-85061245D01*
X73439618Y-85213399D01*
X73727893Y-85353502D01*
X73914566Y-85410124D01*
X74168000Y-85290777D01*
X74168000Y-83947000D01*
X74422000Y-83947000D01*
X74422000Y-85290777D01*
X74675434Y-85410124D01*
X74862107Y-85353502D01*
X75150382Y-85213399D01*
X75405785Y-85019748D01*
X75618501Y-84779992D01*
X75780356Y-84503344D01*
X75885129Y-84200435D01*
X75766315Y-83947000D01*
X74422000Y-83947000D01*
X74168000Y-83947000D01*
X74148000Y-83947000D01*
X74148000Y-83693000D01*
X74168000Y-83693000D01*
X74168000Y-82349223D01*
X74422000Y-82349223D01*
X74422000Y-83693000D01*
X75766315Y-83693000D01*
X75885129Y-83439565D01*
X75780356Y-83136656D01*
X75618501Y-82860008D01*
X75405785Y-82620252D01*
X75150382Y-82426601D01*
X74862107Y-82286498D01*
X74675434Y-82229876D01*
X74422000Y-82349223D01*
X74168000Y-82349223D01*
X73914566Y-82229876D01*
X73727893Y-82286498D01*
X73439618Y-82426601D01*
X73238945Y-82578755D01*
X72983391Y-82323201D01*
X72667777Y-82112315D01*
X72317085Y-81967053D01*
X71944793Y-81893000D01*
X71565207Y-81893000D01*
X71192915Y-81967053D01*
X70842223Y-82112315D01*
X70526609Y-82323201D01*
X70485000Y-82364810D01*
X70443391Y-82323201D01*
X70442000Y-82322272D01*
X70442000Y-80485000D01*
X74971928Y-80485000D01*
X74984188Y-80609482D01*
X75020498Y-80729180D01*
X75079463Y-80839494D01*
X75158815Y-80936185D01*
X75255506Y-81015537D01*
X75365820Y-81074502D01*
X75485518Y-81110812D01*
X75610000Y-81123072D01*
X75761750Y-81120000D01*
X75920500Y-80961250D01*
X75920500Y-80137000D01*
X75133750Y-80137000D01*
X74975000Y-80295750D01*
X74971928Y-80485000D01*
X70442000Y-80485000D01*
X70442000Y-74596459D01*
X70769250Y-74595000D01*
X70928000Y-74436250D01*
X70928000Y-73787000D01*
X71182000Y-73787000D01*
X71182000Y-74436250D01*
X71340750Y-74595000D01*
X72030000Y-74598072D01*
X72154482Y-74585812D01*
X72274180Y-74549502D01*
X72384494Y-74490537D01*
X72481185Y-74411185D01*
X72560537Y-74314494D01*
X72619502Y-74204180D01*
X72655812Y-74084482D01*
X72668072Y-73960000D01*
X72665000Y-73945750D01*
X72506250Y-73787000D01*
X71182000Y-73787000D01*
X70928000Y-73787000D01*
X70908000Y-73787000D01*
X70908000Y-73621485D01*
X71880000Y-73621485D01*
X71925538Y-73617000D01*
X74822770Y-73617000D01*
X74750842Y-73766775D01*
X74675635Y-74059642D01*
X74659009Y-74361553D01*
X74701603Y-74660907D01*
X74801778Y-74946199D01*
X74881739Y-75095792D01*
X75135920Y-75179475D01*
X76020395Y-74295000D01*
X76006253Y-74280858D01*
X76185858Y-74101253D01*
X76200000Y-74115395D01*
X77084475Y-73230920D01*
X77000792Y-72976739D01*
X76728225Y-72845842D01*
X76435358Y-72770635D01*
X76292473Y-72762766D01*
X76708240Y-72347000D01*
X79147272Y-72347000D01*
X79148201Y-72348391D01*
X79189810Y-72390000D01*
X79148201Y-72431609D01*
X79135474Y-72450656D01*
X79134466Y-72450755D01*
X78903176Y-72520916D01*
X78690017Y-72634851D01*
X78503183Y-72788183D01*
X78464765Y-72834995D01*
X77613227Y-73686534D01*
X77598222Y-73643801D01*
X77518261Y-73494208D01*
X77264080Y-73410525D01*
X76379605Y-74295000D01*
X76393748Y-74309143D01*
X76214143Y-74488748D01*
X76200000Y-74474605D01*
X75315525Y-75359080D01*
X75399208Y-75613261D01*
X75671775Y-75744158D01*
X75964642Y-75819365D01*
X76266553Y-75835991D01*
X76395500Y-75817644D01*
X76395500Y-76711245D01*
X76266250Y-76698515D01*
X75828750Y-76698515D01*
X75604350Y-76720616D01*
X75487000Y-76756214D01*
X75487000Y-76655056D01*
X75416789Y-76302084D01*
X75279066Y-75969591D01*
X75079124Y-75670355D01*
X74824645Y-75415876D01*
X74525409Y-75215934D01*
X74192916Y-75078211D01*
X73839944Y-75008000D01*
X73480056Y-75008000D01*
X73127084Y-75078211D01*
X72794591Y-75215934D01*
X72495355Y-75415876D01*
X72240876Y-75670355D01*
X72040934Y-75969591D01*
X71903211Y-76302084D01*
X71833000Y-76655056D01*
X71833000Y-77014944D01*
X71903211Y-77367916D01*
X72040934Y-77700409D01*
X72240876Y-77999645D01*
X72495355Y-78254124D01*
X72794591Y-78454066D01*
X73127084Y-78591789D01*
X73480056Y-78662000D01*
X73751760Y-78662000D01*
X74019765Y-78930005D01*
X74058183Y-78976817D01*
X74245017Y-79130149D01*
X74458176Y-79244084D01*
X74689466Y-79314245D01*
X74869732Y-79332000D01*
X74869739Y-79332000D01*
X74929999Y-79337935D01*
X74990259Y-79332000D01*
X75008006Y-79332000D01*
X74984188Y-79410518D01*
X74971928Y-79535000D01*
X74975000Y-79724250D01*
X75133750Y-79883000D01*
X75920500Y-79883000D01*
X75920500Y-79863000D01*
X76174500Y-79863000D01*
X76174500Y-79883000D01*
X76194500Y-79883000D01*
X76194500Y-80137000D01*
X76174500Y-80137000D01*
X76174500Y-80961250D01*
X76333250Y-81120000D01*
X76485000Y-81123072D01*
X76609482Y-81110812D01*
X76623336Y-81106610D01*
X76764714Y-81222635D01*
X76963574Y-81328929D01*
X77179350Y-81394384D01*
X77403750Y-81416485D01*
X77841250Y-81416485D01*
X78065650Y-81394384D01*
X78281426Y-81328929D01*
X78480286Y-81222635D01*
X78654589Y-81079589D01*
X78797635Y-80905286D01*
X78903929Y-80706426D01*
X78969384Y-80490650D01*
X78991485Y-80266250D01*
X78991485Y-79753750D01*
X78969384Y-79529350D01*
X78903929Y-79313574D01*
X78849500Y-79211746D01*
X78849500Y-78903254D01*
X78903929Y-78801426D01*
X78969384Y-78585650D01*
X78991485Y-78361250D01*
X78991485Y-77848750D01*
X78969384Y-77624350D01*
X78903929Y-77408574D01*
X78849500Y-77306746D01*
X78849500Y-76900774D01*
X78937315Y-77112777D01*
X79148201Y-77428391D01*
X79416609Y-77696799D01*
X79732223Y-77907685D01*
X80082915Y-78052947D01*
X80455207Y-78127000D01*
X80834793Y-78127000D01*
X81207085Y-78052947D01*
X81557777Y-77907685D01*
X81873391Y-77696799D01*
X81943190Y-77627000D01*
X83791810Y-77627000D01*
X83861609Y-77696799D01*
X84177223Y-77907685D01*
X84527915Y-78052947D01*
X84900207Y-78127000D01*
X85279793Y-78127000D01*
X85652085Y-78052947D01*
X86002777Y-77907685D01*
X86318391Y-77696799D01*
X86586799Y-77428391D01*
X86797685Y-77112777D01*
X86942947Y-76762085D01*
X87017000Y-76389793D01*
X87017000Y-76010207D01*
X86942947Y-75637915D01*
X86797685Y-75287223D01*
X86586799Y-74971609D01*
X86545190Y-74930000D01*
X86586799Y-74888391D01*
X86797685Y-74572777D01*
X86942947Y-74222085D01*
X87017000Y-73849793D01*
X87017000Y-73470207D01*
X86942947Y-73097915D01*
X86797685Y-72747223D01*
X86586799Y-72431609D01*
X86545190Y-72390000D01*
X86586799Y-72348391D01*
X86797685Y-72032777D01*
X86942947Y-71682085D01*
X87017000Y-71309793D01*
X87017000Y-70930207D01*
X86942947Y-70557915D01*
X86797685Y-70207223D01*
X86586799Y-69891609D01*
X86545190Y-69850000D01*
X86586799Y-69808391D01*
X86797685Y-69492777D01*
X86942947Y-69142085D01*
X87017000Y-68769793D01*
X87017000Y-68390207D01*
X86971210Y-68160000D01*
X87411928Y-68160000D01*
X87424188Y-68284482D01*
X87460498Y-68404180D01*
X87519463Y-68514494D01*
X87598815Y-68611185D01*
X87695506Y-68690537D01*
X87805820Y-68749502D01*
X87925518Y-68785812D01*
X88050000Y-68798072D01*
X88614250Y-68795000D01*
X88773000Y-68636250D01*
X88773000Y-67437000D01*
X87573750Y-67437000D01*
X87415000Y-67595750D01*
X87411928Y-68160000D01*
X86971210Y-68160000D01*
X86942947Y-68017915D01*
X86797685Y-67667223D01*
X86586799Y-67351609D01*
X86545190Y-67310000D01*
X86586799Y-67268391D01*
X86797685Y-66952777D01*
X86942947Y-66602085D01*
X87017000Y-66229793D01*
X87017000Y-65850207D01*
X86942947Y-65477915D01*
X86797685Y-65127223D01*
X86586799Y-64811609D01*
X86545190Y-64770000D01*
X86586799Y-64728391D01*
X86688341Y-64576423D01*
X86973000Y-64861082D01*
G37*
X86973000Y-64861082D02*
X86973000Y-64959793D01*
X87047053Y-65332085D01*
X87192315Y-65682777D01*
X87403201Y-65998391D01*
X87516277Y-66111467D01*
X87460498Y-66215820D01*
X87424188Y-66335518D01*
X87411928Y-66460000D01*
X87415000Y-67024250D01*
X87573750Y-67183000D01*
X88773000Y-67183000D01*
X88773000Y-67163000D01*
X89027000Y-67163000D01*
X89027000Y-67183000D01*
X90226250Y-67183000D01*
X90385000Y-67024250D01*
X90388072Y-66460000D01*
X90375812Y-66335518D01*
X90339502Y-66215820D01*
X90283723Y-66111467D01*
X90396799Y-65998391D01*
X90419143Y-65964951D01*
X90419143Y-67300243D01*
X90385568Y-67700076D01*
X90385000Y-67595750D01*
X90226250Y-67437000D01*
X89027000Y-67437000D01*
X89027000Y-68636250D01*
X89185750Y-68795000D01*
X89750000Y-68798072D01*
X89874482Y-68785812D01*
X89994180Y-68749502D01*
X90104494Y-68690537D01*
X90201185Y-68611185D01*
X90280537Y-68514494D01*
X90324009Y-68433166D01*
X90268482Y-69094414D01*
X89968217Y-70869686D01*
X89520455Y-72613606D01*
X88928335Y-74313942D01*
X88196011Y-75958767D01*
X87328621Y-77536545D01*
X86332247Y-79036207D01*
X85213880Y-80447236D01*
X83981362Y-81759734D01*
X82643341Y-82964494D01*
X81209200Y-84053066D01*
X79689000Y-85017814D01*
X78093403Y-85851972D01*
X76433602Y-86549688D01*
X74721238Y-87106069D01*
X72968324Y-87517211D01*
X71187153Y-87780232D01*
X70774015Y-87806224D01*
X72580006Y-86000234D01*
X72626817Y-85961817D01*
X72780149Y-85774983D01*
X72894084Y-85561824D01*
X72917550Y-85484467D01*
X72964246Y-85330534D01*
X72964345Y-85329525D01*
X72983391Y-85316799D01*
X73238945Y-85061245D01*
X73439618Y-85213399D01*
X73727893Y-85353502D01*
X73914566Y-85410124D01*
X74168000Y-85290777D01*
X74168000Y-83947000D01*
X74422000Y-83947000D01*
X74422000Y-85290777D01*
X74675434Y-85410124D01*
X74862107Y-85353502D01*
X75150382Y-85213399D01*
X75405785Y-85019748D01*
X75618501Y-84779992D01*
X75780356Y-84503344D01*
X75885129Y-84200435D01*
X75766315Y-83947000D01*
X74422000Y-83947000D01*
X74168000Y-83947000D01*
X74148000Y-83947000D01*
X74148000Y-83693000D01*
X74168000Y-83693000D01*
X74168000Y-82349223D01*
X74422000Y-82349223D01*
X74422000Y-83693000D01*
X75766315Y-83693000D01*
X75885129Y-83439565D01*
X75780356Y-83136656D01*
X75618501Y-82860008D01*
X75405785Y-82620252D01*
X75150382Y-82426601D01*
X74862107Y-82286498D01*
X74675434Y-82229876D01*
X74422000Y-82349223D01*
X74168000Y-82349223D01*
X73914566Y-82229876D01*
X73727893Y-82286498D01*
X73439618Y-82426601D01*
X73238945Y-82578755D01*
X72983391Y-82323201D01*
X72667777Y-82112315D01*
X72317085Y-81967053D01*
X71944793Y-81893000D01*
X71565207Y-81893000D01*
X71192915Y-81967053D01*
X70842223Y-82112315D01*
X70526609Y-82323201D01*
X70485000Y-82364810D01*
X70443391Y-82323201D01*
X70442000Y-82322272D01*
X70442000Y-80485000D01*
X74971928Y-80485000D01*
X74984188Y-80609482D01*
X75020498Y-80729180D01*
X75079463Y-80839494D01*
X75158815Y-80936185D01*
X75255506Y-81015537D01*
X75365820Y-81074502D01*
X75485518Y-81110812D01*
X75610000Y-81123072D01*
X75761750Y-81120000D01*
X75920500Y-80961250D01*
X75920500Y-80137000D01*
X75133750Y-80137000D01*
X74975000Y-80295750D01*
X74971928Y-80485000D01*
X70442000Y-80485000D01*
X70442000Y-74596459D01*
X70769250Y-74595000D01*
X70928000Y-74436250D01*
X70928000Y-73787000D01*
X71182000Y-73787000D01*
X71182000Y-74436250D01*
X71340750Y-74595000D01*
X72030000Y-74598072D01*
X72154482Y-74585812D01*
X72274180Y-74549502D01*
X72384494Y-74490537D01*
X72481185Y-74411185D01*
X72560537Y-74314494D01*
X72619502Y-74204180D01*
X72655812Y-74084482D01*
X72668072Y-73960000D01*
X72665000Y-73945750D01*
X72506250Y-73787000D01*
X71182000Y-73787000D01*
X70928000Y-73787000D01*
X70908000Y-73787000D01*
X70908000Y-73621485D01*
X71880000Y-73621485D01*
X71925538Y-73617000D01*
X74822770Y-73617000D01*
X74750842Y-73766775D01*
X74675635Y-74059642D01*
X74659009Y-74361553D01*
X74701603Y-74660907D01*
X74801778Y-74946199D01*
X74881739Y-75095792D01*
X75135920Y-75179475D01*
X76020395Y-74295000D01*
X76006253Y-74280858D01*
X76185858Y-74101253D01*
X76200000Y-74115395D01*
X77084475Y-73230920D01*
X77000792Y-72976739D01*
X76728225Y-72845842D01*
X76435358Y-72770635D01*
X76292473Y-72762766D01*
X76708240Y-72347000D01*
X79147272Y-72347000D01*
X79148201Y-72348391D01*
X79189810Y-72390000D01*
X79148201Y-72431609D01*
X79135474Y-72450656D01*
X79134466Y-72450755D01*
X78903176Y-72520916D01*
X78690017Y-72634851D01*
X78503183Y-72788183D01*
X78464765Y-72834995D01*
X77613227Y-73686534D01*
X77598222Y-73643801D01*
X77518261Y-73494208D01*
X77264080Y-73410525D01*
X76379605Y-74295000D01*
X76393748Y-74309143D01*
X76214143Y-74488748D01*
X76200000Y-74474605D01*
X75315525Y-75359080D01*
X75399208Y-75613261D01*
X75671775Y-75744158D01*
X75964642Y-75819365D01*
X76266553Y-75835991D01*
X76395500Y-75817644D01*
X76395500Y-76711245D01*
X76266250Y-76698515D01*
X75828750Y-76698515D01*
X75604350Y-76720616D01*
X75487000Y-76756214D01*
X75487000Y-76655056D01*
X75416789Y-76302084D01*
X75279066Y-75969591D01*
X75079124Y-75670355D01*
X74824645Y-75415876D01*
X74525409Y-75215934D01*
X74192916Y-75078211D01*
X73839944Y-75008000D01*
X73480056Y-75008000D01*
X73127084Y-75078211D01*
X72794591Y-75215934D01*
X72495355Y-75415876D01*
X72240876Y-75670355D01*
X72040934Y-75969591D01*
X71903211Y-76302084D01*
X71833000Y-76655056D01*
X71833000Y-77014944D01*
X71903211Y-77367916D01*
X72040934Y-77700409D01*
X72240876Y-77999645D01*
X72495355Y-78254124D01*
X72794591Y-78454066D01*
X73127084Y-78591789D01*
X73480056Y-78662000D01*
X73751760Y-78662000D01*
X74019765Y-78930005D01*
X74058183Y-78976817D01*
X74245017Y-79130149D01*
X74458176Y-79244084D01*
X74689466Y-79314245D01*
X74869732Y-79332000D01*
X74869739Y-79332000D01*
X74929999Y-79337935D01*
X74990259Y-79332000D01*
X75008006Y-79332000D01*
X74984188Y-79410518D01*
X74971928Y-79535000D01*
X74975000Y-79724250D01*
X75133750Y-79883000D01*
X75920500Y-79883000D01*
X75920500Y-79863000D01*
X76174500Y-79863000D01*
X76174500Y-79883000D01*
X76194500Y-79883000D01*
X76194500Y-80137000D01*
X76174500Y-80137000D01*
X76174500Y-80961250D01*
X76333250Y-81120000D01*
X76485000Y-81123072D01*
X76609482Y-81110812D01*
X76623336Y-81106610D01*
X76764714Y-81222635D01*
X76963574Y-81328929D01*
X77179350Y-81394384D01*
X77403750Y-81416485D01*
X77841250Y-81416485D01*
X78065650Y-81394384D01*
X78281426Y-81328929D01*
X78480286Y-81222635D01*
X78654589Y-81079589D01*
X78797635Y-80905286D01*
X78903929Y-80706426D01*
X78969384Y-80490650D01*
X78991485Y-80266250D01*
X78991485Y-79753750D01*
X78969384Y-79529350D01*
X78903929Y-79313574D01*
X78849500Y-79211746D01*
X78849500Y-78903254D01*
X78903929Y-78801426D01*
X78969384Y-78585650D01*
X78991485Y-78361250D01*
X78991485Y-77848750D01*
X78969384Y-77624350D01*
X78903929Y-77408574D01*
X78849500Y-77306746D01*
X78849500Y-76900774D01*
X78937315Y-77112777D01*
X79148201Y-77428391D01*
X79416609Y-77696799D01*
X79732223Y-77907685D01*
X80082915Y-78052947D01*
X80455207Y-78127000D01*
X80834793Y-78127000D01*
X81207085Y-78052947D01*
X81557777Y-77907685D01*
X81873391Y-77696799D01*
X81943190Y-77627000D01*
X83791810Y-77627000D01*
X83861609Y-77696799D01*
X84177223Y-77907685D01*
X84527915Y-78052947D01*
X84900207Y-78127000D01*
X85279793Y-78127000D01*
X85652085Y-78052947D01*
X86002777Y-77907685D01*
X86318391Y-77696799D01*
X86586799Y-77428391D01*
X86797685Y-77112777D01*
X86942947Y-76762085D01*
X87017000Y-76389793D01*
X87017000Y-76010207D01*
X86942947Y-75637915D01*
X86797685Y-75287223D01*
X86586799Y-74971609D01*
X86545190Y-74930000D01*
X86586799Y-74888391D01*
X86797685Y-74572777D01*
X86942947Y-74222085D01*
X87017000Y-73849793D01*
X87017000Y-73470207D01*
X86942947Y-73097915D01*
X86797685Y-72747223D01*
X86586799Y-72431609D01*
X86545190Y-72390000D01*
X86586799Y-72348391D01*
X86797685Y-72032777D01*
X86942947Y-71682085D01*
X87017000Y-71309793D01*
X87017000Y-70930207D01*
X86942947Y-70557915D01*
X86797685Y-70207223D01*
X86586799Y-69891609D01*
X86545190Y-69850000D01*
X86586799Y-69808391D01*
X86797685Y-69492777D01*
X86942947Y-69142085D01*
X87017000Y-68769793D01*
X87017000Y-68390207D01*
X86971210Y-68160000D01*
X87411928Y-68160000D01*
X87424188Y-68284482D01*
X87460498Y-68404180D01*
X87519463Y-68514494D01*
X87598815Y-68611185D01*
X87695506Y-68690537D01*
X87805820Y-68749502D01*
X87925518Y-68785812D01*
X88050000Y-68798072D01*
X88614250Y-68795000D01*
X88773000Y-68636250D01*
X88773000Y-67437000D01*
X87573750Y-67437000D01*
X87415000Y-67595750D01*
X87411928Y-68160000D01*
X86971210Y-68160000D01*
X86942947Y-68017915D01*
X86797685Y-67667223D01*
X86586799Y-67351609D01*
X86545190Y-67310000D01*
X86586799Y-67268391D01*
X86797685Y-66952777D01*
X86942947Y-66602085D01*
X87017000Y-66229793D01*
X87017000Y-65850207D01*
X86942947Y-65477915D01*
X86797685Y-65127223D01*
X86586799Y-64811609D01*
X86545190Y-64770000D01*
X86586799Y-64728391D01*
X86688341Y-64576423D01*
X86973000Y-64861082D01*
G36*
X55822365Y-52965286D02*
G01*
X55965411Y-53139589D01*
X56139714Y-53282635D01*
X56338574Y-53388929D01*
X56554350Y-53454384D01*
X56778750Y-53476485D01*
X57216250Y-53476485D01*
X57440650Y-53454384D01*
X57656426Y-53388929D01*
X57785000Y-53320204D01*
X57913574Y-53388929D01*
X58129350Y-53454384D01*
X58353750Y-53476485D01*
X58791250Y-53476485D01*
X59015650Y-53454384D01*
X59231426Y-53388929D01*
X59403411Y-53297000D01*
X60048565Y-53297000D01*
X59948841Y-53378841D01*
X59832999Y-53519995D01*
X59746920Y-53681036D01*
X59693913Y-53855776D01*
X59676015Y-54037500D01*
X59676015Y-56232500D01*
X59693913Y-56414224D01*
X59746920Y-56588964D01*
X59832999Y-56750005D01*
X59948841Y-56891159D01*
X60089995Y-57007001D01*
X60251036Y-57093080D01*
X60425776Y-57146087D01*
X60607500Y-57163985D01*
X60777442Y-57163985D01*
X60748487Y-57198214D01*
X60708709Y-57238771D01*
X60700618Y-57248963D01*
X60589022Y-57391570D01*
X60558259Y-57439960D01*
X60524078Y-57485995D01*
X60517454Y-57497196D01*
X60425809Y-57654690D01*
X60409163Y-57691056D01*
X60388635Y-57725379D01*
X60383160Y-57737184D01*
X60347870Y-57814678D01*
X60344970Y-57823157D01*
X60340631Y-57830989D01*
X60335549Y-57842969D01*
X60319857Y-57880692D01*
X60319327Y-57882427D01*
X60318475Y-57884032D01*
X60313608Y-57896100D01*
X60300290Y-57929799D01*
X60296738Y-57942215D01*
X60291162Y-57953863D01*
X60286800Y-57966124D01*
X60275641Y-57998201D01*
X60270439Y-58019734D01*
X60262119Y-58040259D01*
X60258517Y-58052764D01*
X60249302Y-58085623D01*
X60244832Y-58110806D01*
X60236873Y-58135116D01*
X60234139Y-58147839D01*
X60226656Y-58183885D01*
X60224242Y-58206368D01*
X60218559Y-58228257D01*
X60216623Y-58241125D01*
X60210657Y-58282758D01*
X60209934Y-58298955D01*
X60206628Y-58314826D01*
X60205320Y-58327773D01*
X60200657Y-58377400D01*
X60200695Y-58386866D01*
X60199083Y-58396192D01*
X60198219Y-58409176D01*
X60194644Y-58469198D01*
X60194796Y-58473163D01*
X60194207Y-58477091D01*
X60193634Y-58490092D01*
X60190935Y-58562913D01*
X60190936Y-58562922D01*
X60190546Y-58575848D01*
X60188507Y-58663873D01*
X60188524Y-58664105D01*
X60188363Y-58671420D01*
X60186772Y-58777051D01*
X60186788Y-58777242D01*
X60186721Y-58781007D01*
X60185362Y-58906647D01*
X60185370Y-58906738D01*
X60185345Y-58908292D01*
X60184005Y-59056345D01*
X60184007Y-59056367D01*
X60184003Y-59056617D01*
X60183657Y-59096120D01*
X60183661Y-59096166D01*
X60183651Y-59096841D01*
X60182264Y-59270557D01*
X60182277Y-59270699D01*
X60182245Y-59273407D01*
X60181503Y-59424057D01*
X60181525Y-59424289D01*
X60181493Y-59429702D01*
X60181640Y-59559614D01*
X60181658Y-59559794D01*
X60181700Y-59569241D01*
X60182978Y-59680747D01*
X60183098Y-59681838D01*
X60183006Y-59682927D01*
X60183276Y-59695937D01*
X60185926Y-59791366D01*
X60186538Y-59796215D01*
X60186247Y-59801092D01*
X60186835Y-59814092D01*
X60191100Y-59895775D01*
X60192552Y-59905389D01*
X60192311Y-59915114D01*
X60193351Y-59928086D01*
X60199473Y-59998352D01*
X60202281Y-60013386D01*
X60202616Y-60028671D01*
X60204259Y-60041580D01*
X60212481Y-60102760D01*
X60217211Y-60122841D01*
X60218860Y-60143408D01*
X60221250Y-60156200D01*
X60231813Y-60210624D01*
X60238679Y-60233681D01*
X60242165Y-60257474D01*
X60245386Y-60270082D01*
X60258534Y-60320079D01*
X60266776Y-60342320D01*
X60271724Y-60365512D01*
X60273649Y-60371424D01*
X60258979Y-60424599D01*
X60253092Y-60458600D01*
X60243125Y-60491638D01*
X60240689Y-60504422D01*
X60228834Y-60569095D01*
X60228183Y-60576871D01*
X60226160Y-60584403D01*
X60224117Y-60597255D01*
X60221132Y-60616918D01*
X60220529Y-60628310D01*
X60217995Y-60639431D01*
X60216446Y-60652351D01*
X60208224Y-60725254D01*
X60207977Y-60742237D01*
X60205041Y-60758967D01*
X60204144Y-60771949D01*
X60199022Y-60854446D01*
X60199417Y-60865485D01*
X60197918Y-60876426D01*
X60197509Y-60889433D01*
X60195388Y-60976232D01*
X60196057Y-60985345D01*
X60195121Y-60994436D01*
X60195148Y-61007449D01*
X60195926Y-61093257D01*
X60197019Y-61103447D01*
X60196335Y-61113669D01*
X60196829Y-61126673D01*
X60200405Y-61206199D01*
X60202609Y-61221539D01*
X60202304Y-61237040D01*
X60203410Y-61250006D01*
X60209683Y-61317959D01*
X60215486Y-61348164D01*
X60217337Y-61378870D01*
X60219473Y-61391707D01*
X60228342Y-61442792D01*
X60243620Y-61498073D01*
X60254866Y-61554339D01*
X60258737Y-61566764D01*
X60265151Y-61586859D01*
X60272574Y-61604093D01*
X60277243Y-61622274D01*
X60308500Y-61687503D01*
X60337105Y-61753916D01*
X60347735Y-61769382D01*
X60355846Y-61786308D01*
X60362665Y-61797392D01*
X60384548Y-61832407D01*
X60425816Y-61885988D01*
X60464341Y-61941577D01*
X60472831Y-61951440D01*
X60507677Y-61991352D01*
X60536906Y-62018874D01*
X60562957Y-62049425D01*
X60572389Y-62058390D01*
X60613329Y-62096763D01*
X60647092Y-62122713D01*
X60677975Y-62152036D01*
X60688297Y-62159961D01*
X60697500Y-62166925D01*
X60695570Y-62223516D01*
X60690547Y-62299482D01*
X60692474Y-62314287D01*
X60691965Y-62329215D01*
X60692883Y-62342196D01*
X60699353Y-62425396D01*
X60706578Y-62466174D01*
X60709418Y-62507491D01*
X60722407Y-62555520D01*
X60731085Y-62604501D01*
X60746092Y-62643098D01*
X60756904Y-62683078D01*
X60761595Y-62695216D01*
X60790181Y-62767661D01*
X60799400Y-62785652D01*
X60805791Y-62804849D01*
X60840823Y-62866483D01*
X60873135Y-62929538D01*
X60885678Y-62945402D01*
X60895672Y-62962985D01*
X60903249Y-62973564D01*
X60932557Y-63013883D01*
X60934477Y-63016045D01*
X60935959Y-63018534D01*
X60994882Y-63084051D01*
X61053351Y-63149877D01*
X61055657Y-63151627D01*
X61057592Y-63153778D01*
X61067258Y-63162492D01*
X61103308Y-63194536D01*
X61122315Y-63208362D01*
X61139130Y-63224800D01*
X61195742Y-63261774D01*
X61250401Y-63301535D01*
X61271736Y-63311408D01*
X61291421Y-63324265D01*
X61303000Y-63330203D01*
X61349054Y-63353416D01*
X61351750Y-63354459D01*
X61354210Y-63355996D01*
X61436676Y-63387314D01*
X61468133Y-63399484D01*
X61475265Y-63409627D01*
X61487405Y-63423735D01*
X61497210Y-63439553D01*
X61546633Y-63492565D01*
X61593907Y-63547502D01*
X61608555Y-63558983D01*
X61621247Y-63572596D01*
X61631067Y-63581135D01*
X61672791Y-63616905D01*
X61704114Y-63638843D01*
X61732742Y-63664181D01*
X61743334Y-63671741D01*
X61797689Y-63709958D01*
X61801523Y-63712128D01*
X61804888Y-63714969D01*
X61880629Y-63756905D01*
X61955983Y-63799558D01*
X61960164Y-63800942D01*
X61964019Y-63803076D01*
X62046510Y-63829517D01*
X62128668Y-63856707D01*
X62133036Y-63857252D01*
X62137232Y-63858597D01*
X62223255Y-63868508D01*
X62309162Y-63879226D01*
X62313556Y-63878912D01*
X62317932Y-63879416D01*
X62330944Y-63879546D01*
X62841046Y-63881080D01*
X62841170Y-63881068D01*
X62843221Y-63881084D01*
X62967929Y-63881168D01*
X62968123Y-63881149D01*
X62971765Y-63881162D01*
X63099875Y-63880721D01*
X63100045Y-63880704D01*
X63103385Y-63880703D01*
X63230043Y-63879790D01*
X63230224Y-63879771D01*
X63233647Y-63879757D01*
X63353998Y-63878424D01*
X63354197Y-63878402D01*
X63358176Y-63878368D01*
X63467368Y-63876669D01*
X63467589Y-63876644D01*
X63472988Y-63876565D01*
X63566166Y-63874553D01*
X63566380Y-63874527D01*
X63574899Y-63874323D01*
X63642385Y-63872233D01*
X63642388Y-63872233D01*
X63642438Y-63872231D01*
X63643153Y-63872209D01*
X63643201Y-63872203D01*
X63655392Y-63871750D01*
X63738594Y-63868078D01*
X63738741Y-63868057D01*
X63749227Y-63867548D01*
X63827756Y-63863183D01*
X63827838Y-63863170D01*
X63839658Y-63862445D01*
X63908489Y-63857735D01*
X63910554Y-63857389D01*
X63912646Y-63857441D01*
X63925618Y-63856404D01*
X63979724Y-63851698D01*
X63991373Y-63849524D01*
X64003217Y-63849354D01*
X64016138Y-63847808D01*
X64050496Y-63843454D01*
X64066536Y-63839803D01*
X64081527Y-63838916D01*
X64086972Y-63837499D01*
X64093213Y-63837032D01*
X64106017Y-63834710D01*
X64108621Y-63834219D01*
X64170639Y-63816109D01*
X64227855Y-63803087D01*
X64240008Y-63797670D01*
X64257558Y-63793103D01*
X64269741Y-63788527D01*
X64337220Y-63762641D01*
X64390439Y-63736005D01*
X64445359Y-63713024D01*
X64471609Y-63695380D01*
X64499879Y-63681231D01*
X64546918Y-63644761D01*
X64596321Y-63611554D01*
X64606303Y-63603206D01*
X64661546Y-63556345D01*
X64692446Y-63524451D01*
X64726391Y-63495803D01*
X64755586Y-63459280D01*
X64788113Y-63425706D01*
X64812231Y-63388415D01*
X64839963Y-63353722D01*
X64846982Y-63342763D01*
X64888468Y-63276979D01*
X64898128Y-63257720D01*
X64910552Y-63240104D01*
X64920221Y-63218381D01*
X64956524Y-63194072D01*
X65008559Y-63151320D01*
X65062696Y-63111273D01*
X65072292Y-63102483D01*
X65161872Y-63019266D01*
X65208470Y-62966613D01*
X65257368Y-62916079D01*
X65265390Y-62905833D01*
X65337791Y-62812013D01*
X65379012Y-62746191D01*
X65422113Y-62681557D01*
X65428161Y-62670034D01*
X65480459Y-62568696D01*
X65509424Y-62495900D01*
X65540348Y-62423940D01*
X65544208Y-62411513D01*
X65569219Y-62328958D01*
X65581359Y-62267952D01*
X65586672Y-62247850D01*
X65615487Y-62234370D01*
X65626633Y-62227654D01*
X65683904Y-62192598D01*
X65699224Y-62181024D01*
X65716147Y-62171940D01*
X65771685Y-62126279D01*
X65829035Y-62082951D01*
X65841816Y-62068620D01*
X65856652Y-62056423D01*
X65865785Y-62047153D01*
X65877257Y-62035346D01*
X65877257Y-62143209D01*
X65877536Y-62146055D01*
X65877275Y-62148896D01*
X65886406Y-62236517D01*
X65895007Y-62324235D01*
X65895832Y-62326966D01*
X65896128Y-62329811D01*
X65922072Y-62413881D01*
X65947580Y-62498367D01*
X65948923Y-62500893D01*
X65949764Y-62503618D01*
X65991539Y-62581042D01*
X66032974Y-62658970D01*
X66034782Y-62661187D01*
X66036137Y-62663698D01*
X66092194Y-62731580D01*
X66147937Y-62799928D01*
X66150139Y-62801750D01*
X66151957Y-62803951D01*
X66220160Y-62859676D01*
X66288089Y-62915872D01*
X66290602Y-62917231D01*
X66292814Y-62919038D01*
X66370569Y-62960469D01*
X66448092Y-63002385D01*
X66450821Y-63003230D01*
X66453342Y-63004573D01*
X66537693Y-63030121D01*
X66621852Y-63056173D01*
X66624691Y-63056471D01*
X66627427Y-63057300D01*
X66715114Y-63065975D01*
X66802750Y-63075186D01*
X66805597Y-63074927D01*
X66808438Y-63075208D01*
X66821451Y-63075129D01*
X66971315Y-63073168D01*
X66971326Y-63073168D01*
X67121195Y-63071206D01*
X67184360Y-63064177D01*
X67247823Y-63060888D01*
X67274563Y-63054138D01*
X67301973Y-63051088D01*
X67352563Y-63035089D01*
X67413909Y-63054549D01*
X67419703Y-63055199D01*
X67425274Y-63056890D01*
X67509967Y-63065323D01*
X67594670Y-63074824D01*
X67606188Y-63074905D01*
X67606273Y-63074913D01*
X67606349Y-63074906D01*
X67607683Y-63074915D01*
X67890571Y-63074915D01*
X67977850Y-63066357D01*
X68065210Y-63058407D01*
X68068347Y-63057484D01*
X68071597Y-63057165D01*
X68155575Y-63031811D01*
X68166513Y-63028592D01*
X68248340Y-63054549D01*
X68251590Y-63054914D01*
X68254709Y-63055879D01*
X68341892Y-63065042D01*
X68429101Y-63074824D01*
X68435378Y-63074868D01*
X68435607Y-63074892D01*
X68435837Y-63074871D01*
X68442114Y-63074915D01*
X68746914Y-63074915D01*
X68834193Y-63066357D01*
X68921553Y-63058407D01*
X68924690Y-63057484D01*
X68927940Y-63057165D01*
X69011918Y-63031811D01*
X69096047Y-63007050D01*
X69098940Y-63005538D01*
X69102072Y-63004592D01*
X69159382Y-62974120D01*
X69217622Y-62993683D01*
X69276901Y-63017522D01*
X69289415Y-63021090D01*
X69370813Y-63043675D01*
X69421359Y-63052504D01*
X69470979Y-63065615D01*
X69483839Y-63067606D01*
X69576462Y-63081285D01*
X69617036Y-63083270D01*
X69657163Y-63089634D01*
X69670158Y-63090318D01*
X69773938Y-63095052D01*
X69790292Y-63094198D01*
X69806571Y-63095968D01*
X69819584Y-63096015D01*
X69834842Y-63095963D01*
X69840749Y-63095364D01*
X69846657Y-63095847D01*
X69859667Y-63095547D01*
X69900289Y-63094326D01*
X69908943Y-63093214D01*
X69917662Y-63093642D01*
X69930655Y-63092918D01*
X69973413Y-63090235D01*
X69982224Y-63088809D01*
X69991142Y-63088952D01*
X70004104Y-63087799D01*
X70042429Y-63084120D01*
X70053681Y-63081916D01*
X70065147Y-63081658D01*
X70078055Y-63080007D01*
X70094426Y-63077797D01*
X70123231Y-63070994D01*
X70152675Y-63068045D01*
X70165417Y-63065402D01*
X70251098Y-63047003D01*
X70301680Y-63030841D01*
X70353423Y-63018850D01*
X70365723Y-63014603D01*
X70441178Y-62987962D01*
X70499190Y-62960852D01*
X70558672Y-62937153D01*
X70570192Y-62931100D01*
X70634818Y-62896559D01*
X70698526Y-62854034D01*
X70763535Y-62813488D01*
X70773797Y-62805485D01*
X70826995Y-62763394D01*
X70891260Y-62701439D01*
X70955654Y-62639827D01*
X70957817Y-62637274D01*
X70957945Y-62637150D01*
X70958054Y-62636994D01*
X70964065Y-62629897D01*
X71005231Y-62580602D01*
X71041941Y-62526717D01*
X71081581Y-62474955D01*
X71088370Y-62463853D01*
X71100684Y-62443394D01*
X71105267Y-62433761D01*
X71107641Y-62430277D01*
X71110239Y-62424176D01*
X71119637Y-62410402D01*
X71125808Y-62398945D01*
X71134724Y-62382109D01*
X71140426Y-62368211D01*
X71148310Y-62355429D01*
X71153946Y-62343700D01*
X71161478Y-62327741D01*
X71171320Y-62300201D01*
X71184724Y-62274205D01*
X71189446Y-62262079D01*
X71195712Y-62245650D01*
X71205202Y-62210905D01*
X71218728Y-62177519D01*
X71222327Y-62165013D01*
X71227441Y-62146764D01*
X71233229Y-62114118D01*
X71243025Y-62082444D01*
X71245550Y-62069678D01*
X71249630Y-62048260D01*
X71251866Y-62023616D01*
X71257578Y-61999548D01*
X71259243Y-61986642D01*
X71262405Y-61960705D01*
X71262771Y-61945165D01*
X71265643Y-61929888D01*
X71266697Y-61916917D01*
X71269058Y-61885113D01*
X71268868Y-61877064D01*
X71270108Y-61869107D01*
X71270757Y-61856110D01*
X71272433Y-61817090D01*
X71272287Y-61814437D01*
X71272646Y-61811797D01*
X71273039Y-61798790D01*
X71274147Y-61751204D01*
X71274138Y-61751083D01*
X71274339Y-61740141D01*
X71274995Y-61682640D01*
X71274975Y-61682412D01*
X71275046Y-61676359D01*
X71275367Y-61607594D01*
X71275351Y-61607425D01*
X71275376Y-61604412D01*
X71275478Y-61523034D01*
X71275472Y-61522974D01*
X71275479Y-61522016D01*
X71275485Y-61484768D01*
X71275484Y-61484758D01*
X71275485Y-61484618D01*
X71275485Y-61160273D01*
X71282651Y-61096385D01*
X71282695Y-61090108D01*
X71282719Y-61089879D01*
X71282698Y-61089649D01*
X71282742Y-61083372D01*
X71282742Y-61051975D01*
X71281790Y-61042262D01*
X71282539Y-61032534D01*
X71282177Y-61019526D01*
X71281462Y-60999002D01*
X71280543Y-60992110D01*
X71280877Y-60985165D01*
X71280140Y-60972172D01*
X71278210Y-60941890D01*
X71278065Y-60941000D01*
X71278094Y-60940105D01*
X71277151Y-60927126D01*
X71274332Y-60891754D01*
X71274312Y-60891645D01*
X71273370Y-60880535D01*
X71271120Y-60856043D01*
X71267738Y-60838394D01*
X71267157Y-60820434D01*
X71265379Y-60807543D01*
X71243612Y-60657448D01*
X71234691Y-60621270D01*
X71230004Y-60584306D01*
X71227027Y-60571637D01*
X71191598Y-60425487D01*
X71179446Y-60390643D01*
X71171424Y-60354629D01*
X71167283Y-60342292D01*
X71118681Y-60200796D01*
X71103516Y-60167606D01*
X71092335Y-60132861D01*
X71087075Y-60120958D01*
X71032701Y-60000181D01*
X71039920Y-59991578D01*
X71041616Y-59988492D01*
X71043861Y-59985776D01*
X71085430Y-59908796D01*
X71127548Y-59832183D01*
X71128613Y-59828826D01*
X71130287Y-59825726D01*
X71156099Y-59742179D01*
X71182548Y-59658803D01*
X71182941Y-59655300D01*
X71183980Y-59651937D01*
X71193068Y-59565014D01*
X71202823Y-59478042D01*
X71202870Y-59471253D01*
X71202894Y-59471028D01*
X71202874Y-59470805D01*
X71202914Y-59465029D01*
X71202914Y-59100000D01*
X73181928Y-59100000D01*
X73185000Y-59251750D01*
X73343750Y-59410500D01*
X74168000Y-59410500D01*
X74168000Y-58623750D01*
X74009250Y-58465000D01*
X73820000Y-58461928D01*
X73695518Y-58474188D01*
X73575820Y-58510498D01*
X73465506Y-58569463D01*
X73368815Y-58648815D01*
X73289463Y-58745506D01*
X73230498Y-58855820D01*
X73194188Y-58975518D01*
X73181928Y-59100000D01*
X71202914Y-59100000D01*
X71202914Y-58877200D01*
X71194356Y-58789921D01*
X71186406Y-58702561D01*
X71185483Y-58699424D01*
X71185164Y-58696174D01*
X71159810Y-58612196D01*
X71135049Y-58528067D01*
X71133537Y-58525174D01*
X71132591Y-58522042D01*
X71091367Y-58444511D01*
X71050778Y-58366871D01*
X71048733Y-58364327D01*
X71047197Y-58361439D01*
X71017331Y-58324820D01*
X71061971Y-58231778D01*
X71074703Y-58196856D01*
X71091385Y-58163639D01*
X71095978Y-58151463D01*
X71148229Y-58009960D01*
X71157541Y-57974381D01*
X71170933Y-57940123D01*
X71174378Y-57927574D01*
X71213447Y-57781270D01*
X71219395Y-57745150D01*
X71229520Y-57709972D01*
X71231793Y-57697159D01*
X71257324Y-57547120D01*
X71259402Y-57517823D01*
X71265335Y-57489055D01*
X71266617Y-57476105D01*
X71275910Y-57375029D01*
X71275862Y-57367183D01*
X71277209Y-57359462D01*
X71278093Y-57346479D01*
X71283076Y-57264837D01*
X71282149Y-57239638D01*
X71284784Y-57214565D01*
X71278811Y-57148926D01*
X71276387Y-57083066D01*
X71270584Y-57058533D01*
X71268299Y-57033419D01*
X71249690Y-56970190D01*
X71234520Y-56906054D01*
X71224058Y-56883104D01*
X71216942Y-56858925D01*
X71186414Y-56800530D01*
X71159069Y-56740547D01*
X71144350Y-56720069D01*
X71132671Y-56697729D01*
X71091378Y-56646371D01*
X71057551Y-56599308D01*
X71063080Y-56588964D01*
X71109178Y-56437000D01*
X71166054Y-56437000D01*
X71230000Y-56443298D01*
X71293946Y-56437000D01*
X71293954Y-56437000D01*
X71485236Y-56418160D01*
X71730664Y-56343711D01*
X71956852Y-56222811D01*
X72155107Y-56060107D01*
X72195882Y-56010423D01*
X72294305Y-55912000D01*
X73260079Y-55912000D01*
X73298276Y-55923587D01*
X73480000Y-55941485D01*
X74380000Y-55941485D01*
X74561724Y-55923587D01*
X74736464Y-55870580D01*
X74897505Y-55784501D01*
X74946266Y-55744484D01*
X74845000Y-55845750D01*
X74841928Y-55960000D01*
X74854188Y-56084482D01*
X74890498Y-56204180D01*
X74949463Y-56314494D01*
X75028815Y-56411185D01*
X75125506Y-56490537D01*
X75235820Y-56549502D01*
X75355518Y-56585812D01*
X75480000Y-56598072D01*
X75644250Y-56595000D01*
X75803000Y-56436250D01*
X75803000Y-55687000D01*
X75783000Y-55687000D01*
X75783000Y-55433000D01*
X75803000Y-55433000D01*
X75803000Y-55413000D01*
X76057000Y-55413000D01*
X76057000Y-55433000D01*
X76077000Y-55433000D01*
X76077000Y-55687000D01*
X76057000Y-55687000D01*
X76057000Y-56436250D01*
X76168001Y-56547251D01*
X76168001Y-57728193D01*
X75699582Y-58196613D01*
X75503574Y-58256071D01*
X75304714Y-58362365D01*
X75130411Y-58505411D01*
X75092069Y-58552131D01*
X75014180Y-58510498D01*
X74894482Y-58474188D01*
X74770000Y-58461928D01*
X74580750Y-58465000D01*
X74422000Y-58623750D01*
X74422000Y-59410500D01*
X74442000Y-59410500D01*
X74442000Y-59664500D01*
X74422000Y-59664500D01*
X74422000Y-59684500D01*
X74168000Y-59684500D01*
X74168000Y-59664500D01*
X73343750Y-59664500D01*
X73185000Y-59823250D01*
X73181928Y-59975000D01*
X73194188Y-60099482D01*
X73198390Y-60113336D01*
X73082365Y-60254714D01*
X72976071Y-60453574D01*
X72910616Y-60669350D01*
X72888515Y-60893750D01*
X72888515Y-61331250D01*
X72910616Y-61555650D01*
X72976071Y-61771426D01*
X73082365Y-61970286D01*
X73225411Y-62144589D01*
X73399714Y-62287635D01*
X73598574Y-62393929D01*
X73814350Y-62459384D01*
X74038750Y-62481485D01*
X74551250Y-62481485D01*
X74775650Y-62459384D01*
X74923613Y-62414500D01*
X75105048Y-62414500D01*
X75019970Y-62499578D01*
X75135918Y-62615526D01*
X74881739Y-62699208D01*
X74750842Y-62971775D01*
X74675635Y-63264642D01*
X74660306Y-63543000D01*
X69910259Y-63543000D01*
X69849999Y-63537065D01*
X69789739Y-63543000D01*
X69789732Y-63543000D01*
X69650190Y-63556744D01*
X69609465Y-63560755D01*
X69551097Y-63578461D01*
X69378176Y-63630916D01*
X69165017Y-63744851D01*
X68978183Y-63898183D01*
X68939765Y-63944995D01*
X67723916Y-65160844D01*
X67694725Y-65125275D01*
X67530841Y-64990778D01*
X67343866Y-64890838D01*
X67140987Y-64829295D01*
X66930000Y-64808515D01*
X65280000Y-64808515D01*
X65234462Y-64813000D01*
X62290259Y-64813000D01*
X62229999Y-64807065D01*
X62169739Y-64813000D01*
X62169732Y-64813000D01*
X61989466Y-64830755D01*
X61758176Y-64900916D01*
X61545017Y-65014851D01*
X61358183Y-65168183D01*
X61319765Y-65214995D01*
X60135000Y-66399761D01*
X60088183Y-66438183D01*
X59934851Y-66625018D01*
X59820916Y-66838177D01*
X59750755Y-67069467D01*
X59733000Y-67249733D01*
X59733000Y-67249740D01*
X59727065Y-67310000D01*
X59733000Y-67370260D01*
X59733000Y-68792761D01*
X59711674Y-68771434D01*
X59712000Y-68769793D01*
X59712000Y-68390207D01*
X59637947Y-68017915D01*
X59492685Y-67667223D01*
X59281799Y-67351609D01*
X59240190Y-67310000D01*
X59281799Y-67268391D01*
X59492685Y-66952777D01*
X59637947Y-66602085D01*
X59712000Y-66229793D01*
X59712000Y-65850207D01*
X59637947Y-65477915D01*
X59492685Y-65127223D01*
X59281799Y-64811609D01*
X59240190Y-64770000D01*
X59281799Y-64728391D01*
X59492685Y-64412777D01*
X59637947Y-64062085D01*
X59712000Y-63689793D01*
X59712000Y-63310207D01*
X59637947Y-62937915D01*
X59492685Y-62587223D01*
X59281799Y-62271609D01*
X59013391Y-62003201D01*
X58996569Y-61991961D01*
X58920415Y-61915807D01*
X59184814Y-61820044D01*
X59325704Y-61530429D01*
X59407384Y-61218892D01*
X59426718Y-60897405D01*
X59382961Y-60578325D01*
X59277795Y-60273912D01*
X59184814Y-60099956D01*
X58920415Y-60004193D01*
X58996569Y-59928039D01*
X59013391Y-59916799D01*
X59281799Y-59648391D01*
X59492685Y-59332777D01*
X59637947Y-58982085D01*
X59712000Y-58609793D01*
X59712000Y-58230207D01*
X59637947Y-57857915D01*
X59492685Y-57507223D01*
X59281799Y-57191609D01*
X59013391Y-56923201D01*
X58697777Y-56712315D01*
X58347085Y-56567053D01*
X57974793Y-56493000D01*
X57595207Y-56493000D01*
X57222915Y-56567053D01*
X56872223Y-56712315D01*
X56556609Y-56923201D01*
X56486810Y-56993000D01*
X54638190Y-56993000D01*
X54568391Y-56923201D01*
X54252777Y-56712315D01*
X53902085Y-56567053D01*
X53529793Y-56493000D01*
X53150207Y-56493000D01*
X52777915Y-56567053D01*
X52427223Y-56712315D01*
X52158109Y-56892131D01*
X55435012Y-53615229D01*
X55481817Y-53576817D01*
X55520230Y-53530011D01*
X55520236Y-53530005D01*
X55582296Y-53454384D01*
X55635149Y-53389983D01*
X55749084Y-53176824D01*
X55760379Y-53139589D01*
X55816553Y-52954412D01*
X55822365Y-52965286D01*
G37*
X55822365Y-52965286D02*
X55965411Y-53139589D01*
X56139714Y-53282635D01*
X56338574Y-53388929D01*
X56554350Y-53454384D01*
X56778750Y-53476485D01*
X57216250Y-53476485D01*
X57440650Y-53454384D01*
X57656426Y-53388929D01*
X57785000Y-53320204D01*
X57913574Y-53388929D01*
X58129350Y-53454384D01*
X58353750Y-53476485D01*
X58791250Y-53476485D01*
X59015650Y-53454384D01*
X59231426Y-53388929D01*
X59403411Y-53297000D01*
X60048565Y-53297000D01*
X59948841Y-53378841D01*
X59832999Y-53519995D01*
X59746920Y-53681036D01*
X59693913Y-53855776D01*
X59676015Y-54037500D01*
X59676015Y-56232500D01*
X59693913Y-56414224D01*
X59746920Y-56588964D01*
X59832999Y-56750005D01*
X59948841Y-56891159D01*
X60089995Y-57007001D01*
X60251036Y-57093080D01*
X60425776Y-57146087D01*
X60607500Y-57163985D01*
X60777442Y-57163985D01*
X60748487Y-57198214D01*
X60708709Y-57238771D01*
X60700618Y-57248963D01*
X60589022Y-57391570D01*
X60558259Y-57439960D01*
X60524078Y-57485995D01*
X60517454Y-57497196D01*
X60425809Y-57654690D01*
X60409163Y-57691056D01*
X60388635Y-57725379D01*
X60383160Y-57737184D01*
X60347870Y-57814678D01*
X60344970Y-57823157D01*
X60340631Y-57830989D01*
X60335549Y-57842969D01*
X60319857Y-57880692D01*
X60319327Y-57882427D01*
X60318475Y-57884032D01*
X60313608Y-57896100D01*
X60300290Y-57929799D01*
X60296738Y-57942215D01*
X60291162Y-57953863D01*
X60286800Y-57966124D01*
X60275641Y-57998201D01*
X60270439Y-58019734D01*
X60262119Y-58040259D01*
X60258517Y-58052764D01*
X60249302Y-58085623D01*
X60244832Y-58110806D01*
X60236873Y-58135116D01*
X60234139Y-58147839D01*
X60226656Y-58183885D01*
X60224242Y-58206368D01*
X60218559Y-58228257D01*
X60216623Y-58241125D01*
X60210657Y-58282758D01*
X60209934Y-58298955D01*
X60206628Y-58314826D01*
X60205320Y-58327773D01*
X60200657Y-58377400D01*
X60200695Y-58386866D01*
X60199083Y-58396192D01*
X60198219Y-58409176D01*
X60194644Y-58469198D01*
X60194796Y-58473163D01*
X60194207Y-58477091D01*
X60193634Y-58490092D01*
X60190935Y-58562913D01*
X60190936Y-58562922D01*
X60190546Y-58575848D01*
X60188507Y-58663873D01*
X60188524Y-58664105D01*
X60188363Y-58671420D01*
X60186772Y-58777051D01*
X60186788Y-58777242D01*
X60186721Y-58781007D01*
X60185362Y-58906647D01*
X60185370Y-58906738D01*
X60185345Y-58908292D01*
X60184005Y-59056345D01*
X60184007Y-59056367D01*
X60184003Y-59056617D01*
X60183657Y-59096120D01*
X60183661Y-59096166D01*
X60183651Y-59096841D01*
X60182264Y-59270557D01*
X60182277Y-59270699D01*
X60182245Y-59273407D01*
X60181503Y-59424057D01*
X60181525Y-59424289D01*
X60181493Y-59429702D01*
X60181640Y-59559614D01*
X60181658Y-59559794D01*
X60181700Y-59569241D01*
X60182978Y-59680747D01*
X60183098Y-59681838D01*
X60183006Y-59682927D01*
X60183276Y-59695937D01*
X60185926Y-59791366D01*
X60186538Y-59796215D01*
X60186247Y-59801092D01*
X60186835Y-59814092D01*
X60191100Y-59895775D01*
X60192552Y-59905389D01*
X60192311Y-59915114D01*
X60193351Y-59928086D01*
X60199473Y-59998352D01*
X60202281Y-60013386D01*
X60202616Y-60028671D01*
X60204259Y-60041580D01*
X60212481Y-60102760D01*
X60217211Y-60122841D01*
X60218860Y-60143408D01*
X60221250Y-60156200D01*
X60231813Y-60210624D01*
X60238679Y-60233681D01*
X60242165Y-60257474D01*
X60245386Y-60270082D01*
X60258534Y-60320079D01*
X60266776Y-60342320D01*
X60271724Y-60365512D01*
X60273649Y-60371424D01*
X60258979Y-60424599D01*
X60253092Y-60458600D01*
X60243125Y-60491638D01*
X60240689Y-60504422D01*
X60228834Y-60569095D01*
X60228183Y-60576871D01*
X60226160Y-60584403D01*
X60224117Y-60597255D01*
X60221132Y-60616918D01*
X60220529Y-60628310D01*
X60217995Y-60639431D01*
X60216446Y-60652351D01*
X60208224Y-60725254D01*
X60207977Y-60742237D01*
X60205041Y-60758967D01*
X60204144Y-60771949D01*
X60199022Y-60854446D01*
X60199417Y-60865485D01*
X60197918Y-60876426D01*
X60197509Y-60889433D01*
X60195388Y-60976232D01*
X60196057Y-60985345D01*
X60195121Y-60994436D01*
X60195148Y-61007449D01*
X60195926Y-61093257D01*
X60197019Y-61103447D01*
X60196335Y-61113669D01*
X60196829Y-61126673D01*
X60200405Y-61206199D01*
X60202609Y-61221539D01*
X60202304Y-61237040D01*
X60203410Y-61250006D01*
X60209683Y-61317959D01*
X60215486Y-61348164D01*
X60217337Y-61378870D01*
X60219473Y-61391707D01*
X60228342Y-61442792D01*
X60243620Y-61498073D01*
X60254866Y-61554339D01*
X60258737Y-61566764D01*
X60265151Y-61586859D01*
X60272574Y-61604093D01*
X60277243Y-61622274D01*
X60308500Y-61687503D01*
X60337105Y-61753916D01*
X60347735Y-61769382D01*
X60355846Y-61786308D01*
X60362665Y-61797392D01*
X60384548Y-61832407D01*
X60425816Y-61885988D01*
X60464341Y-61941577D01*
X60472831Y-61951440D01*
X60507677Y-61991352D01*
X60536906Y-62018874D01*
X60562957Y-62049425D01*
X60572389Y-62058390D01*
X60613329Y-62096763D01*
X60647092Y-62122713D01*
X60677975Y-62152036D01*
X60688297Y-62159961D01*
X60697500Y-62166925D01*
X60695570Y-62223516D01*
X60690547Y-62299482D01*
X60692474Y-62314287D01*
X60691965Y-62329215D01*
X60692883Y-62342196D01*
X60699353Y-62425396D01*
X60706578Y-62466174D01*
X60709418Y-62507491D01*
X60722407Y-62555520D01*
X60731085Y-62604501D01*
X60746092Y-62643098D01*
X60756904Y-62683078D01*
X60761595Y-62695216D01*
X60790181Y-62767661D01*
X60799400Y-62785652D01*
X60805791Y-62804849D01*
X60840823Y-62866483D01*
X60873135Y-62929538D01*
X60885678Y-62945402D01*
X60895672Y-62962985D01*
X60903249Y-62973564D01*
X60932557Y-63013883D01*
X60934477Y-63016045D01*
X60935959Y-63018534D01*
X60994882Y-63084051D01*
X61053351Y-63149877D01*
X61055657Y-63151627D01*
X61057592Y-63153778D01*
X61067258Y-63162492D01*
X61103308Y-63194536D01*
X61122315Y-63208362D01*
X61139130Y-63224800D01*
X61195742Y-63261774D01*
X61250401Y-63301535D01*
X61271736Y-63311408D01*
X61291421Y-63324265D01*
X61303000Y-63330203D01*
X61349054Y-63353416D01*
X61351750Y-63354459D01*
X61354210Y-63355996D01*
X61436676Y-63387314D01*
X61468133Y-63399484D01*
X61475265Y-63409627D01*
X61487405Y-63423735D01*
X61497210Y-63439553D01*
X61546633Y-63492565D01*
X61593907Y-63547502D01*
X61608555Y-63558983D01*
X61621247Y-63572596D01*
X61631067Y-63581135D01*
X61672791Y-63616905D01*
X61704114Y-63638843D01*
X61732742Y-63664181D01*
X61743334Y-63671741D01*
X61797689Y-63709958D01*
X61801523Y-63712128D01*
X61804888Y-63714969D01*
X61880629Y-63756905D01*
X61955983Y-63799558D01*
X61960164Y-63800942D01*
X61964019Y-63803076D01*
X62046510Y-63829517D01*
X62128668Y-63856707D01*
X62133036Y-63857252D01*
X62137232Y-63858597D01*
X62223255Y-63868508D01*
X62309162Y-63879226D01*
X62313556Y-63878912D01*
X62317932Y-63879416D01*
X62330944Y-63879546D01*
X62841046Y-63881080D01*
X62841170Y-63881068D01*
X62843221Y-63881084D01*
X62967929Y-63881168D01*
X62968123Y-63881149D01*
X62971765Y-63881162D01*
X63099875Y-63880721D01*
X63100045Y-63880704D01*
X63103385Y-63880703D01*
X63230043Y-63879790D01*
X63230224Y-63879771D01*
X63233647Y-63879757D01*
X63353998Y-63878424D01*
X63354197Y-63878402D01*
X63358176Y-63878368D01*
X63467368Y-63876669D01*
X63467589Y-63876644D01*
X63472988Y-63876565D01*
X63566166Y-63874553D01*
X63566380Y-63874527D01*
X63574899Y-63874323D01*
X63642385Y-63872233D01*
X63642388Y-63872233D01*
X63642438Y-63872231D01*
X63643153Y-63872209D01*
X63643201Y-63872203D01*
X63655392Y-63871750D01*
X63738594Y-63868078D01*
X63738741Y-63868057D01*
X63749227Y-63867548D01*
X63827756Y-63863183D01*
X63827838Y-63863170D01*
X63839658Y-63862445D01*
X63908489Y-63857735D01*
X63910554Y-63857389D01*
X63912646Y-63857441D01*
X63925618Y-63856404D01*
X63979724Y-63851698D01*
X63991373Y-63849524D01*
X64003217Y-63849354D01*
X64016138Y-63847808D01*
X64050496Y-63843454D01*
X64066536Y-63839803D01*
X64081527Y-63838916D01*
X64086972Y-63837499D01*
X64093213Y-63837032D01*
X64106017Y-63834710D01*
X64108621Y-63834219D01*
X64170639Y-63816109D01*
X64227855Y-63803087D01*
X64240008Y-63797670D01*
X64257558Y-63793103D01*
X64269741Y-63788527D01*
X64337220Y-63762641D01*
X64390439Y-63736005D01*
X64445359Y-63713024D01*
X64471609Y-63695380D01*
X64499879Y-63681231D01*
X64546918Y-63644761D01*
X64596321Y-63611554D01*
X64606303Y-63603206D01*
X64661546Y-63556345D01*
X64692446Y-63524451D01*
X64726391Y-63495803D01*
X64755586Y-63459280D01*
X64788113Y-63425706D01*
X64812231Y-63388415D01*
X64839963Y-63353722D01*
X64846982Y-63342763D01*
X64888468Y-63276979D01*
X64898128Y-63257720D01*
X64910552Y-63240104D01*
X64920221Y-63218381D01*
X64956524Y-63194072D01*
X65008559Y-63151320D01*
X65062696Y-63111273D01*
X65072292Y-63102483D01*
X65161872Y-63019266D01*
X65208470Y-62966613D01*
X65257368Y-62916079D01*
X65265390Y-62905833D01*
X65337791Y-62812013D01*
X65379012Y-62746191D01*
X65422113Y-62681557D01*
X65428161Y-62670034D01*
X65480459Y-62568696D01*
X65509424Y-62495900D01*
X65540348Y-62423940D01*
X65544208Y-62411513D01*
X65569219Y-62328958D01*
X65581359Y-62267952D01*
X65586672Y-62247850D01*
X65615487Y-62234370D01*
X65626633Y-62227654D01*
X65683904Y-62192598D01*
X65699224Y-62181024D01*
X65716147Y-62171940D01*
X65771685Y-62126279D01*
X65829035Y-62082951D01*
X65841816Y-62068620D01*
X65856652Y-62056423D01*
X65865785Y-62047153D01*
X65877257Y-62035346D01*
X65877257Y-62143209D01*
X65877536Y-62146055D01*
X65877275Y-62148896D01*
X65886406Y-62236517D01*
X65895007Y-62324235D01*
X65895832Y-62326966D01*
X65896128Y-62329811D01*
X65922072Y-62413881D01*
X65947580Y-62498367D01*
X65948923Y-62500893D01*
X65949764Y-62503618D01*
X65991539Y-62581042D01*
X66032974Y-62658970D01*
X66034782Y-62661187D01*
X66036137Y-62663698D01*
X66092194Y-62731580D01*
X66147937Y-62799928D01*
X66150139Y-62801750D01*
X66151957Y-62803951D01*
X66220160Y-62859676D01*
X66288089Y-62915872D01*
X66290602Y-62917231D01*
X66292814Y-62919038D01*
X66370569Y-62960469D01*
X66448092Y-63002385D01*
X66450821Y-63003230D01*
X66453342Y-63004573D01*
X66537693Y-63030121D01*
X66621852Y-63056173D01*
X66624691Y-63056471D01*
X66627427Y-63057300D01*
X66715114Y-63065975D01*
X66802750Y-63075186D01*
X66805597Y-63074927D01*
X66808438Y-63075208D01*
X66821451Y-63075129D01*
X66971315Y-63073168D01*
X66971326Y-63073168D01*
X67121195Y-63071206D01*
X67184360Y-63064177D01*
X67247823Y-63060888D01*
X67274563Y-63054138D01*
X67301973Y-63051088D01*
X67352563Y-63035089D01*
X67413909Y-63054549D01*
X67419703Y-63055199D01*
X67425274Y-63056890D01*
X67509967Y-63065323D01*
X67594670Y-63074824D01*
X67606188Y-63074905D01*
X67606273Y-63074913D01*
X67606349Y-63074906D01*
X67607683Y-63074915D01*
X67890571Y-63074915D01*
X67977850Y-63066357D01*
X68065210Y-63058407D01*
X68068347Y-63057484D01*
X68071597Y-63057165D01*
X68155575Y-63031811D01*
X68166513Y-63028592D01*
X68248340Y-63054549D01*
X68251590Y-63054914D01*
X68254709Y-63055879D01*
X68341892Y-63065042D01*
X68429101Y-63074824D01*
X68435378Y-63074868D01*
X68435607Y-63074892D01*
X68435837Y-63074871D01*
X68442114Y-63074915D01*
X68746914Y-63074915D01*
X68834193Y-63066357D01*
X68921553Y-63058407D01*
X68924690Y-63057484D01*
X68927940Y-63057165D01*
X69011918Y-63031811D01*
X69096047Y-63007050D01*
X69098940Y-63005538D01*
X69102072Y-63004592D01*
X69159382Y-62974120D01*
X69217622Y-62993683D01*
X69276901Y-63017522D01*
X69289415Y-63021090D01*
X69370813Y-63043675D01*
X69421359Y-63052504D01*
X69470979Y-63065615D01*
X69483839Y-63067606D01*
X69576462Y-63081285D01*
X69617036Y-63083270D01*
X69657163Y-63089634D01*
X69670158Y-63090318D01*
X69773938Y-63095052D01*
X69790292Y-63094198D01*
X69806571Y-63095968D01*
X69819584Y-63096015D01*
X69834842Y-63095963D01*
X69840749Y-63095364D01*
X69846657Y-63095847D01*
X69859667Y-63095547D01*
X69900289Y-63094326D01*
X69908943Y-63093214D01*
X69917662Y-63093642D01*
X69930655Y-63092918D01*
X69973413Y-63090235D01*
X69982224Y-63088809D01*
X69991142Y-63088952D01*
X70004104Y-63087799D01*
X70042429Y-63084120D01*
X70053681Y-63081916D01*
X70065147Y-63081658D01*
X70078055Y-63080007D01*
X70094426Y-63077797D01*
X70123231Y-63070994D01*
X70152675Y-63068045D01*
X70165417Y-63065402D01*
X70251098Y-63047003D01*
X70301680Y-63030841D01*
X70353423Y-63018850D01*
X70365723Y-63014603D01*
X70441178Y-62987962D01*
X70499190Y-62960852D01*
X70558672Y-62937153D01*
X70570192Y-62931100D01*
X70634818Y-62896559D01*
X70698526Y-62854034D01*
X70763535Y-62813488D01*
X70773797Y-62805485D01*
X70826995Y-62763394D01*
X70891260Y-62701439D01*
X70955654Y-62639827D01*
X70957817Y-62637274D01*
X70957945Y-62637150D01*
X70958054Y-62636994D01*
X70964065Y-62629897D01*
X71005231Y-62580602D01*
X71041941Y-62526717D01*
X71081581Y-62474955D01*
X71088370Y-62463853D01*
X71100684Y-62443394D01*
X71105267Y-62433761D01*
X71107641Y-62430277D01*
X71110239Y-62424176D01*
X71119637Y-62410402D01*
X71125808Y-62398945D01*
X71134724Y-62382109D01*
X71140426Y-62368211D01*
X71148310Y-62355429D01*
X71153946Y-62343700D01*
X71161478Y-62327741D01*
X71171320Y-62300201D01*
X71184724Y-62274205D01*
X71189446Y-62262079D01*
X71195712Y-62245650D01*
X71205202Y-62210905D01*
X71218728Y-62177519D01*
X71222327Y-62165013D01*
X71227441Y-62146764D01*
X71233229Y-62114118D01*
X71243025Y-62082444D01*
X71245550Y-62069678D01*
X71249630Y-62048260D01*
X71251866Y-62023616D01*
X71257578Y-61999548D01*
X71259243Y-61986642D01*
X71262405Y-61960705D01*
X71262771Y-61945165D01*
X71265643Y-61929888D01*
X71266697Y-61916917D01*
X71269058Y-61885113D01*
X71268868Y-61877064D01*
X71270108Y-61869107D01*
X71270757Y-61856110D01*
X71272433Y-61817090D01*
X71272287Y-61814437D01*
X71272646Y-61811797D01*
X71273039Y-61798790D01*
X71274147Y-61751204D01*
X71274138Y-61751083D01*
X71274339Y-61740141D01*
X71274995Y-61682640D01*
X71274975Y-61682412D01*
X71275046Y-61676359D01*
X71275367Y-61607594D01*
X71275351Y-61607425D01*
X71275376Y-61604412D01*
X71275478Y-61523034D01*
X71275472Y-61522974D01*
X71275479Y-61522016D01*
X71275485Y-61484768D01*
X71275484Y-61484758D01*
X71275485Y-61484618D01*
X71275485Y-61160273D01*
X71282651Y-61096385D01*
X71282695Y-61090108D01*
X71282719Y-61089879D01*
X71282698Y-61089649D01*
X71282742Y-61083372D01*
X71282742Y-61051975D01*
X71281790Y-61042262D01*
X71282539Y-61032534D01*
X71282177Y-61019526D01*
X71281462Y-60999002D01*
X71280543Y-60992110D01*
X71280877Y-60985165D01*
X71280140Y-60972172D01*
X71278210Y-60941890D01*
X71278065Y-60941000D01*
X71278094Y-60940105D01*
X71277151Y-60927126D01*
X71274332Y-60891754D01*
X71274312Y-60891645D01*
X71273370Y-60880535D01*
X71271120Y-60856043D01*
X71267738Y-60838394D01*
X71267157Y-60820434D01*
X71265379Y-60807543D01*
X71243612Y-60657448D01*
X71234691Y-60621270D01*
X71230004Y-60584306D01*
X71227027Y-60571637D01*
X71191598Y-60425487D01*
X71179446Y-60390643D01*
X71171424Y-60354629D01*
X71167283Y-60342292D01*
X71118681Y-60200796D01*
X71103516Y-60167606D01*
X71092335Y-60132861D01*
X71087075Y-60120958D01*
X71032701Y-60000181D01*
X71039920Y-59991578D01*
X71041616Y-59988492D01*
X71043861Y-59985776D01*
X71085430Y-59908796D01*
X71127548Y-59832183D01*
X71128613Y-59828826D01*
X71130287Y-59825726D01*
X71156099Y-59742179D01*
X71182548Y-59658803D01*
X71182941Y-59655300D01*
X71183980Y-59651937D01*
X71193068Y-59565014D01*
X71202823Y-59478042D01*
X71202870Y-59471253D01*
X71202894Y-59471028D01*
X71202874Y-59470805D01*
X71202914Y-59465029D01*
X71202914Y-59100000D01*
X73181928Y-59100000D01*
X73185000Y-59251750D01*
X73343750Y-59410500D01*
X74168000Y-59410500D01*
X74168000Y-58623750D01*
X74009250Y-58465000D01*
X73820000Y-58461928D01*
X73695518Y-58474188D01*
X73575820Y-58510498D01*
X73465506Y-58569463D01*
X73368815Y-58648815D01*
X73289463Y-58745506D01*
X73230498Y-58855820D01*
X73194188Y-58975518D01*
X73181928Y-59100000D01*
X71202914Y-59100000D01*
X71202914Y-58877200D01*
X71194356Y-58789921D01*
X71186406Y-58702561D01*
X71185483Y-58699424D01*
X71185164Y-58696174D01*
X71159810Y-58612196D01*
X71135049Y-58528067D01*
X71133537Y-58525174D01*
X71132591Y-58522042D01*
X71091367Y-58444511D01*
X71050778Y-58366871D01*
X71048733Y-58364327D01*
X71047197Y-58361439D01*
X71017331Y-58324820D01*
X71061971Y-58231778D01*
X71074703Y-58196856D01*
X71091385Y-58163639D01*
X71095978Y-58151463D01*
X71148229Y-58009960D01*
X71157541Y-57974381D01*
X71170933Y-57940123D01*
X71174378Y-57927574D01*
X71213447Y-57781270D01*
X71219395Y-57745150D01*
X71229520Y-57709972D01*
X71231793Y-57697159D01*
X71257324Y-57547120D01*
X71259402Y-57517823D01*
X71265335Y-57489055D01*
X71266617Y-57476105D01*
X71275910Y-57375029D01*
X71275862Y-57367183D01*
X71277209Y-57359462D01*
X71278093Y-57346479D01*
X71283076Y-57264837D01*
X71282149Y-57239638D01*
X71284784Y-57214565D01*
X71278811Y-57148926D01*
X71276387Y-57083066D01*
X71270584Y-57058533D01*
X71268299Y-57033419D01*
X71249690Y-56970190D01*
X71234520Y-56906054D01*
X71224058Y-56883104D01*
X71216942Y-56858925D01*
X71186414Y-56800530D01*
X71159069Y-56740547D01*
X71144350Y-56720069D01*
X71132671Y-56697729D01*
X71091378Y-56646371D01*
X71057551Y-56599308D01*
X71063080Y-56588964D01*
X71109178Y-56437000D01*
X71166054Y-56437000D01*
X71230000Y-56443298D01*
X71293946Y-56437000D01*
X71293954Y-56437000D01*
X71485236Y-56418160D01*
X71730664Y-56343711D01*
X71956852Y-56222811D01*
X72155107Y-56060107D01*
X72195882Y-56010423D01*
X72294305Y-55912000D01*
X73260079Y-55912000D01*
X73298276Y-55923587D01*
X73480000Y-55941485D01*
X74380000Y-55941485D01*
X74561724Y-55923587D01*
X74736464Y-55870580D01*
X74897505Y-55784501D01*
X74946266Y-55744484D01*
X74845000Y-55845750D01*
X74841928Y-55960000D01*
X74854188Y-56084482D01*
X74890498Y-56204180D01*
X74949463Y-56314494D01*
X75028815Y-56411185D01*
X75125506Y-56490537D01*
X75235820Y-56549502D01*
X75355518Y-56585812D01*
X75480000Y-56598072D01*
X75644250Y-56595000D01*
X75803000Y-56436250D01*
X75803000Y-55687000D01*
X75783000Y-55687000D01*
X75783000Y-55433000D01*
X75803000Y-55433000D01*
X75803000Y-55413000D01*
X76057000Y-55413000D01*
X76057000Y-55433000D01*
X76077000Y-55433000D01*
X76077000Y-55687000D01*
X76057000Y-55687000D01*
X76057000Y-56436250D01*
X76168001Y-56547251D01*
X76168001Y-57728193D01*
X75699582Y-58196613D01*
X75503574Y-58256071D01*
X75304714Y-58362365D01*
X75130411Y-58505411D01*
X75092069Y-58552131D01*
X75014180Y-58510498D01*
X74894482Y-58474188D01*
X74770000Y-58461928D01*
X74580750Y-58465000D01*
X74422000Y-58623750D01*
X74422000Y-59410500D01*
X74442000Y-59410500D01*
X74442000Y-59664500D01*
X74422000Y-59664500D01*
X74422000Y-59684500D01*
X74168000Y-59684500D01*
X74168000Y-59664500D01*
X73343750Y-59664500D01*
X73185000Y-59823250D01*
X73181928Y-59975000D01*
X73194188Y-60099482D01*
X73198390Y-60113336D01*
X73082365Y-60254714D01*
X72976071Y-60453574D01*
X72910616Y-60669350D01*
X72888515Y-60893750D01*
X72888515Y-61331250D01*
X72910616Y-61555650D01*
X72976071Y-61771426D01*
X73082365Y-61970286D01*
X73225411Y-62144589D01*
X73399714Y-62287635D01*
X73598574Y-62393929D01*
X73814350Y-62459384D01*
X74038750Y-62481485D01*
X74551250Y-62481485D01*
X74775650Y-62459384D01*
X74923613Y-62414500D01*
X75105048Y-62414500D01*
X75019970Y-62499578D01*
X75135918Y-62615526D01*
X74881739Y-62699208D01*
X74750842Y-62971775D01*
X74675635Y-63264642D01*
X74660306Y-63543000D01*
X69910259Y-63543000D01*
X69849999Y-63537065D01*
X69789739Y-63543000D01*
X69789732Y-63543000D01*
X69650190Y-63556744D01*
X69609465Y-63560755D01*
X69551097Y-63578461D01*
X69378176Y-63630916D01*
X69165017Y-63744851D01*
X68978183Y-63898183D01*
X68939765Y-63944995D01*
X67723916Y-65160844D01*
X67694725Y-65125275D01*
X67530841Y-64990778D01*
X67343866Y-64890838D01*
X67140987Y-64829295D01*
X66930000Y-64808515D01*
X65280000Y-64808515D01*
X65234462Y-64813000D01*
X62290259Y-64813000D01*
X62229999Y-64807065D01*
X62169739Y-64813000D01*
X62169732Y-64813000D01*
X61989466Y-64830755D01*
X61758176Y-64900916D01*
X61545017Y-65014851D01*
X61358183Y-65168183D01*
X61319765Y-65214995D01*
X60135000Y-66399761D01*
X60088183Y-66438183D01*
X59934851Y-66625018D01*
X59820916Y-66838177D01*
X59750755Y-67069467D01*
X59733000Y-67249733D01*
X59733000Y-67249740D01*
X59727065Y-67310000D01*
X59733000Y-67370260D01*
X59733000Y-68792761D01*
X59711674Y-68771434D01*
X59712000Y-68769793D01*
X59712000Y-68390207D01*
X59637947Y-68017915D01*
X59492685Y-67667223D01*
X59281799Y-67351609D01*
X59240190Y-67310000D01*
X59281799Y-67268391D01*
X59492685Y-66952777D01*
X59637947Y-66602085D01*
X59712000Y-66229793D01*
X59712000Y-65850207D01*
X59637947Y-65477915D01*
X59492685Y-65127223D01*
X59281799Y-64811609D01*
X59240190Y-64770000D01*
X59281799Y-64728391D01*
X59492685Y-64412777D01*
X59637947Y-64062085D01*
X59712000Y-63689793D01*
X59712000Y-63310207D01*
X59637947Y-62937915D01*
X59492685Y-62587223D01*
X59281799Y-62271609D01*
X59013391Y-62003201D01*
X58996569Y-61991961D01*
X58920415Y-61915807D01*
X59184814Y-61820044D01*
X59325704Y-61530429D01*
X59407384Y-61218892D01*
X59426718Y-60897405D01*
X59382961Y-60578325D01*
X59277795Y-60273912D01*
X59184814Y-60099956D01*
X58920415Y-60004193D01*
X58996569Y-59928039D01*
X59013391Y-59916799D01*
X59281799Y-59648391D01*
X59492685Y-59332777D01*
X59637947Y-58982085D01*
X59712000Y-58609793D01*
X59712000Y-58230207D01*
X59637947Y-57857915D01*
X59492685Y-57507223D01*
X59281799Y-57191609D01*
X59013391Y-56923201D01*
X58697777Y-56712315D01*
X58347085Y-56567053D01*
X57974793Y-56493000D01*
X57595207Y-56493000D01*
X57222915Y-56567053D01*
X56872223Y-56712315D01*
X56556609Y-56923201D01*
X56486810Y-56993000D01*
X54638190Y-56993000D01*
X54568391Y-56923201D01*
X54252777Y-56712315D01*
X53902085Y-56567053D01*
X53529793Y-56493000D01*
X53150207Y-56493000D01*
X52777915Y-56567053D01*
X52427223Y-56712315D01*
X52158109Y-56892131D01*
X55435012Y-53615229D01*
X55481817Y-53576817D01*
X55520230Y-53530011D01*
X55520236Y-53530005D01*
X55582296Y-53454384D01*
X55635149Y-53389983D01*
X55749084Y-53176824D01*
X55760379Y-53139589D01*
X55816553Y-52954412D01*
X55822365Y-52965286D01*
G36*
X51487053Y-64062085D02*
G01*
X51632315Y-64412777D01*
X51843201Y-64728391D01*
X51884810Y-64770000D01*
X51843201Y-64811609D01*
X51632315Y-65127223D01*
X51487053Y-65477915D01*
X51413000Y-65850207D01*
X51413000Y-66229793D01*
X51487053Y-66602085D01*
X51632315Y-66952777D01*
X51843201Y-67268391D01*
X51884810Y-67310000D01*
X51843201Y-67351609D01*
X51741659Y-67503577D01*
X51223609Y-66985527D01*
X51178923Y-66931077D01*
X51159391Y-66915047D01*
X51026799Y-66716609D01*
X50771245Y-66461055D01*
X50923399Y-66260382D01*
X51063502Y-65972107D01*
X51120124Y-65785434D01*
X51000777Y-65532000D01*
X49657000Y-65532000D01*
X49657000Y-65552000D01*
X49403000Y-65552000D01*
X49403000Y-65532000D01*
X49383000Y-65532000D01*
X49383000Y-65278000D01*
X49403000Y-65278000D01*
X49403000Y-65258000D01*
X49657000Y-65258000D01*
X49657000Y-65278000D01*
X51000777Y-65278000D01*
X51120124Y-65024566D01*
X51063502Y-64837893D01*
X50983666Y-64673624D01*
X51047505Y-64639501D01*
X51188659Y-64523659D01*
X51304501Y-64382505D01*
X51390580Y-64221464D01*
X51443587Y-64046724D01*
X51456970Y-63910845D01*
X51487053Y-64062085D01*
G37*
X51487053Y-64062085D02*
X51632315Y-64412777D01*
X51843201Y-64728391D01*
X51884810Y-64770000D01*
X51843201Y-64811609D01*
X51632315Y-65127223D01*
X51487053Y-65477915D01*
X51413000Y-65850207D01*
X51413000Y-66229793D01*
X51487053Y-66602085D01*
X51632315Y-66952777D01*
X51843201Y-67268391D01*
X51884810Y-67310000D01*
X51843201Y-67351609D01*
X51741659Y-67503577D01*
X51223609Y-66985527D01*
X51178923Y-66931077D01*
X51159391Y-66915047D01*
X51026799Y-66716609D01*
X50771245Y-66461055D01*
X50923399Y-66260382D01*
X51063502Y-65972107D01*
X51120124Y-65785434D01*
X51000777Y-65532000D01*
X49657000Y-65532000D01*
X49657000Y-65552000D01*
X49403000Y-65552000D01*
X49403000Y-65532000D01*
X49383000Y-65532000D01*
X49383000Y-65278000D01*
X49403000Y-65278000D01*
X49403000Y-65258000D01*
X49657000Y-65258000D01*
X49657000Y-65278000D01*
X51000777Y-65278000D01*
X51120124Y-65024566D01*
X51063502Y-64837893D01*
X50983666Y-64673624D01*
X51047505Y-64639501D01*
X51188659Y-64523659D01*
X51304501Y-64382505D01*
X51390580Y-64221464D01*
X51443587Y-64046724D01*
X51456970Y-63910845D01*
X51487053Y-64062085D01*
G36*
X78792053Y-62937915D02*
G01*
X78718000Y-63310207D01*
X78718000Y-63689793D01*
X78792053Y-64062085D01*
X78937315Y-64412777D01*
X79148201Y-64728391D01*
X79189810Y-64770000D01*
X79148201Y-64811609D01*
X79147272Y-64813000D01*
X77002524Y-64813000D01*
X77084475Y-64564080D01*
X76200000Y-63679605D01*
X76185858Y-63693748D01*
X76006253Y-63514143D01*
X76020395Y-63500000D01*
X76006253Y-63485858D01*
X76185858Y-63306253D01*
X76200000Y-63320395D01*
X76214143Y-63306253D01*
X76393748Y-63485858D01*
X76379605Y-63500000D01*
X77264080Y-64384475D01*
X77518261Y-64300792D01*
X77649158Y-64028225D01*
X77724365Y-63735358D01*
X77740991Y-63433447D01*
X77698397Y-63134093D01*
X77615146Y-62897000D01*
X78809001Y-62897000D01*
X78792053Y-62937915D01*
G37*
X78792053Y-62937915D02*
X78718000Y-63310207D01*
X78718000Y-63689793D01*
X78792053Y-64062085D01*
X78937315Y-64412777D01*
X79148201Y-64728391D01*
X79189810Y-64770000D01*
X79148201Y-64811609D01*
X79147272Y-64813000D01*
X77002524Y-64813000D01*
X77084475Y-64564080D01*
X76200000Y-63679605D01*
X76185858Y-63693748D01*
X76006253Y-63514143D01*
X76020395Y-63500000D01*
X76006253Y-63485858D01*
X76185858Y-63306253D01*
X76200000Y-63320395D01*
X76214143Y-63306253D01*
X76393748Y-63485858D01*
X76379605Y-63500000D01*
X77264080Y-64384475D01*
X77518261Y-64300792D01*
X77649158Y-64028225D01*
X77724365Y-63735358D01*
X77740991Y-63433447D01*
X77698397Y-63134093D01*
X77615146Y-62897000D01*
X78809001Y-62897000D01*
X78792053Y-62937915D01*
G36*
X51632315Y-57507223D02*
G01*
X51487053Y-57857915D01*
X51413000Y-58230207D01*
X51413000Y-58609793D01*
X51487053Y-58982085D01*
X51632315Y-59332777D01*
X51843201Y-59648391D01*
X52098755Y-59903945D01*
X51946601Y-60104618D01*
X51806498Y-60392893D01*
X51749876Y-60579566D01*
X51869223Y-60833000D01*
X53213000Y-60833000D01*
X53213000Y-60813000D01*
X53467000Y-60813000D01*
X53467000Y-60833000D01*
X54810777Y-60833000D01*
X54930124Y-60579566D01*
X54873502Y-60392893D01*
X54733399Y-60104618D01*
X54581245Y-59903945D01*
X54638190Y-59847000D01*
X56486810Y-59847000D01*
X56556609Y-59916799D01*
X56573431Y-59928039D01*
X56649585Y-60004193D01*
X56385186Y-60099956D01*
X56244296Y-60389571D01*
X56162616Y-60701108D01*
X56143282Y-61022595D01*
X56187039Y-61341675D01*
X56292205Y-61646088D01*
X56385186Y-61820044D01*
X56649585Y-61915807D01*
X56573431Y-61991961D01*
X56556609Y-62003201D01*
X56486810Y-62073000D01*
X54638190Y-62073000D01*
X54581245Y-62016055D01*
X54733399Y-61815382D01*
X54873502Y-61527107D01*
X54930124Y-61340434D01*
X54810777Y-61087000D01*
X53467000Y-61087000D01*
X53467000Y-61107000D01*
X53213000Y-61107000D01*
X53213000Y-61087000D01*
X51869223Y-61087000D01*
X51749876Y-61340434D01*
X51806498Y-61527107D01*
X51946601Y-61815382D01*
X52098755Y-62016055D01*
X51843201Y-62271609D01*
X51632315Y-62587223D01*
X51487053Y-62937915D01*
X51461485Y-63066455D01*
X51461485Y-61865000D01*
X51443587Y-61683276D01*
X51390580Y-61508536D01*
X51304501Y-61347495D01*
X51188659Y-61206341D01*
X51047505Y-61090499D01*
X50886464Y-61004420D01*
X50757000Y-60965147D01*
X50757000Y-58293239D01*
X51812131Y-57238108D01*
X51632315Y-57507223D01*
G37*
X51632315Y-57507223D02*
X51487053Y-57857915D01*
X51413000Y-58230207D01*
X51413000Y-58609793D01*
X51487053Y-58982085D01*
X51632315Y-59332777D01*
X51843201Y-59648391D01*
X52098755Y-59903945D01*
X51946601Y-60104618D01*
X51806498Y-60392893D01*
X51749876Y-60579566D01*
X51869223Y-60833000D01*
X53213000Y-60833000D01*
X53213000Y-60813000D01*
X53467000Y-60813000D01*
X53467000Y-60833000D01*
X54810777Y-60833000D01*
X54930124Y-60579566D01*
X54873502Y-60392893D01*
X54733399Y-60104618D01*
X54581245Y-59903945D01*
X54638190Y-59847000D01*
X56486810Y-59847000D01*
X56556609Y-59916799D01*
X56573431Y-59928039D01*
X56649585Y-60004193D01*
X56385186Y-60099956D01*
X56244296Y-60389571D01*
X56162616Y-60701108D01*
X56143282Y-61022595D01*
X56187039Y-61341675D01*
X56292205Y-61646088D01*
X56385186Y-61820044D01*
X56649585Y-61915807D01*
X56573431Y-61991961D01*
X56556609Y-62003201D01*
X56486810Y-62073000D01*
X54638190Y-62073000D01*
X54581245Y-62016055D01*
X54733399Y-61815382D01*
X54873502Y-61527107D01*
X54930124Y-61340434D01*
X54810777Y-61087000D01*
X53467000Y-61087000D01*
X53467000Y-61107000D01*
X53213000Y-61107000D01*
X53213000Y-61087000D01*
X51869223Y-61087000D01*
X51749876Y-61340434D01*
X51806498Y-61527107D01*
X51946601Y-61815382D01*
X52098755Y-62016055D01*
X51843201Y-62271609D01*
X51632315Y-62587223D01*
X51487053Y-62937915D01*
X51461485Y-63066455D01*
X51461485Y-61865000D01*
X51443587Y-61683276D01*
X51390580Y-61508536D01*
X51304501Y-61347495D01*
X51188659Y-61206341D01*
X51047505Y-61090499D01*
X50886464Y-61004420D01*
X50757000Y-60965147D01*
X50757000Y-58293239D01*
X51812131Y-57238108D01*
X51632315Y-57507223D01*
G36*
X57978748Y-60945858D02*
G01*
X57964605Y-60960000D01*
X57978748Y-60974143D01*
X57799143Y-61153748D01*
X57785000Y-61139605D01*
X57770858Y-61153748D01*
X57591253Y-60974143D01*
X57605395Y-60960000D01*
X57591253Y-60945858D01*
X57770858Y-60766253D01*
X57785000Y-60780395D01*
X57799143Y-60766253D01*
X57978748Y-60945858D01*
G37*
X57978748Y-60945858D02*
X57964605Y-60960000D01*
X57978748Y-60974143D01*
X57799143Y-61153748D01*
X57785000Y-61139605D01*
X57770858Y-61153748D01*
X57591253Y-60974143D01*
X57605395Y-60960000D01*
X57591253Y-60945858D01*
X57770858Y-60766253D01*
X57785000Y-60780395D01*
X57799143Y-60766253D01*
X57978748Y-60945858D01*
M02*
