G04 #@! TF.GenerationSoftware,KiCad,Pcbnew,(5.1.5)-3*
G04 #@! TF.CreationDate,2020-11-19T15:19:38-03:00*
G04 #@! TF.ProjectId,MainBoard_a,4d61696e-426f-4617-9264-5f612e6b6963,1*
G04 #@! TF.SameCoordinates,Original*
G04 #@! TF.FileFunction,Soldermask,Bot*
G04 #@! TF.FilePolarity,Negative*
%FSLAX46Y46*%
G04 Gerber Fmt 4.6, Leading zero omitted, Abs format (unit mm)*
G04 Created by KiCad (PCBNEW (5.1.5)-3) date 2020-11-19 15:19:38*
%MOMM*%
%LPD*%
G04 APERTURE LIST*
%ADD10R,2.595000X2.595000*%
%ADD11C,0.100000*%
%ADD12R,2.400000X2.400000*%
%ADD13O,2.400000X2.400000*%
%ADD14R,2.100000X2.100000*%
%ADD15R,1.300000X1.200000*%
%ADD16C,2.400000*%
G04 APERTURE END LIST*
D10*
X61705000Y-55135000D03*
X69105000Y-55135000D03*
X69105000Y-47735000D03*
D11*
G36*
X58922493Y-51396535D02*
G01*
X58953435Y-51401125D01*
X58983778Y-51408725D01*
X59013230Y-51419263D01*
X59041508Y-51432638D01*
X59068338Y-51448719D01*
X59093463Y-51467353D01*
X59116640Y-51488360D01*
X59137647Y-51511537D01*
X59156281Y-51536662D01*
X59172362Y-51563492D01*
X59185737Y-51591770D01*
X59196275Y-51621222D01*
X59203875Y-51651565D01*
X59208465Y-51682507D01*
X59210000Y-51713750D01*
X59210000Y-52426250D01*
X59208465Y-52457493D01*
X59203875Y-52488435D01*
X59196275Y-52518778D01*
X59185737Y-52548230D01*
X59172362Y-52576508D01*
X59156281Y-52603338D01*
X59137647Y-52628463D01*
X59116640Y-52651640D01*
X59093463Y-52672647D01*
X59068338Y-52691281D01*
X59041508Y-52707362D01*
X59013230Y-52720737D01*
X58983778Y-52731275D01*
X58953435Y-52738875D01*
X58922493Y-52743465D01*
X58891250Y-52745000D01*
X58253750Y-52745000D01*
X58222507Y-52743465D01*
X58191565Y-52738875D01*
X58161222Y-52731275D01*
X58131770Y-52720737D01*
X58103492Y-52707362D01*
X58076662Y-52691281D01*
X58051537Y-52672647D01*
X58028360Y-52651640D01*
X58007353Y-52628463D01*
X57988719Y-52603338D01*
X57972638Y-52576508D01*
X57959263Y-52548230D01*
X57948725Y-52518778D01*
X57941125Y-52488435D01*
X57936535Y-52457493D01*
X57935000Y-52426250D01*
X57935000Y-51713750D01*
X57936535Y-51682507D01*
X57941125Y-51651565D01*
X57948725Y-51621222D01*
X57959263Y-51591770D01*
X57972638Y-51563492D01*
X57988719Y-51536662D01*
X58007353Y-51511537D01*
X58028360Y-51488360D01*
X58051537Y-51467353D01*
X58076662Y-51448719D01*
X58103492Y-51432638D01*
X58131770Y-51419263D01*
X58161222Y-51408725D01*
X58191565Y-51401125D01*
X58222507Y-51396535D01*
X58253750Y-51395000D01*
X58891250Y-51395000D01*
X58922493Y-51396535D01*
G37*
G36*
X57347493Y-51396535D02*
G01*
X57378435Y-51401125D01*
X57408778Y-51408725D01*
X57438230Y-51419263D01*
X57466508Y-51432638D01*
X57493338Y-51448719D01*
X57518463Y-51467353D01*
X57541640Y-51488360D01*
X57562647Y-51511537D01*
X57581281Y-51536662D01*
X57597362Y-51563492D01*
X57610737Y-51591770D01*
X57621275Y-51621222D01*
X57628875Y-51651565D01*
X57633465Y-51682507D01*
X57635000Y-51713750D01*
X57635000Y-52426250D01*
X57633465Y-52457493D01*
X57628875Y-52488435D01*
X57621275Y-52518778D01*
X57610737Y-52548230D01*
X57597362Y-52576508D01*
X57581281Y-52603338D01*
X57562647Y-52628463D01*
X57541640Y-52651640D01*
X57518463Y-52672647D01*
X57493338Y-52691281D01*
X57466508Y-52707362D01*
X57438230Y-52720737D01*
X57408778Y-52731275D01*
X57378435Y-52738875D01*
X57347493Y-52743465D01*
X57316250Y-52745000D01*
X56678750Y-52745000D01*
X56647507Y-52743465D01*
X56616565Y-52738875D01*
X56586222Y-52731275D01*
X56556770Y-52720737D01*
X56528492Y-52707362D01*
X56501662Y-52691281D01*
X56476537Y-52672647D01*
X56453360Y-52651640D01*
X56432353Y-52628463D01*
X56413719Y-52603338D01*
X56397638Y-52576508D01*
X56384263Y-52548230D01*
X56373725Y-52518778D01*
X56366125Y-52488435D01*
X56361535Y-52457493D01*
X56360000Y-52426250D01*
X56360000Y-51713750D01*
X56361535Y-51682507D01*
X56366125Y-51651565D01*
X56373725Y-51621222D01*
X56384263Y-51591770D01*
X56397638Y-51563492D01*
X56413719Y-51536662D01*
X56432353Y-51511537D01*
X56453360Y-51488360D01*
X56476537Y-51467353D01*
X56501662Y-51448719D01*
X56528492Y-51432638D01*
X56556770Y-51419263D01*
X56586222Y-51408725D01*
X56616565Y-51401125D01*
X56647507Y-51396535D01*
X56678750Y-51395000D01*
X57316250Y-51395000D01*
X57347493Y-51396535D01*
G37*
D12*
X49530000Y-62865000D03*
D13*
X49530000Y-65405000D03*
X49530000Y-67945000D03*
X49530000Y-70485000D03*
X73025000Y-48260000D03*
D12*
X75565000Y-48260000D03*
D13*
X53340000Y-58420000D03*
X53340000Y-60960000D03*
X53340000Y-63500000D03*
X53340000Y-66040000D03*
X53340000Y-68580000D03*
X53340000Y-71120000D03*
X53340000Y-73660000D03*
D12*
X53340000Y-76200000D03*
D14*
X88900000Y-67310000D03*
D13*
X88900000Y-64770000D03*
D12*
X85090000Y-58420000D03*
D13*
X85090000Y-60960000D03*
X85090000Y-63500000D03*
X85090000Y-66040000D03*
X85090000Y-68580000D03*
X85090000Y-71120000D03*
X85090000Y-73660000D03*
X85090000Y-76200000D03*
D12*
X64135000Y-83820000D03*
D13*
X66675000Y-83820000D03*
X69215000Y-83820000D03*
X71755000Y-83820000D03*
X74295000Y-83820000D03*
D15*
X75930000Y-53660000D03*
X75930000Y-55560000D03*
X73930000Y-54610000D03*
D11*
G36*
X74682493Y-58901535D02*
G01*
X74713435Y-58906125D01*
X74743778Y-58913725D01*
X74773230Y-58924263D01*
X74801508Y-58937638D01*
X74828338Y-58953719D01*
X74853463Y-58972353D01*
X74876640Y-58993360D01*
X74897647Y-59016537D01*
X74916281Y-59041662D01*
X74932362Y-59068492D01*
X74945737Y-59096770D01*
X74956275Y-59126222D01*
X74963875Y-59156565D01*
X74968465Y-59187507D01*
X74970000Y-59218750D01*
X74970000Y-59856250D01*
X74968465Y-59887493D01*
X74963875Y-59918435D01*
X74956275Y-59948778D01*
X74945737Y-59978230D01*
X74932362Y-60006508D01*
X74916281Y-60033338D01*
X74897647Y-60058463D01*
X74876640Y-60081640D01*
X74853463Y-60102647D01*
X74828338Y-60121281D01*
X74801508Y-60137362D01*
X74773230Y-60150737D01*
X74743778Y-60161275D01*
X74713435Y-60168875D01*
X74682493Y-60173465D01*
X74651250Y-60175000D01*
X73938750Y-60175000D01*
X73907507Y-60173465D01*
X73876565Y-60168875D01*
X73846222Y-60161275D01*
X73816770Y-60150737D01*
X73788492Y-60137362D01*
X73761662Y-60121281D01*
X73736537Y-60102647D01*
X73713360Y-60081640D01*
X73692353Y-60058463D01*
X73673719Y-60033338D01*
X73657638Y-60006508D01*
X73644263Y-59978230D01*
X73633725Y-59948778D01*
X73626125Y-59918435D01*
X73621535Y-59887493D01*
X73620000Y-59856250D01*
X73620000Y-59218750D01*
X73621535Y-59187507D01*
X73626125Y-59156565D01*
X73633725Y-59126222D01*
X73644263Y-59096770D01*
X73657638Y-59068492D01*
X73673719Y-59041662D01*
X73692353Y-59016537D01*
X73713360Y-58993360D01*
X73736537Y-58972353D01*
X73761662Y-58953719D01*
X73788492Y-58937638D01*
X73816770Y-58924263D01*
X73846222Y-58913725D01*
X73876565Y-58906125D01*
X73907507Y-58901535D01*
X73938750Y-58900000D01*
X74651250Y-58900000D01*
X74682493Y-58901535D01*
G37*
G36*
X74682493Y-60476535D02*
G01*
X74713435Y-60481125D01*
X74743778Y-60488725D01*
X74773230Y-60499263D01*
X74801508Y-60512638D01*
X74828338Y-60528719D01*
X74853463Y-60547353D01*
X74876640Y-60568360D01*
X74897647Y-60591537D01*
X74916281Y-60616662D01*
X74932362Y-60643492D01*
X74945737Y-60671770D01*
X74956275Y-60701222D01*
X74963875Y-60731565D01*
X74968465Y-60762507D01*
X74970000Y-60793750D01*
X74970000Y-61431250D01*
X74968465Y-61462493D01*
X74963875Y-61493435D01*
X74956275Y-61523778D01*
X74945737Y-61553230D01*
X74932362Y-61581508D01*
X74916281Y-61608338D01*
X74897647Y-61633463D01*
X74876640Y-61656640D01*
X74853463Y-61677647D01*
X74828338Y-61696281D01*
X74801508Y-61712362D01*
X74773230Y-61725737D01*
X74743778Y-61736275D01*
X74713435Y-61743875D01*
X74682493Y-61748465D01*
X74651250Y-61750000D01*
X73938750Y-61750000D01*
X73907507Y-61748465D01*
X73876565Y-61743875D01*
X73846222Y-61736275D01*
X73816770Y-61725737D01*
X73788492Y-61712362D01*
X73761662Y-61696281D01*
X73736537Y-61677647D01*
X73713360Y-61656640D01*
X73692353Y-61633463D01*
X73673719Y-61608338D01*
X73657638Y-61581508D01*
X73644263Y-61553230D01*
X73633725Y-61523778D01*
X73626125Y-61493435D01*
X73621535Y-61462493D01*
X73620000Y-61431250D01*
X73620000Y-60793750D01*
X73621535Y-60762507D01*
X73626125Y-60731565D01*
X73633725Y-60701222D01*
X73644263Y-60671770D01*
X73657638Y-60643492D01*
X73673719Y-60616662D01*
X73692353Y-60591537D01*
X73713360Y-60568360D01*
X73736537Y-60547353D01*
X73761662Y-60528719D01*
X73788492Y-60512638D01*
X73816770Y-60499263D01*
X73846222Y-60488725D01*
X73876565Y-60481125D01*
X73907507Y-60476535D01*
X73938750Y-60475000D01*
X74651250Y-60475000D01*
X74682493Y-60476535D01*
G37*
G36*
X76587493Y-60476535D02*
G01*
X76618435Y-60481125D01*
X76648778Y-60488725D01*
X76678230Y-60499263D01*
X76706508Y-60512638D01*
X76733338Y-60528719D01*
X76758463Y-60547353D01*
X76781640Y-60568360D01*
X76802647Y-60591537D01*
X76821281Y-60616662D01*
X76837362Y-60643492D01*
X76850737Y-60671770D01*
X76861275Y-60701222D01*
X76868875Y-60731565D01*
X76873465Y-60762507D01*
X76875000Y-60793750D01*
X76875000Y-61431250D01*
X76873465Y-61462493D01*
X76868875Y-61493435D01*
X76861275Y-61523778D01*
X76850737Y-61553230D01*
X76837362Y-61581508D01*
X76821281Y-61608338D01*
X76802647Y-61633463D01*
X76781640Y-61656640D01*
X76758463Y-61677647D01*
X76733338Y-61696281D01*
X76706508Y-61712362D01*
X76678230Y-61725737D01*
X76648778Y-61736275D01*
X76618435Y-61743875D01*
X76587493Y-61748465D01*
X76556250Y-61750000D01*
X75843750Y-61750000D01*
X75812507Y-61748465D01*
X75781565Y-61743875D01*
X75751222Y-61736275D01*
X75721770Y-61725737D01*
X75693492Y-61712362D01*
X75666662Y-61696281D01*
X75641537Y-61677647D01*
X75618360Y-61656640D01*
X75597353Y-61633463D01*
X75578719Y-61608338D01*
X75562638Y-61581508D01*
X75549263Y-61553230D01*
X75538725Y-61523778D01*
X75531125Y-61493435D01*
X75526535Y-61462493D01*
X75525000Y-61431250D01*
X75525000Y-60793750D01*
X75526535Y-60762507D01*
X75531125Y-60731565D01*
X75538725Y-60701222D01*
X75549263Y-60671770D01*
X75562638Y-60643492D01*
X75578719Y-60616662D01*
X75597353Y-60591537D01*
X75618360Y-60568360D01*
X75641537Y-60547353D01*
X75666662Y-60528719D01*
X75693492Y-60512638D01*
X75721770Y-60499263D01*
X75751222Y-60488725D01*
X75781565Y-60481125D01*
X75812507Y-60476535D01*
X75843750Y-60475000D01*
X76556250Y-60475000D01*
X76587493Y-60476535D01*
G37*
G36*
X76587493Y-58901535D02*
G01*
X76618435Y-58906125D01*
X76648778Y-58913725D01*
X76678230Y-58924263D01*
X76706508Y-58937638D01*
X76733338Y-58953719D01*
X76758463Y-58972353D01*
X76781640Y-58993360D01*
X76802647Y-59016537D01*
X76821281Y-59041662D01*
X76837362Y-59068492D01*
X76850737Y-59096770D01*
X76861275Y-59126222D01*
X76868875Y-59156565D01*
X76873465Y-59187507D01*
X76875000Y-59218750D01*
X76875000Y-59856250D01*
X76873465Y-59887493D01*
X76868875Y-59918435D01*
X76861275Y-59948778D01*
X76850737Y-59978230D01*
X76837362Y-60006508D01*
X76821281Y-60033338D01*
X76802647Y-60058463D01*
X76781640Y-60081640D01*
X76758463Y-60102647D01*
X76733338Y-60121281D01*
X76706508Y-60137362D01*
X76678230Y-60150737D01*
X76648778Y-60161275D01*
X76618435Y-60168875D01*
X76587493Y-60173465D01*
X76556250Y-60175000D01*
X75843750Y-60175000D01*
X75812507Y-60173465D01*
X75781565Y-60168875D01*
X75751222Y-60161275D01*
X75721770Y-60150737D01*
X75693492Y-60137362D01*
X75666662Y-60121281D01*
X75641537Y-60102647D01*
X75618360Y-60081640D01*
X75597353Y-60058463D01*
X75578719Y-60033338D01*
X75562638Y-60006508D01*
X75549263Y-59978230D01*
X75538725Y-59948778D01*
X75531125Y-59918435D01*
X75526535Y-59887493D01*
X75525000Y-59856250D01*
X75525000Y-59218750D01*
X75526535Y-59187507D01*
X75531125Y-59156565D01*
X75538725Y-59126222D01*
X75549263Y-59096770D01*
X75562638Y-59068492D01*
X75578719Y-59041662D01*
X75597353Y-59016537D01*
X75618360Y-58993360D01*
X75641537Y-58972353D01*
X75666662Y-58953719D01*
X75693492Y-58937638D01*
X75721770Y-58924263D01*
X75751222Y-58913725D01*
X75781565Y-58906125D01*
X75812507Y-58901535D01*
X75843750Y-58900000D01*
X76556250Y-58900000D01*
X76587493Y-58901535D01*
G37*
G36*
X58922493Y-48856535D02*
G01*
X58953435Y-48861125D01*
X58983778Y-48868725D01*
X59013230Y-48879263D01*
X59041508Y-48892638D01*
X59068338Y-48908719D01*
X59093463Y-48927353D01*
X59116640Y-48948360D01*
X59137647Y-48971537D01*
X59156281Y-48996662D01*
X59172362Y-49023492D01*
X59185737Y-49051770D01*
X59196275Y-49081222D01*
X59203875Y-49111565D01*
X59208465Y-49142507D01*
X59210000Y-49173750D01*
X59210000Y-49886250D01*
X59208465Y-49917493D01*
X59203875Y-49948435D01*
X59196275Y-49978778D01*
X59185737Y-50008230D01*
X59172362Y-50036508D01*
X59156281Y-50063338D01*
X59137647Y-50088463D01*
X59116640Y-50111640D01*
X59093463Y-50132647D01*
X59068338Y-50151281D01*
X59041508Y-50167362D01*
X59013230Y-50180737D01*
X58983778Y-50191275D01*
X58953435Y-50198875D01*
X58922493Y-50203465D01*
X58891250Y-50205000D01*
X58253750Y-50205000D01*
X58222507Y-50203465D01*
X58191565Y-50198875D01*
X58161222Y-50191275D01*
X58131770Y-50180737D01*
X58103492Y-50167362D01*
X58076662Y-50151281D01*
X58051537Y-50132647D01*
X58028360Y-50111640D01*
X58007353Y-50088463D01*
X57988719Y-50063338D01*
X57972638Y-50036508D01*
X57959263Y-50008230D01*
X57948725Y-49978778D01*
X57941125Y-49948435D01*
X57936535Y-49917493D01*
X57935000Y-49886250D01*
X57935000Y-49173750D01*
X57936535Y-49142507D01*
X57941125Y-49111565D01*
X57948725Y-49081222D01*
X57959263Y-49051770D01*
X57972638Y-49023492D01*
X57988719Y-48996662D01*
X58007353Y-48971537D01*
X58028360Y-48948360D01*
X58051537Y-48927353D01*
X58076662Y-48908719D01*
X58103492Y-48892638D01*
X58131770Y-48879263D01*
X58161222Y-48868725D01*
X58191565Y-48861125D01*
X58222507Y-48856535D01*
X58253750Y-48855000D01*
X58891250Y-48855000D01*
X58922493Y-48856535D01*
G37*
G36*
X57347493Y-48856535D02*
G01*
X57378435Y-48861125D01*
X57408778Y-48868725D01*
X57438230Y-48879263D01*
X57466508Y-48892638D01*
X57493338Y-48908719D01*
X57518463Y-48927353D01*
X57541640Y-48948360D01*
X57562647Y-48971537D01*
X57581281Y-48996662D01*
X57597362Y-49023492D01*
X57610737Y-49051770D01*
X57621275Y-49081222D01*
X57628875Y-49111565D01*
X57633465Y-49142507D01*
X57635000Y-49173750D01*
X57635000Y-49886250D01*
X57633465Y-49917493D01*
X57628875Y-49948435D01*
X57621275Y-49978778D01*
X57610737Y-50008230D01*
X57597362Y-50036508D01*
X57581281Y-50063338D01*
X57562647Y-50088463D01*
X57541640Y-50111640D01*
X57518463Y-50132647D01*
X57493338Y-50151281D01*
X57466508Y-50167362D01*
X57438230Y-50180737D01*
X57408778Y-50191275D01*
X57378435Y-50198875D01*
X57347493Y-50203465D01*
X57316250Y-50205000D01*
X56678750Y-50205000D01*
X56647507Y-50203465D01*
X56616565Y-50198875D01*
X56586222Y-50191275D01*
X56556770Y-50180737D01*
X56528492Y-50167362D01*
X56501662Y-50151281D01*
X56476537Y-50132647D01*
X56453360Y-50111640D01*
X56432353Y-50088463D01*
X56413719Y-50063338D01*
X56397638Y-50036508D01*
X56384263Y-50008230D01*
X56373725Y-49978778D01*
X56366125Y-49948435D01*
X56361535Y-49917493D01*
X56360000Y-49886250D01*
X56360000Y-49173750D01*
X56361535Y-49142507D01*
X56366125Y-49111565D01*
X56373725Y-49081222D01*
X56384263Y-49051770D01*
X56397638Y-49023492D01*
X56413719Y-48996662D01*
X56432353Y-48971537D01*
X56453360Y-48948360D01*
X56476537Y-48927353D01*
X56501662Y-48908719D01*
X56528492Y-48892638D01*
X56556770Y-48879263D01*
X56586222Y-48868725D01*
X56616565Y-48861125D01*
X56647507Y-48856535D01*
X56678750Y-48855000D01*
X57316250Y-48855000D01*
X57347493Y-48856535D01*
G37*
G36*
X77972493Y-77431535D02*
G01*
X78003435Y-77436125D01*
X78033778Y-77443725D01*
X78063230Y-77454263D01*
X78091508Y-77467638D01*
X78118338Y-77483719D01*
X78143463Y-77502353D01*
X78166640Y-77523360D01*
X78187647Y-77546537D01*
X78206281Y-77571662D01*
X78222362Y-77598492D01*
X78235737Y-77626770D01*
X78246275Y-77656222D01*
X78253875Y-77686565D01*
X78258465Y-77717507D01*
X78260000Y-77748750D01*
X78260000Y-78461250D01*
X78258465Y-78492493D01*
X78253875Y-78523435D01*
X78246275Y-78553778D01*
X78235737Y-78583230D01*
X78222362Y-78611508D01*
X78206281Y-78638338D01*
X78187647Y-78663463D01*
X78166640Y-78686640D01*
X78143463Y-78707647D01*
X78118338Y-78726281D01*
X78091508Y-78742362D01*
X78063230Y-78755737D01*
X78033778Y-78766275D01*
X78003435Y-78773875D01*
X77972493Y-78778465D01*
X77941250Y-78780000D01*
X77303750Y-78780000D01*
X77272507Y-78778465D01*
X77241565Y-78773875D01*
X77211222Y-78766275D01*
X77181770Y-78755737D01*
X77153492Y-78742362D01*
X77126662Y-78726281D01*
X77101537Y-78707647D01*
X77078360Y-78686640D01*
X77057353Y-78663463D01*
X77038719Y-78638338D01*
X77022638Y-78611508D01*
X77009263Y-78583230D01*
X76998725Y-78553778D01*
X76991125Y-78523435D01*
X76986535Y-78492493D01*
X76985000Y-78461250D01*
X76985000Y-77748750D01*
X76986535Y-77717507D01*
X76991125Y-77686565D01*
X76998725Y-77656222D01*
X77009263Y-77626770D01*
X77022638Y-77598492D01*
X77038719Y-77571662D01*
X77057353Y-77546537D01*
X77078360Y-77523360D01*
X77101537Y-77502353D01*
X77126662Y-77483719D01*
X77153492Y-77467638D01*
X77181770Y-77454263D01*
X77211222Y-77443725D01*
X77241565Y-77436125D01*
X77272507Y-77431535D01*
X77303750Y-77430000D01*
X77941250Y-77430000D01*
X77972493Y-77431535D01*
G37*
G36*
X76397493Y-77431535D02*
G01*
X76428435Y-77436125D01*
X76458778Y-77443725D01*
X76488230Y-77454263D01*
X76516508Y-77467638D01*
X76543338Y-77483719D01*
X76568463Y-77502353D01*
X76591640Y-77523360D01*
X76612647Y-77546537D01*
X76631281Y-77571662D01*
X76647362Y-77598492D01*
X76660737Y-77626770D01*
X76671275Y-77656222D01*
X76678875Y-77686565D01*
X76683465Y-77717507D01*
X76685000Y-77748750D01*
X76685000Y-78461250D01*
X76683465Y-78492493D01*
X76678875Y-78523435D01*
X76671275Y-78553778D01*
X76660737Y-78583230D01*
X76647362Y-78611508D01*
X76631281Y-78638338D01*
X76612647Y-78663463D01*
X76591640Y-78686640D01*
X76568463Y-78707647D01*
X76543338Y-78726281D01*
X76516508Y-78742362D01*
X76488230Y-78755737D01*
X76458778Y-78766275D01*
X76428435Y-78773875D01*
X76397493Y-78778465D01*
X76366250Y-78780000D01*
X75728750Y-78780000D01*
X75697507Y-78778465D01*
X75666565Y-78773875D01*
X75636222Y-78766275D01*
X75606770Y-78755737D01*
X75578492Y-78742362D01*
X75551662Y-78726281D01*
X75526537Y-78707647D01*
X75503360Y-78686640D01*
X75482353Y-78663463D01*
X75463719Y-78638338D01*
X75447638Y-78611508D01*
X75434263Y-78583230D01*
X75423725Y-78553778D01*
X75416125Y-78523435D01*
X75411535Y-78492493D01*
X75410000Y-78461250D01*
X75410000Y-77748750D01*
X75411535Y-77717507D01*
X75416125Y-77686565D01*
X75423725Y-77656222D01*
X75434263Y-77626770D01*
X75447638Y-77598492D01*
X75463719Y-77571662D01*
X75482353Y-77546537D01*
X75503360Y-77523360D01*
X75526537Y-77502353D01*
X75551662Y-77483719D01*
X75578492Y-77467638D01*
X75606770Y-77454263D01*
X75636222Y-77443725D01*
X75666565Y-77436125D01*
X75697507Y-77431535D01*
X75728750Y-77430000D01*
X76366250Y-77430000D01*
X76397493Y-77431535D01*
G37*
G36*
X76397493Y-79336535D02*
G01*
X76428435Y-79341125D01*
X76458778Y-79348725D01*
X76488230Y-79359263D01*
X76516508Y-79372638D01*
X76543338Y-79388719D01*
X76568463Y-79407353D01*
X76591640Y-79428360D01*
X76612647Y-79451537D01*
X76631281Y-79476662D01*
X76647362Y-79503492D01*
X76660737Y-79531770D01*
X76671275Y-79561222D01*
X76678875Y-79591565D01*
X76683465Y-79622507D01*
X76685000Y-79653750D01*
X76685000Y-80366250D01*
X76683465Y-80397493D01*
X76678875Y-80428435D01*
X76671275Y-80458778D01*
X76660737Y-80488230D01*
X76647362Y-80516508D01*
X76631281Y-80543338D01*
X76612647Y-80568463D01*
X76591640Y-80591640D01*
X76568463Y-80612647D01*
X76543338Y-80631281D01*
X76516508Y-80647362D01*
X76488230Y-80660737D01*
X76458778Y-80671275D01*
X76428435Y-80678875D01*
X76397493Y-80683465D01*
X76366250Y-80685000D01*
X75728750Y-80685000D01*
X75697507Y-80683465D01*
X75666565Y-80678875D01*
X75636222Y-80671275D01*
X75606770Y-80660737D01*
X75578492Y-80647362D01*
X75551662Y-80631281D01*
X75526537Y-80612647D01*
X75503360Y-80591640D01*
X75482353Y-80568463D01*
X75463719Y-80543338D01*
X75447638Y-80516508D01*
X75434263Y-80488230D01*
X75423725Y-80458778D01*
X75416125Y-80428435D01*
X75411535Y-80397493D01*
X75410000Y-80366250D01*
X75410000Y-79653750D01*
X75411535Y-79622507D01*
X75416125Y-79591565D01*
X75423725Y-79561222D01*
X75434263Y-79531770D01*
X75447638Y-79503492D01*
X75463719Y-79476662D01*
X75482353Y-79451537D01*
X75503360Y-79428360D01*
X75526537Y-79407353D01*
X75551662Y-79388719D01*
X75578492Y-79372638D01*
X75606770Y-79359263D01*
X75636222Y-79348725D01*
X75666565Y-79341125D01*
X75697507Y-79336535D01*
X75728750Y-79335000D01*
X76366250Y-79335000D01*
X76397493Y-79336535D01*
G37*
G36*
X77972493Y-79336535D02*
G01*
X78003435Y-79341125D01*
X78033778Y-79348725D01*
X78063230Y-79359263D01*
X78091508Y-79372638D01*
X78118338Y-79388719D01*
X78143463Y-79407353D01*
X78166640Y-79428360D01*
X78187647Y-79451537D01*
X78206281Y-79476662D01*
X78222362Y-79503492D01*
X78235737Y-79531770D01*
X78246275Y-79561222D01*
X78253875Y-79591565D01*
X78258465Y-79622507D01*
X78260000Y-79653750D01*
X78260000Y-80366250D01*
X78258465Y-80397493D01*
X78253875Y-80428435D01*
X78246275Y-80458778D01*
X78235737Y-80488230D01*
X78222362Y-80516508D01*
X78206281Y-80543338D01*
X78187647Y-80568463D01*
X78166640Y-80591640D01*
X78143463Y-80612647D01*
X78118338Y-80631281D01*
X78091508Y-80647362D01*
X78063230Y-80660737D01*
X78033778Y-80671275D01*
X78003435Y-80678875D01*
X77972493Y-80683465D01*
X77941250Y-80685000D01*
X77303750Y-80685000D01*
X77272507Y-80683465D01*
X77241565Y-80678875D01*
X77211222Y-80671275D01*
X77181770Y-80660737D01*
X77153492Y-80647362D01*
X77126662Y-80631281D01*
X77101537Y-80612647D01*
X77078360Y-80591640D01*
X77057353Y-80568463D01*
X77038719Y-80543338D01*
X77022638Y-80516508D01*
X77009263Y-80488230D01*
X76998725Y-80458778D01*
X76991125Y-80428435D01*
X76986535Y-80397493D01*
X76985000Y-80366250D01*
X76985000Y-79653750D01*
X76986535Y-79622507D01*
X76991125Y-79591565D01*
X76998725Y-79561222D01*
X77009263Y-79531770D01*
X77022638Y-79503492D01*
X77038719Y-79476662D01*
X77057353Y-79451537D01*
X77078360Y-79428360D01*
X77101537Y-79407353D01*
X77126662Y-79388719D01*
X77153492Y-79372638D01*
X77181770Y-79359263D01*
X77211222Y-79348725D01*
X77241565Y-79341125D01*
X77272507Y-79336535D01*
X77303750Y-79335000D01*
X77941250Y-79335000D01*
X77972493Y-79336535D01*
G37*
D16*
X80645000Y-58420000D03*
X57785000Y-58420000D03*
X80645000Y-60960000D03*
X57785000Y-60960000D03*
X80645000Y-63500000D03*
X57785000Y-63500000D03*
X80645000Y-66040000D03*
X57785000Y-66040000D03*
X80645000Y-68580000D03*
X57785000Y-68580000D03*
X80645000Y-71120000D03*
X57785000Y-71120000D03*
X80645000Y-73660000D03*
X57785000Y-73660000D03*
X80645000Y-76200000D03*
X57785000Y-76200000D03*
D11*
G36*
X72004504Y-65541204D02*
G01*
X72028773Y-65544804D01*
X72052571Y-65550765D01*
X72075671Y-65559030D01*
X72097849Y-65569520D01*
X72118893Y-65582133D01*
X72138598Y-65596747D01*
X72156777Y-65613223D01*
X72173253Y-65631402D01*
X72187867Y-65651107D01*
X72200480Y-65672151D01*
X72210970Y-65694329D01*
X72219235Y-65717429D01*
X72225196Y-65741227D01*
X72228796Y-65765496D01*
X72230000Y-65790000D01*
X72230000Y-66290000D01*
X72228796Y-66314504D01*
X72225196Y-66338773D01*
X72219235Y-66362571D01*
X72210970Y-66385671D01*
X72200480Y-66407849D01*
X72187867Y-66428893D01*
X72173253Y-66448598D01*
X72156777Y-66466777D01*
X72138598Y-66483253D01*
X72118893Y-66497867D01*
X72097849Y-66510480D01*
X72075671Y-66520970D01*
X72052571Y-66529235D01*
X72028773Y-66535196D01*
X72004504Y-66538796D01*
X71980000Y-66540000D01*
X70130000Y-66540000D01*
X70105496Y-66538796D01*
X70081227Y-66535196D01*
X70057429Y-66529235D01*
X70034329Y-66520970D01*
X70012151Y-66510480D01*
X69991107Y-66497867D01*
X69971402Y-66483253D01*
X69953223Y-66466777D01*
X69936747Y-66448598D01*
X69922133Y-66428893D01*
X69909520Y-66407849D01*
X69899030Y-66385671D01*
X69890765Y-66362571D01*
X69884804Y-66338773D01*
X69881204Y-66314504D01*
X69880000Y-66290000D01*
X69880000Y-65790000D01*
X69881204Y-65765496D01*
X69884804Y-65741227D01*
X69890765Y-65717429D01*
X69899030Y-65694329D01*
X69909520Y-65672151D01*
X69922133Y-65651107D01*
X69936747Y-65631402D01*
X69953223Y-65613223D01*
X69971402Y-65596747D01*
X69991107Y-65582133D01*
X70012151Y-65569520D01*
X70034329Y-65559030D01*
X70057429Y-65550765D01*
X70081227Y-65544804D01*
X70105496Y-65541204D01*
X70130000Y-65540000D01*
X71980000Y-65540000D01*
X72004504Y-65541204D01*
G37*
G36*
X72004504Y-66811204D02*
G01*
X72028773Y-66814804D01*
X72052571Y-66820765D01*
X72075671Y-66829030D01*
X72097849Y-66839520D01*
X72118893Y-66852133D01*
X72138598Y-66866747D01*
X72156777Y-66883223D01*
X72173253Y-66901402D01*
X72187867Y-66921107D01*
X72200480Y-66942151D01*
X72210970Y-66964329D01*
X72219235Y-66987429D01*
X72225196Y-67011227D01*
X72228796Y-67035496D01*
X72230000Y-67060000D01*
X72230000Y-67560000D01*
X72228796Y-67584504D01*
X72225196Y-67608773D01*
X72219235Y-67632571D01*
X72210970Y-67655671D01*
X72200480Y-67677849D01*
X72187867Y-67698893D01*
X72173253Y-67718598D01*
X72156777Y-67736777D01*
X72138598Y-67753253D01*
X72118893Y-67767867D01*
X72097849Y-67780480D01*
X72075671Y-67790970D01*
X72052571Y-67799235D01*
X72028773Y-67805196D01*
X72004504Y-67808796D01*
X71980000Y-67810000D01*
X70130000Y-67810000D01*
X70105496Y-67808796D01*
X70081227Y-67805196D01*
X70057429Y-67799235D01*
X70034329Y-67790970D01*
X70012151Y-67780480D01*
X69991107Y-67767867D01*
X69971402Y-67753253D01*
X69953223Y-67736777D01*
X69936747Y-67718598D01*
X69922133Y-67698893D01*
X69909520Y-67677849D01*
X69899030Y-67655671D01*
X69890765Y-67632571D01*
X69884804Y-67608773D01*
X69881204Y-67584504D01*
X69880000Y-67560000D01*
X69880000Y-67060000D01*
X69881204Y-67035496D01*
X69884804Y-67011227D01*
X69890765Y-66987429D01*
X69899030Y-66964329D01*
X69909520Y-66942151D01*
X69922133Y-66921107D01*
X69936747Y-66901402D01*
X69953223Y-66883223D01*
X69971402Y-66866747D01*
X69991107Y-66852133D01*
X70012151Y-66839520D01*
X70034329Y-66829030D01*
X70057429Y-66820765D01*
X70081227Y-66814804D01*
X70105496Y-66811204D01*
X70130000Y-66810000D01*
X71980000Y-66810000D01*
X72004504Y-66811204D01*
G37*
G36*
X72004504Y-68081204D02*
G01*
X72028773Y-68084804D01*
X72052571Y-68090765D01*
X72075671Y-68099030D01*
X72097849Y-68109520D01*
X72118893Y-68122133D01*
X72138598Y-68136747D01*
X72156777Y-68153223D01*
X72173253Y-68171402D01*
X72187867Y-68191107D01*
X72200480Y-68212151D01*
X72210970Y-68234329D01*
X72219235Y-68257429D01*
X72225196Y-68281227D01*
X72228796Y-68305496D01*
X72230000Y-68330000D01*
X72230000Y-68830000D01*
X72228796Y-68854504D01*
X72225196Y-68878773D01*
X72219235Y-68902571D01*
X72210970Y-68925671D01*
X72200480Y-68947849D01*
X72187867Y-68968893D01*
X72173253Y-68988598D01*
X72156777Y-69006777D01*
X72138598Y-69023253D01*
X72118893Y-69037867D01*
X72097849Y-69050480D01*
X72075671Y-69060970D01*
X72052571Y-69069235D01*
X72028773Y-69075196D01*
X72004504Y-69078796D01*
X71980000Y-69080000D01*
X70130000Y-69080000D01*
X70105496Y-69078796D01*
X70081227Y-69075196D01*
X70057429Y-69069235D01*
X70034329Y-69060970D01*
X70012151Y-69050480D01*
X69991107Y-69037867D01*
X69971402Y-69023253D01*
X69953223Y-69006777D01*
X69936747Y-68988598D01*
X69922133Y-68968893D01*
X69909520Y-68947849D01*
X69899030Y-68925671D01*
X69890765Y-68902571D01*
X69884804Y-68878773D01*
X69881204Y-68854504D01*
X69880000Y-68830000D01*
X69880000Y-68330000D01*
X69881204Y-68305496D01*
X69884804Y-68281227D01*
X69890765Y-68257429D01*
X69899030Y-68234329D01*
X69909520Y-68212151D01*
X69922133Y-68191107D01*
X69936747Y-68171402D01*
X69953223Y-68153223D01*
X69971402Y-68136747D01*
X69991107Y-68122133D01*
X70012151Y-68109520D01*
X70034329Y-68099030D01*
X70057429Y-68090765D01*
X70081227Y-68084804D01*
X70105496Y-68081204D01*
X70130000Y-68080000D01*
X71980000Y-68080000D01*
X72004504Y-68081204D01*
G37*
G36*
X72004504Y-69351204D02*
G01*
X72028773Y-69354804D01*
X72052571Y-69360765D01*
X72075671Y-69369030D01*
X72097849Y-69379520D01*
X72118893Y-69392133D01*
X72138598Y-69406747D01*
X72156777Y-69423223D01*
X72173253Y-69441402D01*
X72187867Y-69461107D01*
X72200480Y-69482151D01*
X72210970Y-69504329D01*
X72219235Y-69527429D01*
X72225196Y-69551227D01*
X72228796Y-69575496D01*
X72230000Y-69600000D01*
X72230000Y-70100000D01*
X72228796Y-70124504D01*
X72225196Y-70148773D01*
X72219235Y-70172571D01*
X72210970Y-70195671D01*
X72200480Y-70217849D01*
X72187867Y-70238893D01*
X72173253Y-70258598D01*
X72156777Y-70276777D01*
X72138598Y-70293253D01*
X72118893Y-70307867D01*
X72097849Y-70320480D01*
X72075671Y-70330970D01*
X72052571Y-70339235D01*
X72028773Y-70345196D01*
X72004504Y-70348796D01*
X71980000Y-70350000D01*
X70130000Y-70350000D01*
X70105496Y-70348796D01*
X70081227Y-70345196D01*
X70057429Y-70339235D01*
X70034329Y-70330970D01*
X70012151Y-70320480D01*
X69991107Y-70307867D01*
X69971402Y-70293253D01*
X69953223Y-70276777D01*
X69936747Y-70258598D01*
X69922133Y-70238893D01*
X69909520Y-70217849D01*
X69899030Y-70195671D01*
X69890765Y-70172571D01*
X69884804Y-70148773D01*
X69881204Y-70124504D01*
X69880000Y-70100000D01*
X69880000Y-69600000D01*
X69881204Y-69575496D01*
X69884804Y-69551227D01*
X69890765Y-69527429D01*
X69899030Y-69504329D01*
X69909520Y-69482151D01*
X69922133Y-69461107D01*
X69936747Y-69441402D01*
X69953223Y-69423223D01*
X69971402Y-69406747D01*
X69991107Y-69392133D01*
X70012151Y-69379520D01*
X70034329Y-69369030D01*
X70057429Y-69360765D01*
X70081227Y-69354804D01*
X70105496Y-69351204D01*
X70130000Y-69350000D01*
X71980000Y-69350000D01*
X72004504Y-69351204D01*
G37*
G36*
X72004504Y-70621204D02*
G01*
X72028773Y-70624804D01*
X72052571Y-70630765D01*
X72075671Y-70639030D01*
X72097849Y-70649520D01*
X72118893Y-70662133D01*
X72138598Y-70676747D01*
X72156777Y-70693223D01*
X72173253Y-70711402D01*
X72187867Y-70731107D01*
X72200480Y-70752151D01*
X72210970Y-70774329D01*
X72219235Y-70797429D01*
X72225196Y-70821227D01*
X72228796Y-70845496D01*
X72230000Y-70870000D01*
X72230000Y-71370000D01*
X72228796Y-71394504D01*
X72225196Y-71418773D01*
X72219235Y-71442571D01*
X72210970Y-71465671D01*
X72200480Y-71487849D01*
X72187867Y-71508893D01*
X72173253Y-71528598D01*
X72156777Y-71546777D01*
X72138598Y-71563253D01*
X72118893Y-71577867D01*
X72097849Y-71590480D01*
X72075671Y-71600970D01*
X72052571Y-71609235D01*
X72028773Y-71615196D01*
X72004504Y-71618796D01*
X71980000Y-71620000D01*
X70130000Y-71620000D01*
X70105496Y-71618796D01*
X70081227Y-71615196D01*
X70057429Y-71609235D01*
X70034329Y-71600970D01*
X70012151Y-71590480D01*
X69991107Y-71577867D01*
X69971402Y-71563253D01*
X69953223Y-71546777D01*
X69936747Y-71528598D01*
X69922133Y-71508893D01*
X69909520Y-71487849D01*
X69899030Y-71465671D01*
X69890765Y-71442571D01*
X69884804Y-71418773D01*
X69881204Y-71394504D01*
X69880000Y-71370000D01*
X69880000Y-70870000D01*
X69881204Y-70845496D01*
X69884804Y-70821227D01*
X69890765Y-70797429D01*
X69899030Y-70774329D01*
X69909520Y-70752151D01*
X69922133Y-70731107D01*
X69936747Y-70711402D01*
X69953223Y-70693223D01*
X69971402Y-70676747D01*
X69991107Y-70662133D01*
X70012151Y-70649520D01*
X70034329Y-70639030D01*
X70057429Y-70630765D01*
X70081227Y-70624804D01*
X70105496Y-70621204D01*
X70130000Y-70620000D01*
X71980000Y-70620000D01*
X72004504Y-70621204D01*
G37*
G36*
X72004504Y-71891204D02*
G01*
X72028773Y-71894804D01*
X72052571Y-71900765D01*
X72075671Y-71909030D01*
X72097849Y-71919520D01*
X72118893Y-71932133D01*
X72138598Y-71946747D01*
X72156777Y-71963223D01*
X72173253Y-71981402D01*
X72187867Y-72001107D01*
X72200480Y-72022151D01*
X72210970Y-72044329D01*
X72219235Y-72067429D01*
X72225196Y-72091227D01*
X72228796Y-72115496D01*
X72230000Y-72140000D01*
X72230000Y-72640000D01*
X72228796Y-72664504D01*
X72225196Y-72688773D01*
X72219235Y-72712571D01*
X72210970Y-72735671D01*
X72200480Y-72757849D01*
X72187867Y-72778893D01*
X72173253Y-72798598D01*
X72156777Y-72816777D01*
X72138598Y-72833253D01*
X72118893Y-72847867D01*
X72097849Y-72860480D01*
X72075671Y-72870970D01*
X72052571Y-72879235D01*
X72028773Y-72885196D01*
X72004504Y-72888796D01*
X71980000Y-72890000D01*
X70130000Y-72890000D01*
X70105496Y-72888796D01*
X70081227Y-72885196D01*
X70057429Y-72879235D01*
X70034329Y-72870970D01*
X70012151Y-72860480D01*
X69991107Y-72847867D01*
X69971402Y-72833253D01*
X69953223Y-72816777D01*
X69936747Y-72798598D01*
X69922133Y-72778893D01*
X69909520Y-72757849D01*
X69899030Y-72735671D01*
X69890765Y-72712571D01*
X69884804Y-72688773D01*
X69881204Y-72664504D01*
X69880000Y-72640000D01*
X69880000Y-72140000D01*
X69881204Y-72115496D01*
X69884804Y-72091227D01*
X69890765Y-72067429D01*
X69899030Y-72044329D01*
X69909520Y-72022151D01*
X69922133Y-72001107D01*
X69936747Y-71981402D01*
X69953223Y-71963223D01*
X69971402Y-71946747D01*
X69991107Y-71932133D01*
X70012151Y-71919520D01*
X70034329Y-71909030D01*
X70057429Y-71900765D01*
X70081227Y-71894804D01*
X70105496Y-71891204D01*
X70130000Y-71890000D01*
X71980000Y-71890000D01*
X72004504Y-71891204D01*
G37*
G36*
X72004504Y-73161204D02*
G01*
X72028773Y-73164804D01*
X72052571Y-73170765D01*
X72075671Y-73179030D01*
X72097849Y-73189520D01*
X72118893Y-73202133D01*
X72138598Y-73216747D01*
X72156777Y-73233223D01*
X72173253Y-73251402D01*
X72187867Y-73271107D01*
X72200480Y-73292151D01*
X72210970Y-73314329D01*
X72219235Y-73337429D01*
X72225196Y-73361227D01*
X72228796Y-73385496D01*
X72230000Y-73410000D01*
X72230000Y-73910000D01*
X72228796Y-73934504D01*
X72225196Y-73958773D01*
X72219235Y-73982571D01*
X72210970Y-74005671D01*
X72200480Y-74027849D01*
X72187867Y-74048893D01*
X72173253Y-74068598D01*
X72156777Y-74086777D01*
X72138598Y-74103253D01*
X72118893Y-74117867D01*
X72097849Y-74130480D01*
X72075671Y-74140970D01*
X72052571Y-74149235D01*
X72028773Y-74155196D01*
X72004504Y-74158796D01*
X71980000Y-74160000D01*
X70130000Y-74160000D01*
X70105496Y-74158796D01*
X70081227Y-74155196D01*
X70057429Y-74149235D01*
X70034329Y-74140970D01*
X70012151Y-74130480D01*
X69991107Y-74117867D01*
X69971402Y-74103253D01*
X69953223Y-74086777D01*
X69936747Y-74068598D01*
X69922133Y-74048893D01*
X69909520Y-74027849D01*
X69899030Y-74005671D01*
X69890765Y-73982571D01*
X69884804Y-73958773D01*
X69881204Y-73934504D01*
X69880000Y-73910000D01*
X69880000Y-73410000D01*
X69881204Y-73385496D01*
X69884804Y-73361227D01*
X69890765Y-73337429D01*
X69899030Y-73314329D01*
X69909520Y-73292151D01*
X69922133Y-73271107D01*
X69936747Y-73251402D01*
X69953223Y-73233223D01*
X69971402Y-73216747D01*
X69991107Y-73202133D01*
X70012151Y-73189520D01*
X70034329Y-73179030D01*
X70057429Y-73170765D01*
X70081227Y-73164804D01*
X70105496Y-73161204D01*
X70130000Y-73160000D01*
X71980000Y-73160000D01*
X72004504Y-73161204D01*
G37*
G36*
X67054504Y-73161204D02*
G01*
X67078773Y-73164804D01*
X67102571Y-73170765D01*
X67125671Y-73179030D01*
X67147849Y-73189520D01*
X67168893Y-73202133D01*
X67188598Y-73216747D01*
X67206777Y-73233223D01*
X67223253Y-73251402D01*
X67237867Y-73271107D01*
X67250480Y-73292151D01*
X67260970Y-73314329D01*
X67269235Y-73337429D01*
X67275196Y-73361227D01*
X67278796Y-73385496D01*
X67280000Y-73410000D01*
X67280000Y-73910000D01*
X67278796Y-73934504D01*
X67275196Y-73958773D01*
X67269235Y-73982571D01*
X67260970Y-74005671D01*
X67250480Y-74027849D01*
X67237867Y-74048893D01*
X67223253Y-74068598D01*
X67206777Y-74086777D01*
X67188598Y-74103253D01*
X67168893Y-74117867D01*
X67147849Y-74130480D01*
X67125671Y-74140970D01*
X67102571Y-74149235D01*
X67078773Y-74155196D01*
X67054504Y-74158796D01*
X67030000Y-74160000D01*
X65180000Y-74160000D01*
X65155496Y-74158796D01*
X65131227Y-74155196D01*
X65107429Y-74149235D01*
X65084329Y-74140970D01*
X65062151Y-74130480D01*
X65041107Y-74117867D01*
X65021402Y-74103253D01*
X65003223Y-74086777D01*
X64986747Y-74068598D01*
X64972133Y-74048893D01*
X64959520Y-74027849D01*
X64949030Y-74005671D01*
X64940765Y-73982571D01*
X64934804Y-73958773D01*
X64931204Y-73934504D01*
X64930000Y-73910000D01*
X64930000Y-73410000D01*
X64931204Y-73385496D01*
X64934804Y-73361227D01*
X64940765Y-73337429D01*
X64949030Y-73314329D01*
X64959520Y-73292151D01*
X64972133Y-73271107D01*
X64986747Y-73251402D01*
X65003223Y-73233223D01*
X65021402Y-73216747D01*
X65041107Y-73202133D01*
X65062151Y-73189520D01*
X65084329Y-73179030D01*
X65107429Y-73170765D01*
X65131227Y-73164804D01*
X65155496Y-73161204D01*
X65180000Y-73160000D01*
X67030000Y-73160000D01*
X67054504Y-73161204D01*
G37*
G36*
X67054504Y-71891204D02*
G01*
X67078773Y-71894804D01*
X67102571Y-71900765D01*
X67125671Y-71909030D01*
X67147849Y-71919520D01*
X67168893Y-71932133D01*
X67188598Y-71946747D01*
X67206777Y-71963223D01*
X67223253Y-71981402D01*
X67237867Y-72001107D01*
X67250480Y-72022151D01*
X67260970Y-72044329D01*
X67269235Y-72067429D01*
X67275196Y-72091227D01*
X67278796Y-72115496D01*
X67280000Y-72140000D01*
X67280000Y-72640000D01*
X67278796Y-72664504D01*
X67275196Y-72688773D01*
X67269235Y-72712571D01*
X67260970Y-72735671D01*
X67250480Y-72757849D01*
X67237867Y-72778893D01*
X67223253Y-72798598D01*
X67206777Y-72816777D01*
X67188598Y-72833253D01*
X67168893Y-72847867D01*
X67147849Y-72860480D01*
X67125671Y-72870970D01*
X67102571Y-72879235D01*
X67078773Y-72885196D01*
X67054504Y-72888796D01*
X67030000Y-72890000D01*
X65180000Y-72890000D01*
X65155496Y-72888796D01*
X65131227Y-72885196D01*
X65107429Y-72879235D01*
X65084329Y-72870970D01*
X65062151Y-72860480D01*
X65041107Y-72847867D01*
X65021402Y-72833253D01*
X65003223Y-72816777D01*
X64986747Y-72798598D01*
X64972133Y-72778893D01*
X64959520Y-72757849D01*
X64949030Y-72735671D01*
X64940765Y-72712571D01*
X64934804Y-72688773D01*
X64931204Y-72664504D01*
X64930000Y-72640000D01*
X64930000Y-72140000D01*
X64931204Y-72115496D01*
X64934804Y-72091227D01*
X64940765Y-72067429D01*
X64949030Y-72044329D01*
X64959520Y-72022151D01*
X64972133Y-72001107D01*
X64986747Y-71981402D01*
X65003223Y-71963223D01*
X65021402Y-71946747D01*
X65041107Y-71932133D01*
X65062151Y-71919520D01*
X65084329Y-71909030D01*
X65107429Y-71900765D01*
X65131227Y-71894804D01*
X65155496Y-71891204D01*
X65180000Y-71890000D01*
X67030000Y-71890000D01*
X67054504Y-71891204D01*
G37*
G36*
X67054504Y-70621204D02*
G01*
X67078773Y-70624804D01*
X67102571Y-70630765D01*
X67125671Y-70639030D01*
X67147849Y-70649520D01*
X67168893Y-70662133D01*
X67188598Y-70676747D01*
X67206777Y-70693223D01*
X67223253Y-70711402D01*
X67237867Y-70731107D01*
X67250480Y-70752151D01*
X67260970Y-70774329D01*
X67269235Y-70797429D01*
X67275196Y-70821227D01*
X67278796Y-70845496D01*
X67280000Y-70870000D01*
X67280000Y-71370000D01*
X67278796Y-71394504D01*
X67275196Y-71418773D01*
X67269235Y-71442571D01*
X67260970Y-71465671D01*
X67250480Y-71487849D01*
X67237867Y-71508893D01*
X67223253Y-71528598D01*
X67206777Y-71546777D01*
X67188598Y-71563253D01*
X67168893Y-71577867D01*
X67147849Y-71590480D01*
X67125671Y-71600970D01*
X67102571Y-71609235D01*
X67078773Y-71615196D01*
X67054504Y-71618796D01*
X67030000Y-71620000D01*
X65180000Y-71620000D01*
X65155496Y-71618796D01*
X65131227Y-71615196D01*
X65107429Y-71609235D01*
X65084329Y-71600970D01*
X65062151Y-71590480D01*
X65041107Y-71577867D01*
X65021402Y-71563253D01*
X65003223Y-71546777D01*
X64986747Y-71528598D01*
X64972133Y-71508893D01*
X64959520Y-71487849D01*
X64949030Y-71465671D01*
X64940765Y-71442571D01*
X64934804Y-71418773D01*
X64931204Y-71394504D01*
X64930000Y-71370000D01*
X64930000Y-70870000D01*
X64931204Y-70845496D01*
X64934804Y-70821227D01*
X64940765Y-70797429D01*
X64949030Y-70774329D01*
X64959520Y-70752151D01*
X64972133Y-70731107D01*
X64986747Y-70711402D01*
X65003223Y-70693223D01*
X65021402Y-70676747D01*
X65041107Y-70662133D01*
X65062151Y-70649520D01*
X65084329Y-70639030D01*
X65107429Y-70630765D01*
X65131227Y-70624804D01*
X65155496Y-70621204D01*
X65180000Y-70620000D01*
X67030000Y-70620000D01*
X67054504Y-70621204D01*
G37*
G36*
X67054504Y-69351204D02*
G01*
X67078773Y-69354804D01*
X67102571Y-69360765D01*
X67125671Y-69369030D01*
X67147849Y-69379520D01*
X67168893Y-69392133D01*
X67188598Y-69406747D01*
X67206777Y-69423223D01*
X67223253Y-69441402D01*
X67237867Y-69461107D01*
X67250480Y-69482151D01*
X67260970Y-69504329D01*
X67269235Y-69527429D01*
X67275196Y-69551227D01*
X67278796Y-69575496D01*
X67280000Y-69600000D01*
X67280000Y-70100000D01*
X67278796Y-70124504D01*
X67275196Y-70148773D01*
X67269235Y-70172571D01*
X67260970Y-70195671D01*
X67250480Y-70217849D01*
X67237867Y-70238893D01*
X67223253Y-70258598D01*
X67206777Y-70276777D01*
X67188598Y-70293253D01*
X67168893Y-70307867D01*
X67147849Y-70320480D01*
X67125671Y-70330970D01*
X67102571Y-70339235D01*
X67078773Y-70345196D01*
X67054504Y-70348796D01*
X67030000Y-70350000D01*
X65180000Y-70350000D01*
X65155496Y-70348796D01*
X65131227Y-70345196D01*
X65107429Y-70339235D01*
X65084329Y-70330970D01*
X65062151Y-70320480D01*
X65041107Y-70307867D01*
X65021402Y-70293253D01*
X65003223Y-70276777D01*
X64986747Y-70258598D01*
X64972133Y-70238893D01*
X64959520Y-70217849D01*
X64949030Y-70195671D01*
X64940765Y-70172571D01*
X64934804Y-70148773D01*
X64931204Y-70124504D01*
X64930000Y-70100000D01*
X64930000Y-69600000D01*
X64931204Y-69575496D01*
X64934804Y-69551227D01*
X64940765Y-69527429D01*
X64949030Y-69504329D01*
X64959520Y-69482151D01*
X64972133Y-69461107D01*
X64986747Y-69441402D01*
X65003223Y-69423223D01*
X65021402Y-69406747D01*
X65041107Y-69392133D01*
X65062151Y-69379520D01*
X65084329Y-69369030D01*
X65107429Y-69360765D01*
X65131227Y-69354804D01*
X65155496Y-69351204D01*
X65180000Y-69350000D01*
X67030000Y-69350000D01*
X67054504Y-69351204D01*
G37*
G36*
X67054504Y-68081204D02*
G01*
X67078773Y-68084804D01*
X67102571Y-68090765D01*
X67125671Y-68099030D01*
X67147849Y-68109520D01*
X67168893Y-68122133D01*
X67188598Y-68136747D01*
X67206777Y-68153223D01*
X67223253Y-68171402D01*
X67237867Y-68191107D01*
X67250480Y-68212151D01*
X67260970Y-68234329D01*
X67269235Y-68257429D01*
X67275196Y-68281227D01*
X67278796Y-68305496D01*
X67280000Y-68330000D01*
X67280000Y-68830000D01*
X67278796Y-68854504D01*
X67275196Y-68878773D01*
X67269235Y-68902571D01*
X67260970Y-68925671D01*
X67250480Y-68947849D01*
X67237867Y-68968893D01*
X67223253Y-68988598D01*
X67206777Y-69006777D01*
X67188598Y-69023253D01*
X67168893Y-69037867D01*
X67147849Y-69050480D01*
X67125671Y-69060970D01*
X67102571Y-69069235D01*
X67078773Y-69075196D01*
X67054504Y-69078796D01*
X67030000Y-69080000D01*
X65180000Y-69080000D01*
X65155496Y-69078796D01*
X65131227Y-69075196D01*
X65107429Y-69069235D01*
X65084329Y-69060970D01*
X65062151Y-69050480D01*
X65041107Y-69037867D01*
X65021402Y-69023253D01*
X65003223Y-69006777D01*
X64986747Y-68988598D01*
X64972133Y-68968893D01*
X64959520Y-68947849D01*
X64949030Y-68925671D01*
X64940765Y-68902571D01*
X64934804Y-68878773D01*
X64931204Y-68854504D01*
X64930000Y-68830000D01*
X64930000Y-68330000D01*
X64931204Y-68305496D01*
X64934804Y-68281227D01*
X64940765Y-68257429D01*
X64949030Y-68234329D01*
X64959520Y-68212151D01*
X64972133Y-68191107D01*
X64986747Y-68171402D01*
X65003223Y-68153223D01*
X65021402Y-68136747D01*
X65041107Y-68122133D01*
X65062151Y-68109520D01*
X65084329Y-68099030D01*
X65107429Y-68090765D01*
X65131227Y-68084804D01*
X65155496Y-68081204D01*
X65180000Y-68080000D01*
X67030000Y-68080000D01*
X67054504Y-68081204D01*
G37*
G36*
X67054504Y-66811204D02*
G01*
X67078773Y-66814804D01*
X67102571Y-66820765D01*
X67125671Y-66829030D01*
X67147849Y-66839520D01*
X67168893Y-66852133D01*
X67188598Y-66866747D01*
X67206777Y-66883223D01*
X67223253Y-66901402D01*
X67237867Y-66921107D01*
X67250480Y-66942151D01*
X67260970Y-66964329D01*
X67269235Y-66987429D01*
X67275196Y-67011227D01*
X67278796Y-67035496D01*
X67280000Y-67060000D01*
X67280000Y-67560000D01*
X67278796Y-67584504D01*
X67275196Y-67608773D01*
X67269235Y-67632571D01*
X67260970Y-67655671D01*
X67250480Y-67677849D01*
X67237867Y-67698893D01*
X67223253Y-67718598D01*
X67206777Y-67736777D01*
X67188598Y-67753253D01*
X67168893Y-67767867D01*
X67147849Y-67780480D01*
X67125671Y-67790970D01*
X67102571Y-67799235D01*
X67078773Y-67805196D01*
X67054504Y-67808796D01*
X67030000Y-67810000D01*
X65180000Y-67810000D01*
X65155496Y-67808796D01*
X65131227Y-67805196D01*
X65107429Y-67799235D01*
X65084329Y-67790970D01*
X65062151Y-67780480D01*
X65041107Y-67767867D01*
X65021402Y-67753253D01*
X65003223Y-67736777D01*
X64986747Y-67718598D01*
X64972133Y-67698893D01*
X64959520Y-67677849D01*
X64949030Y-67655671D01*
X64940765Y-67632571D01*
X64934804Y-67608773D01*
X64931204Y-67584504D01*
X64930000Y-67560000D01*
X64930000Y-67060000D01*
X64931204Y-67035496D01*
X64934804Y-67011227D01*
X64940765Y-66987429D01*
X64949030Y-66964329D01*
X64959520Y-66942151D01*
X64972133Y-66921107D01*
X64986747Y-66901402D01*
X65003223Y-66883223D01*
X65021402Y-66866747D01*
X65041107Y-66852133D01*
X65062151Y-66839520D01*
X65084329Y-66829030D01*
X65107429Y-66820765D01*
X65131227Y-66814804D01*
X65155496Y-66811204D01*
X65180000Y-66810000D01*
X67030000Y-66810000D01*
X67054504Y-66811204D01*
G37*
G36*
X67054504Y-65541204D02*
G01*
X67078773Y-65544804D01*
X67102571Y-65550765D01*
X67125671Y-65559030D01*
X67147849Y-65569520D01*
X67168893Y-65582133D01*
X67188598Y-65596747D01*
X67206777Y-65613223D01*
X67223253Y-65631402D01*
X67237867Y-65651107D01*
X67250480Y-65672151D01*
X67260970Y-65694329D01*
X67269235Y-65717429D01*
X67275196Y-65741227D01*
X67278796Y-65765496D01*
X67280000Y-65790000D01*
X67280000Y-66290000D01*
X67278796Y-66314504D01*
X67275196Y-66338773D01*
X67269235Y-66362571D01*
X67260970Y-66385671D01*
X67250480Y-66407849D01*
X67237867Y-66428893D01*
X67223253Y-66448598D01*
X67206777Y-66466777D01*
X67188598Y-66483253D01*
X67168893Y-66497867D01*
X67147849Y-66510480D01*
X67125671Y-66520970D01*
X67102571Y-66529235D01*
X67078773Y-66535196D01*
X67054504Y-66538796D01*
X67030000Y-66540000D01*
X65180000Y-66540000D01*
X65155496Y-66538796D01*
X65131227Y-66535196D01*
X65107429Y-66529235D01*
X65084329Y-66520970D01*
X65062151Y-66510480D01*
X65041107Y-66497867D01*
X65021402Y-66483253D01*
X65003223Y-66466777D01*
X64986747Y-66448598D01*
X64972133Y-66428893D01*
X64959520Y-66407849D01*
X64949030Y-66385671D01*
X64940765Y-66362571D01*
X64934804Y-66338773D01*
X64931204Y-66314504D01*
X64930000Y-66290000D01*
X64930000Y-65790000D01*
X64931204Y-65765496D01*
X64934804Y-65741227D01*
X64940765Y-65717429D01*
X64949030Y-65694329D01*
X64959520Y-65672151D01*
X64972133Y-65651107D01*
X64986747Y-65631402D01*
X65003223Y-65613223D01*
X65021402Y-65596747D01*
X65041107Y-65582133D01*
X65062151Y-65569520D01*
X65084329Y-65559030D01*
X65107429Y-65550765D01*
X65131227Y-65544804D01*
X65155496Y-65541204D01*
X65180000Y-65540000D01*
X67030000Y-65540000D01*
X67054504Y-65541204D01*
G37*
D12*
X83820000Y-53975000D03*
D13*
X81280000Y-53975000D03*
M02*
