G04 #@! TF.GenerationSoftware,KiCad,Pcbnew,(5.1.5)-3*
G04 #@! TF.CreationDate,2020-11-19T15:19:38-03:00*
G04 #@! TF.ProjectId,MainBoard_a,4d61696e-426f-4617-9264-5f612e6b6963,1*
G04 #@! TF.SameCoordinates,Original*
G04 #@! TF.FileFunction,Legend,Top*
G04 #@! TF.FilePolarity,Positive*
%FSLAX46Y46*%
G04 Gerber Fmt 4.6, Leading zero omitted, Abs format (unit mm)*
G04 Created by KiCad (PCBNEW (5.1.5)-3) date 2020-11-19 15:19:38*
%MOMM*%
%LPD*%
G04 APERTURE LIST*
%ADD10C,0.120000*%
%ADD11C,0.150000*%
G04 APERTURE END LIST*
D10*
X75250000Y-62550000D02*
X75250000Y-64450000D01*
X75250000Y-64450000D02*
X77100000Y-64450000D01*
X77100000Y-64450000D02*
X77100000Y-62600000D01*
X77100000Y-62600000D02*
X77100000Y-62550000D01*
X77100000Y-62550000D02*
X75250000Y-62550000D01*
X77100000Y-73345000D02*
X75250000Y-73345000D01*
X77100000Y-73395000D02*
X77100000Y-73345000D01*
X77100000Y-75245000D02*
X77100000Y-73395000D01*
X75250000Y-75245000D02*
X77100000Y-75245000D01*
X75250000Y-73345000D02*
X75250000Y-75245000D01*
X60010000Y-84775000D02*
X60010000Y-86675000D01*
X60010000Y-86675000D02*
X61860000Y-86675000D01*
X61860000Y-86675000D02*
X61860000Y-84825000D01*
X61860000Y-84825000D02*
X61860000Y-84775000D01*
X61860000Y-84775000D02*
X60010000Y-84775000D01*
X61860000Y-80965000D02*
X60010000Y-80965000D01*
X61860000Y-81015000D02*
X61860000Y-80965000D01*
X61860000Y-82865000D02*
X61860000Y-81015000D01*
X60010000Y-82865000D02*
X61860000Y-82865000D01*
X60010000Y-80965000D02*
X60010000Y-82865000D01*
X62550000Y-75885000D02*
X62550000Y-77785000D01*
X62550000Y-77785000D02*
X64400000Y-77785000D01*
X64400000Y-77785000D02*
X64400000Y-75935000D01*
X64400000Y-75935000D02*
X64400000Y-75885000D01*
X64400000Y-75885000D02*
X62550000Y-75885000D01*
X75195000Y-66995000D02*
X73345000Y-66995000D01*
X75195000Y-67045000D02*
X75195000Y-66995000D01*
X75195000Y-68895000D02*
X75195000Y-67045000D01*
X73345000Y-68895000D02*
X75195000Y-68895000D01*
X73345000Y-66995000D02*
X73345000Y-68895000D01*
X72710000Y-75885000D02*
X72710000Y-77785000D01*
X72710000Y-77785000D02*
X74560000Y-77785000D01*
X74560000Y-77785000D02*
X74560000Y-75935000D01*
X74560000Y-75935000D02*
X74560000Y-75885000D01*
X74560000Y-75885000D02*
X72710000Y-75885000D01*
X48200000Y-71815000D02*
X50860000Y-71815000D01*
X48200000Y-64135000D02*
X48200000Y-71815000D01*
X50860000Y-64135000D02*
X50860000Y-71815000D01*
X48200000Y-64135000D02*
X50860000Y-64135000D01*
X48200000Y-62865000D02*
X48200000Y-61535000D01*
X48200000Y-61535000D02*
X49530000Y-61535000D01*
X76895000Y-46930000D02*
X76895000Y-48260000D01*
X75565000Y-46930000D02*
X76895000Y-46930000D01*
X74295000Y-46930000D02*
X74295000Y-49590000D01*
X74295000Y-49590000D02*
X71695000Y-49590000D01*
X74295000Y-46930000D02*
X71695000Y-46930000D01*
X71695000Y-46930000D02*
X71695000Y-49590000D01*
X54670000Y-77530000D02*
X53340000Y-77530000D01*
X54670000Y-76200000D02*
X54670000Y-77530000D01*
X54670000Y-74930000D02*
X52010000Y-74930000D01*
X52010000Y-74930000D02*
X52010000Y-57090000D01*
X54670000Y-74930000D02*
X54670000Y-57090000D01*
X54670000Y-57090000D02*
X52010000Y-57090000D01*
X90230000Y-63440000D02*
X87570000Y-63440000D01*
X90230000Y-66040000D02*
X90230000Y-63440000D01*
X87570000Y-66040000D02*
X87570000Y-63440000D01*
X90230000Y-66040000D02*
X87570000Y-66040000D01*
X90230000Y-67310000D02*
X90230000Y-68640000D01*
X90230000Y-68640000D02*
X88900000Y-68640000D01*
X83760000Y-77530000D02*
X86420000Y-77530000D01*
X83760000Y-59690000D02*
X83760000Y-77530000D01*
X86420000Y-59690000D02*
X86420000Y-77530000D01*
X83760000Y-59690000D02*
X86420000Y-59690000D01*
X83760000Y-58420000D02*
X83760000Y-57090000D01*
X83760000Y-57090000D02*
X85090000Y-57090000D01*
X75625000Y-85150000D02*
X75625000Y-82490000D01*
X65405000Y-85150000D02*
X75625000Y-85150000D01*
X65405000Y-82490000D02*
X75625000Y-82490000D01*
X65405000Y-85150000D02*
X65405000Y-82490000D01*
X64135000Y-85150000D02*
X62805000Y-85150000D01*
X62805000Y-85150000D02*
X62805000Y-83820000D01*
D11*
X55885000Y-49010000D02*
X55885000Y-82090000D01*
X57885000Y-84090000D02*
X80545000Y-84090000D01*
X82545000Y-82090000D02*
X82545000Y-56010000D01*
X80395000Y-49010000D02*
X72535000Y-49010000D01*
X72535000Y-49010000D02*
X72535000Y-50010000D01*
X72535000Y-50010000D02*
X64315000Y-50010000D01*
X64315000Y-50010000D02*
X64315000Y-49010000D01*
X64315000Y-49010000D02*
X55885001Y-49010000D01*
X80545000Y-84090000D02*
G75*
G03X82545000Y-82090000I0J2000000D01*
G01*
X55885000Y-82090000D02*
G75*
G03X57885000Y-84090000I2000000J0D01*
G01*
X80395000Y-49010000D02*
X80395000Y-55010000D01*
X80395000Y-55010000D02*
G75*
G03X81395000Y-56010000I1000000J0D01*
G01*
X81385000Y-56010000D02*
X82545000Y-56010000D01*
X82545000Y-56010000D02*
X82545000Y-56010000D01*
D10*
X79950000Y-52645000D02*
X79950000Y-55305000D01*
X82550000Y-52645000D02*
X79950000Y-52645000D01*
X82550000Y-55305000D02*
X79950000Y-55305000D01*
X82550000Y-52645000D02*
X82550000Y-55305000D01*
X83820000Y-52645000D02*
X85150000Y-52645000D01*
X85150000Y-52645000D02*
X85150000Y-53975000D01*
X64400000Y-66995000D02*
X62550000Y-66995000D01*
X64400000Y-67045000D02*
X64400000Y-66995000D01*
X64400000Y-68895000D02*
X64400000Y-67045000D01*
X62550000Y-68895000D02*
X64400000Y-68895000D01*
X62550000Y-66995000D02*
X62550000Y-68895000D01*
D11*
X49196666Y-59987380D02*
X49196666Y-60701666D01*
X49149047Y-60844523D01*
X49053809Y-60939761D01*
X48910952Y-60987380D01*
X48815714Y-60987380D01*
X50196666Y-60987380D02*
X49625238Y-60987380D01*
X49910952Y-60987380D02*
X49910952Y-59987380D01*
X49815714Y-60130238D01*
X49720476Y-60225476D01*
X49625238Y-60273095D01*
X77347380Y-48593333D02*
X78061666Y-48593333D01*
X78204523Y-48640952D01*
X78299761Y-48736190D01*
X78347380Y-48879047D01*
X78347380Y-48974285D01*
X77442619Y-48164761D02*
X77395000Y-48117142D01*
X77347380Y-48021904D01*
X77347380Y-47783809D01*
X77395000Y-47688571D01*
X77442619Y-47640952D01*
X77537857Y-47593333D01*
X77633095Y-47593333D01*
X77775952Y-47640952D01*
X78347380Y-48212380D01*
X78347380Y-47593333D01*
X53006666Y-77982380D02*
X53006666Y-78696666D01*
X52959047Y-78839523D01*
X52863809Y-78934761D01*
X52720952Y-78982380D01*
X52625714Y-78982380D01*
X53911428Y-78315714D02*
X53911428Y-78982380D01*
X53673333Y-77934761D02*
X53435238Y-78649047D01*
X54054285Y-78649047D01*
X88566666Y-69092380D02*
X88566666Y-69806666D01*
X88519047Y-69949523D01*
X88423809Y-70044761D01*
X88280952Y-70092380D01*
X88185714Y-70092380D01*
X89519047Y-69092380D02*
X89042857Y-69092380D01*
X88995238Y-69568571D01*
X89042857Y-69520952D01*
X89138095Y-69473333D01*
X89376190Y-69473333D01*
X89471428Y-69520952D01*
X89519047Y-69568571D01*
X89566666Y-69663809D01*
X89566666Y-69901904D01*
X89519047Y-69997142D01*
X89471428Y-70044761D01*
X89376190Y-70092380D01*
X89138095Y-70092380D01*
X89042857Y-70044761D01*
X88995238Y-69997142D01*
X84756666Y-55542380D02*
X84756666Y-56256666D01*
X84709047Y-56399523D01*
X84613809Y-56494761D01*
X84470952Y-56542380D01*
X84375714Y-56542380D01*
X85661428Y-55542380D02*
X85470952Y-55542380D01*
X85375714Y-55590000D01*
X85328095Y-55637619D01*
X85232857Y-55780476D01*
X85185238Y-55970952D01*
X85185238Y-56351904D01*
X85232857Y-56447142D01*
X85280476Y-56494761D01*
X85375714Y-56542380D01*
X85566190Y-56542380D01*
X85661428Y-56494761D01*
X85709047Y-56447142D01*
X85756666Y-56351904D01*
X85756666Y-56113809D01*
X85709047Y-56018571D01*
X85661428Y-55970952D01*
X85566190Y-55923333D01*
X85375714Y-55923333D01*
X85280476Y-55970952D01*
X85232857Y-56018571D01*
X85185238Y-56113809D01*
X61257380Y-84153333D02*
X61971666Y-84153333D01*
X62114523Y-84200952D01*
X62209761Y-84296190D01*
X62257380Y-84439047D01*
X62257380Y-84534285D01*
X61685952Y-83534285D02*
X61638333Y-83629523D01*
X61590714Y-83677142D01*
X61495476Y-83724761D01*
X61447857Y-83724761D01*
X61352619Y-83677142D01*
X61305000Y-83629523D01*
X61257380Y-83534285D01*
X61257380Y-83343809D01*
X61305000Y-83248571D01*
X61352619Y-83200952D01*
X61447857Y-83153333D01*
X61495476Y-83153333D01*
X61590714Y-83200952D01*
X61638333Y-83248571D01*
X61685952Y-83343809D01*
X61685952Y-83534285D01*
X61733571Y-83629523D01*
X61781190Y-83677142D01*
X61876428Y-83724761D01*
X62066904Y-83724761D01*
X62162142Y-83677142D01*
X62209761Y-83629523D01*
X62257380Y-83534285D01*
X62257380Y-83343809D01*
X62209761Y-83248571D01*
X62162142Y-83200952D01*
X62066904Y-83153333D01*
X61876428Y-83153333D01*
X61781190Y-83200952D01*
X61733571Y-83248571D01*
X61685952Y-83343809D01*
X68453095Y-47462380D02*
X68453095Y-48271904D01*
X68500714Y-48367142D01*
X68548333Y-48414761D01*
X68643571Y-48462380D01*
X68834047Y-48462380D01*
X68929285Y-48414761D01*
X68976904Y-48367142D01*
X69024523Y-48271904D01*
X69024523Y-47462380D01*
X69453095Y-47557619D02*
X69500714Y-47510000D01*
X69595952Y-47462380D01*
X69834047Y-47462380D01*
X69929285Y-47510000D01*
X69976904Y-47557619D01*
X70024523Y-47652857D01*
X70024523Y-47748095D01*
X69976904Y-47890952D01*
X69405476Y-48462380D01*
X70024523Y-48462380D01*
X85602380Y-54308333D02*
X86316666Y-54308333D01*
X86459523Y-54355952D01*
X86554761Y-54451190D01*
X86602380Y-54594047D01*
X86602380Y-54689285D01*
X85602380Y-53927380D02*
X85602380Y-53260714D01*
X86602380Y-53689285D01*
M02*
