G04 #@! TF.GenerationSoftware,KiCad,Pcbnew,(5.1.5)-3*
G04 #@! TF.CreationDate,2020-11-19T15:19:38-03:00*
G04 #@! TF.ProjectId,MainBoard_a,4d61696e-426f-4617-9264-5f612e6b6963,1*
G04 #@! TF.SameCoordinates,Original*
G04 #@! TF.FileFunction,Paste,Bot*
G04 #@! TF.FilePolarity,Positive*
%FSLAX46Y46*%
G04 Gerber Fmt 4.6, Leading zero omitted, Abs format (unit mm)*
G04 Created by KiCad (PCBNEW (5.1.5)-3) date 2020-11-19 15:19:38*
%MOMM*%
%LPD*%
G04 APERTURE LIST*
%ADD10R,2.195000X2.195000*%
%ADD11C,0.100000*%
%ADD12R,0.900000X0.800000*%
G04 APERTURE END LIST*
D10*
X61705000Y-55135000D03*
X69105000Y-55135000D03*
X69105000Y-47735000D03*
D11*
G36*
X58812691Y-51596053D02*
G01*
X58833926Y-51599203D01*
X58854750Y-51604419D01*
X58874962Y-51611651D01*
X58894368Y-51620830D01*
X58912781Y-51631866D01*
X58930024Y-51644654D01*
X58945930Y-51659070D01*
X58960346Y-51674976D01*
X58973134Y-51692219D01*
X58984170Y-51710632D01*
X58993349Y-51730038D01*
X59000581Y-51750250D01*
X59005797Y-51771074D01*
X59008947Y-51792309D01*
X59010000Y-51813750D01*
X59010000Y-52326250D01*
X59008947Y-52347691D01*
X59005797Y-52368926D01*
X59000581Y-52389750D01*
X58993349Y-52409962D01*
X58984170Y-52429368D01*
X58973134Y-52447781D01*
X58960346Y-52465024D01*
X58945930Y-52480930D01*
X58930024Y-52495346D01*
X58912781Y-52508134D01*
X58894368Y-52519170D01*
X58874962Y-52528349D01*
X58854750Y-52535581D01*
X58833926Y-52540797D01*
X58812691Y-52543947D01*
X58791250Y-52545000D01*
X58353750Y-52545000D01*
X58332309Y-52543947D01*
X58311074Y-52540797D01*
X58290250Y-52535581D01*
X58270038Y-52528349D01*
X58250632Y-52519170D01*
X58232219Y-52508134D01*
X58214976Y-52495346D01*
X58199070Y-52480930D01*
X58184654Y-52465024D01*
X58171866Y-52447781D01*
X58160830Y-52429368D01*
X58151651Y-52409962D01*
X58144419Y-52389750D01*
X58139203Y-52368926D01*
X58136053Y-52347691D01*
X58135000Y-52326250D01*
X58135000Y-51813750D01*
X58136053Y-51792309D01*
X58139203Y-51771074D01*
X58144419Y-51750250D01*
X58151651Y-51730038D01*
X58160830Y-51710632D01*
X58171866Y-51692219D01*
X58184654Y-51674976D01*
X58199070Y-51659070D01*
X58214976Y-51644654D01*
X58232219Y-51631866D01*
X58250632Y-51620830D01*
X58270038Y-51611651D01*
X58290250Y-51604419D01*
X58311074Y-51599203D01*
X58332309Y-51596053D01*
X58353750Y-51595000D01*
X58791250Y-51595000D01*
X58812691Y-51596053D01*
G37*
G36*
X57237691Y-51596053D02*
G01*
X57258926Y-51599203D01*
X57279750Y-51604419D01*
X57299962Y-51611651D01*
X57319368Y-51620830D01*
X57337781Y-51631866D01*
X57355024Y-51644654D01*
X57370930Y-51659070D01*
X57385346Y-51674976D01*
X57398134Y-51692219D01*
X57409170Y-51710632D01*
X57418349Y-51730038D01*
X57425581Y-51750250D01*
X57430797Y-51771074D01*
X57433947Y-51792309D01*
X57435000Y-51813750D01*
X57435000Y-52326250D01*
X57433947Y-52347691D01*
X57430797Y-52368926D01*
X57425581Y-52389750D01*
X57418349Y-52409962D01*
X57409170Y-52429368D01*
X57398134Y-52447781D01*
X57385346Y-52465024D01*
X57370930Y-52480930D01*
X57355024Y-52495346D01*
X57337781Y-52508134D01*
X57319368Y-52519170D01*
X57299962Y-52528349D01*
X57279750Y-52535581D01*
X57258926Y-52540797D01*
X57237691Y-52543947D01*
X57216250Y-52545000D01*
X56778750Y-52545000D01*
X56757309Y-52543947D01*
X56736074Y-52540797D01*
X56715250Y-52535581D01*
X56695038Y-52528349D01*
X56675632Y-52519170D01*
X56657219Y-52508134D01*
X56639976Y-52495346D01*
X56624070Y-52480930D01*
X56609654Y-52465024D01*
X56596866Y-52447781D01*
X56585830Y-52429368D01*
X56576651Y-52409962D01*
X56569419Y-52389750D01*
X56564203Y-52368926D01*
X56561053Y-52347691D01*
X56560000Y-52326250D01*
X56560000Y-51813750D01*
X56561053Y-51792309D01*
X56564203Y-51771074D01*
X56569419Y-51750250D01*
X56576651Y-51730038D01*
X56585830Y-51710632D01*
X56596866Y-51692219D01*
X56609654Y-51674976D01*
X56624070Y-51659070D01*
X56639976Y-51644654D01*
X56657219Y-51631866D01*
X56675632Y-51620830D01*
X56695038Y-51611651D01*
X56715250Y-51604419D01*
X56736074Y-51599203D01*
X56757309Y-51596053D01*
X56778750Y-51595000D01*
X57216250Y-51595000D01*
X57237691Y-51596053D01*
G37*
D12*
X75930000Y-53660000D03*
X75930000Y-55560000D03*
X73930000Y-54610000D03*
D11*
G36*
X74572691Y-59101053D02*
G01*
X74593926Y-59104203D01*
X74614750Y-59109419D01*
X74634962Y-59116651D01*
X74654368Y-59125830D01*
X74672781Y-59136866D01*
X74690024Y-59149654D01*
X74705930Y-59164070D01*
X74720346Y-59179976D01*
X74733134Y-59197219D01*
X74744170Y-59215632D01*
X74753349Y-59235038D01*
X74760581Y-59255250D01*
X74765797Y-59276074D01*
X74768947Y-59297309D01*
X74770000Y-59318750D01*
X74770000Y-59756250D01*
X74768947Y-59777691D01*
X74765797Y-59798926D01*
X74760581Y-59819750D01*
X74753349Y-59839962D01*
X74744170Y-59859368D01*
X74733134Y-59877781D01*
X74720346Y-59895024D01*
X74705930Y-59910930D01*
X74690024Y-59925346D01*
X74672781Y-59938134D01*
X74654368Y-59949170D01*
X74634962Y-59958349D01*
X74614750Y-59965581D01*
X74593926Y-59970797D01*
X74572691Y-59973947D01*
X74551250Y-59975000D01*
X74038750Y-59975000D01*
X74017309Y-59973947D01*
X73996074Y-59970797D01*
X73975250Y-59965581D01*
X73955038Y-59958349D01*
X73935632Y-59949170D01*
X73917219Y-59938134D01*
X73899976Y-59925346D01*
X73884070Y-59910930D01*
X73869654Y-59895024D01*
X73856866Y-59877781D01*
X73845830Y-59859368D01*
X73836651Y-59839962D01*
X73829419Y-59819750D01*
X73824203Y-59798926D01*
X73821053Y-59777691D01*
X73820000Y-59756250D01*
X73820000Y-59318750D01*
X73821053Y-59297309D01*
X73824203Y-59276074D01*
X73829419Y-59255250D01*
X73836651Y-59235038D01*
X73845830Y-59215632D01*
X73856866Y-59197219D01*
X73869654Y-59179976D01*
X73884070Y-59164070D01*
X73899976Y-59149654D01*
X73917219Y-59136866D01*
X73935632Y-59125830D01*
X73955038Y-59116651D01*
X73975250Y-59109419D01*
X73996074Y-59104203D01*
X74017309Y-59101053D01*
X74038750Y-59100000D01*
X74551250Y-59100000D01*
X74572691Y-59101053D01*
G37*
G36*
X74572691Y-60676053D02*
G01*
X74593926Y-60679203D01*
X74614750Y-60684419D01*
X74634962Y-60691651D01*
X74654368Y-60700830D01*
X74672781Y-60711866D01*
X74690024Y-60724654D01*
X74705930Y-60739070D01*
X74720346Y-60754976D01*
X74733134Y-60772219D01*
X74744170Y-60790632D01*
X74753349Y-60810038D01*
X74760581Y-60830250D01*
X74765797Y-60851074D01*
X74768947Y-60872309D01*
X74770000Y-60893750D01*
X74770000Y-61331250D01*
X74768947Y-61352691D01*
X74765797Y-61373926D01*
X74760581Y-61394750D01*
X74753349Y-61414962D01*
X74744170Y-61434368D01*
X74733134Y-61452781D01*
X74720346Y-61470024D01*
X74705930Y-61485930D01*
X74690024Y-61500346D01*
X74672781Y-61513134D01*
X74654368Y-61524170D01*
X74634962Y-61533349D01*
X74614750Y-61540581D01*
X74593926Y-61545797D01*
X74572691Y-61548947D01*
X74551250Y-61550000D01*
X74038750Y-61550000D01*
X74017309Y-61548947D01*
X73996074Y-61545797D01*
X73975250Y-61540581D01*
X73955038Y-61533349D01*
X73935632Y-61524170D01*
X73917219Y-61513134D01*
X73899976Y-61500346D01*
X73884070Y-61485930D01*
X73869654Y-61470024D01*
X73856866Y-61452781D01*
X73845830Y-61434368D01*
X73836651Y-61414962D01*
X73829419Y-61394750D01*
X73824203Y-61373926D01*
X73821053Y-61352691D01*
X73820000Y-61331250D01*
X73820000Y-60893750D01*
X73821053Y-60872309D01*
X73824203Y-60851074D01*
X73829419Y-60830250D01*
X73836651Y-60810038D01*
X73845830Y-60790632D01*
X73856866Y-60772219D01*
X73869654Y-60754976D01*
X73884070Y-60739070D01*
X73899976Y-60724654D01*
X73917219Y-60711866D01*
X73935632Y-60700830D01*
X73955038Y-60691651D01*
X73975250Y-60684419D01*
X73996074Y-60679203D01*
X74017309Y-60676053D01*
X74038750Y-60675000D01*
X74551250Y-60675000D01*
X74572691Y-60676053D01*
G37*
G36*
X76477691Y-60676053D02*
G01*
X76498926Y-60679203D01*
X76519750Y-60684419D01*
X76539962Y-60691651D01*
X76559368Y-60700830D01*
X76577781Y-60711866D01*
X76595024Y-60724654D01*
X76610930Y-60739070D01*
X76625346Y-60754976D01*
X76638134Y-60772219D01*
X76649170Y-60790632D01*
X76658349Y-60810038D01*
X76665581Y-60830250D01*
X76670797Y-60851074D01*
X76673947Y-60872309D01*
X76675000Y-60893750D01*
X76675000Y-61331250D01*
X76673947Y-61352691D01*
X76670797Y-61373926D01*
X76665581Y-61394750D01*
X76658349Y-61414962D01*
X76649170Y-61434368D01*
X76638134Y-61452781D01*
X76625346Y-61470024D01*
X76610930Y-61485930D01*
X76595024Y-61500346D01*
X76577781Y-61513134D01*
X76559368Y-61524170D01*
X76539962Y-61533349D01*
X76519750Y-61540581D01*
X76498926Y-61545797D01*
X76477691Y-61548947D01*
X76456250Y-61550000D01*
X75943750Y-61550000D01*
X75922309Y-61548947D01*
X75901074Y-61545797D01*
X75880250Y-61540581D01*
X75860038Y-61533349D01*
X75840632Y-61524170D01*
X75822219Y-61513134D01*
X75804976Y-61500346D01*
X75789070Y-61485930D01*
X75774654Y-61470024D01*
X75761866Y-61452781D01*
X75750830Y-61434368D01*
X75741651Y-61414962D01*
X75734419Y-61394750D01*
X75729203Y-61373926D01*
X75726053Y-61352691D01*
X75725000Y-61331250D01*
X75725000Y-60893750D01*
X75726053Y-60872309D01*
X75729203Y-60851074D01*
X75734419Y-60830250D01*
X75741651Y-60810038D01*
X75750830Y-60790632D01*
X75761866Y-60772219D01*
X75774654Y-60754976D01*
X75789070Y-60739070D01*
X75804976Y-60724654D01*
X75822219Y-60711866D01*
X75840632Y-60700830D01*
X75860038Y-60691651D01*
X75880250Y-60684419D01*
X75901074Y-60679203D01*
X75922309Y-60676053D01*
X75943750Y-60675000D01*
X76456250Y-60675000D01*
X76477691Y-60676053D01*
G37*
G36*
X76477691Y-59101053D02*
G01*
X76498926Y-59104203D01*
X76519750Y-59109419D01*
X76539962Y-59116651D01*
X76559368Y-59125830D01*
X76577781Y-59136866D01*
X76595024Y-59149654D01*
X76610930Y-59164070D01*
X76625346Y-59179976D01*
X76638134Y-59197219D01*
X76649170Y-59215632D01*
X76658349Y-59235038D01*
X76665581Y-59255250D01*
X76670797Y-59276074D01*
X76673947Y-59297309D01*
X76675000Y-59318750D01*
X76675000Y-59756250D01*
X76673947Y-59777691D01*
X76670797Y-59798926D01*
X76665581Y-59819750D01*
X76658349Y-59839962D01*
X76649170Y-59859368D01*
X76638134Y-59877781D01*
X76625346Y-59895024D01*
X76610930Y-59910930D01*
X76595024Y-59925346D01*
X76577781Y-59938134D01*
X76559368Y-59949170D01*
X76539962Y-59958349D01*
X76519750Y-59965581D01*
X76498926Y-59970797D01*
X76477691Y-59973947D01*
X76456250Y-59975000D01*
X75943750Y-59975000D01*
X75922309Y-59973947D01*
X75901074Y-59970797D01*
X75880250Y-59965581D01*
X75860038Y-59958349D01*
X75840632Y-59949170D01*
X75822219Y-59938134D01*
X75804976Y-59925346D01*
X75789070Y-59910930D01*
X75774654Y-59895024D01*
X75761866Y-59877781D01*
X75750830Y-59859368D01*
X75741651Y-59839962D01*
X75734419Y-59819750D01*
X75729203Y-59798926D01*
X75726053Y-59777691D01*
X75725000Y-59756250D01*
X75725000Y-59318750D01*
X75726053Y-59297309D01*
X75729203Y-59276074D01*
X75734419Y-59255250D01*
X75741651Y-59235038D01*
X75750830Y-59215632D01*
X75761866Y-59197219D01*
X75774654Y-59179976D01*
X75789070Y-59164070D01*
X75804976Y-59149654D01*
X75822219Y-59136866D01*
X75840632Y-59125830D01*
X75860038Y-59116651D01*
X75880250Y-59109419D01*
X75901074Y-59104203D01*
X75922309Y-59101053D01*
X75943750Y-59100000D01*
X76456250Y-59100000D01*
X76477691Y-59101053D01*
G37*
G36*
X58812691Y-49056053D02*
G01*
X58833926Y-49059203D01*
X58854750Y-49064419D01*
X58874962Y-49071651D01*
X58894368Y-49080830D01*
X58912781Y-49091866D01*
X58930024Y-49104654D01*
X58945930Y-49119070D01*
X58960346Y-49134976D01*
X58973134Y-49152219D01*
X58984170Y-49170632D01*
X58993349Y-49190038D01*
X59000581Y-49210250D01*
X59005797Y-49231074D01*
X59008947Y-49252309D01*
X59010000Y-49273750D01*
X59010000Y-49786250D01*
X59008947Y-49807691D01*
X59005797Y-49828926D01*
X59000581Y-49849750D01*
X58993349Y-49869962D01*
X58984170Y-49889368D01*
X58973134Y-49907781D01*
X58960346Y-49925024D01*
X58945930Y-49940930D01*
X58930024Y-49955346D01*
X58912781Y-49968134D01*
X58894368Y-49979170D01*
X58874962Y-49988349D01*
X58854750Y-49995581D01*
X58833926Y-50000797D01*
X58812691Y-50003947D01*
X58791250Y-50005000D01*
X58353750Y-50005000D01*
X58332309Y-50003947D01*
X58311074Y-50000797D01*
X58290250Y-49995581D01*
X58270038Y-49988349D01*
X58250632Y-49979170D01*
X58232219Y-49968134D01*
X58214976Y-49955346D01*
X58199070Y-49940930D01*
X58184654Y-49925024D01*
X58171866Y-49907781D01*
X58160830Y-49889368D01*
X58151651Y-49869962D01*
X58144419Y-49849750D01*
X58139203Y-49828926D01*
X58136053Y-49807691D01*
X58135000Y-49786250D01*
X58135000Y-49273750D01*
X58136053Y-49252309D01*
X58139203Y-49231074D01*
X58144419Y-49210250D01*
X58151651Y-49190038D01*
X58160830Y-49170632D01*
X58171866Y-49152219D01*
X58184654Y-49134976D01*
X58199070Y-49119070D01*
X58214976Y-49104654D01*
X58232219Y-49091866D01*
X58250632Y-49080830D01*
X58270038Y-49071651D01*
X58290250Y-49064419D01*
X58311074Y-49059203D01*
X58332309Y-49056053D01*
X58353750Y-49055000D01*
X58791250Y-49055000D01*
X58812691Y-49056053D01*
G37*
G36*
X57237691Y-49056053D02*
G01*
X57258926Y-49059203D01*
X57279750Y-49064419D01*
X57299962Y-49071651D01*
X57319368Y-49080830D01*
X57337781Y-49091866D01*
X57355024Y-49104654D01*
X57370930Y-49119070D01*
X57385346Y-49134976D01*
X57398134Y-49152219D01*
X57409170Y-49170632D01*
X57418349Y-49190038D01*
X57425581Y-49210250D01*
X57430797Y-49231074D01*
X57433947Y-49252309D01*
X57435000Y-49273750D01*
X57435000Y-49786250D01*
X57433947Y-49807691D01*
X57430797Y-49828926D01*
X57425581Y-49849750D01*
X57418349Y-49869962D01*
X57409170Y-49889368D01*
X57398134Y-49907781D01*
X57385346Y-49925024D01*
X57370930Y-49940930D01*
X57355024Y-49955346D01*
X57337781Y-49968134D01*
X57319368Y-49979170D01*
X57299962Y-49988349D01*
X57279750Y-49995581D01*
X57258926Y-50000797D01*
X57237691Y-50003947D01*
X57216250Y-50005000D01*
X56778750Y-50005000D01*
X56757309Y-50003947D01*
X56736074Y-50000797D01*
X56715250Y-49995581D01*
X56695038Y-49988349D01*
X56675632Y-49979170D01*
X56657219Y-49968134D01*
X56639976Y-49955346D01*
X56624070Y-49940930D01*
X56609654Y-49925024D01*
X56596866Y-49907781D01*
X56585830Y-49889368D01*
X56576651Y-49869962D01*
X56569419Y-49849750D01*
X56564203Y-49828926D01*
X56561053Y-49807691D01*
X56560000Y-49786250D01*
X56560000Y-49273750D01*
X56561053Y-49252309D01*
X56564203Y-49231074D01*
X56569419Y-49210250D01*
X56576651Y-49190038D01*
X56585830Y-49170632D01*
X56596866Y-49152219D01*
X56609654Y-49134976D01*
X56624070Y-49119070D01*
X56639976Y-49104654D01*
X56657219Y-49091866D01*
X56675632Y-49080830D01*
X56695038Y-49071651D01*
X56715250Y-49064419D01*
X56736074Y-49059203D01*
X56757309Y-49056053D01*
X56778750Y-49055000D01*
X57216250Y-49055000D01*
X57237691Y-49056053D01*
G37*
G36*
X77862691Y-77631053D02*
G01*
X77883926Y-77634203D01*
X77904750Y-77639419D01*
X77924962Y-77646651D01*
X77944368Y-77655830D01*
X77962781Y-77666866D01*
X77980024Y-77679654D01*
X77995930Y-77694070D01*
X78010346Y-77709976D01*
X78023134Y-77727219D01*
X78034170Y-77745632D01*
X78043349Y-77765038D01*
X78050581Y-77785250D01*
X78055797Y-77806074D01*
X78058947Y-77827309D01*
X78060000Y-77848750D01*
X78060000Y-78361250D01*
X78058947Y-78382691D01*
X78055797Y-78403926D01*
X78050581Y-78424750D01*
X78043349Y-78444962D01*
X78034170Y-78464368D01*
X78023134Y-78482781D01*
X78010346Y-78500024D01*
X77995930Y-78515930D01*
X77980024Y-78530346D01*
X77962781Y-78543134D01*
X77944368Y-78554170D01*
X77924962Y-78563349D01*
X77904750Y-78570581D01*
X77883926Y-78575797D01*
X77862691Y-78578947D01*
X77841250Y-78580000D01*
X77403750Y-78580000D01*
X77382309Y-78578947D01*
X77361074Y-78575797D01*
X77340250Y-78570581D01*
X77320038Y-78563349D01*
X77300632Y-78554170D01*
X77282219Y-78543134D01*
X77264976Y-78530346D01*
X77249070Y-78515930D01*
X77234654Y-78500024D01*
X77221866Y-78482781D01*
X77210830Y-78464368D01*
X77201651Y-78444962D01*
X77194419Y-78424750D01*
X77189203Y-78403926D01*
X77186053Y-78382691D01*
X77185000Y-78361250D01*
X77185000Y-77848750D01*
X77186053Y-77827309D01*
X77189203Y-77806074D01*
X77194419Y-77785250D01*
X77201651Y-77765038D01*
X77210830Y-77745632D01*
X77221866Y-77727219D01*
X77234654Y-77709976D01*
X77249070Y-77694070D01*
X77264976Y-77679654D01*
X77282219Y-77666866D01*
X77300632Y-77655830D01*
X77320038Y-77646651D01*
X77340250Y-77639419D01*
X77361074Y-77634203D01*
X77382309Y-77631053D01*
X77403750Y-77630000D01*
X77841250Y-77630000D01*
X77862691Y-77631053D01*
G37*
G36*
X76287691Y-77631053D02*
G01*
X76308926Y-77634203D01*
X76329750Y-77639419D01*
X76349962Y-77646651D01*
X76369368Y-77655830D01*
X76387781Y-77666866D01*
X76405024Y-77679654D01*
X76420930Y-77694070D01*
X76435346Y-77709976D01*
X76448134Y-77727219D01*
X76459170Y-77745632D01*
X76468349Y-77765038D01*
X76475581Y-77785250D01*
X76480797Y-77806074D01*
X76483947Y-77827309D01*
X76485000Y-77848750D01*
X76485000Y-78361250D01*
X76483947Y-78382691D01*
X76480797Y-78403926D01*
X76475581Y-78424750D01*
X76468349Y-78444962D01*
X76459170Y-78464368D01*
X76448134Y-78482781D01*
X76435346Y-78500024D01*
X76420930Y-78515930D01*
X76405024Y-78530346D01*
X76387781Y-78543134D01*
X76369368Y-78554170D01*
X76349962Y-78563349D01*
X76329750Y-78570581D01*
X76308926Y-78575797D01*
X76287691Y-78578947D01*
X76266250Y-78580000D01*
X75828750Y-78580000D01*
X75807309Y-78578947D01*
X75786074Y-78575797D01*
X75765250Y-78570581D01*
X75745038Y-78563349D01*
X75725632Y-78554170D01*
X75707219Y-78543134D01*
X75689976Y-78530346D01*
X75674070Y-78515930D01*
X75659654Y-78500024D01*
X75646866Y-78482781D01*
X75635830Y-78464368D01*
X75626651Y-78444962D01*
X75619419Y-78424750D01*
X75614203Y-78403926D01*
X75611053Y-78382691D01*
X75610000Y-78361250D01*
X75610000Y-77848750D01*
X75611053Y-77827309D01*
X75614203Y-77806074D01*
X75619419Y-77785250D01*
X75626651Y-77765038D01*
X75635830Y-77745632D01*
X75646866Y-77727219D01*
X75659654Y-77709976D01*
X75674070Y-77694070D01*
X75689976Y-77679654D01*
X75707219Y-77666866D01*
X75725632Y-77655830D01*
X75745038Y-77646651D01*
X75765250Y-77639419D01*
X75786074Y-77634203D01*
X75807309Y-77631053D01*
X75828750Y-77630000D01*
X76266250Y-77630000D01*
X76287691Y-77631053D01*
G37*
G36*
X76287691Y-79536053D02*
G01*
X76308926Y-79539203D01*
X76329750Y-79544419D01*
X76349962Y-79551651D01*
X76369368Y-79560830D01*
X76387781Y-79571866D01*
X76405024Y-79584654D01*
X76420930Y-79599070D01*
X76435346Y-79614976D01*
X76448134Y-79632219D01*
X76459170Y-79650632D01*
X76468349Y-79670038D01*
X76475581Y-79690250D01*
X76480797Y-79711074D01*
X76483947Y-79732309D01*
X76485000Y-79753750D01*
X76485000Y-80266250D01*
X76483947Y-80287691D01*
X76480797Y-80308926D01*
X76475581Y-80329750D01*
X76468349Y-80349962D01*
X76459170Y-80369368D01*
X76448134Y-80387781D01*
X76435346Y-80405024D01*
X76420930Y-80420930D01*
X76405024Y-80435346D01*
X76387781Y-80448134D01*
X76369368Y-80459170D01*
X76349962Y-80468349D01*
X76329750Y-80475581D01*
X76308926Y-80480797D01*
X76287691Y-80483947D01*
X76266250Y-80485000D01*
X75828750Y-80485000D01*
X75807309Y-80483947D01*
X75786074Y-80480797D01*
X75765250Y-80475581D01*
X75745038Y-80468349D01*
X75725632Y-80459170D01*
X75707219Y-80448134D01*
X75689976Y-80435346D01*
X75674070Y-80420930D01*
X75659654Y-80405024D01*
X75646866Y-80387781D01*
X75635830Y-80369368D01*
X75626651Y-80349962D01*
X75619419Y-80329750D01*
X75614203Y-80308926D01*
X75611053Y-80287691D01*
X75610000Y-80266250D01*
X75610000Y-79753750D01*
X75611053Y-79732309D01*
X75614203Y-79711074D01*
X75619419Y-79690250D01*
X75626651Y-79670038D01*
X75635830Y-79650632D01*
X75646866Y-79632219D01*
X75659654Y-79614976D01*
X75674070Y-79599070D01*
X75689976Y-79584654D01*
X75707219Y-79571866D01*
X75725632Y-79560830D01*
X75745038Y-79551651D01*
X75765250Y-79544419D01*
X75786074Y-79539203D01*
X75807309Y-79536053D01*
X75828750Y-79535000D01*
X76266250Y-79535000D01*
X76287691Y-79536053D01*
G37*
G36*
X77862691Y-79536053D02*
G01*
X77883926Y-79539203D01*
X77904750Y-79544419D01*
X77924962Y-79551651D01*
X77944368Y-79560830D01*
X77962781Y-79571866D01*
X77980024Y-79584654D01*
X77995930Y-79599070D01*
X78010346Y-79614976D01*
X78023134Y-79632219D01*
X78034170Y-79650632D01*
X78043349Y-79670038D01*
X78050581Y-79690250D01*
X78055797Y-79711074D01*
X78058947Y-79732309D01*
X78060000Y-79753750D01*
X78060000Y-80266250D01*
X78058947Y-80287691D01*
X78055797Y-80308926D01*
X78050581Y-80329750D01*
X78043349Y-80349962D01*
X78034170Y-80369368D01*
X78023134Y-80387781D01*
X78010346Y-80405024D01*
X77995930Y-80420930D01*
X77980024Y-80435346D01*
X77962781Y-80448134D01*
X77944368Y-80459170D01*
X77924962Y-80468349D01*
X77904750Y-80475581D01*
X77883926Y-80480797D01*
X77862691Y-80483947D01*
X77841250Y-80485000D01*
X77403750Y-80485000D01*
X77382309Y-80483947D01*
X77361074Y-80480797D01*
X77340250Y-80475581D01*
X77320038Y-80468349D01*
X77300632Y-80459170D01*
X77282219Y-80448134D01*
X77264976Y-80435346D01*
X77249070Y-80420930D01*
X77234654Y-80405024D01*
X77221866Y-80387781D01*
X77210830Y-80369368D01*
X77201651Y-80349962D01*
X77194419Y-80329750D01*
X77189203Y-80308926D01*
X77186053Y-80287691D01*
X77185000Y-80266250D01*
X77185000Y-79753750D01*
X77186053Y-79732309D01*
X77189203Y-79711074D01*
X77194419Y-79690250D01*
X77201651Y-79670038D01*
X77210830Y-79650632D01*
X77221866Y-79632219D01*
X77234654Y-79614976D01*
X77249070Y-79599070D01*
X77264976Y-79584654D01*
X77282219Y-79571866D01*
X77300632Y-79560830D01*
X77320038Y-79551651D01*
X77340250Y-79544419D01*
X77361074Y-79539203D01*
X77382309Y-79536053D01*
X77403750Y-79535000D01*
X77841250Y-79535000D01*
X77862691Y-79536053D01*
G37*
G36*
X71894703Y-65740722D02*
G01*
X71909264Y-65742882D01*
X71923543Y-65746459D01*
X71937403Y-65751418D01*
X71950710Y-65757712D01*
X71963336Y-65765280D01*
X71975159Y-65774048D01*
X71986066Y-65783934D01*
X71995952Y-65794841D01*
X72004720Y-65806664D01*
X72012288Y-65819290D01*
X72018582Y-65832597D01*
X72023541Y-65846457D01*
X72027118Y-65860736D01*
X72029278Y-65875297D01*
X72030000Y-65890000D01*
X72030000Y-66190000D01*
X72029278Y-66204703D01*
X72027118Y-66219264D01*
X72023541Y-66233543D01*
X72018582Y-66247403D01*
X72012288Y-66260710D01*
X72004720Y-66273336D01*
X71995952Y-66285159D01*
X71986066Y-66296066D01*
X71975159Y-66305952D01*
X71963336Y-66314720D01*
X71950710Y-66322288D01*
X71937403Y-66328582D01*
X71923543Y-66333541D01*
X71909264Y-66337118D01*
X71894703Y-66339278D01*
X71880000Y-66340000D01*
X70230000Y-66340000D01*
X70215297Y-66339278D01*
X70200736Y-66337118D01*
X70186457Y-66333541D01*
X70172597Y-66328582D01*
X70159290Y-66322288D01*
X70146664Y-66314720D01*
X70134841Y-66305952D01*
X70123934Y-66296066D01*
X70114048Y-66285159D01*
X70105280Y-66273336D01*
X70097712Y-66260710D01*
X70091418Y-66247403D01*
X70086459Y-66233543D01*
X70082882Y-66219264D01*
X70080722Y-66204703D01*
X70080000Y-66190000D01*
X70080000Y-65890000D01*
X70080722Y-65875297D01*
X70082882Y-65860736D01*
X70086459Y-65846457D01*
X70091418Y-65832597D01*
X70097712Y-65819290D01*
X70105280Y-65806664D01*
X70114048Y-65794841D01*
X70123934Y-65783934D01*
X70134841Y-65774048D01*
X70146664Y-65765280D01*
X70159290Y-65757712D01*
X70172597Y-65751418D01*
X70186457Y-65746459D01*
X70200736Y-65742882D01*
X70215297Y-65740722D01*
X70230000Y-65740000D01*
X71880000Y-65740000D01*
X71894703Y-65740722D01*
G37*
G36*
X71894703Y-67010722D02*
G01*
X71909264Y-67012882D01*
X71923543Y-67016459D01*
X71937403Y-67021418D01*
X71950710Y-67027712D01*
X71963336Y-67035280D01*
X71975159Y-67044048D01*
X71986066Y-67053934D01*
X71995952Y-67064841D01*
X72004720Y-67076664D01*
X72012288Y-67089290D01*
X72018582Y-67102597D01*
X72023541Y-67116457D01*
X72027118Y-67130736D01*
X72029278Y-67145297D01*
X72030000Y-67160000D01*
X72030000Y-67460000D01*
X72029278Y-67474703D01*
X72027118Y-67489264D01*
X72023541Y-67503543D01*
X72018582Y-67517403D01*
X72012288Y-67530710D01*
X72004720Y-67543336D01*
X71995952Y-67555159D01*
X71986066Y-67566066D01*
X71975159Y-67575952D01*
X71963336Y-67584720D01*
X71950710Y-67592288D01*
X71937403Y-67598582D01*
X71923543Y-67603541D01*
X71909264Y-67607118D01*
X71894703Y-67609278D01*
X71880000Y-67610000D01*
X70230000Y-67610000D01*
X70215297Y-67609278D01*
X70200736Y-67607118D01*
X70186457Y-67603541D01*
X70172597Y-67598582D01*
X70159290Y-67592288D01*
X70146664Y-67584720D01*
X70134841Y-67575952D01*
X70123934Y-67566066D01*
X70114048Y-67555159D01*
X70105280Y-67543336D01*
X70097712Y-67530710D01*
X70091418Y-67517403D01*
X70086459Y-67503543D01*
X70082882Y-67489264D01*
X70080722Y-67474703D01*
X70080000Y-67460000D01*
X70080000Y-67160000D01*
X70080722Y-67145297D01*
X70082882Y-67130736D01*
X70086459Y-67116457D01*
X70091418Y-67102597D01*
X70097712Y-67089290D01*
X70105280Y-67076664D01*
X70114048Y-67064841D01*
X70123934Y-67053934D01*
X70134841Y-67044048D01*
X70146664Y-67035280D01*
X70159290Y-67027712D01*
X70172597Y-67021418D01*
X70186457Y-67016459D01*
X70200736Y-67012882D01*
X70215297Y-67010722D01*
X70230000Y-67010000D01*
X71880000Y-67010000D01*
X71894703Y-67010722D01*
G37*
G36*
X71894703Y-68280722D02*
G01*
X71909264Y-68282882D01*
X71923543Y-68286459D01*
X71937403Y-68291418D01*
X71950710Y-68297712D01*
X71963336Y-68305280D01*
X71975159Y-68314048D01*
X71986066Y-68323934D01*
X71995952Y-68334841D01*
X72004720Y-68346664D01*
X72012288Y-68359290D01*
X72018582Y-68372597D01*
X72023541Y-68386457D01*
X72027118Y-68400736D01*
X72029278Y-68415297D01*
X72030000Y-68430000D01*
X72030000Y-68730000D01*
X72029278Y-68744703D01*
X72027118Y-68759264D01*
X72023541Y-68773543D01*
X72018582Y-68787403D01*
X72012288Y-68800710D01*
X72004720Y-68813336D01*
X71995952Y-68825159D01*
X71986066Y-68836066D01*
X71975159Y-68845952D01*
X71963336Y-68854720D01*
X71950710Y-68862288D01*
X71937403Y-68868582D01*
X71923543Y-68873541D01*
X71909264Y-68877118D01*
X71894703Y-68879278D01*
X71880000Y-68880000D01*
X70230000Y-68880000D01*
X70215297Y-68879278D01*
X70200736Y-68877118D01*
X70186457Y-68873541D01*
X70172597Y-68868582D01*
X70159290Y-68862288D01*
X70146664Y-68854720D01*
X70134841Y-68845952D01*
X70123934Y-68836066D01*
X70114048Y-68825159D01*
X70105280Y-68813336D01*
X70097712Y-68800710D01*
X70091418Y-68787403D01*
X70086459Y-68773543D01*
X70082882Y-68759264D01*
X70080722Y-68744703D01*
X70080000Y-68730000D01*
X70080000Y-68430000D01*
X70080722Y-68415297D01*
X70082882Y-68400736D01*
X70086459Y-68386457D01*
X70091418Y-68372597D01*
X70097712Y-68359290D01*
X70105280Y-68346664D01*
X70114048Y-68334841D01*
X70123934Y-68323934D01*
X70134841Y-68314048D01*
X70146664Y-68305280D01*
X70159290Y-68297712D01*
X70172597Y-68291418D01*
X70186457Y-68286459D01*
X70200736Y-68282882D01*
X70215297Y-68280722D01*
X70230000Y-68280000D01*
X71880000Y-68280000D01*
X71894703Y-68280722D01*
G37*
G36*
X71894703Y-69550722D02*
G01*
X71909264Y-69552882D01*
X71923543Y-69556459D01*
X71937403Y-69561418D01*
X71950710Y-69567712D01*
X71963336Y-69575280D01*
X71975159Y-69584048D01*
X71986066Y-69593934D01*
X71995952Y-69604841D01*
X72004720Y-69616664D01*
X72012288Y-69629290D01*
X72018582Y-69642597D01*
X72023541Y-69656457D01*
X72027118Y-69670736D01*
X72029278Y-69685297D01*
X72030000Y-69700000D01*
X72030000Y-70000000D01*
X72029278Y-70014703D01*
X72027118Y-70029264D01*
X72023541Y-70043543D01*
X72018582Y-70057403D01*
X72012288Y-70070710D01*
X72004720Y-70083336D01*
X71995952Y-70095159D01*
X71986066Y-70106066D01*
X71975159Y-70115952D01*
X71963336Y-70124720D01*
X71950710Y-70132288D01*
X71937403Y-70138582D01*
X71923543Y-70143541D01*
X71909264Y-70147118D01*
X71894703Y-70149278D01*
X71880000Y-70150000D01*
X70230000Y-70150000D01*
X70215297Y-70149278D01*
X70200736Y-70147118D01*
X70186457Y-70143541D01*
X70172597Y-70138582D01*
X70159290Y-70132288D01*
X70146664Y-70124720D01*
X70134841Y-70115952D01*
X70123934Y-70106066D01*
X70114048Y-70095159D01*
X70105280Y-70083336D01*
X70097712Y-70070710D01*
X70091418Y-70057403D01*
X70086459Y-70043543D01*
X70082882Y-70029264D01*
X70080722Y-70014703D01*
X70080000Y-70000000D01*
X70080000Y-69700000D01*
X70080722Y-69685297D01*
X70082882Y-69670736D01*
X70086459Y-69656457D01*
X70091418Y-69642597D01*
X70097712Y-69629290D01*
X70105280Y-69616664D01*
X70114048Y-69604841D01*
X70123934Y-69593934D01*
X70134841Y-69584048D01*
X70146664Y-69575280D01*
X70159290Y-69567712D01*
X70172597Y-69561418D01*
X70186457Y-69556459D01*
X70200736Y-69552882D01*
X70215297Y-69550722D01*
X70230000Y-69550000D01*
X71880000Y-69550000D01*
X71894703Y-69550722D01*
G37*
G36*
X71894703Y-70820722D02*
G01*
X71909264Y-70822882D01*
X71923543Y-70826459D01*
X71937403Y-70831418D01*
X71950710Y-70837712D01*
X71963336Y-70845280D01*
X71975159Y-70854048D01*
X71986066Y-70863934D01*
X71995952Y-70874841D01*
X72004720Y-70886664D01*
X72012288Y-70899290D01*
X72018582Y-70912597D01*
X72023541Y-70926457D01*
X72027118Y-70940736D01*
X72029278Y-70955297D01*
X72030000Y-70970000D01*
X72030000Y-71270000D01*
X72029278Y-71284703D01*
X72027118Y-71299264D01*
X72023541Y-71313543D01*
X72018582Y-71327403D01*
X72012288Y-71340710D01*
X72004720Y-71353336D01*
X71995952Y-71365159D01*
X71986066Y-71376066D01*
X71975159Y-71385952D01*
X71963336Y-71394720D01*
X71950710Y-71402288D01*
X71937403Y-71408582D01*
X71923543Y-71413541D01*
X71909264Y-71417118D01*
X71894703Y-71419278D01*
X71880000Y-71420000D01*
X70230000Y-71420000D01*
X70215297Y-71419278D01*
X70200736Y-71417118D01*
X70186457Y-71413541D01*
X70172597Y-71408582D01*
X70159290Y-71402288D01*
X70146664Y-71394720D01*
X70134841Y-71385952D01*
X70123934Y-71376066D01*
X70114048Y-71365159D01*
X70105280Y-71353336D01*
X70097712Y-71340710D01*
X70091418Y-71327403D01*
X70086459Y-71313543D01*
X70082882Y-71299264D01*
X70080722Y-71284703D01*
X70080000Y-71270000D01*
X70080000Y-70970000D01*
X70080722Y-70955297D01*
X70082882Y-70940736D01*
X70086459Y-70926457D01*
X70091418Y-70912597D01*
X70097712Y-70899290D01*
X70105280Y-70886664D01*
X70114048Y-70874841D01*
X70123934Y-70863934D01*
X70134841Y-70854048D01*
X70146664Y-70845280D01*
X70159290Y-70837712D01*
X70172597Y-70831418D01*
X70186457Y-70826459D01*
X70200736Y-70822882D01*
X70215297Y-70820722D01*
X70230000Y-70820000D01*
X71880000Y-70820000D01*
X71894703Y-70820722D01*
G37*
G36*
X71894703Y-72090722D02*
G01*
X71909264Y-72092882D01*
X71923543Y-72096459D01*
X71937403Y-72101418D01*
X71950710Y-72107712D01*
X71963336Y-72115280D01*
X71975159Y-72124048D01*
X71986066Y-72133934D01*
X71995952Y-72144841D01*
X72004720Y-72156664D01*
X72012288Y-72169290D01*
X72018582Y-72182597D01*
X72023541Y-72196457D01*
X72027118Y-72210736D01*
X72029278Y-72225297D01*
X72030000Y-72240000D01*
X72030000Y-72540000D01*
X72029278Y-72554703D01*
X72027118Y-72569264D01*
X72023541Y-72583543D01*
X72018582Y-72597403D01*
X72012288Y-72610710D01*
X72004720Y-72623336D01*
X71995952Y-72635159D01*
X71986066Y-72646066D01*
X71975159Y-72655952D01*
X71963336Y-72664720D01*
X71950710Y-72672288D01*
X71937403Y-72678582D01*
X71923543Y-72683541D01*
X71909264Y-72687118D01*
X71894703Y-72689278D01*
X71880000Y-72690000D01*
X70230000Y-72690000D01*
X70215297Y-72689278D01*
X70200736Y-72687118D01*
X70186457Y-72683541D01*
X70172597Y-72678582D01*
X70159290Y-72672288D01*
X70146664Y-72664720D01*
X70134841Y-72655952D01*
X70123934Y-72646066D01*
X70114048Y-72635159D01*
X70105280Y-72623336D01*
X70097712Y-72610710D01*
X70091418Y-72597403D01*
X70086459Y-72583543D01*
X70082882Y-72569264D01*
X70080722Y-72554703D01*
X70080000Y-72540000D01*
X70080000Y-72240000D01*
X70080722Y-72225297D01*
X70082882Y-72210736D01*
X70086459Y-72196457D01*
X70091418Y-72182597D01*
X70097712Y-72169290D01*
X70105280Y-72156664D01*
X70114048Y-72144841D01*
X70123934Y-72133934D01*
X70134841Y-72124048D01*
X70146664Y-72115280D01*
X70159290Y-72107712D01*
X70172597Y-72101418D01*
X70186457Y-72096459D01*
X70200736Y-72092882D01*
X70215297Y-72090722D01*
X70230000Y-72090000D01*
X71880000Y-72090000D01*
X71894703Y-72090722D01*
G37*
G36*
X71894703Y-73360722D02*
G01*
X71909264Y-73362882D01*
X71923543Y-73366459D01*
X71937403Y-73371418D01*
X71950710Y-73377712D01*
X71963336Y-73385280D01*
X71975159Y-73394048D01*
X71986066Y-73403934D01*
X71995952Y-73414841D01*
X72004720Y-73426664D01*
X72012288Y-73439290D01*
X72018582Y-73452597D01*
X72023541Y-73466457D01*
X72027118Y-73480736D01*
X72029278Y-73495297D01*
X72030000Y-73510000D01*
X72030000Y-73810000D01*
X72029278Y-73824703D01*
X72027118Y-73839264D01*
X72023541Y-73853543D01*
X72018582Y-73867403D01*
X72012288Y-73880710D01*
X72004720Y-73893336D01*
X71995952Y-73905159D01*
X71986066Y-73916066D01*
X71975159Y-73925952D01*
X71963336Y-73934720D01*
X71950710Y-73942288D01*
X71937403Y-73948582D01*
X71923543Y-73953541D01*
X71909264Y-73957118D01*
X71894703Y-73959278D01*
X71880000Y-73960000D01*
X70230000Y-73960000D01*
X70215297Y-73959278D01*
X70200736Y-73957118D01*
X70186457Y-73953541D01*
X70172597Y-73948582D01*
X70159290Y-73942288D01*
X70146664Y-73934720D01*
X70134841Y-73925952D01*
X70123934Y-73916066D01*
X70114048Y-73905159D01*
X70105280Y-73893336D01*
X70097712Y-73880710D01*
X70091418Y-73867403D01*
X70086459Y-73853543D01*
X70082882Y-73839264D01*
X70080722Y-73824703D01*
X70080000Y-73810000D01*
X70080000Y-73510000D01*
X70080722Y-73495297D01*
X70082882Y-73480736D01*
X70086459Y-73466457D01*
X70091418Y-73452597D01*
X70097712Y-73439290D01*
X70105280Y-73426664D01*
X70114048Y-73414841D01*
X70123934Y-73403934D01*
X70134841Y-73394048D01*
X70146664Y-73385280D01*
X70159290Y-73377712D01*
X70172597Y-73371418D01*
X70186457Y-73366459D01*
X70200736Y-73362882D01*
X70215297Y-73360722D01*
X70230000Y-73360000D01*
X71880000Y-73360000D01*
X71894703Y-73360722D01*
G37*
G36*
X66944703Y-73360722D02*
G01*
X66959264Y-73362882D01*
X66973543Y-73366459D01*
X66987403Y-73371418D01*
X67000710Y-73377712D01*
X67013336Y-73385280D01*
X67025159Y-73394048D01*
X67036066Y-73403934D01*
X67045952Y-73414841D01*
X67054720Y-73426664D01*
X67062288Y-73439290D01*
X67068582Y-73452597D01*
X67073541Y-73466457D01*
X67077118Y-73480736D01*
X67079278Y-73495297D01*
X67080000Y-73510000D01*
X67080000Y-73810000D01*
X67079278Y-73824703D01*
X67077118Y-73839264D01*
X67073541Y-73853543D01*
X67068582Y-73867403D01*
X67062288Y-73880710D01*
X67054720Y-73893336D01*
X67045952Y-73905159D01*
X67036066Y-73916066D01*
X67025159Y-73925952D01*
X67013336Y-73934720D01*
X67000710Y-73942288D01*
X66987403Y-73948582D01*
X66973543Y-73953541D01*
X66959264Y-73957118D01*
X66944703Y-73959278D01*
X66930000Y-73960000D01*
X65280000Y-73960000D01*
X65265297Y-73959278D01*
X65250736Y-73957118D01*
X65236457Y-73953541D01*
X65222597Y-73948582D01*
X65209290Y-73942288D01*
X65196664Y-73934720D01*
X65184841Y-73925952D01*
X65173934Y-73916066D01*
X65164048Y-73905159D01*
X65155280Y-73893336D01*
X65147712Y-73880710D01*
X65141418Y-73867403D01*
X65136459Y-73853543D01*
X65132882Y-73839264D01*
X65130722Y-73824703D01*
X65130000Y-73810000D01*
X65130000Y-73510000D01*
X65130722Y-73495297D01*
X65132882Y-73480736D01*
X65136459Y-73466457D01*
X65141418Y-73452597D01*
X65147712Y-73439290D01*
X65155280Y-73426664D01*
X65164048Y-73414841D01*
X65173934Y-73403934D01*
X65184841Y-73394048D01*
X65196664Y-73385280D01*
X65209290Y-73377712D01*
X65222597Y-73371418D01*
X65236457Y-73366459D01*
X65250736Y-73362882D01*
X65265297Y-73360722D01*
X65280000Y-73360000D01*
X66930000Y-73360000D01*
X66944703Y-73360722D01*
G37*
G36*
X66944703Y-72090722D02*
G01*
X66959264Y-72092882D01*
X66973543Y-72096459D01*
X66987403Y-72101418D01*
X67000710Y-72107712D01*
X67013336Y-72115280D01*
X67025159Y-72124048D01*
X67036066Y-72133934D01*
X67045952Y-72144841D01*
X67054720Y-72156664D01*
X67062288Y-72169290D01*
X67068582Y-72182597D01*
X67073541Y-72196457D01*
X67077118Y-72210736D01*
X67079278Y-72225297D01*
X67080000Y-72240000D01*
X67080000Y-72540000D01*
X67079278Y-72554703D01*
X67077118Y-72569264D01*
X67073541Y-72583543D01*
X67068582Y-72597403D01*
X67062288Y-72610710D01*
X67054720Y-72623336D01*
X67045952Y-72635159D01*
X67036066Y-72646066D01*
X67025159Y-72655952D01*
X67013336Y-72664720D01*
X67000710Y-72672288D01*
X66987403Y-72678582D01*
X66973543Y-72683541D01*
X66959264Y-72687118D01*
X66944703Y-72689278D01*
X66930000Y-72690000D01*
X65280000Y-72690000D01*
X65265297Y-72689278D01*
X65250736Y-72687118D01*
X65236457Y-72683541D01*
X65222597Y-72678582D01*
X65209290Y-72672288D01*
X65196664Y-72664720D01*
X65184841Y-72655952D01*
X65173934Y-72646066D01*
X65164048Y-72635159D01*
X65155280Y-72623336D01*
X65147712Y-72610710D01*
X65141418Y-72597403D01*
X65136459Y-72583543D01*
X65132882Y-72569264D01*
X65130722Y-72554703D01*
X65130000Y-72540000D01*
X65130000Y-72240000D01*
X65130722Y-72225297D01*
X65132882Y-72210736D01*
X65136459Y-72196457D01*
X65141418Y-72182597D01*
X65147712Y-72169290D01*
X65155280Y-72156664D01*
X65164048Y-72144841D01*
X65173934Y-72133934D01*
X65184841Y-72124048D01*
X65196664Y-72115280D01*
X65209290Y-72107712D01*
X65222597Y-72101418D01*
X65236457Y-72096459D01*
X65250736Y-72092882D01*
X65265297Y-72090722D01*
X65280000Y-72090000D01*
X66930000Y-72090000D01*
X66944703Y-72090722D01*
G37*
G36*
X66944703Y-70820722D02*
G01*
X66959264Y-70822882D01*
X66973543Y-70826459D01*
X66987403Y-70831418D01*
X67000710Y-70837712D01*
X67013336Y-70845280D01*
X67025159Y-70854048D01*
X67036066Y-70863934D01*
X67045952Y-70874841D01*
X67054720Y-70886664D01*
X67062288Y-70899290D01*
X67068582Y-70912597D01*
X67073541Y-70926457D01*
X67077118Y-70940736D01*
X67079278Y-70955297D01*
X67080000Y-70970000D01*
X67080000Y-71270000D01*
X67079278Y-71284703D01*
X67077118Y-71299264D01*
X67073541Y-71313543D01*
X67068582Y-71327403D01*
X67062288Y-71340710D01*
X67054720Y-71353336D01*
X67045952Y-71365159D01*
X67036066Y-71376066D01*
X67025159Y-71385952D01*
X67013336Y-71394720D01*
X67000710Y-71402288D01*
X66987403Y-71408582D01*
X66973543Y-71413541D01*
X66959264Y-71417118D01*
X66944703Y-71419278D01*
X66930000Y-71420000D01*
X65280000Y-71420000D01*
X65265297Y-71419278D01*
X65250736Y-71417118D01*
X65236457Y-71413541D01*
X65222597Y-71408582D01*
X65209290Y-71402288D01*
X65196664Y-71394720D01*
X65184841Y-71385952D01*
X65173934Y-71376066D01*
X65164048Y-71365159D01*
X65155280Y-71353336D01*
X65147712Y-71340710D01*
X65141418Y-71327403D01*
X65136459Y-71313543D01*
X65132882Y-71299264D01*
X65130722Y-71284703D01*
X65130000Y-71270000D01*
X65130000Y-70970000D01*
X65130722Y-70955297D01*
X65132882Y-70940736D01*
X65136459Y-70926457D01*
X65141418Y-70912597D01*
X65147712Y-70899290D01*
X65155280Y-70886664D01*
X65164048Y-70874841D01*
X65173934Y-70863934D01*
X65184841Y-70854048D01*
X65196664Y-70845280D01*
X65209290Y-70837712D01*
X65222597Y-70831418D01*
X65236457Y-70826459D01*
X65250736Y-70822882D01*
X65265297Y-70820722D01*
X65280000Y-70820000D01*
X66930000Y-70820000D01*
X66944703Y-70820722D01*
G37*
G36*
X66944703Y-69550722D02*
G01*
X66959264Y-69552882D01*
X66973543Y-69556459D01*
X66987403Y-69561418D01*
X67000710Y-69567712D01*
X67013336Y-69575280D01*
X67025159Y-69584048D01*
X67036066Y-69593934D01*
X67045952Y-69604841D01*
X67054720Y-69616664D01*
X67062288Y-69629290D01*
X67068582Y-69642597D01*
X67073541Y-69656457D01*
X67077118Y-69670736D01*
X67079278Y-69685297D01*
X67080000Y-69700000D01*
X67080000Y-70000000D01*
X67079278Y-70014703D01*
X67077118Y-70029264D01*
X67073541Y-70043543D01*
X67068582Y-70057403D01*
X67062288Y-70070710D01*
X67054720Y-70083336D01*
X67045952Y-70095159D01*
X67036066Y-70106066D01*
X67025159Y-70115952D01*
X67013336Y-70124720D01*
X67000710Y-70132288D01*
X66987403Y-70138582D01*
X66973543Y-70143541D01*
X66959264Y-70147118D01*
X66944703Y-70149278D01*
X66930000Y-70150000D01*
X65280000Y-70150000D01*
X65265297Y-70149278D01*
X65250736Y-70147118D01*
X65236457Y-70143541D01*
X65222597Y-70138582D01*
X65209290Y-70132288D01*
X65196664Y-70124720D01*
X65184841Y-70115952D01*
X65173934Y-70106066D01*
X65164048Y-70095159D01*
X65155280Y-70083336D01*
X65147712Y-70070710D01*
X65141418Y-70057403D01*
X65136459Y-70043543D01*
X65132882Y-70029264D01*
X65130722Y-70014703D01*
X65130000Y-70000000D01*
X65130000Y-69700000D01*
X65130722Y-69685297D01*
X65132882Y-69670736D01*
X65136459Y-69656457D01*
X65141418Y-69642597D01*
X65147712Y-69629290D01*
X65155280Y-69616664D01*
X65164048Y-69604841D01*
X65173934Y-69593934D01*
X65184841Y-69584048D01*
X65196664Y-69575280D01*
X65209290Y-69567712D01*
X65222597Y-69561418D01*
X65236457Y-69556459D01*
X65250736Y-69552882D01*
X65265297Y-69550722D01*
X65280000Y-69550000D01*
X66930000Y-69550000D01*
X66944703Y-69550722D01*
G37*
G36*
X66944703Y-68280722D02*
G01*
X66959264Y-68282882D01*
X66973543Y-68286459D01*
X66987403Y-68291418D01*
X67000710Y-68297712D01*
X67013336Y-68305280D01*
X67025159Y-68314048D01*
X67036066Y-68323934D01*
X67045952Y-68334841D01*
X67054720Y-68346664D01*
X67062288Y-68359290D01*
X67068582Y-68372597D01*
X67073541Y-68386457D01*
X67077118Y-68400736D01*
X67079278Y-68415297D01*
X67080000Y-68430000D01*
X67080000Y-68730000D01*
X67079278Y-68744703D01*
X67077118Y-68759264D01*
X67073541Y-68773543D01*
X67068582Y-68787403D01*
X67062288Y-68800710D01*
X67054720Y-68813336D01*
X67045952Y-68825159D01*
X67036066Y-68836066D01*
X67025159Y-68845952D01*
X67013336Y-68854720D01*
X67000710Y-68862288D01*
X66987403Y-68868582D01*
X66973543Y-68873541D01*
X66959264Y-68877118D01*
X66944703Y-68879278D01*
X66930000Y-68880000D01*
X65280000Y-68880000D01*
X65265297Y-68879278D01*
X65250736Y-68877118D01*
X65236457Y-68873541D01*
X65222597Y-68868582D01*
X65209290Y-68862288D01*
X65196664Y-68854720D01*
X65184841Y-68845952D01*
X65173934Y-68836066D01*
X65164048Y-68825159D01*
X65155280Y-68813336D01*
X65147712Y-68800710D01*
X65141418Y-68787403D01*
X65136459Y-68773543D01*
X65132882Y-68759264D01*
X65130722Y-68744703D01*
X65130000Y-68730000D01*
X65130000Y-68430000D01*
X65130722Y-68415297D01*
X65132882Y-68400736D01*
X65136459Y-68386457D01*
X65141418Y-68372597D01*
X65147712Y-68359290D01*
X65155280Y-68346664D01*
X65164048Y-68334841D01*
X65173934Y-68323934D01*
X65184841Y-68314048D01*
X65196664Y-68305280D01*
X65209290Y-68297712D01*
X65222597Y-68291418D01*
X65236457Y-68286459D01*
X65250736Y-68282882D01*
X65265297Y-68280722D01*
X65280000Y-68280000D01*
X66930000Y-68280000D01*
X66944703Y-68280722D01*
G37*
G36*
X66944703Y-67010722D02*
G01*
X66959264Y-67012882D01*
X66973543Y-67016459D01*
X66987403Y-67021418D01*
X67000710Y-67027712D01*
X67013336Y-67035280D01*
X67025159Y-67044048D01*
X67036066Y-67053934D01*
X67045952Y-67064841D01*
X67054720Y-67076664D01*
X67062288Y-67089290D01*
X67068582Y-67102597D01*
X67073541Y-67116457D01*
X67077118Y-67130736D01*
X67079278Y-67145297D01*
X67080000Y-67160000D01*
X67080000Y-67460000D01*
X67079278Y-67474703D01*
X67077118Y-67489264D01*
X67073541Y-67503543D01*
X67068582Y-67517403D01*
X67062288Y-67530710D01*
X67054720Y-67543336D01*
X67045952Y-67555159D01*
X67036066Y-67566066D01*
X67025159Y-67575952D01*
X67013336Y-67584720D01*
X67000710Y-67592288D01*
X66987403Y-67598582D01*
X66973543Y-67603541D01*
X66959264Y-67607118D01*
X66944703Y-67609278D01*
X66930000Y-67610000D01*
X65280000Y-67610000D01*
X65265297Y-67609278D01*
X65250736Y-67607118D01*
X65236457Y-67603541D01*
X65222597Y-67598582D01*
X65209290Y-67592288D01*
X65196664Y-67584720D01*
X65184841Y-67575952D01*
X65173934Y-67566066D01*
X65164048Y-67555159D01*
X65155280Y-67543336D01*
X65147712Y-67530710D01*
X65141418Y-67517403D01*
X65136459Y-67503543D01*
X65132882Y-67489264D01*
X65130722Y-67474703D01*
X65130000Y-67460000D01*
X65130000Y-67160000D01*
X65130722Y-67145297D01*
X65132882Y-67130736D01*
X65136459Y-67116457D01*
X65141418Y-67102597D01*
X65147712Y-67089290D01*
X65155280Y-67076664D01*
X65164048Y-67064841D01*
X65173934Y-67053934D01*
X65184841Y-67044048D01*
X65196664Y-67035280D01*
X65209290Y-67027712D01*
X65222597Y-67021418D01*
X65236457Y-67016459D01*
X65250736Y-67012882D01*
X65265297Y-67010722D01*
X65280000Y-67010000D01*
X66930000Y-67010000D01*
X66944703Y-67010722D01*
G37*
G36*
X66944703Y-65740722D02*
G01*
X66959264Y-65742882D01*
X66973543Y-65746459D01*
X66987403Y-65751418D01*
X67000710Y-65757712D01*
X67013336Y-65765280D01*
X67025159Y-65774048D01*
X67036066Y-65783934D01*
X67045952Y-65794841D01*
X67054720Y-65806664D01*
X67062288Y-65819290D01*
X67068582Y-65832597D01*
X67073541Y-65846457D01*
X67077118Y-65860736D01*
X67079278Y-65875297D01*
X67080000Y-65890000D01*
X67080000Y-66190000D01*
X67079278Y-66204703D01*
X67077118Y-66219264D01*
X67073541Y-66233543D01*
X67068582Y-66247403D01*
X67062288Y-66260710D01*
X67054720Y-66273336D01*
X67045952Y-66285159D01*
X67036066Y-66296066D01*
X67025159Y-66305952D01*
X67013336Y-66314720D01*
X67000710Y-66322288D01*
X66987403Y-66328582D01*
X66973543Y-66333541D01*
X66959264Y-66337118D01*
X66944703Y-66339278D01*
X66930000Y-66340000D01*
X65280000Y-66340000D01*
X65265297Y-66339278D01*
X65250736Y-66337118D01*
X65236457Y-66333541D01*
X65222597Y-66328582D01*
X65209290Y-66322288D01*
X65196664Y-66314720D01*
X65184841Y-66305952D01*
X65173934Y-66296066D01*
X65164048Y-66285159D01*
X65155280Y-66273336D01*
X65147712Y-66260710D01*
X65141418Y-66247403D01*
X65136459Y-66233543D01*
X65132882Y-66219264D01*
X65130722Y-66204703D01*
X65130000Y-66190000D01*
X65130000Y-65890000D01*
X65130722Y-65875297D01*
X65132882Y-65860736D01*
X65136459Y-65846457D01*
X65141418Y-65832597D01*
X65147712Y-65819290D01*
X65155280Y-65806664D01*
X65164048Y-65794841D01*
X65173934Y-65783934D01*
X65184841Y-65774048D01*
X65196664Y-65765280D01*
X65209290Y-65757712D01*
X65222597Y-65751418D01*
X65236457Y-65746459D01*
X65250736Y-65742882D01*
X65265297Y-65740722D01*
X65280000Y-65740000D01*
X66930000Y-65740000D01*
X66944703Y-65740722D01*
G37*
M02*
