G04 #@! TF.GenerationSoftware,KiCad,Pcbnew,(5.1.5)-3*
G04 #@! TF.CreationDate,2020-11-19T15:19:38-03:00*
G04 #@! TF.ProjectId,MainBoard_a,4d61696e-426f-4617-9264-5f612e6b6963,1*
G04 #@! TF.SameCoordinates,Original*
G04 #@! TF.FileFunction,Soldermask,Top*
G04 #@! TF.FilePolarity,Negative*
%FSLAX46Y46*%
G04 Gerber Fmt 4.6, Leading zero omitted, Abs format (unit mm)*
G04 Created by KiCad (PCBNEW (5.1.5)-3) date 2020-11-19 15:19:38*
%MOMM*%
%LPD*%
G04 APERTURE LIST*
%ADD10R,2.400000X2.400000*%
%ADD11O,2.400000X2.400000*%
%ADD12R,2.100000X2.100000*%
%ADD13C,2.400000*%
G04 APERTURE END LIST*
D10*
X49530000Y-62865000D03*
D11*
X49530000Y-65405000D03*
X49530000Y-67945000D03*
X49530000Y-70485000D03*
X73025000Y-48260000D03*
D10*
X75565000Y-48260000D03*
D11*
X53340000Y-58420000D03*
X53340000Y-60960000D03*
X53340000Y-63500000D03*
X53340000Y-66040000D03*
X53340000Y-68580000D03*
X53340000Y-71120000D03*
X53340000Y-73660000D03*
D10*
X53340000Y-76200000D03*
D12*
X88900000Y-67310000D03*
D11*
X88900000Y-64770000D03*
D10*
X85090000Y-58420000D03*
D11*
X85090000Y-60960000D03*
X85090000Y-63500000D03*
X85090000Y-66040000D03*
X85090000Y-68580000D03*
X85090000Y-71120000D03*
X85090000Y-73660000D03*
X85090000Y-76200000D03*
D10*
X64135000Y-83820000D03*
D11*
X66675000Y-83820000D03*
X69215000Y-83820000D03*
X71755000Y-83820000D03*
X74295000Y-83820000D03*
D13*
X80645000Y-58420000D03*
X57785000Y-58420000D03*
X80645000Y-60960000D03*
X57785000Y-60960000D03*
X80645000Y-63500000D03*
X57785000Y-63500000D03*
X80645000Y-66040000D03*
X57785000Y-66040000D03*
X80645000Y-68580000D03*
X57785000Y-68580000D03*
X80645000Y-71120000D03*
X57785000Y-71120000D03*
X80645000Y-73660000D03*
X57785000Y-73660000D03*
X80645000Y-76200000D03*
X57785000Y-76200000D03*
D10*
X83820000Y-53975000D03*
D11*
X81280000Y-53975000D03*
M02*
