M48
; DRILL file {KiCad (5.1.5)-3} date 19/11/2020 15:16:27
; FORMAT={-:-/ absolute / inch / decimal}
; #@! TF.CreationDate,2020-11-19T15:16:27-03:00
; #@! TF.GenerationSoftware,Kicad,Pcbnew,(5.1.5)-3
; #@! TF.FileFunction,Plated,1,2,PTH
FMAT,2
INCH
T1C0.0394
T2C0.0400
%
G90
G05
T1
X2.4Y-3.375
X3.2Y-2.125
X3.3Y-2.125
X1.95Y-2.475
X1.95Y-2.575
X1.95Y-2.675
X1.95Y-2.775
X2.5Y-3.025
X2.1Y-2.3
X2.1Y-2.4
X2.1Y-2.5
X2.1Y-2.6
X2.1Y-2.7
X2.1Y-2.8
X2.1Y-2.9
X2.1Y-3.0
X2.9Y-3.025
X3.35Y-2.3
X3.35Y-2.4
X3.35Y-2.5
X3.35Y-2.6
X3.35Y-2.7
X3.35Y-2.8
X3.35Y-2.9
X3.35Y-3.0
X3.0Y-2.925
X2.4Y-3.225
X2.5Y-2.675
X2.875Y-1.9
X2.975Y-1.9
X2.925Y-2.675
X3.5Y-2.55
X3.5Y-2.65
X3.0Y-2.5
X2.525Y-3.3
X2.625Y-3.3
X2.725Y-3.3
X2.825Y-3.3
X2.925Y-3.3
T2
X2.275Y-2.3
X2.275Y-2.4
X2.275Y-2.5
X2.275Y-2.6
X2.275Y-2.7
X2.275Y-2.8
X2.275Y-2.9
X2.275Y-3.0
X3.175Y-2.3
X3.175Y-2.4
X3.175Y-2.5
X3.175Y-2.6
X3.175Y-2.7
X3.175Y-2.8
X3.175Y-2.9
X3.175Y-3.0
T0
M30
