G04 #@! TF.GenerationSoftware,KiCad,Pcbnew,(5.1.5)-3*
G04 #@! TF.CreationDate,2020-11-19T15:19:38-03:00*
G04 #@! TF.ProjectId,MainBoard_a,4d61696e-426f-4617-9264-5f612e6b6963,1*
G04 #@! TF.SameCoordinates,Original*
G04 #@! TF.FileFunction,Copper,L1,Top*
G04 #@! TF.FilePolarity,Positive*
%FSLAX46Y46*%
G04 Gerber Fmt 4.6, Leading zero omitted, Abs format (unit mm)*
G04 Created by KiCad (PCBNEW (5.1.5)-3) date 2020-11-19 15:19:38*
%MOMM*%
%LPD*%
G04 APERTURE LIST*
%ADD10C,1.800000*%
%ADD11R,2.000000X2.000000*%
%ADD12O,2.000000X2.000000*%
%ADD13R,1.700000X1.700000*%
%ADD14C,2.000000*%
%ADD15C,0.600000*%
G04 APERTURE END LIST*
D10*
X76200000Y-63500000D03*
X76200000Y-74295000D03*
X60960000Y-85725000D03*
X60960000Y-81915000D03*
X63500000Y-76835000D03*
X74295000Y-67945000D03*
X73660000Y-76835000D03*
D11*
X49530000Y-62865000D03*
D12*
X49530000Y-65405000D03*
X49530000Y-67945000D03*
X49530000Y-70485000D03*
X73025000Y-48260000D03*
D11*
X75565000Y-48260000D03*
D12*
X53340000Y-58420000D03*
X53340000Y-60960000D03*
X53340000Y-63500000D03*
X53340000Y-66040000D03*
X53340000Y-68580000D03*
X53340000Y-71120000D03*
X53340000Y-73660000D03*
D11*
X53340000Y-76200000D03*
D13*
X88900000Y-67310000D03*
D12*
X88900000Y-64770000D03*
D11*
X85090000Y-58420000D03*
D12*
X85090000Y-60960000D03*
X85090000Y-63500000D03*
X85090000Y-66040000D03*
X85090000Y-68580000D03*
X85090000Y-71120000D03*
X85090000Y-73660000D03*
X85090000Y-76200000D03*
D11*
X64135000Y-83820000D03*
D12*
X66675000Y-83820000D03*
X69215000Y-83820000D03*
X71755000Y-83820000D03*
X74295000Y-83820000D03*
D14*
X80645000Y-58420000D03*
X57785000Y-58420000D03*
X80645000Y-60960000D03*
X57785000Y-60960000D03*
X80645000Y-63500000D03*
X57785000Y-63500000D03*
X80645000Y-66040000D03*
X57785000Y-66040000D03*
X80645000Y-68580000D03*
X57785000Y-68580000D03*
X80645000Y-71120000D03*
X57785000Y-71120000D03*
X80645000Y-73660000D03*
X57785000Y-73660000D03*
X80645000Y-76200000D03*
X57785000Y-76200000D03*
D11*
X83820000Y-53975000D03*
D12*
X81280000Y-53975000D03*
D10*
X63500000Y-67945000D03*
D15*
X76200000Y-63500000D02*
X76200000Y-74295000D01*
X60960000Y-81915000D02*
X60960000Y-85725000D01*
X74295000Y-67945000D02*
X63500000Y-67945000D01*
X63500000Y-76835000D02*
X73660000Y-76835000D01*
M02*
